<svg width="35" height="44" viewBox="0 0 35 44" fill="none" xmlns="http://www.w3.org/2000/svg">
<path d="M31.1145 0H3.61764C2.65857 0.00123832 1.73912 0.382779 1.06095 1.06095C0.382781 1.73912 0.00123832 2.65856 0 3.61764V39.7969C0.00123832 40.756 0.382781 41.6754 1.06095 42.3536C1.73912 43.0317 2.65857 43.4133 3.61764 43.4145H31.1145C32.0736 43.4133 32.993 43.0317 33.6712 42.3536C34.3494 41.6754 34.7309 40.756 34.7322 39.7969V3.61764C34.7309 2.65856 34.3494 1.73912 33.6712 1.06095C32.993 0.382779 32.0736 0.00123832 31.1145 0V0ZM10.1303 1.44706H24.6018V2.89411H10.1303V1.44706ZM30.3901 4.34117V11.5774H4.34117V4.34117H30.3901ZM33.2842 39.7969C33.2842 40.3725 33.0555 40.9246 32.6484 41.3317C32.2414 41.7388 31.6893 41.9675 31.1136 41.9675H3.61764C3.04197 41.9675 2.48987 41.7388 2.08281 41.3317C1.67574 40.9246 1.44706 40.3725 1.44706 39.7969V3.61764C1.44706 3.04197 1.67574 2.48987 2.08281 2.08281C2.48987 1.67574 3.04197 1.44706 3.61764 1.44706H8.68234V2.89411H3.61764C3.42575 2.89411 3.24172 2.97034 3.10603 3.10603C2.97034 3.24172 2.89411 3.42575 2.89411 3.61764V12.3009C2.89411 12.4928 2.97034 12.6768 3.10603 12.8125C3.24172 12.9482 3.42575 13.0244 3.61764 13.0244H31.1145C31.3064 13.0244 31.4905 12.9482 31.6261 12.8125C31.7618 12.6768 31.8381 12.4928 31.8381 12.3009V3.61764C31.8381 3.42575 31.7618 3.24172 31.6261 3.10603C31.4905 2.97034 31.3064 2.89411 31.1145 2.89411H26.0489V1.44706H31.1136C31.6893 1.44706 32.2414 1.67574 32.6484 2.08281C33.0555 2.48987 33.2842 3.04197 33.2842 3.61764V39.7969Z" fill="white"/>
<path d="M17.3656 14.4716C16.6501 14.4716 15.9507 14.6837 15.3558 15.0812C14.7609 15.4787 14.2972 16.0437 14.0234 16.7048C13.7496 17.3658 13.6779 18.0932 13.8175 18.795C13.9571 19.4967 14.3016 20.1413 14.8076 20.6473C15.3135 21.1532 15.9581 21.4977 16.6599 21.6373C17.3616 21.7769 18.089 21.7053 18.75 21.4315C19.4111 21.1577 19.9761 20.694 20.3736 20.0991C20.7711 19.5041 20.9833 18.8047 20.9833 18.0892C20.9833 17.6141 20.8897 17.1437 20.7079 16.7048C20.5261 16.2659 20.2596 15.8671 19.9237 15.5311C19.5878 15.1952 19.189 14.9287 18.75 14.7469C18.3111 14.5651 17.8407 14.4716 17.3656 14.4716ZM17.3656 20.2598C16.9363 20.2598 16.5167 20.1325 16.1597 19.894C15.8028 19.6555 15.5246 19.3165 15.3603 18.9198C15.196 18.5232 15.153 18.0868 15.2368 17.6657C15.3205 17.2447 15.5272 16.8579 15.8308 16.5544C16.1344 16.2508 16.5211 16.0441 16.9422 15.9603C17.3632 15.8766 17.7997 15.9195 18.1963 16.0838C18.5929 16.2481 18.9319 16.5263 19.1704 16.8833C19.4089 17.2402 19.5362 17.6599 19.5362 18.0892C19.5362 18.6649 19.3075 19.217 18.9005 19.624C18.4934 20.0311 17.9413 20.2598 17.3656 20.2598Z" fill="#1DB2E4"/>
<path d="M26.7725 14.4716C26.057 14.4716 25.3575 14.6837 24.7626 15.0812C24.1677 15.4787 23.704 16.0437 23.4302 16.7048C23.1564 17.3658 23.0848 18.0932 23.2244 18.795C23.3639 19.4967 23.7085 20.1413 24.2144 20.6473C24.7203 21.1532 25.3649 21.4977 26.0667 21.6373C26.7684 21.7769 27.4959 21.7053 28.1569 21.4315C28.8179 21.1577 29.3829 20.694 29.7804 20.0991C30.178 19.5041 30.3901 18.8047 30.3901 18.0892C30.3901 17.6141 30.2965 17.1437 30.1147 16.7048C29.9329 16.2659 29.6665 15.8671 29.3305 15.5311C28.9946 15.1952 28.5958 14.9287 28.1569 14.7469C27.718 14.5651 27.2475 14.4716 26.7725 14.4716ZM26.7725 20.2598C26.3432 20.2598 25.9235 20.1325 25.5666 19.894C25.2096 19.6555 24.9314 19.3165 24.7671 18.9198C24.6028 18.5232 24.5598 18.0868 24.6436 17.6657C24.7273 17.2447 24.9341 16.8579 25.2376 16.5544C25.5412 16.2508 25.928 16.0441 26.349 15.9603C26.7701 15.8766 27.2065 15.9195 27.6031 16.0838C27.9997 16.2481 28.3387 16.5263 28.5773 16.8833C28.8158 17.2402 28.9431 17.6599 28.9431 18.0892C28.9431 18.3743 28.8869 18.6565 28.7778 18.9198C28.6688 19.1832 28.5089 19.4225 28.3073 19.624C28.1058 19.8256 27.8665 19.9855 27.6031 20.0946C27.3398 20.2036 27.0575 20.2598 26.7725 20.2598Z" fill="#1DB2E4"/>
<path d="M7.95877 14.4716C7.24327 14.4716 6.54383 14.6837 5.94891 15.0812C5.354 15.4787 4.89031 16.0437 4.6165 16.7048C4.34269 17.3658 4.27105 18.0932 4.41064 18.795C4.55023 19.4967 4.89478 20.1413 5.40071 20.6473C5.90665 21.1532 6.55125 21.4977 7.253 21.6373C7.95476 21.7769 8.68214 21.7053 9.34318 21.4315C10.0042 21.1577 10.5692 20.694 10.9667 20.0991C11.3642 19.5041 11.5764 18.8047 11.5764 18.0892C11.5764 17.6141 11.4828 17.1437 11.301 16.7048C11.1192 16.2659 10.8528 15.8671 10.5168 15.5311C10.1809 15.1952 9.78209 14.9287 9.34318 14.7469C8.90427 14.5651 8.43384 14.4716 7.95877 14.4716ZM7.95877 20.2598C7.52947 20.2598 7.10981 20.1325 6.75285 19.894C6.3959 19.6555 6.1177 19.3165 5.95341 18.9198C5.78913 18.5232 5.74614 18.0868 5.82989 17.6657C5.91365 17.2447 6.12037 16.8579 6.42393 16.5544C6.7275 16.2508 7.11425 16.0441 7.53531 15.9603C7.95636 15.8766 8.39279 15.9195 8.78942 16.0838C9.18604 16.2481 9.52504 16.5263 9.76354 16.8833C10.002 17.2402 10.1294 17.6599 10.1294 18.0892C10.1294 18.6649 9.90067 19.217 9.49361 19.624C9.08654 20.0311 8.53444 20.2598 7.95877 20.2598Z" fill="#1DB2E4"/>
<path d="M17.3656 23.1548C16.6501 23.1548 15.9507 23.367 15.3558 23.7645C14.7609 24.162 14.2972 24.727 14.0234 25.388C13.7496 26.0491 13.6779 26.7764 13.8175 27.4782C13.9571 28.1799 14.3016 28.8245 14.8076 29.3305C15.3135 29.8364 15.9581 30.181 16.6599 30.3206C17.3616 30.4601 18.089 30.3885 18.75 30.1147C19.4111 29.8409 19.9761 29.3772 20.3736 28.7823C20.7711 28.1874 20.9833 27.4879 20.9833 26.7724C20.9833 26.2973 20.8897 25.8269 20.7079 25.388C20.5261 24.9491 20.2596 24.5503 19.9237 24.2144C19.5878 23.8784 19.189 23.612 18.75 23.4302C18.3111 23.2484 17.8407 23.1548 17.3656 23.1548ZM17.3656 28.943C16.9363 28.943 16.5167 28.8157 16.1597 28.5772C15.8028 28.3387 15.5246 27.9997 15.3603 27.6031C15.196 27.2064 15.153 26.77 15.2368 26.349C15.3205 25.9279 15.5272 25.5412 15.8308 25.2376C16.1344 24.934 16.5211 24.7273 16.9422 24.6435C17.3632 24.5598 17.7997 24.6028 18.1963 24.7671C18.5929 24.9314 18.9319 25.2096 19.1704 25.5665C19.4089 25.9235 19.5362 26.3431 19.5362 26.7724C19.5362 27.3481 19.3075 27.9002 18.9005 28.3073C18.4934 28.7143 17.9413 28.943 17.3656 28.943Z" fill="#1DB2E4"/>
<path d="M26.7725 23.1548C26.057 23.1548 25.3575 23.367 24.7626 23.7645C24.1677 24.162 23.704 24.727 23.4302 25.388C23.1564 26.0491 23.0848 26.7764 23.2244 27.4782C23.3639 28.1799 23.7085 28.8245 24.2144 29.3305C24.7203 29.8364 25.3649 30.181 26.0667 30.3206C26.7684 30.4601 27.4959 30.3885 28.1569 30.1147C28.8179 29.8409 29.3829 29.3772 29.7804 28.7823C30.178 28.1874 30.3901 27.4879 30.3901 26.7724C30.3901 25.813 30.009 24.8928 29.3305 24.2144C28.6521 23.5359 27.7319 23.1548 26.7725 23.1548ZM26.7725 28.943C26.3432 28.943 25.9235 28.8157 25.5666 28.5772C25.2096 28.3387 24.9314 27.9997 24.7671 27.6031C24.6028 27.2064 24.5598 26.77 24.6436 26.349C24.7273 25.9279 24.9341 25.5412 25.2376 25.2376C25.5412 24.934 25.928 24.7273 26.349 24.6435C26.7701 24.5598 27.2065 24.6028 27.6031 24.7671C27.9997 24.9314 28.3387 25.2096 28.5773 25.5665C28.8158 25.9235 28.9431 26.3431 28.9431 26.7724C28.9431 27.0575 28.8869 27.3397 28.7778 27.6031C28.6688 27.8664 28.5089 28.1057 28.3073 28.3073C28.1058 28.5088 27.8665 28.6687 27.6031 28.7778C27.3398 28.8869 27.0575 28.943 26.7725 28.943Z" fill="#1DB2E4"/>
<path d="M7.95877 23.1548C7.24327 23.1548 6.54383 23.367 5.94891 23.7645C5.354 24.162 4.89031 24.727 4.6165 25.388C4.34269 26.0491 4.27105 26.7764 4.41064 27.4782C4.55023 28.1799 4.89478 28.8245 5.40071 29.3305C5.90665 29.8364 6.55125 30.181 7.253 30.3206C7.95476 30.4601 8.68214 30.3885 9.34318 30.1147C10.0042 29.8409 10.5692 29.3772 10.9667 28.7823C11.3642 28.1874 11.5764 27.4879 11.5764 26.7724C11.5764 25.813 11.1953 24.8928 10.5168 24.2144C9.83839 23.5359 8.91823 23.1548 7.95877 23.1548ZM7.95877 28.943C7.52947 28.943 7.10981 28.8157 6.75285 28.5772C6.3959 28.3387 6.1177 27.9997 5.95341 27.6031C5.78913 27.2064 5.74614 26.77 5.82989 26.349C5.91365 25.9279 6.12037 25.5412 6.42393 25.2376C6.7275 24.934 7.11425 24.7273 7.53531 24.6435C7.95636 24.5598 8.39279 24.6028 8.78942 24.7671C9.18604 24.9314 9.52504 25.2096 9.76354 25.5665C10.002 25.9235 10.1294 26.3431 10.1294 26.7724C10.1294 27.3481 9.90067 27.9002 9.49361 28.3073C9.08654 28.7143 8.53444 28.943 7.95877 28.943Z" fill="#1DB2E4"/>
<path d="M17.3656 31.8381C16.6501 31.8381 15.9507 32.0503 15.3558 32.4478C14.7609 32.8453 14.2972 33.4103 14.0234 34.0714C13.7496 34.7324 13.6779 35.4598 13.8175 36.1615C13.9571 36.8633 14.3016 37.5079 14.8076 38.0138C15.3135 38.5198 15.9581 38.8643 16.6599 39.0039C17.3616 39.1435 18.089 39.0718 18.75 38.798C19.4111 38.5242 19.9761 38.0605 20.3736 37.4656C20.7711 36.8707 20.9833 36.1713 20.9833 35.4558C20.9833 34.9807 20.8897 34.5103 20.7079 34.0714C20.5261 33.6324 20.2596 33.2336 19.9237 32.8977C19.5878 32.5618 19.189 32.2953 18.75 32.1135C18.3111 31.9317 17.8407 31.8381 17.3656 31.8381ZM17.3656 37.6264C16.9363 37.6264 16.5167 37.4991 16.1597 37.2606C15.8028 37.022 15.5246 36.683 15.3603 36.2864C15.196 35.8898 15.153 35.4534 15.2368 35.0323C15.3205 34.6113 15.5272 34.2245 15.8308 33.9209C16.1344 33.6174 16.5211 33.4106 16.9422 33.3269C17.3632 33.2431 17.7997 33.2861 18.1963 33.4504C18.5929 33.6147 18.9319 33.8929 19.1704 34.2499C19.4089 34.6068 19.5362 35.0265 19.5362 35.4558C19.5362 36.0314 19.3075 36.5836 18.9005 36.9906C18.4934 37.3977 17.9413 37.6264 17.3656 37.6264Z" fill="#1DB2E4"/>
<path d="M7.95877 31.8381C7.24327 31.8381 6.54383 32.0503 5.94891 32.4478C5.354 32.8453 4.89031 33.4103 4.6165 34.0714C4.34269 34.7324 4.27105 35.4598 4.41064 36.1615C4.55023 36.8633 4.89478 37.5079 5.40071 38.0138C5.90665 38.5198 6.55125 38.8643 7.253 39.0039C7.95476 39.1435 8.68214 39.0718 9.34318 38.798C10.0042 38.5242 10.5692 38.0605 10.9667 37.4656C11.3642 36.8707 11.5764 36.1713 11.5764 35.4558C11.5764 34.4963 11.1953 33.5761 10.5168 32.8977C9.83839 32.2193 8.91823 31.8381 7.95877 31.8381ZM7.95877 37.6264C7.52947 37.6264 7.10981 37.4991 6.75285 37.2606C6.3959 37.022 6.1177 36.683 5.95341 36.2864C5.78913 35.8898 5.74614 35.4534 5.82989 35.0323C5.91365 34.6113 6.12037 34.2245 6.42393 33.9209C6.7275 33.6174 7.11425 33.4106 7.53531 33.3269C7.95636 33.2431 8.39279 33.2861 8.78942 33.4504C9.18604 33.6147 9.52504 33.8929 9.76354 34.2499C10.002 34.6068 10.1294 35.0265 10.1294 35.4558C10.1294 36.0314 9.90067 36.5836 9.49361 36.9906C9.08654 37.3977 8.53444 37.6264 7.95877 37.6264Z" fill="#1DB2E4"/>
<path d="M29.6675 31.8381H23.8793C23.6874 31.8381 23.5034 31.9144 23.3677 32.0501C23.232 32.1857 23.1558 32.3698 23.1558 32.5617V39.7941C23.1558 39.986 23.232 40.1701 23.3677 40.3058C23.5034 40.4414 23.6874 40.5177 23.8793 40.5177H29.6675C29.8594 40.5177 30.0434 40.4414 30.1791 40.3058C30.3148 40.1701 30.391 39.986 30.391 39.7941V32.5579C30.39 32.3667 30.3134 32.1836 30.1778 32.0487C30.0422 31.9138 29.8588 31.8381 29.6675 31.8381ZM28.944 39.0743H24.6028V33.2861H28.944V39.0743Z" fill="#1DB2E4"/>
<path d="M26.2081 7.95605H24.3361V9.82806H26.2081V7.95605Z" fill="#1DB2E4"/>
<path d="M29.016 7.95605H27.144V9.82806H29.016V7.95605Z" fill="#1DB2E4"/>
<path d="M8.68232 7.23526V5.78821H7.23526V7.23526H5.78821V8.68232H7.23526V10.1294H8.68232V8.68232H10.1294V7.23526H8.68232Z" fill="#1DB2E4"/>
<path d="M27.4959 36.9027H26.7724C26.5805 36.9027 26.3964 36.9789 26.2607 37.1146C26.1251 37.2503 26.0488 37.4344 26.0488 37.6262C26.0488 37.8181 26.1251 38.0021 26.2607 38.1378C26.3964 38.2735 26.5805 38.3498 26.7724 38.3498H27.4959C27.6878 38.3498 27.8718 38.2735 28.0075 38.1378C28.1432 38.0021 28.2194 37.8181 28.2194 37.6262C28.2194 37.4344 28.1432 37.2503 28.0075 37.1146C27.8718 36.9789 27.6878 36.9027 27.4959 36.9027Z" fill="#1DB2E4"/>
</svg>
