<svg width="44" height="44" viewBox="0 0 44 44" fill="none" xmlns="http://www.w3.org/2000/svg">
<g clip-path="url(#clip0)">
<path d="M29.734 27.4137C29.506 27.4137 29.2874 27.5043 29.1262 27.6654C28.9651 27.8266 28.8745 28.0452 28.8745 28.2732V34.2029C28.8733 35.3422 28.4201 36.4344 27.6145 37.24C26.8089 38.0456 25.7167 38.4988 24.5774 38.5H15.2991C15.0713 38.5 14.8528 38.5905 14.6917 38.7514C14.5305 38.9124 14.4399 39.1307 14.4396 39.3585V41.066L12.3888 39.0151C12.3219 38.8617 12.2117 38.7311 12.0716 38.6395C11.9316 38.5478 11.7678 38.499 11.6005 38.4991H6.01604C4.87674 38.4978 3.78447 38.0447 2.97887 37.2391C2.17326 36.4335 1.72012 35.3412 1.71887 34.2019V20.968C1.72012 19.8287 2.17326 18.7364 2.97887 17.9308C3.78447 17.1252 4.87674 16.672 6.01604 16.6708H14.6958C14.9237 16.6708 15.1423 16.5802 15.3035 16.4191C15.4646 16.2579 15.5552 16.0393 15.5552 15.8113C15.5552 15.5834 15.4646 15.3648 15.3035 15.2036C15.1423 15.0425 14.9237 14.9519 14.6958 14.9519H6.01604C4.42103 14.9537 2.89184 15.5881 1.764 16.7159C0.636153 17.8438 0.00175759 19.3729 0 20.968L0 34.2019C0.00175759 35.7969 0.636153 37.3261 1.764 38.454C2.89184 39.5818 4.42103 40.2162 6.01604 40.218H11.1603L14.6901 43.7477C14.8102 43.868 14.9633 43.9499 15.13 43.9832C15.2967 44.0164 15.4696 43.9995 15.6267 43.9345C15.7838 43.8695 15.918 43.7594 16.0125 43.6181C16.107 43.4768 16.1575 43.3106 16.1576 43.1406V40.218H24.5783C26.1732 40.216 27.7021 39.5814 28.8297 38.4536C29.9574 37.3258 30.5916 35.7968 30.5934 34.2019V28.2722C30.5931 28.0444 30.5025 27.8261 30.3413 27.6651C30.1802 27.5041 29.9617 27.4137 29.734 27.4137Z" fill="white"/>
<path d="M31.5088 0H29.3337C26.0209 0 22.8438 1.31598 20.5014 3.65845C18.1589 6.00092 16.8429 9.17798 16.8429 12.4907C16.8429 15.8035 18.1589 18.9805 20.5014 21.323C22.8438 23.6655 26.0209 24.9815 29.3337 24.9815H31.5088C32.5786 24.9822 33.644 24.8457 34.679 24.5755L37.892 27.7865C38.0122 27.9065 38.1653 27.9882 38.332 28.0212C38.4986 28.0542 38.6713 28.0371 38.8282 27.9721C38.9852 27.907 39.1193 27.7969 39.2137 27.6556C39.308 27.5144 39.3584 27.3483 39.3585 27.1784V22.2058C40.7228 21.1 41.8411 19.7213 42.6416 18.1582C43.5396 16.4041 44.005 14.4608 43.9991 12.4903C43.9953 9.17879 42.6782 6.00403 40.3366 3.66247C37.995 1.32091 34.8203 0.00376603 31.5088 0V0ZM37.9821 21.1007C37.8757 21.1808 37.7894 21.2846 37.7299 21.4038C37.6705 21.523 37.6396 21.6543 37.6396 21.7875V25.1076L35.5366 23.0055C35.4262 22.8952 35.2879 22.817 35.1365 22.7794C34.9851 22.7418 34.8263 22.7462 34.6771 22.7921C33.6506 23.1072 32.5827 23.267 31.5088 23.2664H29.3337C27.9191 23.2664 26.5184 22.9878 25.2115 22.4464C23.9045 21.9051 22.7171 21.1116 21.7168 20.1114C20.7165 19.1111 19.9231 17.9236 19.3818 16.6167C18.8404 15.3098 18.5618 13.9091 18.5618 12.4945C18.5618 11.0799 18.8404 9.67921 19.3818 8.37231C19.9231 7.06541 20.7165 5.87793 21.7168 4.87767C22.7171 3.87741 23.9045 3.08396 25.2115 2.54262C26.5184 2.00129 27.9191 1.72266 29.3337 1.72266H31.5088C33.7684 1.72293 35.9708 2.43374 37.8042 3.75454C39.6376 5.07534 41.0093 6.93923 41.7251 9.08249C42.4409 11.2257 42.4646 13.5398 41.7929 15.6973C41.1212 17.8548 39.788 19.7464 37.9821 21.1045V21.1007Z" fill="white"/>
<path d="M34.292 9.40345C34.224 8.46411 33.7946 7.58771 33.0938 6.95847C32.3931 6.32924 31.4757 5.99619 30.5345 6.02936C29.5933 6.06253 28.7016 6.45932 28.0469 7.13632C27.3922 7.81332 27.0255 8.71778 27.0238 9.65957C27.0238 9.88751 27.1143 10.1061 27.2755 10.2673C27.4367 10.4285 27.6553 10.519 27.8832 10.519C28.1112 10.519 28.3298 10.4285 28.4909 10.2673C28.6521 10.1061 28.7427 9.88751 28.7427 9.65957C28.7426 9.39583 28.797 9.13492 28.9022 8.8931C29.0075 8.65127 29.1614 8.43373 29.3545 8.25403C29.5475 8.07433 29.7755 7.93633 30.0243 7.84864C30.273 7.76095 30.5371 7.72544 30.8002 7.74434C31.2594 7.77753 31.6914 7.97466 32.0175 8.29977C32.3435 8.62488 32.5419 9.05633 32.5763 9.51547C32.6108 9.97461 32.4792 10.4309 32.2054 10.801C31.9316 11.1712 31.5339 11.4307 31.0848 11.5321C30.721 11.6109 30.3953 11.8122 30.1621 12.1022C29.9288 12.3923 29.8021 12.7536 29.8032 13.1258V15.1909C29.8032 15.4188 29.8937 15.6374 30.0549 15.7986C30.2161 15.9598 30.4347 16.0503 30.6626 16.0503C30.8906 16.0503 31.1092 15.9598 31.2703 15.7986C31.4315 15.6374 31.5221 15.4188 31.5221 15.1909V13.1988C32.3598 12.9991 33.0988 12.5072 33.6065 11.8116C34.1142 11.116 34.3572 10.2622 34.292 9.40345Z" fill="#1DB2E4"/>
<path d="M31.2697 17.9874C31.1291 17.8464 30.9439 17.7586 30.7457 17.739C30.5476 17.7193 30.3488 17.7689 30.1831 17.8795C30.0175 17.99 29.8954 18.1545 29.8375 18.3451C29.7796 18.5356 29.7896 18.7403 29.8658 18.9243C29.942 19.1082 30.0796 19.2601 30.2552 19.354C30.4308 19.4478 30.6336 19.4778 30.8289 19.4389C31.0241 19.4 31.1999 19.2946 31.3261 19.1406C31.4523 18.9866 31.5213 18.7936 31.5211 18.5945C31.5203 18.3669 31.43 18.1489 31.2697 17.9874Z" fill="#1DB2E4"/>
<path d="M23.6325 26.6406H5.5C5.27206 26.6406 5.05346 26.7312 4.89229 26.8923C4.73111 27.0535 4.64056 27.2721 4.64056 27.5001C4.64056 27.728 4.73111 27.9466 4.89229 28.1078C5.05346 28.2689 5.27206 28.3595 5.5 28.3595H23.6325C23.8605 28.3595 24.0791 28.2689 24.2403 28.1078C24.4014 27.9466 24.492 27.728 24.492 27.5001C24.492 27.2721 24.4014 27.0535 24.2403 26.8923C24.0791 26.7312 23.8605 26.6406 23.6325 26.6406Z" fill="#1DB2E4"/>
<path d="M24.2396 31.7042C24.099 31.564 23.9141 31.4768 23.7165 31.4576C23.5188 31.4384 23.3206 31.4884 23.1556 31.5989C22.9906 31.7095 22.8691 31.8738 22.8117 32.0639C22.7543 32.2541 22.7645 32.4582 22.8408 32.6416C22.917 32.825 23.0544 32.9763 23.2297 33.0697C23.4049 33.1631 23.6071 33.1929 23.8019 33.1539C23.9966 33.1149 24.1718 33.0097 24.2977 32.856C24.4235 32.7024 24.4922 32.5099 24.492 32.3113C24.4911 32.0836 24.4004 31.8655 24.2396 31.7042Z" fill="#1DB2E4"/>
<path d="M20.2527 31.4529H5.5C5.27206 31.4529 5.05346 31.5434 4.89229 31.7046C4.73111 31.8658 4.64056 32.0844 4.64056 32.3123C4.64056 32.5403 4.73111 32.7588 4.89229 32.92C5.05346 33.0812 5.27206 33.1718 5.5 33.1718H20.2527C20.4806 33.1718 20.6992 33.0812 20.8604 32.92C21.0216 32.7588 21.1121 32.5403 21.1121 32.3123C21.1121 32.0844 21.0216 31.8658 20.8604 31.7046C20.6992 31.5434 20.4806 31.4529 20.2527 31.4529Z" fill="#1DB2E4"/>
<path d="M18.0462 21.8282H5.5C5.27206 21.8282 5.05346 21.9188 4.89229 22.08C4.73111 22.2411 4.64056 22.4598 4.64056 22.6877C4.64056 22.9156 4.73111 23.1342 4.89229 23.2954C5.05346 23.4566 5.27206 23.5471 5.5 23.5471H18.0462C18.2742 23.5471 18.4928 23.4566 18.6539 23.2954C18.8151 23.1342 18.9057 22.9156 18.9057 22.6877C18.9057 22.4598 18.8151 22.2411 18.6539 22.08C18.4928 21.9188 18.2742 21.8282 18.0462 21.8282Z" fill="#1DB2E4"/>
</g>
<defs>
<clipPath id="clip0">
<rect width="44" height="44" fill="white"/>
</clipPath>
</defs>
</svg>
