<svg width="54" height="44" viewBox="0 0 54 44" fill="none" xmlns="http://www.w3.org/2000/svg">
<g clip-path="url(#clip0)">
<path d="M16.2025 0C14.0661 0 11.9777 0.645361 10.2014 1.85447C8.42509 3.06359 7.04062 4.78214 6.22307 6.79282C5.40551 8.8035 5.1916 11.016 5.60839 13.1505C6.02517 15.2851 7.05393 17.2457 8.56457 18.7847C10.0752 20.3236 11.9999 21.3716 14.0952 21.7962C16.1905 22.2207 18.3624 22.0028 20.3361 21.17C22.3099 20.3371 23.9969 18.9267 25.1838 17.1172C26.3707 15.3076 27.0042 13.1801 27.0042 11.0038C27.0042 8.08541 25.8662 5.28655 23.8404 3.22294C21.8147 1.15932 19.0673 0 16.2025 0ZM16.2025 20.1664C14.4229 20.1664 12.6832 19.6288 11.2035 18.6215C9.72379 17.6143 8.5705 16.1827 7.88946 14.5078C7.20843 12.8329 7.03024 10.9898 7.37742 9.21173C7.72461 7.43364 8.58159 5.80035 9.83998 4.51841C11.0984 3.23647 12.7017 2.36346 14.4471 2.00978C16.1925 1.65609 18.0017 1.83762 19.6459 2.5314C21.2901 3.22518 22.6954 4.40005 23.6841 5.90745C24.6728 7.41485 25.2005 9.18707 25.2005 11C25.2005 12.2037 24.9678 13.3957 24.5156 14.5078C24.0634 15.6199 23.4006 16.6304 22.565 17.4816C21.7295 18.3328 20.7376 19.008 19.6459 19.4686C18.5542 19.9293 17.3841 20.1664 16.2025 20.1664Z" fill="white"/>
<path d="M19.2391 10.0864H14.0561V8.67207C14.0561 8.09342 14.2818 7.53847 14.6834 7.12931C15.0851 6.72014 15.6298 6.49028 16.1979 6.49028C16.7659 6.49028 17.3106 6.72014 17.7123 7.12931C18.1139 7.53847 18.3396 8.09342 18.3396 8.67207H20.1395C20.1387 7.76725 19.8379 6.88925 19.2859 6.18039C18.7339 5.47153 17.963 4.97337 17.0983 4.76667V2.46631H15.2983V4.76667C14.4336 4.97337 13.6628 5.47153 13.1108 6.18039C12.5588 6.88925 12.258 7.76725 12.2571 8.67207V10.9999C12.2571 11.243 12.3519 11.476 12.5206 11.6479C12.6893 11.8197 12.9181 11.9163 13.1566 11.9163H18.3396V13.3278C18.3396 13.9065 18.1139 14.4614 17.7123 14.8706C17.3106 15.2797 16.7659 15.5096 16.1979 15.5096C15.6298 15.5096 15.0851 15.2797 14.6834 14.8706C14.2818 14.4614 14.0561 13.9065 14.0561 13.3278H12.2562C12.257 14.2326 12.5578 15.1106 13.1099 15.8195C13.6619 16.5284 14.4327 17.0265 15.2974 17.2332V19.5345H17.0974V17.2332C17.9621 17.0265 18.7329 16.5284 19.2849 15.8195C19.8369 15.1106 20.1378 14.2326 20.1386 13.3278V10.9999C20.1379 10.7574 20.0428 10.5251 19.8742 10.3538C19.7055 10.1826 19.4772 10.0864 19.2391 10.0864Z" fill="#1DB2E4"/>
<path d="M37.7975 22C35.6611 22 33.5727 22.6454 31.7964 23.8545C30.0201 25.0636 28.6356 26.7821 27.818 28.7928C27.0005 30.8035 26.7866 33.016 27.2034 35.1505C27.6201 37.285 28.6489 39.2457 30.1595 40.7847C31.6702 42.3236 33.5949 43.3716 35.6902 43.7961C37.7855 44.2207 39.9573 44.0028 41.9311 43.17C43.9048 42.3371 45.5918 40.9267 46.7787 39.1172C47.9657 37.3076 48.5992 35.1801 48.5992 33.0038C48.5992 30.0854 47.4611 27.2865 45.4354 25.2229C43.4097 23.1593 40.6623 22 37.7975 22ZM37.7975 42.1663C36.0178 42.1663 34.2782 41.6287 32.7985 40.6215C31.3188 39.6143 30.1655 38.1827 29.4844 36.5078C28.8034 34.8329 28.6252 32.9898 28.9724 31.2117C29.3196 29.4336 30.1766 27.8003 31.435 26.5184C32.6933 25.2365 34.2966 24.3635 36.0421 24.0098C37.7875 23.6561 39.5967 23.8376 41.2409 24.5314C42.885 25.2252 44.2903 26.4 45.279 27.9074C46.2677 29.4148 46.7955 31.1871 46.7955 33C46.7955 34.2037 46.5627 35.3957 46.1105 36.5078C45.6584 37.6199 44.9955 38.6304 44.16 39.4816C43.3245 40.3327 42.3325 41.008 41.2409 41.4686C40.1492 41.9293 38.9791 42.1663 37.7975 42.1663Z" fill="white"/>
<path d="M53.7383 24.1039L53.7327 24.0983L40.8657 10.999H44.9955V9.16534H38.697C38.5797 9.15909 38.4626 9.1812 38.3553 9.22985C38.1891 9.29913 38.0472 9.41744 37.9476 9.56959C37.848 9.72173 37.7954 9.90074 37.7965 10.0836V16.4999H39.5965V12.2929L51.8247 24.7499L48.8552 27.7655L50.1328 29.067L53.7318 25.4007C53.9014 25.2296 53.9973 24.9968 53.9986 24.7537C53.9998 24.5105 53.9062 24.2768 53.7383 24.1039Z" fill="white"/>
<path d="M14.4015 27.4991V31.7062L2.17331 19.2491L5.14284 16.2335L3.86526 14.932L0.265323 18.5984C0.181087 18.6832 0.114127 18.7841 0.0682855 18.8954C0.0224437 19.0066 -0.0013772 19.126 -0.0018098 19.2467C-0.00224239 19.3674 0.0207218 19.4869 0.0657647 19.5985C0.110808 19.7101 0.177042 19.8116 0.260667 19.897L0.266254 19.9027L13.1296 32.9991H9.00257V34.8328H15.3011C15.419 34.8359 15.5361 34.8109 15.6428 34.7597C15.8073 34.6911 15.9482 34.5744 16.0476 34.4243C16.147 34.2742 16.2006 34.0975 16.2015 33.9164V27.5001L14.4015 27.4991Z" fill="white"/>
<path d="M26.7377 17.6812L25.465 18.9778L29.9634 23.5604L31.2362 22.2639L26.7377 17.6812Z" fill="white"/>
<path d="M24.0382 20.434L22.7655 21.7306L27.2639 26.3132L28.5367 25.0167L24.0382 20.434Z" fill="white"/>
<path d="M41.3974 28.4164V26.5828H36.898C36.6594 26.5828 36.4306 26.6793 36.2619 26.8512C36.0932 27.023 35.9985 27.2561 35.9985 27.4991V30.2501H34.1985V32.0837H35.9985V33.9174H34.1985V35.751H35.9985V38.502C35.9985 38.745 36.0932 38.9781 36.2619 39.1499C36.4306 39.3218 36.6594 39.4183 36.898 39.4183H41.3974V37.5847H37.7984V35.751H39.5984V33.9174H37.7984V32.0837H39.5984V30.2501H37.7984V28.4164H41.3974Z" fill="#1DB2E4"/>
</g>
<defs>
<clipPath id="clip0">
<rect width="54" height="44" fill="white"/>
</clipPath>
</defs>
</svg>
