<svg width="166" height="50" viewBox="0 0 166 50" fill="none" xmlns="http://www.w3.org/2000/svg">
<path d="M160.133 0.574951H5.0668C2.66116 0.574951 0.710999 2.52511 0.710999 4.93075V45.0041C0.710999 47.4097 2.66116 49.3599 5.0668 49.3599H160.133C162.539 49.3599 164.489 47.4097 164.489 45.0041V4.93075C164.489 2.52511 162.539 0.574951 160.133 0.574951Z" fill="black"/>
<path d="M159.268 0.99922C160.645 1.01325 161.96 1.57294 162.925 2.55549C163.89 3.53803 164.425 4.86317 164.414 6.24012V43.6721C164.425 45.0491 163.89 46.3742 162.925 47.3567C161.96 48.3393 160.645 48.899 159.268 48.913H6.12612C4.74919 48.899 3.43407 48.3393 2.46933 47.3567C1.50459 46.3742 0.96903 45.0491 0.980176 43.6721V6.23925C0.96903 4.86229 1.50459 3.53716 2.46933 2.55462C3.43407 1.57207 4.74919 1.01238 6.12612 0.998349H159.268V0.99922ZM159.268 0H6.12612C4.48789 0.0197625 2.92406 0.68705 1.77623 1.8561C0.628407 3.02514 -0.0101252 4.60093 0.000121443 6.23925V43.6721C-0.00989412 45.3103 0.62874 46.8858 1.77654 48.0547C2.92434 49.2235 4.48804 49.8907 6.12612 49.9105H159.268C160.906 49.8907 162.47 49.2235 163.618 48.0547C164.766 46.8858 165.404 45.3103 165.394 43.6721V6.23925C165.404 4.60108 164.766 3.02552 163.618 1.85666C162.47 0.6878 160.906 0.0206328 159.268 0.000870681V0Z" fill="#A6A6A6"/>
<path d="M58.2807 13.0108C58.3024 13.4563 58.2333 13.9016 58.0776 14.3196C57.9218 14.7375 57.6827 15.1195 57.3747 15.4422C57.0298 15.8004 56.6131 16.0816 56.1519 16.2675C55.6907 16.4534 55.1954 16.5396 54.6985 16.5207C54.194 16.5283 53.693 16.4355 53.2247 16.2477C52.7564 16.06 52.3301 15.7809 51.9707 15.4268C51.6112 15.0728 51.3257 14.6508 51.1309 14.1854C50.936 13.7199 50.8357 13.2204 50.8357 12.7159C50.8357 12.2113 50.936 11.7118 51.1309 11.2464C51.3257 10.781 51.6112 10.359 51.9707 10.0049C52.3301 9.65083 52.7564 9.37178 53.2247 9.184C53.693 8.99622 54.194 8.90345 54.6985 8.91108C55.2127 8.90969 55.7217 9.01345 56.1943 9.21599C56.6325 9.39389 57.0226 9.67266 57.3329 10.0296L56.6934 10.6708C56.4492 10.3837 56.1424 10.1565 55.7965 10.0067C55.4506 9.85685 55.075 9.78841 54.6985 9.80663C54.1287 9.83016 53.5779 10.0183 53.1128 10.3483C52.6477 10.6783 52.2882 11.136 52.0778 11.6661C51.8674 12.1961 51.8151 12.7758 51.9272 13.3349C52.0393 13.8941 52.3111 14.4087 52.7096 14.8167C53.2502 15.3366 53.9711 15.627 54.7211 15.627C55.4712 15.627 56.1921 15.3366 56.7327 14.8167C57.106 14.4133 57.3224 13.8894 57.3425 13.3401H54.6994V12.4689H58.2302C58.2627 12.6477 58.2796 12.829 58.2807 13.0108Z" fill="white" stroke="white" stroke-width="0.2" stroke-miterlimit="10"/>
<path d="M63.8762 9.96866H60.5579V12.279H63.5495V13.1501H60.5579V15.4604H63.8762V16.3551H59.6232V9.07397H63.8762V9.96866Z" fill="white" stroke="white" stroke-width="0.2" stroke-miterlimit="10"/>
<path d="M67.8234 16.3586H66.886V9.96866H64.8527V9.07397H69.8584V9.96866H67.8234V16.3586Z" fill="white" stroke="white" stroke-width="0.2" stroke-miterlimit="10"/>
<path d="M73.4799 16.3586V9.07397H74.4155V16.3586H73.4799Z" fill="white" stroke="white" stroke-width="0.2" stroke-miterlimit="10"/>
<path d="M78.5657 16.3586H77.6309V9.96866H75.5959V9.07397H80.6016V9.96866H78.5657V16.3586Z" fill="white" stroke="white" stroke-width="0.2" stroke-miterlimit="10"/>
<path d="M90.0781 15.4161C89.3695 16.1238 88.409 16.5213 87.4075 16.5213C86.4061 16.5213 85.4456 16.1238 84.737 15.4161C84.0479 14.6858 83.664 13.7196 83.664 12.7155C83.664 11.7114 84.0479 10.7452 84.737 10.0149C85.0877 9.66466 85.5039 9.38694 85.9619 9.19763C86.42 9.00833 86.9108 8.91114 87.4064 8.91162C87.9021 8.91211 88.3927 9.01026 88.8504 9.20046C89.3081 9.39067 89.7237 9.6692 90.0737 10.0201C90.7649 10.7485 91.1502 11.7144 91.1502 12.7186C91.1502 13.7227 90.7649 14.6886 90.0737 15.417L90.0781 15.4161ZM85.4278 14.8063C85.9531 15.3303 86.6647 15.6246 87.4067 15.6246C88.1486 15.6246 88.8603 15.3303 89.3855 14.8063C89.9065 14.2346 90.1953 13.489 90.1953 12.7155C90.1953 11.942 89.9065 11.1964 89.3855 10.6247C88.8606 10.1 88.1488 9.80528 87.4067 9.80528C86.6645 9.80528 85.9527 10.1 85.4278 10.6247C84.9076 11.1968 84.6193 11.9422 84.6193 12.7155C84.6193 13.4888 84.9076 14.2342 85.4278 14.8063Z" fill="white" stroke="white" stroke-width="0.2" stroke-miterlimit="10"/>
<path d="M92.4642 16.3586V9.07397H93.6045L97.1449 14.7365H97.1815L97.1414 13.3331V9.07397H98.0771V16.3586H97.1014L93.3972 10.4173H93.3571L93.3972 11.8216V16.3586H92.4642Z" fill="white" stroke="white" stroke-width="0.2" stroke-miterlimit="10"/>
<path d="M83.4328 26.9824C82.4122 26.986 81.4156 27.292 80.5687 27.8616C79.7219 28.4313 79.0628 29.2391 78.6747 30.183C78.2867 31.127 78.187 32.1647 78.3883 33.1653C78.5897 34.1659 79.0829 35.0843 79.8059 35.8047C80.5289 36.5251 81.4491 37.0152 82.4503 37.2129C83.4516 37.4107 84.489 37.3074 85.4316 36.916C86.3742 36.5246 87.1796 35.8627 87.7463 35.0138C88.3129 34.165 88.6153 33.1672 88.6153 32.1466C88.6254 31.4641 88.4981 30.7866 88.2409 30.1543C87.9838 29.522 87.6022 28.9479 87.1186 28.4661C86.6351 27.9843 86.0597 27.6046 85.4265 27.3498C84.7933 27.0949 84.1153 26.9699 83.4328 26.9824ZM83.4328 35.2758C82.8046 35.3205 82.1776 35.1749 81.6333 34.8582C81.089 34.5414 80.6527 34.0682 80.3811 33.5C80.1095 32.9318 80.0153 32.295 80.1107 31.6726C80.206 31.0501 80.4866 30.4707 80.9158 30.0099C81.3451 29.5491 81.9031 29.2282 82.5173 29.089C83.1314 28.9498 83.7733 28.9986 84.3593 29.2293C84.9453 29.4599 85.4482 29.8616 85.8027 30.3821C86.1572 30.9026 86.3468 31.5178 86.3468 32.1475C86.3657 32.5454 86.3047 32.9429 86.1676 33.3169C86.0305 33.6908 85.82 34.0336 85.5485 34.325C85.277 34.6164 84.9499 34.8505 84.5866 35.0137C84.2233 35.1768 83.831 35.2657 83.4328 35.275V35.2758ZM72.126 26.9824C71.1054 26.986 70.1088 27.292 69.2619 27.8616C68.4151 28.4313 67.756 29.2391 67.368 30.183C66.9799 31.127 66.8802 32.1647 67.0816 33.1653C67.2829 34.1659 67.7762 35.0843 68.4991 35.8047C69.2221 36.5251 70.1423 37.0152 71.1435 37.2129C72.1448 37.4107 73.1822 37.3074 74.1248 36.916C75.0674 36.5246 75.8728 35.8627 76.4395 35.0138C77.0061 34.165 77.3086 33.1672 77.3086 32.1466C77.3186 31.4641 77.1913 30.7866 76.9342 30.1543C76.677 29.522 76.2954 28.9479 75.8119 28.4661C75.3284 27.9843 74.7529 27.6046 74.1197 27.3498C73.4865 27.0949 72.8085 26.9699 72.126 26.9824ZM72.126 35.2758C71.4979 35.3205 70.8708 35.1749 70.3265 34.8582C69.7822 34.5414 69.3459 34.0682 69.0743 33.5C68.8027 32.9318 68.7085 32.295 68.8039 31.6726C68.8993 31.0501 69.1798 30.4707 69.6091 30.0099C70.0383 29.5491 70.5963 29.2282 71.2105 29.089C71.8246 28.9498 72.4665 28.9986 73.0525 29.2293C73.6385 29.4599 74.1415 29.8616 74.496 30.3821C74.8505 30.9026 75.0401 31.5178 75.0401 32.1475C75.0589 32.5454 74.9979 32.9429 74.8608 33.3169C74.7237 33.6908 74.5132 34.0336 74.2417 34.325C73.9702 34.6164 73.6432 34.8505 73.2798 35.0137C72.9165 35.1768 72.5242 35.2657 72.126 35.275V35.2758ZM58.6753 28.5679V30.7589H63.9162C63.8406 31.7861 63.4204 32.7576 62.7236 33.5161C62.1983 34.0517 61.5666 34.4711 60.8691 34.7474C60.1716 35.0237 59.424 35.1506 58.6745 35.1199C57.1462 35.0935 55.6895 34.4678 54.6181 33.3777C53.5467 32.2876 52.9463 30.8203 52.9463 29.2919C52.9463 27.7634 53.5467 26.2961 54.6181 25.206C55.6895 24.1159 57.1462 23.4902 58.6745 23.4638C60.1459 23.4447 61.5654 24.0065 62.6252 25.0275L64.1706 23.4821C63.4477 22.7663 62.5893 22.2021 61.6455 21.8224C60.7017 21.4427 59.6916 21.2553 58.6745 21.2711C57.6091 21.2518 56.5507 21.4451 55.5609 21.8394C54.5711 22.2338 53.6697 22.8215 52.9096 23.568C52.1494 24.3146 51.5456 25.2052 51.1334 26.1877C50.7212 27.1702 50.5089 28.2251 50.5089 29.2905C50.5089 30.356 50.7212 31.4108 51.1334 32.3934C51.5456 33.3759 52.1494 34.2665 52.9096 35.013C53.6697 35.7596 54.5711 36.3473 55.5609 36.7416C56.5507 37.136 57.6091 37.3292 58.6745 37.31C59.7129 37.3528 60.7485 37.1745 61.7127 36.7867C62.6769 36.3989 63.5477 35.8105 64.2673 35.0607C65.5456 33.6665 66.2268 31.827 66.1647 29.9365C66.1699 29.4773 66.1305 29.0187 66.0471 28.567L58.6753 28.5679ZM113.682 30.2702C113.372 29.3348 112.781 28.5176 111.99 27.9296C111.2 27.3415 110.247 27.0111 109.262 26.9833C108.598 26.9874 107.943 27.1261 107.334 27.3909C106.726 27.6556 106.178 28.041 105.722 28.5238C105.267 29.0065 104.915 29.5765 104.686 30.1993C104.457 30.8222 104.357 31.4849 104.392 32.1475C104.377 32.8264 104.499 33.5012 104.751 34.1319C105.003 34.7625 105.379 35.3359 105.857 35.8178C106.335 36.2998 106.906 36.6804 107.535 36.9369C108.163 37.1935 108.837 37.3206 109.516 37.3109C110.367 37.3152 111.205 37.1084 111.956 36.709C112.707 36.3096 113.347 35.73 113.819 35.0223L112.058 33.848C111.795 34.286 111.422 34.6479 110.976 34.8982C110.53 35.1485 110.027 35.2787 109.516 35.2758C108.99 35.296 108.47 35.1577 108.024 34.8789C107.577 34.6001 107.224 34.1936 107.012 33.7121L113.914 30.8547L113.682 30.2702ZM106.641 31.9898C106.616 31.6139 106.667 31.2369 106.79 30.8809C106.914 30.5248 107.107 30.197 107.358 29.9165C107.61 29.636 107.915 29.4084 108.255 29.2472C108.596 29.0859 108.965 28.9942 109.341 28.9774C109.733 28.9514 110.124 29.0414 110.464 29.2361C110.805 29.4309 111.081 29.7218 111.258 30.0724L106.641 31.9898ZM101.028 36.9964H103.293V21.819H101.028V36.9964ZM97.3121 28.1367H97.2329C96.888 27.762 96.4671 27.4653 95.9984 27.2662C95.5297 27.0672 95.0239 26.9704 94.5148 26.9824C93.1819 27.0372 91.9218 27.6052 90.998 28.5677C90.0742 29.5302 89.5584 30.8126 89.5584 32.1466C89.5584 33.4807 90.0742 34.7631 90.998 35.7256C91.9218 36.6881 93.1819 37.2561 94.5148 37.3109C95.026 37.3244 95.534 37.2264 96.0034 37.0236C96.4728 36.8208 96.8924 36.5181 97.2329 36.1365H97.3121V36.8796C97.3121 38.8563 96.2563 39.9122 94.554 39.9122C93.9867 39.8987 93.4363 39.7166 92.9728 39.389C92.5094 39.0615 92.154 38.6034 91.9519 38.0731L89.977 38.8946C90.3496 39.8008 90.9843 40.5751 91.7997 41.1184C92.6152 41.6616 93.5742 41.949 94.554 41.9437C97.2137 41.9437 99.4639 40.3756 99.4639 36.5652V27.2952H97.3121V28.1367ZM94.71 35.275C93.9162 35.222 93.1721 34.8692 92.6286 34.2882C92.0851 33.7072 91.7828 32.9414 91.7828 32.1458C91.7828 31.3502 92.0851 30.5843 92.6286 30.0033C93.1721 29.4223 93.9162 29.0696 94.71 29.0166C95.1001 29.0357 95.4824 29.1331 95.8341 29.3031C96.1857 29.4731 96.4996 29.7122 96.7569 30.0061C97.0142 30.3 97.2097 30.6426 97.3317 31.0137C97.4537 31.3847 97.4998 31.7766 97.4672 32.1658C97.4978 32.5526 97.45 32.9415 97.3267 33.3094C97.2034 33.6773 97.0072 34.0165 96.7498 34.3068C96.4924 34.597 96.1791 34.8324 95.8286 34.9988C95.4781 35.1651 95.0976 35.2591 94.71 35.275ZM124.31 21.8199H118.879V36.9973H121.144V31.2476H124.308C124.95 31.2836 125.591 31.1883 126.195 30.9677C126.798 30.7471 127.349 30.4057 127.816 29.9645C128.283 29.5233 128.654 28.9915 128.909 28.4017C129.163 27.8119 129.294 27.1764 129.294 26.5342C129.294 25.892 129.163 25.2565 128.909 24.6667C128.654 24.0769 128.283 23.5451 127.816 23.1039C127.349 22.6627 126.798 22.3213 126.195 22.1007C125.591 21.8801 124.95 21.7848 124.308 21.8208L124.31 21.8199ZM124.369 29.1377H121.145V23.9307H124.369C124.714 23.9244 125.058 23.987 125.379 24.1149C125.7 24.2428 125.993 24.4335 126.239 24.6757C126.486 24.9179 126.682 25.2069 126.816 25.5257C126.949 25.8445 127.018 26.1867 127.018 26.5325C127.018 26.8782 126.949 27.2204 126.816 27.5392C126.682 27.858 126.486 28.147 126.239 28.3892C125.993 28.6314 125.7 28.8221 125.379 28.95C125.058 29.0779 124.714 29.1405 124.369 29.1342V29.1377ZM138.369 26.9598C137.542 26.9116 136.72 27.1057 136.002 27.5182C135.284 27.9308 134.702 28.5438 134.328 29.2823L136.338 30.1221C136.538 29.7552 136.84 29.4545 137.207 29.2568C137.575 29.059 137.992 28.9728 138.408 29.0087C138.693 28.9806 138.98 29.0087 139.254 29.0917C139.528 29.1746 139.782 29.3106 140.004 29.492C140.225 29.6733 140.408 29.8965 140.543 30.1487C140.678 30.4009 140.762 30.6772 140.79 30.9619V31.1169C140.063 30.7306 139.251 30.5295 138.427 30.5315C136.26 30.5315 134.053 31.7224 134.053 33.9482C134.053 35.9797 135.83 37.2882 137.822 37.2882C138.392 37.3223 138.961 37.203 139.469 36.9425C139.978 36.682 140.407 36.29 140.712 35.8073H140.79V36.979H142.977V31.1596C142.977 28.4582 140.966 26.9554 138.369 26.9554V26.9598ZM138.095 35.2776C137.352 35.2776 136.318 34.9065 136.318 33.9883C136.318 32.8183 137.608 32.3688 138.72 32.3688C139.443 32.3495 140.158 32.5249 140.79 32.8767C140.706 33.5341 140.386 34.1388 139.891 34.5793C139.396 35.0197 138.758 35.2662 138.095 35.2732V35.2776ZM150.942 27.2917L148.346 33.8715H148.268L145.574 27.2917H143.135L147.175 36.485L144.871 41.6013H147.234L153.464 27.2864L150.942 27.2917ZM130.538 36.9973H132.803V21.8199H130.538V36.9973Z" fill="white"/>
<path d="M13.3803 9.72655C12.9832 10.2031 12.7826 10.8131 12.8193 11.4323V38.2823C12.7826 38.9015 12.9832 39.5115 13.3803 39.988L13.4674 40.0751L28.515 25.0346V24.68L13.47 9.6377L13.3803 9.72655Z" fill="url(#paint0_linear)"/>
<path d="M33.5258 30.0498L28.5114 25.0345V24.6799L33.5267 19.6647L33.6399 19.7291L39.5804 23.1058C41.2765 24.0701 41.2765 25.6469 39.5804 26.6104L33.6399 29.9853L33.5258 30.0498Z" fill="url(#paint1_linear)"/>
<path d="M33.6391 29.9862L28.5114 24.8577L13.3802 39.9888C13.9395 40.5812 14.8612 40.6544 15.9066 40.0629L33.6391 29.9862Z" fill="url(#paint2_linear)"/>
<path d="M33.6391 19.7292L15.904 9.6542C14.8638 9.06268 13.9395 9.1315 13.3776 9.72825L28.5114 24.8577L33.6391 19.7292Z" fill="url(#paint3_linear)"/>
<path opacity="0.2" d="M33.5267 29.8729L15.9041 39.8852C15.5548 40.1509 15.1285 40.2959 14.6897 40.2982C14.2508 40.3006 13.823 40.1602 13.4709 39.8982L13.3838 39.9853L13.4709 40.0725C13.8229 40.3347 14.2507 40.4752 14.6897 40.4729C15.1286 40.4705 15.5549 40.3254 15.9041 40.0594L33.6391 29.9862L33.5267 29.8729Z" fill="black"/>
<path opacity="0.12" d="M13.3803 39.8111C12.9828 39.3341 12.7821 38.7235 12.8192 38.1036V38.2779C12.7826 38.8971 12.9832 39.507 13.3803 39.9836L13.4674 39.8965L13.3803 39.8111Z" fill="black"/>
<path opacity="0.12" d="M39.5804 26.4345L33.5267 29.873L33.64 29.9862L39.5804 26.6087C39.9298 26.4569 40.2321 26.2142 40.4559 25.906C40.6797 25.5977 40.8169 25.2352 40.8532 24.856C40.7783 25.1999 40.6242 25.5216 40.4033 25.7956C40.1824 26.0696 39.9006 26.2884 39.5804 26.4345Z" fill="black"/>
<path opacity="0.25" d="M15.9047 9.8287L39.5793 23.282C39.8995 23.4275 40.1813 23.6457 40.4022 23.9193C40.6232 24.1929 40.7772 24.5143 40.8521 24.8579C40.8162 24.4786 40.6792 24.1158 40.4554 23.8075C40.2315 23.4992 39.9289 23.2566 39.5793 23.1052L15.9047 9.65447C14.2076 8.6901 12.8199 9.49156 12.8199 11.4343V11.6085C12.8199 9.66754 14.2076 8.87043 15.9047 9.8287Z" fill="white"/>
<defs>
<linearGradient id="paint0_linear" x1="27.1805" y1="182.583" x2="3.08067" y2="176.167" gradientUnits="userSpaceOnUse">
<stop stop-color="#00A0FF"/>
<stop offset="0.007" stop-color="#00A1FF"/>
<stop offset="0.26" stop-color="#00BEFF"/>
<stop offset="0.512" stop-color="#00D2FF"/>
<stop offset="0.76" stop-color="#00DFFF"/>
<stop offset="1" stop-color="#00E3FF"/>
</linearGradient>
<linearGradient id="paint1_linear" x1="41.7904" y1="168.867" x2="12.4063" y2="168.867" gradientUnits="userSpaceOnUse">
<stop stop-color="#FFE000"/>
<stop offset="0.409" stop-color="#FFBD00"/>
<stop offset="0.775" stop-color="#FFA500"/>
<stop offset="1" stop-color="#FF9C00"/>
</linearGradient>
<linearGradient id="paint2_linear" x1="30.8434" y1="166.085" x2="11.5209" y2="133.528" gradientUnits="userSpaceOnUse">
<stop stop-color="#FF3A44"/>
<stop offset="1" stop-color="#C31162"/>
</linearGradient>
<linearGradient id="paint3_linear" x1="9.56847" y1="192.939" x2="18.2033" y2="178.403" gradientUnits="userSpaceOnUse">
<stop stop-color="#32A071"/>
<stop offset="0.068" stop-color="#2DA771"/>
<stop offset="0.476" stop-color="#15CF74"/>
<stop offset="0.801" stop-color="#06E775"/>
<stop offset="1" stop-color="#00F076"/>
</linearGradient>
</defs>
</svg>
