<svg width="52" height="48" viewBox="0 0 52 48" fill="none" xmlns="http://www.w3.org/2000/svg">
<path d="M49.2886 5.31701H31.3076C31.3076 5.29943 31.3076 5.28185 31.3076 5.26367C31.3076 3.91942 30.7736 2.63024 29.8231 1.67971C28.8725 0.729188 27.5833 0.19519 26.2391 0.19519C24.8949 0.19519 23.6057 0.729188 22.6551 1.67971C21.7046 2.63024 21.1706 3.91942 21.1706 5.26367C21.1706 5.28185 21.1706 5.29943 21.1706 5.31701H3.19199C2.52712 5.31781 1.88972 5.58232 1.41965 6.05251C0.949572 6.5227 0.685212 7.16016 0.68457 7.82503L0.68457 38.5541C0.685372 39.2189 0.949804 39.8562 1.41986 40.3262C1.88992 40.7963 2.52723 41.0607 3.19199 41.0615H19.3584L18.705 46.2903H16.8504C16.6381 46.2903 16.4345 46.3746 16.2844 46.5247C16.1343 46.6748 16.05 46.8784 16.05 47.0907C16.05 47.3029 16.1343 47.5065 16.2844 47.6566C16.4345 47.8067 16.6381 47.891 16.8504 47.891H35.6309C35.8431 47.891 36.0467 47.8067 36.1968 47.6566C36.3469 47.5065 36.4312 47.3029 36.4312 47.0907C36.4312 46.8784 36.3469 46.6748 36.1968 46.5247C36.0467 46.3746 35.8431 46.2903 35.6309 46.2903H33.7774L33.1228 41.0639H49.2892C49.954 41.0631 50.5913 40.7987 51.0614 40.3287C51.5314 39.8586 51.7959 39.2213 51.7967 38.5565V7.82746C51.7967 7.16206 51.5325 6.52389 51.0622 6.05316C50.5919 5.58242 49.954 5.31765 49.2886 5.31701ZM26.24 1.79559C26.9259 1.79559 27.5964 1.99899 28.1668 2.38006C28.7371 2.76114 29.1816 3.30278 29.4441 3.93649C29.7066 4.5702 29.7753 5.26752 29.6415 5.94026C29.5076 6.613 29.1773 7.23095 28.6923 7.71597C28.2073 8.20099 27.5893 8.5313 26.9166 8.66511C26.2439 8.79893 25.5465 8.73025 24.9128 8.46776C24.2791 8.20527 23.7375 7.76076 23.3564 7.19043C22.9753 6.62011 22.7719 5.94959 22.7719 5.26367C22.7731 4.34417 23.1389 3.46267 23.7892 2.81261C24.4395 2.16254 25.3211 1.79699 26.2406 1.79619L26.24 1.79559ZM29.7081 10.3318V36.0485H26.1867V35.5182C26.1872 34.9918 26.0218 34.4786 25.7139 34.0515C25.4061 33.6245 24.9716 33.3052 24.472 33.1392L21.684 32.2101C21.6322 32.1924 21.5821 32.1701 21.5343 32.1434C21.5246 32.1349 21.5155 32.1252 21.5058 32.1174C21.4645 32.0831 21.4198 32.053 21.3724 32.0277C21.2759 31.943 21.1985 31.8387 21.1454 31.7217C21.0923 31.6048 21.0647 31.4779 21.0646 31.3494V30.0869L22.3658 29.436C22.7353 29.2517 23.0535 28.979 23.2919 28.6419C23.5304 28.3049 23.6818 27.9141 23.7326 27.5044L23.9332 25.8994C24.8386 24.7279 25.3307 23.2895 25.3327 21.8089C25.3164 20.5962 24.9852 19.4086 24.3715 18.3626C23.7579 17.3165 22.883 16.4479 21.8325 15.8419C21.8894 15.5921 21.9183 15.3368 21.9185 15.0806C21.9185 12.992 20.0275 11.2925 17.7038 11.2925C15.38 11.2925 13.489 12.9896 13.489 15.0806C13.489 15.3367 13.5177 15.5921 13.5744 15.8419C12.5239 16.4479 11.649 17.3165 11.0353 18.3626C10.4217 19.4086 10.0905 20.5962 10.0742 21.8089C10.0751 23.2896 10.567 24.7283 11.4731 25.8994L11.6737 27.505C11.7245 27.9147 11.8759 28.3055 12.1144 28.6425C12.3528 28.9796 12.671 29.2524 13.0404 29.4366L14.3417 30.0875V31.347C14.3419 31.5373 14.2821 31.7229 14.1708 31.8773C14.0594 32.0317 13.9023 32.1471 13.7217 32.2071L10.9337 33.1362C10.4341 33.3022 9.99954 33.6214 9.69174 34.0485C9.38393 34.4755 9.21852 34.9887 9.21901 35.5151V36.0455H5.70002V10.3325L29.7081 10.3318ZM17.7044 16.308C21.0288 16.308 23.7332 18.776 23.7332 21.8089C23.7332 21.9671 23.7253 22.1241 23.7102 22.2798L20.8488 19.2281C20.7753 19.1497 20.6869 19.0868 20.5886 19.0432C20.4903 18.9997 20.3843 18.9764 20.2769 18.9747C20.1694 18.973 20.0627 18.9929 19.9631 19.0334C19.8635 19.0738 19.7731 19.1338 19.6972 19.2099C17.4049 21.504 11.8901 21.5367 11.8367 21.5367C11.7854 21.5371 11.7343 21.5424 11.684 21.5525C11.8301 18.6378 14.4739 16.308 17.7044 16.308ZM15.0903 15.0806C15.0903 13.8745 16.2631 12.8932 17.7044 12.8932C19.1457 12.8932 20.3184 13.8745 20.3184 15.0806C20.3184 15.0994 20.3184 15.1176 20.3184 15.1358C18.6243 14.564 16.7893 14.564 15.0951 15.1358C15.0915 15.1176 15.0897 15.0994 15.0897 15.0806H15.0903ZM20.2063 20.8828L22.6253 23.4635L22.1452 27.3068C22.1268 27.455 22.072 27.5964 21.9857 27.7183C21.8994 27.8403 21.7843 27.939 21.6506 28.0056L18.8735 29.3942C18.5102 29.5747 18.11 29.6686 17.7044 29.6686C17.2987 29.6686 16.8985 29.5747 16.5352 29.3942L13.7575 28.0056C13.6237 27.939 13.5086 27.8403 13.4223 27.7184C13.336 27.5964 13.2812 27.455 13.2629 27.3068L12.738 23.1041C14.3987 23.0017 17.9553 22.5835 20.2063 20.8834V20.8828ZM15.9436 31.347V30.8803C16.4959 31.134 17.0966 31.2654 17.7044 31.2654C18.3121 31.2654 18.9128 31.134 19.4651 30.8803V31.347C19.4651 31.8348 19.6077 32.312 19.8754 32.7198C19.26 33.2147 18.494 33.4845 17.7044 33.4845C16.9147 33.4845 16.1487 33.2147 15.5333 32.7198C15.801 32.312 15.9436 31.8348 15.9436 31.347ZM17.7013 35.0848C18.986 35.0861 20.223 34.5978 21.1603 33.7193L21.1767 33.7253L23.9647 34.6545C24.1454 34.7145 24.3026 34.83 24.414 34.9845C24.5253 35.139 24.585 35.3247 24.5848 35.5151V36.0455H10.8215V35.5151C10.8218 35.3248 10.8818 35.1394 10.993 34.985C11.1043 34.8306 11.2611 34.715 11.4416 34.6545L14.2296 33.7253L14.246 33.7193C15.1838 34.5971 16.4198 35.0862 17.7044 35.0878L17.7013 35.0848ZM20.3154 46.2891L20.9688 41.0603H31.5094L32.1628 46.2891H20.3154ZM50.196 38.5529C50.196 38.794 50.1002 39.0253 49.9297 39.1958C49.7592 39.3663 49.5279 39.462 49.2868 39.462H3.19199C2.95087 39.462 2.71963 39.3663 2.54913 39.1958C2.37863 39.0253 2.28285 38.794 2.28285 38.5529V7.82382C2.28285 7.5827 2.37863 7.35145 2.54913 7.18096C2.71963 7.01046 2.95087 6.91467 3.19199 6.91467H21.4506C21.685 7.59002 22.0595 8.2082 22.5495 8.72872H4.89936C4.68718 8.72872 4.48368 8.81301 4.33364 8.96305C4.18361 9.11309 4.09932 9.31658 4.09932 9.52877V36.8455C4.09932 37.0577 4.18361 37.2612 4.33364 37.4112C4.48368 37.5613 4.68718 37.6456 4.89936 37.6456H47.5819C47.7941 37.6456 47.9975 37.5613 48.1476 37.4112C48.2976 37.2612 48.3819 37.0577 48.3819 36.8455V9.5324C48.3819 9.32022 48.2976 9.11672 48.1476 8.96669C47.9975 8.81665 47.7941 8.73236 47.5819 8.73236H29.9317C30.4217 8.21185 30.7962 7.59366 31.0306 6.91831H49.2886C49.5298 6.91831 49.761 7.0141 49.9315 7.18459C50.102 7.35509 50.1978 7.58634 50.1978 7.82746V38.5565L50.196 38.5529ZM43.0677 19.7172L41.5524 19.3384V19.0905C41.8194 18.8562 42.0335 18.5679 42.1806 18.2446C42.3277 17.9213 42.4045 17.5705 42.4058 17.2153V12.9465C42.4058 12.7344 42.3215 12.5309 42.1715 12.3808C42.0214 12.2308 41.8179 12.1465 41.6058 12.1465H38.1916C37.5269 12.1473 36.8895 12.4117 36.4195 12.8818C35.9494 13.3518 35.685 13.9892 35.6842 14.6539V17.2147C35.6855 17.5699 35.7623 17.9207 35.9094 18.244C36.0565 18.5673 36.2706 18.8556 36.5376 19.0899V19.3378L35.0223 19.7166C34.4794 19.8517 33.9974 20.1646 33.6531 20.6056C33.3088 21.0465 33.1221 21.5901 33.1228 22.1495V22.3919H31.3088V10.3325H46.7812V22.3901H44.9672V22.1477C44.9673 21.5887 44.7804 21.0457 44.4361 20.6052C44.0919 20.1648 43.6102 19.8522 43.0677 19.7172ZM37.7401 17.9941C37.602 17.9162 37.4871 17.8031 37.407 17.6662C37.327 17.5294 37.2846 17.3738 37.2843 17.2153V14.6539C37.2843 14.4128 37.3801 14.1816 37.5506 14.0111C37.7211 13.8406 37.9523 13.7448 38.1934 13.7448H40.8081V17.2129C40.8078 17.3714 40.7655 17.527 40.6854 17.6638C40.6053 17.8006 40.4904 17.9138 40.3523 17.9917C40.2314 18.0621 40.1311 18.1631 40.0613 18.2844C39.9915 18.4058 39.9548 18.5433 39.9548 18.6832V19.9609C39.9547 20.1394 40.0143 20.3127 40.1242 20.4534C40.234 20.5941 40.3877 20.694 40.5608 20.7373L42.6822 21.2676C42.8785 21.3165 43.0528 21.4298 43.1773 21.5893C43.3017 21.7488 43.3692 21.9454 43.3689 22.1477V22.3901H34.7235V22.1477C34.7233 21.9453 34.7908 21.7486 34.9154 21.5891C35.04 21.4296 35.2144 21.3164 35.4108 21.2676L37.5322 20.7373C37.7053 20.694 37.8591 20.5941 37.9689 20.4534C38.0787 20.3127 38.1383 20.1394 38.1383 19.9609V18.6857C38.1383 18.5457 38.1016 18.4082 38.0318 18.2868C37.9621 18.1654 37.8617 18.0645 37.7407 17.9941H37.7401ZM46.7812 23.9908V36.0485H44.9672V35.8061C44.9679 35.2466 44.7812 34.7031 44.4369 34.2621C44.0926 33.8212 43.6106 33.5082 43.0677 33.3732L41.5524 32.9944V32.7465C41.8194 32.5122 42.0335 32.2238 42.1806 31.9006C42.3277 31.5773 42.4045 31.2264 42.4058 30.8712V26.6049C42.4058 26.3927 42.3215 26.1892 42.1715 26.0392C42.0214 25.8892 41.8179 25.8049 41.6058 25.8049H38.1916C37.5269 25.8057 36.8895 26.0701 36.4195 26.5402C35.9494 27.0102 35.685 27.6475 35.6842 28.3123V30.8731C35.6855 31.2282 35.7623 31.5791 35.9094 31.9024C36.0566 32.2256 36.2707 32.514 36.5376 32.7483V32.9962L35.0223 33.375C34.4794 33.51 33.9974 33.823 33.6531 34.2639C33.3088 34.7049 33.1221 35.2484 33.1228 35.8079V36.0503H31.3094V23.9908H46.7812ZM37.7407 31.6501C37.6026 31.5721 37.4877 31.459 37.4076 31.3222C37.3276 31.1854 37.2852 31.0298 37.2849 30.8712V28.3123C37.2849 28.0712 37.3807 27.8399 37.5512 27.6694C37.7217 27.4989 37.9529 27.4031 38.194 27.4031H40.8081V30.8712C40.8076 31.03 40.7649 31.1858 40.6843 31.3226C40.6038 31.4594 40.4884 31.5725 40.3499 31.6501C40.2289 31.7205 40.1286 31.8214 40.0588 31.9428C39.989 32.0641 39.9523 32.2016 39.9523 32.3416V33.6193C39.9523 33.7977 40.0119 33.9711 40.1217 34.1118C40.2316 34.2525 40.3853 34.3524 40.5584 34.3957L42.6798 34.926C42.8759 34.9754 43.05 35.0887 43.1744 35.2481C43.2989 35.4075 43.3667 35.6038 43.3671 35.8061V36.0485H34.7235V35.8061C34.7233 35.6037 34.7908 35.407 34.9154 35.2475C35.04 35.088 35.2144 34.9748 35.4108 34.926L37.5322 34.3957C37.7053 34.3524 37.8591 34.2525 37.9689 34.1118C38.0787 33.9711 38.1383 33.7977 38.1383 33.6193V32.344C38.1387 32.2037 38.1021 32.0657 38.0323 31.9439C37.9626 31.822 37.862 31.7207 37.7407 31.6501Z" fill="#032F6F"/>
<path d="M26.2407 3.61023C25.9136 3.61023 25.5938 3.70724 25.3218 3.88898C25.0498 4.07073 24.8378 4.32906 24.7126 4.63129C24.5874 4.93353 24.5546 5.2661 24.6185 5.58695C24.6823 5.9078 24.8398 6.20253 25.0711 6.43385C25.3024 6.66517 25.5972 6.8227 25.918 6.88652C26.2389 6.95034 26.5714 6.91759 26.8737 6.7924C27.1759 6.66721 27.4342 6.4552 27.616 6.1832C27.7977 5.91119 27.8947 5.5914 27.8947 5.26427C27.8943 4.82574 27.7198 4.4053 27.4098 4.09522C27.0997 3.78513 26.6792 3.61071 26.2407 3.61023Z" fill="#032F6F"/>
</svg>
