<svg width="55" height="65" viewBox="0 0 55 65" fill="none" xmlns="http://www.w3.org/2000/svg">
<path d="M43.4072 12.8767H39.8271L43.4096 15.8898L43.4072 12.8767Z" fill="white"/>
<path d="M53.7926 23.0364L49.3101 19.2662V6.0259H49.4193C49.9245 6.02541 50.409 5.82448 50.7663 5.4672C51.1235 5.10992 51.3245 4.62549 51.3249 4.12023V2.17959C51.3245 1.67433 51.1235 1.1899 50.7663 0.832621C50.409 0.475345 49.9245 0.274413 49.4193 0.273926L45.8748 0.273926C45.6255 0.273926 45.3865 0.372956 45.2102 0.54923C45.0339 0.725505 44.9349 0.964584 44.9349 1.21387C44.9349 1.46316 45.0339 1.70224 45.2102 1.87852C45.3865 2.05479 45.6255 2.15382 45.8748 2.15382H49.4193C49.4261 2.15382 49.4327 2.15654 49.4375 2.16137C49.4423 2.1662 49.445 2.17276 49.445 2.17959V4.12084C49.445 4.12768 49.4423 4.13423 49.4375 4.13906C49.4327 4.1439 49.4261 4.14661 49.4193 4.14661H37.946C37.9392 4.14661 37.9326 4.1439 37.9278 4.13906C37.923 4.13423 37.9202 4.12768 37.9202 4.12084V2.17959C37.9202 2.17276 37.923 2.1662 37.9278 2.16137C37.9326 2.15654 37.9392 2.15382 37.946 2.15382H41.4905C41.7397 2.15382 41.9788 2.05479 42.1551 1.87852C42.3314 1.70224 42.4304 1.46316 42.4304 1.21387C42.4304 0.964584 42.3314 0.725505 42.1551 0.54923C41.9788 0.372956 41.7397 0.273926 41.4905 0.273926L37.946 0.273926C37.4408 0.274413 36.9563 0.475345 36.599 0.832621C36.2418 1.1899 36.0408 1.67433 36.0404 2.17959V4.12084C36.0408 4.62611 36.2418 5.11054 36.599 5.46781C36.9563 5.82509 37.4408 6.02602 37.946 6.02651H38.0552V9.79551L28.9079 2.10351C28.5437 1.79614 28.0825 1.62753 27.606 1.62753C27.1294 1.62753 26.6682 1.79614 26.304 2.10351L1.41932 23.0364C1.10309 23.304 0.876566 23.6622 0.770309 24.0626C0.664053 24.463 0.683179 24.8864 0.825107 25.2756C0.967035 25.6648 1.22493 26.0011 1.564 26.2391C1.90307 26.4771 2.30699 26.6054 2.72126 26.6066H5.10487V58.6888H4.79197C4.2867 58.6893 3.80227 58.8902 3.445 59.2475C3.08772 59.6048 2.88679 60.0892 2.8863 60.5945V62.5357C2.88679 63.041 3.08772 63.5254 3.445 63.8827C3.80227 64.2399 4.2867 64.4409 4.79197 64.4414H50.4194C50.9246 64.4409 51.409 64.2399 51.7663 63.8827C52.1236 63.5254 52.3245 63.041 52.325 62.5357V60.5945C52.3245 60.0892 52.1236 59.6048 51.7663 59.2475C51.409 58.8902 50.9246 58.6893 50.4194 58.6888H50.1064V47.1161C50.1064 46.8668 50.0074 46.6278 49.8311 46.4515C49.6549 46.2752 49.4158 46.1762 49.1665 46.1762C48.9172 46.1762 48.6781 46.2752 48.5019 46.4515C48.3256 46.6278 48.2266 46.8668 48.2266 47.1161V58.6888H27.309V32.7015C27.3085 32.2165 27.1156 31.7514 26.7726 31.4084C26.4296 31.0654 25.9645 30.8724 25.4794 30.872H12.7294C12.2443 30.8724 11.7792 31.0654 11.4362 31.4084C11.0932 31.7514 10.9003 32.2165 10.8998 32.7015V58.6888H6.98477V26.6041H48.2272V42.7311C48.2272 42.9804 48.3262 43.2195 48.5025 43.3958C48.6787 43.5721 48.9178 43.6711 49.1671 43.6711C49.4164 43.6711 49.6555 43.5721 49.8318 43.3958C50.008 43.2195 50.1071 42.9804 50.1071 42.7311V26.6041H52.4907C52.9049 26.6029 53.3089 26.4746 53.6479 26.2366C53.987 25.9986 54.2449 25.6623 54.3868 25.2731C54.5288 24.8839 54.5479 24.4606 54.4416 24.0601C54.3354 23.6597 54.1088 23.3016 53.7926 23.0339V23.0364ZM39.9321 6.0259H47.4296V8.10274H39.9321V6.0259ZM39.9321 9.98264H47.4296V12.1349H40.8334L39.9321 11.3791V9.98264ZM47.4296 14.0148V17.682L43.0697 14.0173L47.4296 14.0148ZM12.7797 32.7519H25.4291V35.4238H12.7797V32.7519ZM12.7797 37.3037H25.4291V58.6888H12.7797V37.3037ZM50.42 60.5687C50.4268 60.5687 50.4334 60.5714 50.4382 60.5762C50.443 60.5811 50.4457 60.5876 50.4457 60.5945V62.5357C50.4457 62.5425 50.443 62.5491 50.4382 62.5539C50.4334 62.5588 50.4268 62.5615 50.42 62.5615H4.79197C4.78513 62.5615 4.77858 62.5588 4.77375 62.5539C4.76891 62.5491 4.7662 62.5425 4.7662 62.5357V60.5945C4.7662 60.5876 4.76891 60.5811 4.77375 60.5762C4.77858 60.5714 4.78513 60.5687 4.79197 60.5687H50.42ZM52.6244 24.6316C52.617 24.6606 52.5994 24.686 52.5749 24.7032C52.5504 24.7204 52.5205 24.7283 52.4907 24.7255H2.72126C2.69198 24.7254 2.66342 24.7164 2.63944 24.6996C2.61546 24.6828 2.59722 24.659 2.58718 24.6315C2.57714 24.604 2.57579 24.5741 2.58331 24.5458C2.59083 24.5175 2.60686 24.4922 2.62923 24.4733L27.5139 3.54227C27.5396 3.52048 27.5723 3.50852 27.606 3.50852C27.6397 3.50852 27.6723 3.52048 27.698 3.54227L38.3872 12.5331L52.5821 24.4721C52.6069 24.4891 52.6248 24.5143 52.6326 24.5434C52.6403 24.5724 52.6375 24.6033 52.6244 24.6304V24.6316Z" fill="white"/>
<path d="M31.9038 30.8721C31.527 30.8726 31.1656 31.0225 30.8991 31.289C30.6327 31.5555 30.4827 31.9168 30.4822 32.2937V52.9995C30.4827 53.3764 30.6327 53.7377 30.8991 54.0042C31.1656 54.2707 31.527 54.4206 31.9038 54.4211H42.9089C43.2858 54.4206 43.6471 54.2707 43.9136 54.0042C44.1801 53.7377 44.3301 53.3764 44.3305 52.9995V32.2937C44.3301 31.9168 44.1801 31.5555 43.9136 31.289C43.6471 31.0225 43.2858 30.8726 42.9089 30.8721H31.9038ZM36.4667 52.5418H32.3621V45.8628H36.4667V52.5418ZM36.4667 43.9829H32.3621V37.3045H36.4667V43.9829ZM42.4512 52.5418H38.3466V45.8628H42.4512V52.5418ZM42.4512 43.9829H38.3466V37.3045H42.4512V43.9829ZM42.4512 35.424H32.3621V32.752H42.4506L42.4512 35.424Z" fill="white"/>
<path d="M23.3246 44.7234C23.2401 44.5881 23.1225 44.4766 22.9829 44.3993C22.8434 44.322 22.6865 44.2815 22.527 44.2816H20.5311C20.2818 44.2816 20.0428 44.3806 19.8665 44.5569C19.6902 44.7332 19.5912 44.9723 19.5912 45.2216C19.5912 45.4708 19.6902 45.7099 19.8665 45.8862C20.0428 46.0625 20.2818 46.1615 20.5311 46.1615H22.0036L22.3509 46.7174C22.4163 46.8221 22.5017 46.913 22.6023 46.9847C22.7028 47.0564 22.8165 47.1076 22.9368 47.1355C23.0571 47.1633 23.1818 47.1671 23.3036 47.1467C23.4254 47.1264 23.542 47.0822 23.6467 47.0168C23.7515 46.9514 23.8423 46.8659 23.914 46.7654C23.9858 46.6649 24.037 46.5512 24.0648 46.4309C24.0926 46.3106 24.0964 46.1859 24.0761 46.0641C24.0557 45.9423 24.0115 45.8257 23.9461 45.721L23.3246 44.7234Z" fill="white"/>
<path d="M27.6053 9.76538C26.3999 9.76538 25.2215 10.1228 24.2191 10.7926C23.2168 11.4623 22.4356 12.4142 21.9743 13.5279C21.513 14.6416 21.3923 15.8671 21.6275 17.0494C21.8627 18.2317 22.4432 19.3177 23.2955 20.1701C24.1479 21.0225 25.2339 21.603 26.4163 21.8382C27.5986 22.0733 28.824 21.9526 29.9378 21.4913C31.0515 21.03 32.0034 20.2488 32.6731 19.2465C33.3428 18.2442 33.7003 17.0658 33.7003 15.8603C33.6985 14.2444 33.0558 12.6952 31.9131 11.5525C30.7705 10.4099 29.2213 9.76717 27.6053 9.76538ZM26.6654 19.9686C25.8934 19.7904 25.1871 19.3989 24.6269 18.8387C24.0667 18.2785 23.6752 17.5722 23.497 16.8003H26.6654V19.9686ZM26.6654 14.9204H23.497C23.6753 14.1485 24.0668 13.4422 24.627 12.882C25.1872 12.3218 25.8935 11.9303 26.6654 11.752V14.9204ZM28.5453 19.9686V16.7997H31.7161C31.5379 17.5719 31.1461 18.2786 30.5856 18.8389C30.025 19.3992 29.3182 19.7907 28.5459 19.9686H28.5453ZM28.5453 14.9204V11.752C29.3177 11.9297 30.0246 12.321 30.5852 12.8813C31.1459 13.4415 31.5378 14.1481 31.7161 14.9204H28.5453Z" fill="white"/>
</svg>
