<svg width="66" height="52" viewBox="0 0 66 52" fill="none" xmlns="http://www.w3.org/2000/svg">
<path d="M41.25 13C41.25 13.3629 41.1051 13.711 40.8473 13.9676C40.5894 14.2242 40.2397 14.3684 39.875 14.3684H31.625C30.8957 14.3684 30.1962 14.6568 29.6805 15.17C29.1647 15.6833 28.875 16.3794 28.875 17.1053C28.875 17.8311 29.1647 18.5272 29.6805 19.0405C30.1962 19.5538 30.8957 19.8421 31.625 19.8421H34.375C35.8337 19.8421 37.2326 20.4188 38.2641 21.4453C39.2955 22.4718 39.875 23.8641 39.875 25.3158C39.875 26.7675 39.2955 28.1598 38.2641 29.1863C37.2326 30.2128 35.8337 30.7895 34.375 30.7895V33.5263C34.375 33.8892 34.2301 34.2373 33.9723 34.4939C33.7144 34.7506 33.3647 34.8947 33 34.8947C32.6353 34.8947 32.2856 34.7506 32.0277 34.4939C31.7699 34.2373 31.625 33.8892 31.625 33.5263V30.7895H26.125C25.7603 30.7895 25.4106 30.6453 25.1527 30.3887C24.8949 30.132 24.75 29.784 24.75 29.4211C24.75 29.0581 24.8949 28.7101 25.1527 28.4534C25.4106 28.1968 25.7603 28.0526 26.125 28.0526H34.375C35.1043 28.0526 35.8038 27.7643 36.3195 27.251C36.8353 26.7378 37.125 26.0416 37.125 25.3158C37.125 24.5899 36.8353 23.8938 36.3195 23.3806C35.8038 22.8673 35.1043 22.5789 34.375 22.5789H31.625C30.1663 22.5789 28.7674 22.0023 27.7359 20.9757C26.7045 19.9492 26.125 18.557 26.125 17.1053C26.125 15.6536 26.7045 14.2613 27.7359 13.2348C28.7674 12.2083 30.1663 11.6316 31.625 11.6316V8.89474C31.625 8.53181 31.7699 8.18375 32.0277 7.92712C32.2856 7.67049 32.6353 7.52632 33 7.52632C33.3647 7.52632 33.7144 7.67049 33.9723 7.92712C34.2301 8.18375 34.375 8.53181 34.375 8.89474V11.6316H39.875C40.2397 11.6316 40.5894 11.7758 40.8473 12.0324C41.1051 12.289 41.25 12.6371 41.25 13ZM66 39.6842V43.7895C66 45.967 65.1308 48.0554 63.5836 49.5952C62.0365 51.135 59.938 52 57.75 52H8.25C6.06196 52 3.96354 51.135 2.41637 49.5952C0.869194 48.0554 0 45.967 0 43.7895L0 39.6842C0 39.3213 0.144866 38.9732 0.402728 38.7166C0.660591 38.46 1.01033 38.3158 1.375 38.3158H5.5V1.36842C5.5 1.00549 5.64487 0.65743 5.90273 0.400802C6.16059 0.144173 6.51033 0 6.875 0H59.125C59.4897 0 59.8394 0.144173 60.0973 0.400802C60.3551 0.65743 60.5 1.00549 60.5 1.36842V38.3158H64.625C64.9897 38.3158 65.3394 38.46 65.5973 38.7166C65.8551 38.9732 66 39.3213 66 39.6842ZM8.25 38.3158H57.75V2.73684H8.25V38.3158ZM63.25 41.0526H2.75V43.7895C2.75 45.2412 3.32946 46.6334 4.36091 47.66C5.39236 48.6865 6.79131 49.2632 8.25 49.2632H57.75C59.2087 49.2632 60.6076 48.6865 61.6391 47.66C62.6705 46.6334 63.25 45.2412 63.25 43.7895V41.0526Z" fill="#032F6F"/>
</svg>
