<svg width="24" height="24" viewBox="0 0 24 24" fill="none" xmlns="http://www.w3.org/2000/svg">
<path d="M21.5964 8.46887C20.7939 3.95904 16.6234 0.749023 12.1069 0.749023C7.59054 0.749023 3.41524 3.95904 2.61274 8.46887C2.12477 8.54427 1.67974 8.79137 1.35775 9.16569C1.03575 9.54002 0.857944 10.017 0.856323 10.5107L0.856323 11.6017C0.861383 11.6855 0.898263 11.7643 0.959433 11.8219C1.0206 11.8795 1.10145 11.9116 1.18546 11.9116C1.26948 11.9116 1.35033 11.8795 1.4115 11.8219C1.47267 11.7643 1.50955 11.6855 1.5146 11.6017V10.5107C1.51698 10.1359 1.66796 9.7773 1.93442 9.51365C2.20088 9.24999 2.56105 9.10281 2.93589 9.10441H3.6247V15.9428H2.93649C2.56154 15.9445 2.20122 15.7974 1.93463 15.5337C1.66804 15.2701 1.51698 14.9114 1.5146 14.5364V13.2713C1.50955 13.1875 1.47267 13.1087 1.4115 13.0511C1.35033 12.9935 1.26948 12.9614 1.18546 12.9614C1.10145 12.9614 1.0206 12.9935 0.959433 13.0511C0.898263 13.1087 0.861383 13.1875 0.856323 13.2713L0.856323 14.5364C0.859015 15.0859 1.07952 15.6119 1.46947 15.9991C1.85942 16.3862 2.387 16.6029 2.93649 16.6016H3.6594C3.73133 16.8398 3.88547 17.0447 4.09437 17.1799C4.30327 17.315 4.55336 17.3716 4.80009 17.3395C5.04682 17.3075 5.27416 17.1889 5.44161 17.0049C5.60906 16.8209 5.70574 16.5834 5.71444 16.3347V8.71243C5.70574 8.46378 5.60906 8.2263 5.44161 8.04228C5.27416 7.85826 5.04682 7.73967 4.80009 7.70762C4.55336 7.67558 4.30327 7.73217 4.09437 7.8673C3.88547 8.00244 3.73133 8.20735 3.6594 8.44553H3.28777C3.74192 6.44674 4.86178 4.66159 6.4637 3.38281C8.06562 2.10404 10.0545 1.40755 12.1043 1.40755C14.154 1.40755 16.1429 2.10404 17.7448 3.38281C19.3467 4.66159 20.4666 6.44674 20.9207 8.44553H20.5491C20.4772 8.20735 20.323 8.00244 20.1141 7.8673C19.9052 7.73217 19.6551 7.67558 19.4084 7.70762C19.1617 7.73967 18.9343 7.85826 18.7669 8.04228C18.5994 8.2263 18.5028 8.46378 18.4941 8.71243V16.3347C18.5028 16.5834 18.5994 16.8209 18.7669 17.0049C18.9343 17.1889 19.1617 17.3075 19.4084 17.3395C19.6551 17.3716 19.9052 17.315 20.1141 17.1799C20.323 17.0447 20.4772 16.8398 20.5491 16.6016H20.9165C20.3253 19.7333 17.4624 21.7745 14.3523 21.8733C14.2814 21.6674 14.1481 21.4888 13.9709 21.3623C13.7936 21.2358 13.5814 21.1678 13.3637 21.1677H10.8502C10.5747 21.1677 10.3105 21.2772 10.1156 21.472C9.9208 21.6668 9.81134 21.9311 9.81134 22.2066C9.81134 22.4821 9.9208 22.7464 10.1156 22.9412C10.3105 23.136 10.5747 23.2455 10.8502 23.2455H13.3637C13.5827 23.2453 13.7962 23.1764 13.9741 23.0484C14.1519 22.9204 14.285 22.7398 14.3547 22.5321C17.84 22.4292 20.9973 20.0881 21.5904 16.5771C22.0793 16.503 22.5257 16.2566 22.8489 15.8822C23.1721 15.5079 23.3508 15.0304 23.3528 14.5358V10.5107C23.3512 10.017 23.1734 9.54002 22.8514 9.16569C22.5294 8.79137 22.0843 8.54427 21.5964 8.46887ZM4.28357 8.70824C4.28907 8.60959 4.33213 8.51678 4.40392 8.44888C4.4757 8.38099 4.57076 8.34315 4.66957 8.34315C4.76837 8.34315 4.86343 8.38099 4.93522 8.44888C5.007 8.51678 5.05006 8.60959 5.05556 8.70824V16.3347C5.05006 16.4334 5.007 16.5262 4.93522 16.5941C4.86343 16.662 4.76837 16.6998 4.66957 16.6998C4.57076 16.6998 4.4757 16.662 4.40392 16.5941C4.33213 16.5262 4.28907 16.4334 4.28357 16.3347V8.70824ZM13.3637 22.586H10.8502C10.7521 22.5821 10.6594 22.5404 10.5913 22.4696C10.5233 22.3988 10.4853 22.3045 10.4853 22.2063C10.4853 22.1081 10.5233 22.0138 10.5913 21.943C10.6594 21.8722 10.7521 21.8305 10.8502 21.8266H13.3637C13.4618 21.8305 13.5545 21.8722 13.6226 21.943C13.6906 22.0138 13.7286 22.1081 13.7286 22.2063C13.7286 22.3045 13.6906 22.3988 13.6226 22.4696C13.5545 22.5404 13.4618 22.5821 13.3637 22.586ZM19.9255 16.3347C19.92 16.4334 19.877 16.5262 19.8052 16.5941C19.7334 16.662 19.6383 16.6998 19.5395 16.6998C19.4407 16.6998 19.3457 16.662 19.2739 16.5941C19.2021 16.5262 19.159 16.4334 19.1535 16.3347V8.71243C19.159 8.61378 19.2021 8.52097 19.2739 8.45307C19.3457 8.38518 19.4407 8.34734 19.5395 8.34734C19.6383 8.34734 19.7334 8.38518 19.8052 8.45307C19.877 8.52097 19.92 8.61378 19.9255 8.71243V16.3347ZM22.6939 14.5394C22.6915 14.9143 22.5406 15.2729 22.2741 15.5365C22.0076 15.8002 21.6475 15.9473 21.2726 15.9457H20.5844V9.10441H21.272C21.6469 9.10281 22.007 9.24999 22.2735 9.51365C22.54 9.7773 22.6909 10.1359 22.6933 10.5107L22.6939 14.5394Z" fill="#032F6F" stroke="#032F6F" stroke-width="0.6"/>
</svg>
