<svg width="44" height="74" viewBox="0 0 44 74" fill="none" xmlns="http://www.w3.org/2000/svg">
<path d="M22.0013 18.3333H27.5013C28.5133 18.3333 29.3346 17.512 29.3346 16.5C29.3346 15.488 28.5133 14.6667 27.5013 14.6667H23.8346V12.8333C23.8346 11.8213 23.0133 11 22.0013 11C20.9893 11 20.168 11.8213 20.168 12.8333V14.927C17.0146 15.7483 14.668 18.5937 14.668 22C14.668 26.0443 17.957 29.3333 22.0013 29.3333C24.0216 29.3333 25.668 30.976 25.668 33C25.668 35.024 24.0216 36.6667 22.0013 36.6667H16.5013C15.4893 36.6667 14.668 37.488 14.668 38.5C14.668 39.512 15.4893 40.3333 16.5013 40.3333H20.168V42.1667C20.168 43.1787 20.9893 44 22.0013 44C23.0133 44 23.8346 43.1787 23.8346 42.1667V40.073C26.988 39.2517 29.3346 36.4063 29.3346 33C29.3346 28.9557 26.0456 25.6667 22.0013 25.6667C19.981 25.6667 18.3346 24.024 18.3346 22C18.3346 19.976 19.981 18.3333 22.0013 18.3333Z" fill="#032F6F"/>
<path d="M31.1667 0H12.8333C5.75667 0 0 5.75667 0 12.8333V60.5C0 67.5767 5.75667 73.3333 12.8333 73.3333H31.1667C38.2433 73.3333 44 67.5767 44 60.5V12.8333C44 5.75667 38.2433 0 31.1667 0ZM31.1667 69.6667H12.8333C7.78067 69.6667 3.66667 65.5563 3.66667 60.5V58.6667H40.3333V60.5C40.3333 65.5563 36.2193 69.6667 31.1667 69.6667ZM40.3333 55H3.66667V12.8333C3.66667 7.777 7.78067 3.66667 12.8333 3.66667H31.1667C36.2193 3.66667 40.3333 7.777 40.3333 12.8333V55Z" fill="#032F6F"/>
<path d="M23.834 62.3334H20.1673C19.1553 62.3334 18.334 63.1547 18.334 64.1667C18.334 65.1787 19.1553 66 20.1673 66H23.834C24.846 66 25.6673 65.1787 25.6673 64.1667C25.6673 63.1547 24.846 62.3334 23.834 62.3334Z" fill="#032F6F"/>
</svg>
