<svg width="59" height="60" viewBox="0 0 59 60" fill="none" xmlns="http://www.w3.org/2000/svg">
<path d="M34.0091 31.8092H0.988835C0.731393 31.8094 0.484545 31.9117 0.302505 32.0938C0.120466 32.2758 0.0181198 32.5227 0.0179443 32.7801L0.0179443 58.0305C0.0181198 58.288 0.120466 58.5348 0.302505 58.7169C0.484545 58.8989 0.731393 59.0012 0.988835 59.0014H34.0091C34.2665 59.0012 34.5133 58.8989 34.6954 58.7169C34.8774 58.5348 34.9798 58.288 34.9799 58.0305V32.7801C34.9798 32.5227 34.8774 32.2758 34.6954 32.0938C34.5133 31.9117 34.2665 31.8094 34.0091 31.8092ZM10.7011 57.0597H1.96039V33.7517H10.7024L10.7011 57.0597ZM33.0382 57.0597H12.6402V33.7517H33.0382V57.0597Z" fill="#032F6F"/>
<path d="M30.1261 45.4056H19.441C19.1836 45.4058 18.9368 45.5082 18.7547 45.6902C18.5727 45.8722 18.4703 46.1191 18.4702 46.3765V52.2045C18.4703 52.462 18.5727 52.7088 18.7547 52.8909C18.9368 53.0729 19.1836 53.1752 19.441 53.1754H30.1261C30.3836 53.1752 30.6304 53.0729 30.8125 52.8909C30.9945 52.7088 31.0969 52.462 31.097 52.2045V46.3765C31.0969 46.1191 30.9945 45.8722 30.8125 45.6902C30.6304 45.5082 30.3836 45.4058 30.1261 45.4056ZM29.1553 51.2336H20.4133V47.3487H29.1553V51.2336Z" fill="#032F6F"/>
<path d="M21.965 35.4543H14.68V37.4412H21.965V35.4543Z" fill="#032F6F"/>
<path d="M21.965 39.428H14.68V42.0771H21.965V39.428Z" fill="#032F6F"/>
<path d="M57.317 0.731445H10.7004C10.4429 0.731621 10.1961 0.833967 10.0141 1.01601C9.83201 1.19805 9.72967 1.44489 9.72949 1.70234V26.9534C9.72967 27.2109 9.83201 27.4577 10.0141 27.6398C10.1961 27.8218 10.4429 27.9242 10.7004 27.9243H57.317C57.5745 27.9242 57.8213 27.8218 58.0034 27.6398C58.1854 27.4577 58.2878 27.2109 58.2879 26.9534V1.70234C58.2878 1.44489 58.1854 1.19805 58.0034 1.01601C57.8213 0.833967 57.5745 0.731621 57.317 0.731445V0.731445ZM56.3462 25.9819H11.6719V2.67389H56.3462V25.9819Z" fill="#032F6F"/>
<path d="M54.4031 9.47211C54.4029 9.21467 54.3005 8.96782 54.1185 8.78578C53.9365 8.60374 53.6896 8.5014 53.4322 8.50122C52.6593 8.50122 51.9181 8.19421 51.3717 7.64773C50.8252 7.10125 50.5182 6.36006 50.5182 5.58722C50.518 5.3299 50.4157 5.08315 50.2338 4.90113C50.0519 4.71911 49.8053 4.61668 49.5479 4.61633H18.4702C18.2127 4.61651 17.9659 4.71885 17.7838 4.90089C17.6018 5.08293 17.4994 5.32978 17.4993 5.58722C17.4993 6.36006 17.1923 7.10125 16.6458 7.64773C16.0993 8.19421 15.3581 8.50122 14.5853 8.50122C14.3278 8.5014 14.081 8.60374 13.8989 8.78578C13.7169 8.96782 13.6146 9.21467 13.6144 9.47211V19.1863C13.6146 19.4438 13.7169 19.6906 13.8989 19.8726C14.081 20.0547 14.3278 20.157 14.5853 20.1572C15.3581 20.1572 16.0993 20.4642 16.6458 21.0107C17.1923 21.5572 17.4993 22.2984 17.4993 23.0712C17.4994 23.3286 17.6018 23.5755 17.7838 23.7575C17.9659 23.9396 18.2127 24.0419 18.4702 24.0421H49.5479C49.8054 24.0419 50.0522 23.9396 50.2343 23.7575C50.4163 23.5755 50.5186 23.3286 50.5188 23.0712C50.5188 22.2984 50.8258 21.5572 51.3723 21.0107C51.9188 20.4642 52.66 20.1572 53.4328 20.1572C53.6903 20.157 53.9371 20.0547 54.1191 19.8726C54.3012 19.6906 54.4035 19.4438 54.4037 19.1863L54.4031 9.47211ZM52.4619 18.3101C51.5297 18.5022 50.6742 18.9632 50.0012 19.6363C49.3282 20.3093 48.8671 21.1648 48.6751 22.097H19.3444C19.1523 21.1648 18.6913 20.3093 18.0182 19.6363C17.3452 18.9632 16.4897 18.5022 15.5575 18.3101V10.345C16.4897 10.1529 17.3452 9.69189 18.0182 9.01886C18.6913 8.34584 19.1523 7.49033 19.3444 6.55811H48.6751C48.8675 7.49028 49.3287 8.34567 50.0018 9.01865C50.6749 9.69163 51.5304 10.1527 52.4626 10.345L52.4619 18.3101Z" fill="#032F6F"/>
<path d="M34.0104 8.50061C32.8577 8.50061 31.7309 8.84242 30.7725 9.48281C29.8141 10.1232 29.0671 11.0334 28.626 12.0983C28.1849 13.1633 28.0695 14.3351 28.2944 15.4656C28.5192 16.5961 29.0743 17.6346 29.8894 18.4496C30.7044 19.2647 31.7429 19.8197 32.8734 20.0446C34.0039 20.2695 35.1757 20.1541 36.2407 19.713C37.3056 19.2719 38.2158 18.5249 38.8562 17.5665C39.4966 16.6081 39.8384 15.4813 39.8384 14.3286C39.8371 12.7833 39.2227 11.3016 38.13 10.2089C37.0373 9.11625 35.5557 8.50184 34.0104 8.50061ZM34.0104 18.2122C33.242 18.2122 32.4909 17.9843 31.852 17.5574C31.2132 17.1306 30.7152 16.5238 30.4212 15.814C30.1272 15.1041 30.0502 14.323 30.2001 13.5694C30.35 12.8158 30.72 12.1236 31.2633 11.5802C31.8067 11.0369 32.4989 10.6669 33.2525 10.517C34.0061 10.3671 34.7872 10.4441 35.4971 10.7381C36.2069 11.0322 36.8137 11.5301 37.2405 12.169C37.6674 12.8078 37.8953 13.5589 37.8953 14.3273C37.8942 15.3573 37.4846 16.3448 36.7562 17.0731C36.0279 17.8015 35.0404 18.2111 34.0104 18.2122Z" fill="#032F6F"/>
<path d="M8.05725 12.2748H6.07043V14.2616H8.05725V12.2748Z" fill="#032F6F"/>
<path d="M3.42202 12.2748H2.09747V14.2616H3.42202V12.2748Z" fill="#032F6F"/>
<path d="M3.42202 16.2484H2.09747V18.2352H3.42202V16.2484Z" fill="#032F6F"/>
<path d="M3.42202 20.222H2.09747V22.2089H3.42202V20.222Z" fill="#032F6F"/>
<path d="M3.42202 23.5334H2.09747V25.5203H3.42202V23.5334Z" fill="#032F6F"/>
<path d="M3.42202 28.1687H2.09747V30.1555H3.42202V28.1687Z" fill="#032F6F"/>
<path d="M54.4163 33.4675H52.4295V35.4543H54.4163V33.4675Z" fill="#032F6F"/>
<path d="M54.4163 30.1561H52.4295V31.4807H54.4163V30.1561Z" fill="#032F6F"/>
<path d="M54.4163 37.4412H52.4295V39.428H54.4163V37.4412Z" fill="#032F6F"/>
<path d="M54.4163 42.077H52.4295V43.4016H54.4163V42.077Z" fill="#032F6F"/>
<path d="M54.4163 45.3884H52.4295V47.3752H54.4163V45.3884Z" fill="#032F6F"/>
<path d="M54.4163 50.0243H52.4295V51.3488H54.4163V50.0243Z" fill="#032F6F"/>
<path d="M50.4427 50.0243H48.4559V51.3488H50.4427V50.0243Z" fill="#032F6F"/>
<path d="M46.4697 50.0243H44.4829V51.3488H46.4697V50.0243Z" fill="#032F6F"/>
<path d="M42.4961 50.0243H41.1715V51.3488H42.4961V50.0243Z" fill="#032F6F"/>
<path d="M39.1841 50.0243H36.535V51.3488H39.1841V50.0243Z" fill="#032F6F"/>
<path d="M21.965 12.9371H20.6404V15.5862H21.965V12.9371Z" fill="#032F6F"/>
<path d="M47.7943 12.9371H45.8074V15.5862H47.7943V12.9371Z" fill="#032F6F"/>
</svg>
