<svg width="54" height="38" viewBox="0 0 54 38" fill="none" xmlns="http://www.w3.org/2000/svg">
<path d="M5.11704 0.901367C2.30432 0.901367 0 3.2057 0 6.01841V32.8829C0 35.6956 2.30432 37.9999 5.11704 37.9999H48.6119C51.4246 37.9999 53.7289 35.6956 53.7289 32.8829V6.01841C53.7289 3.2057 51.4246 0.901367 48.6119 0.901367H5.11704ZM5.11704 3.45989H48.6119C48.8284 3.45989 49.0323 3.49187 49.2315 3.53984L27.8839 24.1879C27.4131 24.6434 26.3159 24.6434 25.8451 24.1879L4.4974 3.53984C4.69669 3.49187 4.90053 3.45989 5.11704 3.45989ZM2.65846 5.35883L17.6098 19.8104L2.83836 34.0222C2.66939 33.678 2.55852 33.3006 2.55852 32.8829V6.01841C2.55852 5.7861 2.60349 5.57112 2.65846 5.35883ZM51.0705 5.35883C51.1254 5.57112 51.1704 5.7861 51.1704 6.01841V32.8829C51.1704 33.3006 51.0596 33.678 50.8906 34.0222L36.1191 19.8104L51.0705 5.35883ZM19.4488 21.5894L24.0461 26.0269C25.6065 27.5367 28.1224 27.5367 29.6828 26.0269L34.2802 21.5894L48.6719 35.4414C48.6515 35.4418 48.6324 35.4414 48.6119 35.4414H5.11707C5.09661 35.4414 5.07748 35.4418 5.05714 35.4414L19.4488 21.5894H19.4488Z" fill="#032F6F"/>
</svg>
