<svg width="22" height="22" viewBox="0 0 22 22" fill="none" xmlns="http://www.w3.org/2000/svg">
<path d="M8.78588 19.7587V21.9923L8.24706 21.5559C6.78748 20.3342 5.42638 18.9989 4.17647 17.5623C1.40471 14.3726 0 11.5103 0 9.0532V8.80961C0 6.47316 0.925684 4.2324 2.57341 2.58028C4.22114 0.928153 6.45594 0 8.78618 0C11.1164 0 13.3512 0.928153 14.9989 2.58028C16.6467 4.2324 17.5724 6.47316 17.5724 8.80961V9.0532C17.5724 9.25963 17.5612 9.46607 17.5418 9.68076L15.8235 8.10952C15.6454 6.29765 14.779 4.62392 13.4038 3.43504C12.0285 2.24615 10.2499 1.63322 8.43635 1.72321C6.62276 1.81319 4.91319 2.59921 3.66177 3.91843C2.41035 5.23764 1.71298 6.98897 1.71412 8.80961V9.0532C1.71412 13.2048 7.04882 18.2306 8.78588 19.7587ZM14.0588 18.5202H16.6294V15.9433H14.0588V18.5202ZM8.78588 5.15696C9.50639 5.15696 10.2107 5.37118 10.8098 5.77254C11.4089 6.1739 11.8758 6.74437 12.1515 7.4118C12.4272 8.07924 12.4994 8.81367 12.3588 9.52221C12.2183 10.2308 11.8713 10.8816 11.3618 11.3924C10.8524 11.9033 10.2032 12.2512 9.49658 12.3921C8.78992 12.533 8.05745 12.4607 7.39179 12.1842C6.72613 11.9078 6.15718 11.4396 5.75689 10.8389C5.3566 10.2382 5.14294 9.53204 5.14294 8.80961C5.14403 7.8412 5.52819 6.91277 6.21114 6.228C6.89409 5.54323 7.82005 5.15805 8.78588 5.15696ZM8.78588 6.87565C8.4044 6.87565 8.03148 6.98907 7.71428 7.20158C7.39709 7.41408 7.14987 7.71613 7.00388 8.06952C6.85789 8.4229 6.8197 8.81176 6.89412 9.18691C6.96854 9.56207 7.15225 9.90667 7.422 10.1771C7.69175 10.4476 8.03543 10.6318 8.40959 10.7064C8.78374 10.781 9.17156 10.7427 9.52401 10.5964C9.87646 10.45 10.1777 10.2021 10.3896 9.88407C10.6016 9.56603 10.7147 9.19212 10.7147 8.80961C10.7141 8.29694 10.5106 7.80545 10.149 7.44299C9.78744 7.08053 9.29719 6.8767 8.78588 6.87624V6.87565ZM20.8447 17.3535L20.3629 16.9123V19.672C20.3615 20.2899 20.1157 20.8821 19.6795 21.3185C19.2432 21.7549 18.6521 22 18.0359 22H12.6082C11.9921 21.9992 11.4014 21.7535 10.9657 21.3166C10.53 20.8798 10.2849 20.2875 10.2841 19.6697V16.9129L9.80235 17.3541L8.64706 16.0837L15.3224 9.97802L22 16.0837L20.8447 17.3535ZM18.6471 15.3446L15.3229 12.3042L12 15.3446V19.672C12.0002 19.8342 12.0645 19.9897 12.1788 20.1044C12.2932 20.219 12.4483 20.2835 12.61 20.2837H18.0376C18.1993 20.2834 18.3542 20.2188 18.4684 20.1041C18.5827 19.9895 18.6469 19.8341 18.6471 19.672V15.3446Z" fill="#032F6F"/>
</svg>
