<svg width="17" height="17" viewBox="0 0 17 17" fill="none" xmlns="http://www.w3.org/2000/svg">
<path d="M15.9505 12.2039L12.8561 10.7449C12.2368 10.452 11.7054 10.5863 11.3004 11.1031L10.6603 11.8294C10.4381 12.0821 10.261 12.1112 10.1472 12.1112C9.96572 12.1112 9.74623 12.0201 9.49463 11.8403C9.1227 11.5744 8.14954 10.8479 7.14993 9.84999C6.15221 8.85077 5.42517 7.87723 5.15902 7.50512C4.73817 6.91617 4.85925 6.613 5.17036 6.33892L5.88474 5.70879C6.42213 5.287 6.54642 4.76038 6.25497 4.14347L4.79616 1.0489C4.38703 0.182089 3.78465 0 3.35134 0C2.7365 0 2.03741 0.373811 1.32964 1.08196C0.271285 2.14011 -0.187908 3.78817 0.0704942 5.60282C0.394064 7.87723 1.83624 10.3517 4.24139 12.7587C7.74966 16.2641 10.5989 16.9998 12.3712 17H12.3714C13.801 17 15.0605 16.5276 15.918 15.67C16.7295 14.8589 17.0962 14.0728 16.9785 13.3969C16.9173 13.045 16.6891 12.552 15.9505 12.2039ZM15.5304 15.2822C15.0937 15.7191 14.1026 16.4515 12.3712 16.4515C10.7024 16.4513 8.00447 15.7433 4.62899 12.3707C-0.831837 6.9054 0.336641 2.85014 1.71743 1.46937C2.31999 0.866811 2.88497 0.548344 3.35134 0.548344C3.75084 0.548344 4.07007 0.7956 4.29995 1.28312L5.75913 4.37807C5.94084 4.76227 5.88115 5.01481 5.53416 5.28776L4.80787 5.9279C4.2174 6.44791 4.18548 7.08598 4.71305 7.82434C4.98713 8.20741 5.73552 9.20984 6.76233 10.238C7.79102 11.265 8.7929 12.0128 9.17578 12.2868C9.92303 12.8205 10.5562 12.7781 11.0721 12.192L11.722 11.4538C11.9427 11.173 12.1253 11.1405 12.2434 11.1405C12.3537 11.1405 12.481 11.1743 12.6221 11.241L15.7169 12.6999C16.1389 12.899 16.3818 13.1652 16.4384 13.491C16.5229 13.9763 16.2004 14.6123 15.5304 15.2822Z" fill="black"/>
</svg>
