<svg width="30" height="30" viewBox="0 0 30 30" fill="none" xmlns="http://www.w3.org/2000/svg">
<path d="M15.0001 27.025C14.816 27.0245 14.6373 26.9629 14.4918 26.85C9.85847 23.25 6.6668 20.15 4.43347 17.0917C1.58347 13.1834 0.933467 9.57504 2.50013 6.3667C3.6168 4.07504 6.82513 2.20004 10.5751 3.2917C12.3631 3.80815 13.923 4.91569 15.0001 6.43337C16.0772 4.91569 17.6372 3.80815 19.4251 3.2917C23.1668 2.21671 26.3835 4.07504 27.5001 6.3667C29.0668 9.57504 28.4168 13.1834 25.5668 17.0917C23.3335 20.15 20.1418 23.25 15.5085 26.85C15.363 26.9629 15.1843 27.0245 15.0001 27.025ZM8.4418 4.65004C7.54951 4.61531 6.66461 4.82424 5.88209 5.25441C5.09956 5.68458 4.44897 6.31974 4.00013 7.09171C2.70847 9.74171 3.2918 12.6917 5.78347 16.1C8.43144 19.5155 11.5321 22.5545 15.0001 25.1334C18.4676 22.5571 21.5682 19.5209 24.2168 16.1084C26.7168 12.6917 27.2918 9.74171 26.0001 7.10004C25.1668 5.43337 22.6668 4.10837 19.8835 4.8917C18.991 5.15546 18.1636 5.60314 17.4546 6.20593C16.7456 6.80873 16.1707 7.5533 15.7668 8.3917C15.704 8.54455 15.5972 8.67527 15.46 8.76728C15.3227 8.85928 15.1612 8.9084 14.996 8.9084C14.8307 8.9084 14.6692 8.85928 14.532 8.76728C14.3947 8.67527 14.2879 8.54455 14.2251 8.3917C13.8243 7.5512 13.2503 6.8049 12.5409 6.20172C11.8314 5.59855 11.0025 5.15212 10.1085 4.8917C9.56678 4.73437 9.00587 4.65304 8.4418 4.65004Z" fill="white"/>
</svg>
