<svg width="87" height="36" viewBox="0 0 87 36" fill="none" xmlns="http://www.w3.org/2000/svg">
<path d="M36.3872 13.7493H42.0852V16.5986H36.3872V13.7493Z" fill="white"/>
<path d="M85.0234 9.48939L75.3466 8.10769C73.5823 7.02382 71.7509 6.05328 69.8633 5.20195C63.6286 2.37781 56.8616 0.920531 50.017 0.928007H48.3359C40.2578 0.933564 32.3093 2.96006 25.2146 6.82293L20.3307 9.48694C14.6138 9.55211 9.00774 11.0724 4.04117 13.9045C3.0497 14.4731 2.22562 15.2931 1.65194 16.2817C1.07826 17.2703 0.775253 18.3926 0.773438 19.5356L0.773438 27.9939C0.773438 28.3717 0.923534 28.7341 1.19071 29.0012C1.45788 29.2684 1.82025 29.4185 2.19809 29.4185H6.98372C7.5672 31.0847 8.6541 32.5284 10.094 33.5498C11.5339 34.5712 13.2557 35.1199 15.0211 35.1199C16.7866 35.1199 18.5083 34.5712 19.9483 33.5498C21.3882 32.5284 22.4751 31.0847 23.0586 29.4185H61.1142C61.6977 31.0847 62.7846 32.5284 64.2245 33.5498C65.6644 34.5712 67.3862 35.1199 69.1516 35.1199C70.917 35.1199 72.6388 34.5712 74.0788 33.5498C75.5187 32.5284 76.6056 31.0847 77.189 29.4185H77.7001C77.8817 29.4187 78.0616 29.3844 78.2302 29.3173L82.8441 27.4656C83.8511 27.0669 84.7145 26.374 85.3218 25.4771C85.929 24.5803 86.2518 23.5213 86.248 22.4382V10.8999C86.2479 10.5568 86.124 10.2252 85.899 9.96607C85.674 9.70695 85.3631 9.5377 85.0234 9.48939ZM20.6013 27.7116C20.3087 29.1438 19.477 30.4087 18.278 31.2449C17.0791 32.0811 15.6047 32.4246 14.1596 32.2044C12.7146 31.9842 11.4094 31.2172 10.5139 30.0618C9.61848 28.9065 9.20123 27.4512 9.34846 25.9969C9.4957 24.5426 10.1961 23.2005 11.305 22.248C12.4138 21.2956 13.8463 20.8057 15.3061 20.8796C16.766 20.9535 18.1417 21.5855 19.1487 22.645C20.1557 23.7046 20.717 25.1105 20.7167 26.5723C20.7165 26.9544 20.6778 27.3354 20.6013 27.7098V27.7116ZM46.3597 26.5698H23.566C23.566 24.3029 22.6654 22.1289 21.0625 20.526C19.4596 18.9231 17.2856 18.0226 15.0187 18.0226C12.7518 18.0226 10.5778 18.9231 8.97485 20.526C7.37193 22.1289 6.47142 24.3029 6.47142 26.5698H3.62212V19.5356C3.62287 18.8944 3.79277 18.2649 4.11465 17.7104C4.43653 17.1559 4.89901 16.6962 5.45539 16.3776C10.1038 13.7234 15.3638 12.3265 20.7167 12.3246H46.3597V26.5698ZM46.3597 9.47528H26.3042L26.5791 9.32496C32.6694 6.01536 39.4347 4.13937 46.3597 3.83988V9.47528ZM49.2084 3.77669H50.0146C55.7552 3.77028 61.4442 4.86023 66.776 6.98798L64.2887 9.47528H49.2078L49.2084 3.77669ZM74.7349 27.7092C74.4423 29.1413 73.6105 30.4063 72.4116 31.2425C71.2126 32.0787 69.7382 32.4222 68.2932 32.202C66.8481 31.9818 65.5429 31.2147 64.6475 30.0594C63.752 28.904 63.3348 27.4487 63.482 25.9944C63.6292 24.5401 64.3297 23.198 65.4385 22.2456C66.5474 21.2931 67.9798 20.8032 69.4397 20.8771C70.8996 20.951 72.2752 21.5831 73.2822 22.6426C74.2892 23.7021 74.8506 25.1081 74.8502 26.5698C74.85 26.9527 74.8111 27.3347 74.7343 27.7098L74.7349 27.7092ZM83.3975 13.7486H79.1229V16.5979H83.3969V22.4382C83.3987 22.9511 83.2458 23.4526 82.9581 23.8771C82.6705 24.3017 82.2615 24.6297 81.7845 24.8182L77.6983 26.4594C77.6983 26.3281 77.6817 26.1986 77.6725 26.0673C77.6633 25.936 77.6609 25.7826 77.6468 25.6379C77.6326 25.4931 77.6038 25.3526 77.5811 25.2084C77.5584 25.0642 77.5412 24.9231 77.513 24.7936C77.4848 24.6642 77.4431 24.52 77.4056 24.3844C77.3682 24.2488 77.34 24.1126 77.297 23.9801C77.2541 23.8475 77.2032 23.7211 77.1553 23.5911C77.1074 23.461 77.0627 23.3279 77.013 23.199C76.9633 23.0702 76.8958 22.9536 76.8363 22.8309C76.7767 22.7082 76.7178 22.5769 76.6522 22.4548C76.5865 22.3327 76.5099 22.2284 76.4454 22.1143C76.381 22.0002 76.3037 21.8689 76.2221 21.7535C76.1405 21.6382 76.065 21.5443 75.9865 21.4388C75.908 21.3332 75.8196 21.2093 75.7288 21.0995C75.638 20.9896 75.5527 20.9044 75.4638 20.8142C75.3748 20.724 75.2797 20.6037 75.1791 20.5043C75.0785 20.4049 74.984 20.3258 74.8858 20.2374C74.7876 20.1491 74.6815 20.0448 74.5735 19.9522C74.4655 19.8595 74.3557 19.7889 74.2477 19.7067C74.1397 19.6245 74.0311 19.5386 73.917 19.4613C73.8029 19.384 73.6747 19.3196 73.5526 19.2392C73.4305 19.1588 73.3299 19.0969 73.2145 19.0355C73.0992 18.9742 72.9556 18.9097 72.8243 18.8472C72.693 18.7846 72.5905 18.7287 72.4697 18.6778C72.3488 18.6269 72.1844 18.5723 72.0402 18.5214C71.896 18.4704 71.8046 18.4299 71.6837 18.3913C71.5211 18.3416 71.3549 18.3054 71.1892 18.2643C71.0806 18.2385 70.9769 18.2029 70.8677 18.1821C70.6928 18.1459 70.5131 18.1262 70.3352 18.1005C70.2296 18.0864 70.129 18.0637 70.0235 18.0532C69.7348 18.024 69.4448 18.0093 69.1547 18.0091C66.8867 18.0117 64.7125 18.9146 63.11 20.5196C61.5075 22.1245 60.6078 24.3 60.6087 26.568H49.2084V12.324H64.8783C65.0653 12.324 65.2505 12.2872 65.4233 12.2156C65.596 12.144 65.753 12.0391 65.8851 11.9068L69.5793 8.21261C71.1299 8.95064 72.6378 9.77553 74.0956 10.6833C74.2636 10.7884 74.4516 10.8573 74.6478 10.8858L83.3975 12.135V13.7486Z" fill="white"/>
</svg>
