<svg width="12" height="9" viewBox="0 0 12 9" fill="none" xmlns="http://www.w3.org/2000/svg">
<path d="M1.28571 0C0.580847 0 0 0.580843 0 1.28571V7.28571C0 7.99059 0.580847 8.57143 1.28571 8.57143H10.7143C11.4192 8.57143 12 7.99059 12 7.28571V1.28571C12 0.580843 11.4192 0 10.7143 0H1.28571ZM1.35714 0.857143H10.6384L6.29018 4.87054C6.08647 5.05857 5.90413 5.05846 5.70089 4.87054L1.35714 0.857143ZM0.857143 1.55803L5.11607 5.5C5.60759 5.95447 6.38343 5.95377 6.875 5.5L11.1429 1.55803V7.28571C11.1429 7.53056 10.9591 7.71429 10.7143 7.71429H1.28571C1.04088 7.71429 0.857143 7.53056 0.857143 7.28571V1.55803Z" fill="black"/>
</svg>
