<?xml version="1.0" encoding="UTF-8" standalone="no"?>
<svg
   xmlns:dc="http://purl.org/dc/elements/1.1/"
   xmlns:cc="http://creativecommons.org/ns#"
   xmlns:rdf="http://www.w3.org/1999/02/22-rdf-syntax-ns#"
   xmlns:svg="http://www.w3.org/2000/svg"
   xmlns="http://www.w3.org/2000/svg"
   xmlns:sodipodi="http://sodipodi.sourceforge.net/DTD/sodipodi-0.dtd"
   xmlns:inkscape="http://www.inkscape.org/namespaces/inkscape"
   width="26"
   height="27"
   viewBox="0 0 26 27"
   fill="none"
   version="1.1"
   id="svg4"
   sodipodi:docname="group-13369.svg"
   inkscape:version="1.0.2 (e86c870879, 2021-01-15, custom)">
  <metadata
     id="metadata10">
    <rdf:RDF>
      <cc:Work
         rdf:about="">
        <dc:format>image/svg+xml</dc:format>
        <dc:type
           rdf:resource="http://purl.org/dc/dcmitype/StillImage" />
      </cc:Work>
    </rdf:RDF>
  </metadata>
  <defs
     id="defs8" />
  <sodipodi:namedview
     pagecolor="#ffffff"
     bordercolor="#666666"
     borderopacity="1"
     objecttolerance="10"
     gridtolerance="10"
     guidetolerance="10"
     inkscape:pageopacity="0"
     inkscape:pageshadow="2"
     inkscape:window-width="2400"
     inkscape:window-height="1284"
     id="namedview6"
     showgrid="false"
     inkscape:zoom="31.185185"
     inkscape:cx="13"
     inkscape:cy="13.5"
     inkscape:window-x="-9"
     inkscape:window-y="-9"
     inkscape:window-maximized="1"
     inkscape:current-layer="svg4" />
  <path
     fill-rule="evenodd"
     clip-rule="evenodd"
     d="m 14.262433,0.54414262 c 2.9835,0.298355 5.7664,1.63868498 7.8596,3.78546498 2.2805,2.31665 3.6288,5.39145 3.7878,8.6382904 0.1591,3.2469 -0.8822,6.4388 -2.9253,8.9672 -1.8792,2.3358 -4.5162,3.9406 -7.4542,4.5365 -2.9381,0.5958 -5.99198,0.1451 -8.63263,-1.2741 -2.6463,-1.4499 -4.71218,-3.7674 -5.849747,-6.5622 -1.14265898,-2.8092 -1.29474898,-5.9238 -0.43123198,-8.8309204 0.86165898,-2.89583 2.69604898,-5.4057 5.19352898,-7.10595 2.47648,-1.689471 5.46908,-2.45223198 8.45218,-2.15428498 z m 0.8849,24.09085538 c 2.5177,-0.5107 4.7786,-1.8831 6.3935,-3.8811 1.7486,-2.1731 2.6382,-4.9127 2.4999,-7.6986 -0.1382,-2.78584 -1.2947,-5.4239104 -3.2499,-7.4132504 -1.7908,-1.82802 -4.167,-2.96852 -6.7135,-3.22213 -2.5464,-0.25362 -5.10096,0.39579 -7.21712,1.83469 -1.59287,1.09757 -2.87914,2.58364 -3.73696,4.31743 -0.85782,1.7337904 -1.25878,3.6578604 -1.16489,5.5899604 0.09388,1.9322 0.6795,3.8083 1.70137,5.4508 1.02187,1.6424 2.44616,2.9968 4.13794,3.9347 2.24676,1.2126 4.84806,1.5975 7.34966,1.0875 z m -3.1217,-14.7743704 h 2.3436 v -1.87493 h -2.3436 z m 2.3436,1.8748704 v 7.4997 h -2.3436 v -7.4997 z"
     fill="#032F6F"
     id="path2"
     style="fill:#ffffff" />
</svg>
