<svg width="37" height="37" viewBox="0 0 37 37" fill="none" xmlns="http://www.w3.org/2000/svg">
<path d="M18.2999 36.4318C8.25524 36.4318 0.0839844 28.2606 0.0839844 18.2159C0.0839844 8.17126 8.25524 0 18.2999 0C28.3446 0 36.5158 8.17126 36.5158 18.2159C36.5158 28.2606 28.3446 36.4318 18.2999 36.4318ZM18.2999 1.61919C9.14823 1.61919 1.70318 9.06424 1.70318 18.2159C1.70318 27.3676 9.14823 34.8126 18.2999 34.8126C27.4516 34.8126 34.8966 27.3676 34.8966 18.2159C34.8966 9.06424 27.4516 1.61919 18.2999 1.61919Z" fill="#032F6F"/>
<path d="M18.2997 29.955C11.827 29.955 6.56055 24.6886 6.56055 18.2158C6.56055 11.7431 11.827 6.47668 18.2997 6.47668C24.7724 6.47668 30.0388 11.7431 30.0388 18.2158C30.0388 24.6886 24.7724 29.955 18.2997 29.955ZM18.2997 8.09588C12.7191 8.09588 8.17974 12.6353 8.17974 18.2158C8.17974 23.7964 12.7191 28.3358 18.2997 28.3358C23.8802 28.3358 28.4197 23.7964 28.4197 18.2158C28.4197 12.6353 23.8802 8.09588 18.2997 8.09588Z" fill="#032F6F"/>
<path d="M18.2999 22.6685C15.8444 22.6685 13.8472 20.6712 13.8472 18.2157C13.8472 15.7602 15.8444 13.7629 18.2999 13.7629C20.7555 13.7629 22.7527 15.7602 22.7527 18.2157C22.7527 20.6712 20.7555 22.6685 18.2999 22.6685ZM18.2999 15.3821C16.7374 15.3821 15.4664 16.6532 15.4664 18.2157C15.4664 19.7782 16.7374 21.0493 18.2999 21.0493C19.8625 21.0493 21.1335 19.7782 21.1335 18.2157C21.1335 16.6532 19.8625 15.3821 18.2999 15.3821Z" fill="#032F6F"/>
</svg>
