<svg width="49" height="49" viewBox="0 0 49 49" fill="none" xmlns="http://www.w3.org/2000/svg">
<path d="M24.6389 2.01372C21.6494 2.01372 18.7502 2.59882 16.022 3.75274C13.386 4.8677 11.0182 6.46423 8.98445 8.498C6.95068 10.5318 5.35415 12.8996 4.23919 15.5356C3.08527 18.2638 2.50017 21.1629 2.50017 24.1524C2.50017 27.1419 3.08527 30.041 4.23919 32.7692C5.35415 35.4053 6.95068 37.7731 8.98445 39.8068C11.0182 41.8406 13.386 43.4371 16.022 44.5521C18.7502 45.706 21.6494 46.2911 24.6389 46.2911C27.6284 46.2911 30.5275 45.706 33.2557 44.5521C35.8917 43.4371 38.2595 41.8406 40.2933 39.8068C42.3271 37.7731 43.9236 35.4053 45.0385 32.7692C46.1925 30.041 46.7776 27.1419 46.7776 24.1524C46.7776 21.1629 46.1925 18.2638 45.0385 15.5356C43.9236 12.8996 42.3271 10.5318 40.2933 8.498C38.2595 6.46423 35.8917 4.8677 33.2557 3.75274C30.5275 2.59882 27.6284 2.01372 24.6389 2.01372ZM24.6389 0.195435C37.8699 0.195435 48.5959 10.9213 48.5959 24.1524C48.5959 37.3835 37.8699 48.1094 24.6389 48.1094C11.4078 48.1094 0.681885 37.3835 0.681885 24.1524C0.681885 10.9213 11.4078 0.195435 24.6389 0.195435Z" fill="#032F6F"/>
<path d="M15.8831 22.2408L21.7215 30.1532L34.5371 18.4965" stroke="#032F6F" stroke-width="3" stroke-linecap="round"/>
</svg>
