<svg width="30" height="34" viewBox="0 0 30 34" fill="none" xmlns="http://www.w3.org/2000/svg">
<path d="M0.786047 15.6282C0.775274 15.537 0.769502 15.4443 0.769502 15.35C0.769502 14.0992 1.78717 13.0815 3.03799 13.0815C4.28882 13.0815 5.30649 14.0996 5.30649 15.35C5.30649 16.6004 4.28882 17.6189 3.03799 17.6189C2.82561 17.6189 2.65324 17.7909 2.65324 18.0036C2.65324 18.2164 2.82561 18.3884 3.03799 18.3884C4.7132 18.3884 6.07599 17.0256 6.07599 15.3504C6.07599 13.6752 4.7132 12.312 3.03799 12.312C1.36279 12.312 0 13.6748 0 15.35C0 15.4751 0.00769487 15.5986 0.0223154 15.7198C0.047709 15.931 0.240085 16.0826 0.450159 16.056C0.661002 16.0306 0.81144 15.839 0.786047 15.6282Z" fill="#32A071"/>
<path d="M2.04226 17.3889C1.63481 17.1896 1.29969 16.8768 1.0723 16.484C0.965723 16.2997 0.730256 16.237 0.546345 16.3439C0.362434 16.4501 0.299719 16.6856 0.405911 16.8695C0.710249 17.3951 1.15887 17.8137 1.70406 18.0799C1.7587 18.1065 1.81641 18.1192 1.87258 18.1192C2.01494 18.1192 2.15191 18.0399 2.21847 17.9033C2.31235 17.7129 2.23309 17.482 2.04226 17.3889Z" fill="#32A071"/>
<path d="M26.1231 12.312C24.4479 12.312 23.0851 13.6748 23.0851 15.35C23.0851 15.4751 23.0928 15.5986 23.1074 15.7198C23.1328 15.9306 23.3248 16.0814 23.5352 16.056C23.7465 16.0306 23.8965 15.839 23.8715 15.6282C23.8607 15.537 23.8546 15.4443 23.8546 15.35C23.8546 14.0992 24.8726 13.0815 26.1231 13.0815C27.3735 13.0815 28.3916 14.0996 28.3916 15.35C28.3916 16.6004 27.3739 17.6189 26.1231 17.6189C25.9103 17.6189 25.7383 17.7909 25.7383 18.0036C25.7383 18.2164 25.9103 18.3884 26.1231 18.3884C27.7983 18.3884 29.1611 17.0256 29.1611 15.3504C29.1611 13.6752 27.7983 12.312 26.1231 12.312Z" fill="#32A071"/>
<path d="M24.7892 18.0802C24.8438 18.1067 24.9012 18.1194 24.9577 18.1194C25.1001 18.1194 25.237 18.0402 25.3036 17.9036C25.3967 17.7127 25.3178 17.4819 25.127 17.3888C24.7196 17.1895 24.3841 16.8767 24.1571 16.4838C24.0505 16.2995 23.8158 16.2361 23.6315 16.3438C23.4476 16.45 23.3845 16.6854 23.4914 16.8694C23.7954 17.3953 24.2444 17.8139 24.7892 18.0802Z" fill="#32A071"/>
<path d="M11.5648 10.718C11.5902 10.9293 11.7841 11.0797 11.9926 11.0543C12.2035 11.0289 12.3539 10.8373 12.3289 10.6265C12.3181 10.5353 12.3124 10.4426 12.3124 10.3483C12.3124 9.09747 13.33 8.0798 14.5809 8.0798C15.8317 8.0798 16.8494 9.09786 16.8494 10.3483C16.8494 11.5987 15.8313 12.6172 14.5805 12.6172C14.3681 12.6172 14.1957 12.7892 14.1957 13.0019C14.1957 13.2147 14.3681 13.3867 14.5805 13.3867C16.2557 13.3867 17.6185 12.0239 17.6185 10.3487C17.6185 8.67348 16.2557 7.3103 14.5805 7.3103C12.9053 7.3103 11.5425 8.67309 11.5425 10.3483C11.5425 10.4737 11.5502 10.5968 11.5648 10.718Z" fill="#32A071"/>
<path d="M12.6148 11.4825C12.5082 11.2982 12.2731 11.2355 12.0888 11.3425C11.9049 11.4487 11.8422 11.6841 11.9484 11.868C12.2527 12.3936 12.7013 12.8122 13.2465 13.0785C13.3012 13.105 13.3589 13.1177 13.4151 13.1177C13.5574 13.1177 13.6944 13.0385 13.761 12.9019C13.8544 12.711 13.7752 12.4802 13.5844 12.3871C13.1777 12.1882 12.8422 11.875 12.6148 11.4825Z" fill="#32A071"/>
<path d="M19.3027 3.74401C19.5139 3.71862 19.664 3.52701 19.639 3.31617C19.6282 3.22498 19.622 3.13226 19.622 3.03799C19.622 1.78717 20.6401 0.769502 21.8905 0.769502C23.141 0.769502 24.159 1.78755 24.159 3.03799C24.159 4.28843 23.1417 5.30687 21.8909 5.30687C21.6781 5.30687 21.5061 5.47886 21.5061 5.69162C21.5061 5.90439 21.6781 6.07637 21.8909 6.07637C23.5661 6.07637 24.9289 4.71359 24.9289 3.03838C24.9289 1.36317 23.5661 0 21.8909 0C20.2157 0 18.8529 1.36279 18.8529 3.03799C18.8529 3.16304 18.8606 3.28654 18.8752 3.40774C18.9006 3.61858 19.0911 3.77133 19.3027 3.74401Z" fill="#32A071"/>
<path d="M19.9251 4.17223C19.8185 3.98832 19.5838 3.92445 19.3995 4.03218C19.2156 4.13837 19.1525 4.37384 19.2595 4.55775C19.5635 5.08332 20.0125 5.50193 20.5573 5.76818C20.6119 5.79473 20.6692 5.80742 20.7258 5.80742C20.8681 5.80742 21.0051 5.72816 21.0717 5.59158C21.1648 5.40074 21.0859 5.16989 20.8951 5.07678C20.488 4.87786 20.1521 4.56468 19.9251 4.17223Z" fill="#32A071"/>
<path d="M4.68207 3.74401C4.89292 3.71862 5.04335 3.52701 5.01835 3.31617C5.00757 3.22498 5.0018 3.13226 5.0018 3.03799C5.0018 1.78717 6.01947 0.769502 7.27029 0.769502C8.52112 0.769502 9.53879 1.78755 9.53879 3.03799C9.53879 4.28843 8.52112 5.30687 7.27029 5.30687C7.05791 5.30687 6.88554 5.47886 6.88554 5.69162C6.88554 5.90439 7.05791 6.07637 7.27029 6.07637C8.9455 6.07637 10.3083 4.71359 10.3083 3.03838C10.3083 1.36317 8.9455 0 7.27029 0C5.59509 0 4.2323 1.36279 4.2323 3.03799C4.2323 3.16304 4.24 3.28654 4.25462 3.40774C4.28001 3.61897 4.472 3.77018 4.68207 3.74401Z" fill="#32A071"/>
<path d="M5.30448 4.1723C5.19829 3.98839 4.96243 3.92491 4.77852 4.03225C4.59461 4.13845 4.5319 4.37391 4.63809 4.55782C4.94243 5.08339 5.39105 5.502 5.93624 5.76825C5.99087 5.7948 6.04859 5.8075 6.10476 5.8075C6.24712 5.8075 6.38409 5.72824 6.45065 5.59165C6.54415 5.40081 6.46489 5.16996 6.27405 5.07685C5.86737 4.87794 5.53187 4.56475 5.30448 4.1723Z" fill="#32A071"/>
<path d="M14.5806 20.3872C11.618 20.3872 9.20752 22.7977 9.20752 25.7603C9.20752 26.4478 9.33526 27.1165 9.58727 27.7483C9.66614 27.9456 9.8893 28.0426 10.0871 27.9633C10.2844 27.8849 10.3806 27.6609 10.3018 27.4635C10.0859 26.923 9.97664 26.3497 9.97664 25.7603C9.97664 23.2217 12.0416 21.1567 14.5802 21.1567C17.1188 21.1567 19.1837 23.2217 19.1837 25.7603C19.1837 28.2988 17.1192 30.3638 14.5806 30.3638C14.3305 30.3638 14.0831 30.3442 13.8449 30.3057C13.6337 30.2707 13.4375 30.4142 13.4036 30.6239C13.3698 30.8336 13.5121 31.0313 13.7218 31.0652C14.0008 31.1102 14.2897 31.1333 14.5806 31.1333C17.5432 31.1333 19.9536 28.7228 19.9536 25.7603C19.9536 22.7977 17.5432 20.3872 14.5806 20.3872Z" fill="#32A071"/>
<path d="M12.6696 29.9502C12.169 29.7212 11.7169 29.4073 11.326 29.0167C11.1344 28.8248 10.9605 28.6178 10.8089 28.4011C10.6873 28.2276 10.4468 28.1849 10.2729 28.3069C10.0986 28.4288 10.0567 28.6689 10.1787 28.8432C10.3557 29.0956 10.5584 29.3369 10.7816 29.5604C11.2379 30.0163 11.7654 30.383 12.3491 30.6496C12.401 30.6735 12.4552 30.6846 12.5091 30.6846C12.6549 30.6846 12.7946 30.6012 12.8592 30.4599C12.9477 30.2664 12.8627 30.0383 12.6696 29.9502Z" fill="#32A071"/>
<path d="M14.5036 27.8335C13.94 27.8335 13.5406 27.63 13.1489 27.418L12.7992 27.9428C13.2063 28.2483 13.8111 28.4203 14.1958 28.4599V29.1267H14.9653V28.4518C15.7348 28.3345 16.3008 27.6531 16.3008 26.8386C16.3008 24.7475 13.6441 25.5701 13.6441 24.3165C13.6441 23.8783 13.7922 23.4785 14.5598 23.4785C14.9046 23.4785 15.3109 23.5724 15.7418 23.8548L16.1019 23.3535C15.7491 23.0873 15.3501 22.9226 14.9653 22.876V22.2012H14.1958V22.876C13.4263 22.9541 12.9165 23.4712 12.9165 24.325C12.9165 26.2749 15.5625 25.2176 15.5625 26.8936C15.5625 27.418 15.3182 27.8335 14.5036 27.8335Z" fill="#32A071"/>
<path d="M9.64493 5.72318C9.4945 5.87362 9.4945 6.11678 9.64493 6.26722L11.277 7.89972C11.3521 7.97474 11.4506 8.01245 11.5491 8.01245C11.6476 8.01245 11.7461 7.97474 11.8211 7.89972C11.9715 7.74928 11.9715 7.50612 11.8211 7.35568L10.189 5.72318C10.0385 5.57274 9.79499 5.57274 9.64493 5.72318Z" fill="#32A071"/>
<path d="M17.6117 8.01206C17.7101 8.01206 17.8086 7.97436 17.8837 7.89933L19.5162 6.26722C19.6666 6.11678 19.6666 5.87362 19.5162 5.72318C19.3657 5.57274 19.1226 5.57274 18.9721 5.72318L17.3396 7.35529C17.1892 7.50573 17.1892 7.74889 17.3396 7.89933C17.4147 7.97436 17.5132 8.01206 17.6117 8.01206Z" fill="#32A071"/>
<path d="M26.1231 19.1233C25.9104 19.1233 25.7384 19.2953 25.7384 19.5081V24.8946C25.7384 27.0346 24.1559 28.806 22.106 29.1007C22.5619 28.0784 22.82 26.95 22.82 25.7603C22.82 21.3472 19.3296 17.7436 14.9654 17.5409V14.5063C14.9654 14.2936 14.793 14.1216 14.5806 14.1216C14.3682 14.1216 14.1959 14.2936 14.1959 14.5063V17.5409C9.83201 17.7436 6.34116 21.3472 6.34116 25.7603C6.34116 26.95 6.59971 28.078 7.05526 29.1007C5.0053 28.806 3.42282 27.0346 3.42282 24.8946V19.5081C3.42282 19.2953 3.25045 19.1233 3.03807 19.1233C2.82569 19.1233 2.65332 19.2953 2.65332 19.5081V24.8946C2.65332 27.6029 4.79985 29.8113 7.4731 29.9083C8.90437 32.3515 11.5507 34.0001 14.5806 34.0001C17.6105 34.0001 20.2568 32.3515 21.6881 29.9083C24.3614 29.8113 26.5079 27.6029 26.5079 24.8946V19.5081C26.5079 19.2953 26.3359 19.1233 26.1231 19.1233ZM14.5806 33.2306C10.4615 33.2306 7.11066 29.8794 7.11066 25.7603C7.11066 21.6415 10.4615 18.2907 14.5806 18.2907C18.6994 18.2907 22.0505 21.6415 22.0505 25.7603C22.0505 29.8794 18.6994 33.2306 14.5806 33.2306Z" fill="#32A071"/>
</svg>
