<svg width="26" height="24" viewBox="0 0 26 24" fill="none" xmlns="http://www.w3.org/2000/svg">
<path d="M9.53333 9.96667H7.8C7.45522 9.96667 7.12456 10.1036 6.88076 10.3474C6.63696 10.5912 6.5 10.9219 6.5 11.2667V12.1333C6.5 12.4781 6.63696 12.8088 6.88076 13.0526C7.12456 13.2964 7.45522 13.4333 7.8 13.4333H9.53333C9.87811 13.4333 10.2088 13.2964 10.4526 13.0526C10.6964 12.8088 10.8333 12.4781 10.8333 12.1333V11.2667C10.8333 10.9219 10.6964 10.5912 10.4526 10.3474C10.2088 10.1036 9.87811 9.96667 9.53333 9.96667ZM9.96667 12.1333C9.96667 12.2483 9.92101 12.3585 9.83975 12.4398C9.75848 12.521 9.64826 12.5667 9.53333 12.5667H7.8C7.68507 12.5667 7.57485 12.521 7.49359 12.4398C7.41232 12.3585 7.36667 12.2483 7.36667 12.1333V11.2667C7.36667 11.1517 7.41232 11.0415 7.49359 10.9603C7.57485 10.879 7.68507 10.8333 7.8 10.8333H9.53333C9.64826 10.8333 9.75848 10.879 9.83975 10.9603C9.92101 11.0415 9.96667 11.1517 9.96667 11.2667V12.1333Z" fill="#C31162"/>
<path d="M24.2666 7.80005H6.06665C5.60694 7.80005 5.16606 7.98267 4.84099 8.30773C4.51593 8.63279 4.33331 9.07367 4.33331 9.53338V21.6667C4.33331 22.1264 4.51593 22.5673 4.84099 22.8924C5.16606 23.2174 5.60694 23.4 6.06665 23.4H24.2666C24.7264 23.4 25.1672 23.2174 25.4923 22.8924C25.8174 22.5673 26 22.1264 26 21.6667V9.53338C26 9.07367 25.8174 8.63279 25.4923 8.30773C25.1672 7.98267 24.7264 7.80005 24.2666 7.80005ZM25.1333 21.6667C25.1333 21.8966 25.042 22.117 24.8795 22.2795C24.7169 22.4421 24.4965 22.5334 24.2666 22.5334H6.06665C5.83679 22.5334 5.61635 22.4421 5.45382 22.2795C5.29129 22.117 5.19998 21.8966 5.19998 21.6667V9.53338C5.19998 9.30353 5.29129 9.08309 5.45382 8.92056C5.61635 8.75802 5.83679 8.66672 6.06665 8.66672H24.2666C24.4965 8.66672 24.7169 8.75802 24.8795 8.92056C25.042 9.08309 25.1333 9.30353 25.1333 9.53338V21.6667Z" fill="#C31162"/>
<path d="M3.03333 14.7333H1.73333C1.50348 14.7333 1.28304 14.642 1.12051 14.4795C0.957976 14.317 0.866667 14.0965 0.866667 13.8667V6.06667H20.8V6.28333C20.8 6.39826 20.8457 6.50848 20.9269 6.58975C21.0082 6.67101 21.1184 6.71667 21.2333 6.71667C21.3483 6.71667 21.4585 6.67101 21.5397 6.58975C21.621 6.50848 21.6667 6.39826 21.6667 6.28333V1.73333C21.6667 1.27362 21.484 0.832745 21.159 0.507681C20.8339 0.182618 20.393 0 19.9333 0H1.73333C1.27362 0 0.832745 0.182618 0.507682 0.507681C0.182619 0.832745 0 1.27362 0 1.73333V13.8667C0 14.3264 0.182619 14.7673 0.507682 15.0923C0.832745 15.4174 1.27362 15.6 1.73333 15.6H3.03333C3.14826 15.6 3.25848 15.5543 3.33975 15.4731C3.42101 15.3918 3.46667 15.2816 3.46667 15.1667C3.46667 15.0517 3.42101 14.9415 3.33975 14.8603C3.25848 14.779 3.14826 14.7333 3.03333 14.7333ZM1.73333 0.866667H19.9333C20.1632 0.866667 20.3836 0.957976 20.5462 1.12051C20.7087 1.28304 20.8 1.50348 20.8 1.73333V3.03333H0.866667V1.73333C0.866667 1.50348 0.957976 1.28304 1.12051 1.12051C1.28304 0.957976 1.50348 0.866667 1.73333 0.866667Z" fill="#C31162"/>
</svg>
