<svg width="44" height="50" viewBox="0 0 44 50" fill="none" xmlns="http://www.w3.org/2000/svg">
<path d="M32.8787 21.7814V12.69C32.8699 12.4319 32.7666 12.186 32.5884 11.9991L22.3932 1.29116C22.2985 1.19302 22.1849 1.11497 22.0593 1.06166C21.9337 1.00834 21.7987 0.980857 21.6623 0.980835H5.4983C4.78983 0.983134 4.08877 1.12521 3.43531 1.39892C2.78184 1.67263 2.1888 2.07259 1.69017 2.57589C1.19155 3.07919 0.797135 3.67593 0.529534 4.33192C0.261934 4.98792 0.126405 5.69027 0.130715 6.39873V36.9635C0.127191 37.6699 0.263547 38.37 0.531918 39.0234C0.800289 39.6768 1.19536 40.2705 1.69436 40.7705C2.19335 41.2705 2.78639 41.6667 3.43927 41.9363C4.09215 42.2059 4.79194 42.3436 5.4983 42.3414H18.2572C19.4331 44.3047 21.0797 45.944 23.0482 47.1112C25.0167 48.2784 27.245 48.9367 29.5317 49.0265C31.8185 49.1164 34.0916 48.635 36.1455 47.6258C38.1995 46.6167 39.9697 45.1116 41.296 43.2466C42.6223 41.3816 43.4629 39.2155 43.742 36.9441C44.021 34.6727 43.7296 32.3675 42.8942 30.2369C42.0587 28.1064 40.7055 26.2176 38.9568 24.7413C37.2082 23.265 35.1192 22.2478 32.8787 21.7814ZM22.6635 4.49619L29.5033 11.6966H25.0667C24.4291 11.6925 23.8188 11.4367 23.3688 10.9849C22.9188 10.5332 22.6653 9.92202 22.6635 9.28435V4.49619ZM5.4983 40.3383C5.05502 40.3399 4.6158 40.2537 4.20604 40.0845C3.79628 39.9154 3.42409 39.6668 3.11098 39.353C2.79786 39.0392 2.55003 38.6665 2.3818 38.2564C2.21356 37.8462 2.12827 37.4068 2.13083 36.9635V6.39873C2.12619 5.95284 2.20976 5.51043 2.37673 5.09696C2.5437 4.68348 2.79077 4.3071 3.10373 3.98946C3.41669 3.67183 3.78937 3.4192 4.20032 3.24612C4.61127 3.07304 5.05239 2.98293 5.4983 2.98095H20.6604V9.28435C20.6601 10.454 21.1239 11.576 21.95 12.4041C22.7761 13.2321 23.897 13.6986 25.0667 13.701H30.8749V21.5196C30.5719 21.5099 30.3343 21.4796 30.0737 21.4796C26.7141 21.4927 23.4717 22.7157 20.9404 24.9247H8.2227C8.08723 24.918 7.95182 24.9389 7.82468 24.9862C7.69753 25.0334 7.58132 25.106 7.48308 25.1995C7.38484 25.293 7.30662 25.4055 7.25318 25.5302C7.19974 25.6549 7.17218 25.7891 7.17218 25.9247C7.17218 26.0604 7.19974 26.1946 7.25318 26.3192C7.30662 26.4439 7.38484 26.5564 7.48308 26.6499C7.58132 26.7435 7.69753 26.816 7.82468 26.8633C7.95182 26.9105 8.08723 26.9314 8.2227 26.9248H19.0785C18.3765 27.8903 17.7853 28.9316 17.316 30.0292H8.22452C7.96781 30.0418 7.72578 30.1527 7.54857 30.3389C7.37135 30.5251 7.27251 30.7722 7.27251 31.0293C7.27251 31.2863 7.37135 31.5335 7.54857 31.7196C7.72578 31.9058 7.96781 32.0167 8.22452 32.0293H16.665C16.0002 34.7954 16.2101 37.6996 17.2657 40.3413H5.4983V40.3383ZM30.0646 47.0381C27.7371 47.0384 25.4619 46.3486 23.5265 45.0558C21.5911 43.763 20.0826 41.9253 19.1917 39.7752C18.3008 37.625 18.0675 35.2589 18.5213 32.9761C18.9751 30.6934 20.0957 28.5965 21.7414 26.9506C23.387 25.3047 25.4837 24.1838 27.7664 23.7296C30.0491 23.2754 32.4152 23.5083 34.5655 24.3989C36.7158 25.2895 38.5537 26.7978 39.8468 28.7329C41.1399 30.6681 41.8301 32.9433 41.8301 35.2707C41.8269 38.3903 40.5864 41.3813 38.3806 43.5873C36.1749 45.7934 33.1842 47.0344 30.0646 47.0381Z" fill="#032F6F"/>
<path d="M8.22033 21.9111H18.367C18.5025 21.9178 18.6379 21.8969 18.765 21.8496C18.8922 21.8024 19.0084 21.7298 19.1066 21.6363C19.2048 21.5428 19.2831 21.4302 19.3365 21.3056C19.3899 21.1809 19.4175 21.0467 19.4175 20.9111C19.4175 20.7754 19.3899 20.6412 19.3365 20.5165C19.2831 20.3919 19.2048 20.2794 19.1066 20.1859C19.0084 20.0923 18.8922 20.0197 18.765 19.9725C18.6379 19.9252 18.5025 19.9043 18.367 19.911H8.22033C7.96361 19.9236 7.72159 20.0345 7.54437 20.2207C7.36715 20.4069 7.26831 20.654 7.26831 20.9111C7.26831 21.1681 7.36715 21.4153 7.54437 21.6014C7.72159 21.7876 7.96361 21.8985 8.22033 21.9111Z" fill="#032F6F"/>
<path d="M30.7767 27.88C30.6836 27.779 30.5706 27.6983 30.4448 27.6432C30.319 27.588 30.1831 27.5596 30.0457 27.5596C29.9084 27.5596 29.7725 27.588 29.6467 27.6432C29.5209 27.6983 29.4079 27.779 29.3148 27.88L23.4429 34.1791C23.3533 34.2751 23.2835 34.3877 23.2375 34.5107C23.1915 34.6337 23.1703 34.7645 23.1749 34.8957C23.1796 35.0269 23.2101 35.1558 23.2648 35.2752C23.3194 35.3946 23.397 35.502 23.4932 35.5913C23.6908 35.7724 23.9516 35.8687 24.2195 35.8594C24.4874 35.8501 24.7409 35.736 24.9254 35.5416L29.0717 31.105V42.0384C29.0651 42.1739 29.086 42.3093 29.1332 42.4364C29.1805 42.5636 29.2531 42.6798 29.3466 42.778C29.4401 42.8762 29.5526 42.9545 29.6773 43.0079C29.8019 43.0613 29.9362 43.0889 30.0718 43.0889C30.2074 43.0889 30.3417 43.0613 30.4663 43.0079C30.591 42.9545 30.7035 42.8762 30.797 42.778C30.8905 42.6798 30.9631 42.5636 31.0104 42.4364C31.0576 42.3093 31.0785 42.1739 31.0719 42.0384V31.1044L35.1879 35.541C35.3691 35.7325 35.6187 35.8445 35.8823 35.8527C36.1458 35.861 36.4019 35.7648 36.5948 35.5851C36.7877 35.4053 36.9018 35.1567 36.9122 34.8932C36.9226 34.6298 36.8285 34.3729 36.6504 34.1785L30.7767 27.88Z" fill="#032F6F"/>
</svg>
