<svg width="6" height="6" viewBox="0 0 6 6" fill="none" xmlns="http://www.w3.org/2000/svg">
<path d="M5.20835 0.289992L2.07699 0.289992C2.05707 0.289151 2.03719 0.292348 2.01854 0.299391C1.99989 0.306434 1.98285 0.317177 1.96846 0.330974C1.95407 0.34477 1.94262 0.361335 1.9348 0.379672C1.92697 0.39801 1.92294 0.41774 1.92294 0.437676C1.92294 0.457612 1.92697 0.477342 1.9348 0.49568C1.94262 0.514017 1.95407 0.530582 1.96846 0.544378C1.98285 0.558175 1.99989 0.568918 2.01854 0.57596C2.03719 0.583003 2.05707 0.586201 2.07699 0.58536L4.8529 0.58536L0.304806 5.13352C0.289641 5.14687 0.277373 5.16318 0.26876 5.18146C0.260147 5.19973 0.255372 5.21958 0.254729 5.23977C0.254086 5.25997 0.25759 5.28008 0.265023 5.29886C0.272456 5.31765 0.283662 5.33471 0.297948 5.349C0.312233 5.36328 0.329296 5.37449 0.348081 5.38192C0.366867 5.38936 0.386977 5.39286 0.40717 5.39222C0.427363 5.39157 0.447209 5.3868 0.465484 5.37819C0.483759 5.36957 0.500074 5.3573 0.513423 5.34214L5.06152 0.79398L5.06109 3.56781C5.06025 3.58773 5.06345 3.60762 5.07049 3.62627C5.07753 3.64492 5.08828 3.66195 5.10207 3.67634C5.11587 3.69073 5.13243 3.70218 5.15077 3.71001C5.16911 3.71783 5.18884 3.72186 5.20877 3.72186C5.22871 3.72186 5.24844 3.71783 5.26678 3.71001C5.28511 3.70218 5.30168 3.69073 5.31547 3.67634C5.32927 3.66195 5.34001 3.64492 5.34706 3.62627C5.3541 3.60762 5.3573 3.58773 5.35646 3.56781L5.35646 0.436406C5.35635 0.417066 5.35244 0.397936 5.34493 0.38011C5.33743 0.362283 5.32649 0.346109 5.31274 0.332512C5.29899 0.318915 5.28269 0.308161 5.26478 0.300866C5.24686 0.29357 5.22769 0.289875 5.20835 0.289992Z" fill="#032F6F" stroke="#032F6F" stroke-width="0.5"/>
</svg>
