<svg width="41" height="42" viewBox="0 0 41 42" fill="none" xmlns="http://www.w3.org/2000/svg">
<path d="M37.2147 27.4229L34.3318 28.3843C34.1837 27.9404 33.9353 27.5365 33.6058 27.2042C33.2764 26.8718 32.8747 26.6199 32.4321 26.4679C32.3066 25.6411 31.8771 24.8908 31.2276 24.3639C30.5782 23.837 29.7555 23.5714 28.9205 23.619C28.371 22.7367 27.591 22.0211 26.6647 21.5496C25.7384 21.0781 24.7009 20.8684 23.6641 20.9433C23.5515 20.503 23.3292 20.0984 23.018 19.7672C22.7067 19.436 22.3167 19.189 21.8842 19.0493C22.5118 17.0077 23.6321 15.1519 25.1465 13.6456C25.2277 13.7382 25.3031 13.8355 25.3888 13.9236C26.0578 14.6063 26.8554 15.1498 27.7356 15.5226C28.6157 15.8954 29.561 16.0901 30.5169 16.0956C30.6527 16.0956 30.7897 16.0916 30.9256 16.0829C31.785 16.0439 32.6254 15.8171 33.3878 15.4184C34.1501 15.0197 34.8158 14.4587 35.3381 13.7751C38.2601 9.93138 40.4097 2.20769 40.4995 1.88071C40.5249 1.7881 40.5301 1.69111 40.5148 1.59631C40.4995 1.5015 40.464 1.41109 40.4107 1.33118C40.3575 1.25128 40.2877 1.18375 40.206 1.13315C40.1244 1.08256 40.0329 1.05009 39.9376 1.03794C39.5421 0.98555 30.1928 -0.188229 25.5189 3.7591C25.1888 4.03767 24.8893 4.35069 24.6255 4.69283C22.7854 4.18497 20.8659 4.02873 18.9679 4.2323C18.8701 4.2436 18.7759 4.27628 18.6922 4.32802C18.6084 4.37976 18.537 4.4493 18.4831 4.5317C18.4293 4.6141 18.3942 4.70735 18.3803 4.80484C18.3665 4.90232 18.3743 5.00166 18.4031 5.0958C18.448 5.24144 19.5142 8.67816 20.9815 10.3994C21.3028 10.7638 21.6997 11.0537 22.1445 11.2488C22.5894 11.444 23.0714 11.5398 23.5571 11.5294C23.6532 11.5294 23.7511 11.5219 23.8484 11.5145C23.9871 11.8621 24.1514 12.199 24.34 12.5224C22.5142 14.2953 21.1942 16.5229 20.5158 18.9756C19.8808 19.1102 19.3152 19.4685 18.9224 19.9854C18.022 19.5876 17.0191 19.4839 16.0563 19.6888C15.0936 19.8938 14.2199 20.397 13.5595 21.1269C13.1645 20.9961 12.7512 20.9292 12.3351 20.9289C11.3843 20.9304 10.4648 21.2681 9.73894 21.8821C9.01312 22.4962 8.52778 23.3471 8.36874 24.2844H7.1253C6.84971 23.8717 6.4766 23.5332 6.03901 23.2991C5.60142 23.0649 5.11285 22.9423 4.61655 22.942H3.27238C2.47162 22.9429 1.70393 23.2614 1.13777 23.8277C0.571601 24.394 0.253203 25.1617 0.252441 25.9625L0.252441 38.0434C0.253356 38.844 0.57182 39.6116 1.13797 40.1778C1.70412 40.7439 2.47172 41.0624 3.27238 41.0633H4.61483C5.2981 41.0601 5.95971 40.8233 6.48977 40.3921H23.9439C24.9278 40.3917 25.8926 40.1208 26.733 39.6092L39.313 31.9529C39.8402 31.6316 40.2306 31.1276 40.4098 30.5369C40.589 29.9462 40.5445 29.3102 40.2847 28.7502C40.0249 28.1903 39.568 27.7455 39.0013 27.5009C38.4345 27.2564 37.7975 27.229 37.2118 27.4241L37.2147 27.4229ZM24.6508 8.43926C24.6713 7.74303 24.8362 7.05866 25.1352 6.42957C25.4342 5.80048 25.8607 5.24042 26.3876 4.78494C28.9545 2.61583 33.3203 2.18811 36.3633 2.18811C37.4519 2.18811 38.3712 2.24568 38.9786 2.29173C38.3586 4.34398 36.5193 10.0039 34.2679 12.964C33.8615 13.4929 33.3442 13.9263 32.7523 14.2339C32.1605 14.5415 31.5085 14.7158 30.8421 14.7445C30.0118 14.788 29.1819 14.654 28.4075 14.3512C27.6332 14.0484 26.9324 13.5839 26.3519 12.9887C26.2667 12.9012 26.1902 12.8045 26.1101 12.7113C27.5165 11.436 29.076 10.3407 30.7529 9.4507C30.8341 9.41321 30.9069 9.35987 30.9672 9.29382C31.0275 9.22778 31.074 9.15035 31.1039 9.0661C31.1339 8.98184 31.1467 8.89245 31.1416 8.80317C31.1365 8.7139 31.1136 8.62654 31.0743 8.54622C31.035 8.46591 30.98 8.39426 30.9127 8.33548C30.8453 8.2767 30.7668 8.23198 30.6819 8.20395C30.597 8.17591 30.5073 8.16512 30.4182 8.17222C30.3291 8.17931 30.2422 8.20414 30.1628 8.24526C28.4243 9.1482 26.8056 10.2652 25.3445 11.5703C24.8442 10.605 24.6051 9.52557 24.6508 8.43926ZM23.3101 8.37363C23.2843 8.98181 23.3336 9.59086 23.4569 10.187C23.1828 10.1849 22.9121 10.1258 22.6621 10.0133C22.4122 9.90079 22.1884 9.73742 22.0051 9.53359C21.1203 8.30554 20.4304 6.94826 19.9597 5.5097C21.2887 5.43242 22.6218 5.55703 23.9134 5.87927C23.5541 6.6641 23.3493 7.51077 23.3101 8.37305V8.37363ZM6.29289 38.0434C6.29243 38.4883 6.11549 38.9148 5.80089 39.2294C5.48629 39.544 5.05974 39.721 4.61483 39.7214H3.27238C2.82747 39.721 2.40091 39.544 2.08631 39.2294C1.77172 38.9148 1.59477 38.4883 1.59432 38.0434V25.9625C1.59477 25.5176 1.77172 25.091 2.08631 24.7764C2.40091 24.4618 2.82747 24.2849 3.27238 24.2844H4.61483C5.05974 24.2849 5.48629 24.4618 5.80089 24.7764C6.11549 25.091 6.29243 25.5176 6.29289 25.9625V38.0434ZM12.3333 22.2731C12.7305 22.2754 13.122 22.3671 13.4789 22.5413C13.6208 22.6085 13.7817 22.6239 13.9337 22.5849C14.0857 22.5459 14.2193 22.4549 14.3113 22.3277C14.8084 21.6321 15.5533 21.1536 16.3927 20.9909C17.2321 20.8282 18.1019 20.9937 18.8228 21.4533C18.9068 21.5065 19.0016 21.5404 19.1003 21.5525C19.199 21.5645 19.2991 21.5546 19.3935 21.5232C19.4878 21.4919 19.5741 21.4399 19.6459 21.3712C19.7178 21.3025 19.7734 21.2186 19.8089 21.1258C19.9011 20.8805 20.0639 20.668 20.2769 20.5153C20.4898 20.3626 20.7433 20.2766 21.0052 20.268C21.023 20.268 21.0414 20.2732 21.0593 20.2732C21.0771 20.2732 21.0909 20.2657 21.1076 20.2646C21.4487 20.2749 21.773 20.4155 22.0136 20.6575C22.2543 20.8994 22.3932 21.2244 22.4017 21.5656C22.4017 21.584 22.3919 21.6479 22.3908 21.6663C22.3849 21.769 22.4028 21.8717 22.443 21.9664C22.4831 22.0611 22.5445 22.1453 22.6224 22.2126C22.7003 22.2798 22.7926 22.3282 22.8922 22.354C22.9918 22.3799 23.096 22.3825 23.1967 22.3617C23.4871 22.3024 23.7828 22.2725 24.0792 22.2725C24.8829 22.2713 25.6711 22.493 26.3564 22.9129C27.0417 23.3328 27.5971 23.9345 27.9609 24.6511C28.028 24.7825 28.1366 24.8881 28.2698 24.9515C28.403 25.0149 28.5535 25.0325 28.6978 25.0017C28.9883 24.9421 29.2884 24.9472 29.5768 25.0165C29.8652 25.0858 30.1348 25.2177 30.3665 25.4028C30.5983 25.5879 30.7865 25.8217 30.9178 26.0877C31.0491 26.3536 31.1204 26.6452 31.1265 26.9417C31.1265 26.9641 31.1236 26.9866 31.1236 27.0044C31.1236 27.1659 31.1818 27.3219 31.2876 27.4439C31.3933 27.566 31.5395 27.6458 31.6993 27.6688C32.009 27.7144 32.2998 27.8457 32.539 28.0476C32.7782 28.2496 32.9563 28.5143 33.0532 28.812L24.7913 31.5643C24.586 31.6326 24.371 31.6674 24.1546 31.6673H23.7689C23.9263 31.2357 23.9855 30.7744 23.9421 30.317C23.8987 29.8596 23.7538 29.4176 23.5179 29.0233L23.4604 28.9249C23.1014 28.3293 22.595 27.8363 21.9899 27.4934C21.3849 27.1506 20.7018 26.9695 20.0064 26.9676H16.4948C15.2576 26.966 14.0573 26.5453 13.0898 25.7742C12.1189 25.0019 10.9558 24.5091 9.72558 24.3489C9.86281 23.7597 10.195 23.2341 10.6683 22.8573C11.1417 22.4805 11.7284 22.2747 12.3333 22.2731ZM39.1593 30.0307C39.1292 30.1909 39.0655 30.343 38.9725 30.4768C38.8794 30.6107 38.7591 30.7233 38.6193 30.8073L26.0388 38.4636C25.4079 38.8477 24.6836 39.0508 23.9451 39.0508H7.44825C7.5676 38.7284 7.63031 38.3877 7.63361 38.044V25.9625C7.62871 25.8501 7.61737 25.738 7.59965 25.6269H8.84078C10.0795 25.6278 11.2813 26.0486 12.2499 26.8208C13.4559 27.7831 14.9525 28.3081 16.4954 28.31H20.007C20.4705 28.3114 20.9259 28.4321 21.3292 28.6606C21.7325 28.889 22.0702 29.2176 22.3096 29.6145L22.3672 29.7129C22.5463 30.0115 22.6324 30.3567 22.6147 30.7044C22.5969 31.0522 22.4761 31.3868 22.2676 31.6656H18.189C16.864 31.6643 15.5684 32.0566 14.4668 32.7927L13.9751 33.1203C13.8996 33.1682 13.8344 33.2307 13.7834 33.3041C13.7324 33.3776 13.6966 33.4605 13.678 33.548C13.6595 33.6354 13.6586 33.7257 13.6755 33.8136C13.6923 33.9014 13.7266 33.985 13.7761 34.0594C13.8257 34.1338 13.8897 34.1975 13.9643 34.2469C14.0389 34.2962 14.1225 34.3302 14.2104 34.3467C14.2983 34.3633 14.3886 34.3621 14.476 34.3433C14.5634 34.3245 14.6462 34.2883 14.7195 34.2371L15.2111 33.9095C16.0927 33.3205 17.1293 33.0066 18.1896 33.0075H24.1546C24.5152 33.0072 24.8735 32.9489 25.2156 32.8348L33.7792 29.9829C33.7901 29.9829 33.7993 29.9893 33.8102 29.9893C33.9608 29.9866 34.1059 29.9324 34.2213 29.8356L37.6396 28.6963C37.8728 28.6184 38.1246 28.6161 38.3592 28.6898C38.5937 28.7635 38.799 28.9095 38.9457 29.1068C39.0443 29.2368 39.1141 29.3862 39.1508 29.5451C39.1874 29.7041 39.1899 29.869 39.1582 30.029L39.1593 30.0307Z" fill="#032F6F" stroke="#032F6F" stroke-width="0.2"/>
<path d="M15.5889 24.9424C15.7633 24.9779 15.9447 24.9426 16.0931 24.8444C16.2416 24.7461 16.3449 24.593 16.3804 24.4185C16.4273 24.1913 16.5509 23.9871 16.7306 23.8403C16.9103 23.6935 17.1351 23.6131 17.3671 23.6126C17.5849 23.6118 17.797 23.6824 17.971 23.8135C18.1136 23.9149 18.2902 23.9566 18.4631 23.9297C18.636 23.9028 18.7915 23.8094 18.8966 23.6695C19.0017 23.5296 19.048 23.3542 19.0256 23.1807C19.0033 23.0071 18.914 22.8492 18.7769 22.7405C18.371 22.4339 17.8758 22.2687 17.3671 22.2702C16.8258 22.2713 16.3014 22.4587 15.882 22.801C15.4627 23.1433 15.174 23.6196 15.0645 24.1497C15.0467 24.2362 15.0462 24.3253 15.063 24.412C15.0798 24.4987 15.1135 24.5812 15.1622 24.6549C15.2109 24.7285 15.2737 24.7918 15.3469 24.8411C15.4201 24.8905 15.5024 24.9249 15.5889 24.9424Z" fill="#032F6F" stroke="#032F6F" stroke-width="0.2"/>
<path d="M22.7724 25.1645C22.878 25.2171 22.9956 25.2409 23.1133 25.2336C23.2311 25.2262 23.3448 25.1879 23.443 25.1225C23.6369 24.9953 23.8685 24.9388 24.0991 24.9623C24.3297 24.9857 24.5453 25.0878 24.7095 25.2514C24.8642 25.405 24.9643 25.605 24.9944 25.8208C25.0174 25.9805 25.0971 26.1266 25.219 26.2323C25.3409 26.338 25.4968 26.3963 25.6582 26.3965C25.6901 26.3964 25.722 26.3943 25.7537 26.3901C25.9299 26.3649 26.0889 26.2707 26.1958 26.1284C26.3026 25.986 26.3486 25.8071 26.3237 25.6308C26.2675 25.2386 26.1131 24.8669 25.8748 24.5503C25.6365 24.2337 25.322 23.9826 24.9605 23.8202C24.5991 23.6578 24.2024 23.5894 23.8075 23.6215C23.4125 23.6535 23.0321 23.7849 22.7016 24.0034C22.6031 24.0684 22.5236 24.1582 22.4709 24.2637C22.4182 24.3692 22.3942 24.4867 22.4014 24.6044C22.4086 24.7222 22.4466 24.8359 22.5118 24.9342C22.5769 25.0326 22.6668 25.112 22.7724 25.1645Z" fill="#032F6F" stroke="#032F6F" stroke-width="0.2"/>
</svg>
