<svg width="37" height="36" viewBox="0 0 37 36" fill="none" xmlns="http://www.w3.org/2000/svg">
<path d="M22.7841 0.738037C21.9559 0.738037 21.2762 1.41903 21.2762 2.24891C21.2762 3.07875 21.9559 3.75943 22.7841 3.75943C23.6124 3.75943 24.2918 3.07875 24.2918 2.24891C24.2918 1.41903 23.6124 0.738037 22.7841 0.738037ZM22.7841 1.4936C23.2049 1.4936 23.538 1.82735 23.538 2.24891C23.538 2.67054 23.2051 3.00419 22.7841 3.00419C22.3633 3.00419 22.03 2.67043 22.03 2.24891C22.03 1.82728 22.3633 1.4936 22.7841 1.4936ZM31.1621 2.50824C30.9541 2.51109 30.7878 2.68272 30.7908 2.89125V3.72438H29.9592C29.4475 3.71438 29.4475 4.48895 29.9592 4.47968H30.7908V5.31286C30.7808 5.82548 31.5538 5.82548 31.5447 5.31286V4.47968H32.3762C32.8879 4.48968 32.8879 3.71511 32.3762 3.72438H31.5447V2.89125C31.5475 2.67819 31.3745 2.50505 31.1621 2.50824ZM15.417 5.04575C15.2091 5.0486 15.0428 5.22023 15.0457 5.4287V6.26189H14.2141C13.7109 6.26136 13.7109 7.01705 14.2141 7.01748H15.0457V7.85037C15.0528 8.34867 15.7944 8.34867 15.7998 7.85037V7.01748H16.6314C17.1345 7.01801 17.1345 6.26232 16.6314 6.26189H15.7998V5.4287C15.8026 5.21563 15.6296 5.04246 15.417 5.04575ZM19.8623 7.82008C19.7546 7.82008 19.6523 7.86607 19.5806 7.94677L15.6407 12.3837C15.4659 12.5298 15.4592 12.7964 15.6264 12.9512L23.5483 22.442C23.5512 22.4448 23.5555 22.4491 23.5555 22.452C23.5583 22.4548 23.5654 22.462 23.5697 22.4663C23.5726 22.4691 23.5768 22.4734 23.5797 22.4763C23.5868 22.4791 23.5897 22.4863 23.5973 22.4906C23.6002 22.4934 23.6045 22.4977 23.6073 22.5005C23.6144 22.5034 23.6173 22.5077 23.625 22.5148C23.6278 22.5177 23.635 22.522 23.6392 22.5248C23.6464 22.5277 23.6492 22.532 23.6569 22.5348C23.664 22.5377 23.6669 22.542 23.6746 22.542C23.6817 22.5448 23.6845 22.5491 23.6922 22.5491C23.6994 22.552 23.7022 22.552 23.7099 22.5563C23.717 22.5591 23.7199 22.5591 23.7276 22.5634C23.7347 22.5648 23.7418 22.5663 23.7488 22.5663C23.7559 22.5676 23.7588 22.5691 23.7665 22.5691C23.7736 22.5705 23.7807 22.572 23.7877 22.572C23.7905 22.5728 23.7977 22.5733 23.8019 22.5734C23.809 22.574 23.8196 22.5745 23.8266 22.5745C23.8294 22.5747 23.8337 22.5748 23.8408 22.5748C23.848 22.5746 23.8585 22.5742 23.8655 22.5734C23.8683 22.5731 23.8726 22.5729 23.8797 22.5723C23.8868 22.5715 23.8974 22.5694 23.9044 22.5694C23.9072 22.5689 23.9115 22.568 23.9186 22.5666C23.9257 22.5651 23.9363 22.5637 23.9433 22.5594C23.9461 22.5583 23.9504 22.5566 23.9532 22.5566C23.9604 22.5537 23.9709 22.5494 23.9779 22.5494C23.9807 22.548 23.985 22.5466 23.9879 22.5466C23.995 22.5437 24.0021 22.5394 24.0091 22.5366C24.0119 22.5351 24.0162 22.5337 24.0191 22.5294C24.0262 22.5266 24.0333 22.5223 24.0403 22.5152C24.0431 22.5123 24.0474 22.5123 24.0503 22.508C24.0574 22.5051 24.0645 22.498 24.0715 22.4937C24.0743 22.4909 24.0786 22.4866 24.0815 22.4866C24.0886 22.4794 24.0914 22.4766 24.0991 22.4689C24.102 22.466 24.1063 22.4617 24.1091 22.4589C24.1162 22.4517 24.1191 22.4489 24.1268 22.4412L32.0469 12.9521C32.2178 12.7964 32.21 12.5248 32.0293 12.3791L28.0929 7.94603C28.0217 7.86533 27.9189 7.81933 27.8116 7.81933L19.8623 7.82008ZM20.0314 8.57538H23.1502L20.2864 13.0742L16.6168 12.4207L20.0314 8.57538ZM24.525 8.57538H27.6435L31.0584 12.4207L27.3884 13.0742L24.525 8.57538ZM23.8374 8.89992L26.5188 13.1123H21.1561L23.8374 8.89992ZM34.9216 10.7271C34.0934 10.7271 33.414 11.4078 33.414 12.2376C33.414 13.0675 34.0934 13.7482 34.9216 13.7482C35.7499 13.7482 36.4297 13.0675 36.4297 12.2376C36.4297 11.4078 35.7499 10.7271 34.9216 10.7271ZM34.9216 11.4824C35.3425 11.4824 35.6758 11.8161 35.6758 12.2376C35.6758 12.6593 35.3425 12.9929 34.9216 12.9929C34.5008 12.9929 34.1679 12.6592 34.1679 12.2376C34.1679 11.816 34.5008 11.4824 34.9216 11.4824ZM11.5806 13.2036C10.7523 13.2036 10.0728 13.8843 10.0728 14.7141C10.0728 15.544 10.7523 16.2247 11.5806 16.2247C12.4088 16.2247 13.0884 15.544 13.0884 14.7141C13.0884 13.8843 12.4088 13.2036 11.5806 13.2036ZM30.8348 13.2283L25.0151 20.2008L27.481 13.8255L30.8348 13.2283ZM16.8404 13.2284L20.1938 13.8255L22.6595 20.1999L16.8404 13.2284ZM21.0191 13.8683H26.6562L23.8374 21.1548L21.0191 13.8683ZM11.5806 13.9596C12.0014 13.9596 12.3344 14.2934 12.3344 14.7149C12.3344 15.1365 12.0015 15.4702 11.5806 15.4702C11.1597 15.4702 10.8267 15.1364 10.8267 14.7149C10.8267 14.2933 11.1596 13.9596 11.5806 13.9596ZM32.4173 17.4719C32.2094 17.4747 32.0434 17.6464 32.0463 17.8549V18.688H31.2147C30.7032 18.678 30.7032 19.4524 31.2147 19.4433H32.0463V20.2765C32.0364 20.7915 32.8117 20.7915 32.8001 20.2765V19.4433H33.6317C34.1432 19.4533 34.1432 18.6789 33.6317 18.688H32.8001V17.8549C32.803 17.6418 32.63 17.4686 32.4173 17.4719ZM16.6565 18.4116C16.4485 18.4144 16.2822 18.586 16.2852 18.7946V19.6277H15.4536C14.9419 19.6177 14.9419 20.3923 15.4536 20.383H16.2852V21.2162C16.2752 21.7289 17.0483 21.7289 17.039 21.2162V20.383H17.8706C18.3823 20.393 18.3823 19.6184 17.8706 19.6277H17.039V18.7946C17.0419 18.5819 16.8689 18.4084 16.6565 18.4116ZM10.7476 21.5039C10.6862 21.5068 10.6262 21.5216 10.5729 21.5542L6.13244 24.129C5.77199 23.5449 5.12447 23.2248 4.49491 23.2866C4.27921 23.3079 4.06559 23.3741 3.86639 23.4894L1.09433 25.0966C0.297448 25.5586 0.0693882 26.6149 0.541151 27.4355L4.91213 35.0384C5.38387 35.859 6.41096 36.1894 7.20786 35.7273L9.97989 34.1202C10.7609 33.6673 10.9948 32.6437 10.5596 31.8305L11.8476 31.0837L23.3341 34.1744C23.3588 34.1816 23.385 34.1845 23.4111 34.1845C24.033 34.3773 24.7303 34.3264 25.3381 33.9739L35.2728 28.2137C36.431 27.5422 36.8288 26.0505 36.1606 24.888C35.8262 24.3068 35.2874 23.9125 34.6884 23.7513C34.5387 23.7109 34.3848 23.6852 34.2295 23.6745V23.6746C33.976 23.6569 33.7182 23.6774 33.4658 23.744C33.1647 23.4485 32.7964 23.2409 32.4015 23.1346C32.2518 23.0942 32.0979 23.0685 31.9426 23.0575C31.4761 23.0257 30.9945 23.1276 30.5602 23.3796V23.3798L23.5837 27.4246C23.9088 26.1382 23.1427 24.819 21.8612 24.4742L10.8595 21.5138C10.8231 21.5038 10.7854 21.4995 10.7475 21.4995L10.7476 21.5039ZM10.815 22.2867L21.6655 25.2065C22.5659 25.4489 23.0892 26.3583 22.8476 27.2638C22.6061 28.1692 21.7013 28.6933 20.8009 28.451L15.1169 26.9218C15.1163 26.9216 15.1158 26.9215 15.1154 26.9212L15.0872 26.9141C14.5928 26.7672 14.3903 27.5222 14.8916 27.6434L20.6063 29.1812C20.6077 29.1818 20.6091 29.1821 20.6134 29.1826L21.4454 29.4067C21.4483 29.4075 21.4525 29.4081 21.4525 29.4095L23.741 30.0251C23.8378 30.0498 23.9408 30.0394 24.0277 29.9873L33.2259 24.654C33.2472 24.6397 33.2715 24.6291 33.2945 24.6164C33.3087 24.6093 33.3227 24.6022 33.3365 24.5952C33.3436 24.5923 33.3507 24.588 33.3577 24.5852C33.399 24.5674 33.4413 24.5483 33.4841 24.5325C33.4855 24.5319 33.4869 24.531 33.4869 24.531C33.8181 24.4082 34.1677 24.3972 34.493 24.4846C34.9055 24.5957 35.2742 24.863 35.5075 25.2688C35.9741 26.0804 35.7031 27.0953 34.8955 27.5636L24.9608 33.324C24.5136 33.5834 24.0066 33.6121 23.5607 33.4514C23.1595 33.3439 23.1662 33.3484 23.1662 33.3484L11.9454 30.329C11.9027 30.3113 11.8571 30.3008 11.811 30.3008C11.739 30.2979 11.6676 30.3185 11.6059 30.3542L11.603 30.357L11.6027 30.3573L10.1861 31.1788L6.51103 24.7861L10.815 22.2867ZM31.8102 23.8096C31.944 23.8125 32.0768 23.8309 32.2059 23.8666C32.3778 23.913 32.5406 23.9902 32.6907 24.0899L30.412 25.4111L23.7839 29.254L22.5236 28.9149L30.9376 24.0361C31.1395 23.919 31.3535 23.8489 31.5685 23.822C31.649 23.812 31.7298 23.8077 31.8103 23.812L31.8102 23.8096ZM4.64381 24.0315C4.97178 24.0244 5.30849 24.2074 5.50849 24.5554L5.62987 24.7663C5.64754 24.8162 5.67262 24.8622 5.70752 24.9012L9.67581 31.8035C9.69348 31.8608 9.72282 31.9132 9.76371 31.9564L9.87954 32.1578C10.1641 32.6525 10.0212 33.2227 9.60205 33.4658L6.83 35.0732C6.41068 35.3163 5.84987 35.1556 5.56542 34.6607L1.19444 27.0578C0.909896 26.5631 1.05253 25.993 1.47155 25.7499L2.52125 25.1413C3.22805 26.3707 3.93481 27.6 4.64158 28.8294C4.88905 29.2785 5.55854 28.8921 5.29473 28.4522C4.58772 27.2224 3.8807 25.9928 3.17369 24.763L4.24382 24.1425C4.34868 24.0816 4.46235 24.0462 4.57815 24.0349C4.59937 24.0321 4.6216 24.0321 4.6434 24.0321L4.64381 24.0315Z" fill="#FFBD00"/>
</svg>
