<svg width="31" height="55" viewBox="0 0 31 55" fill="none" xmlns="http://www.w3.org/2000/svg">
<path d="M27.8943 9.22938C27.3229 9.22483 26.762 9.38329 26.2774 9.68618V6.26618C26.2821 5.59997 26.0935 4.94669 25.7344 4.38553C25.3753 3.82437 24.8611 3.37942 24.2542 3.10459C23.6473 2.82977 22.9737 2.73687 22.3151 2.83716C21.6564 2.93745 21.041 3.22662 20.5434 3.66963C20.4627 2.81133 20.0653 2.01385 19.4285 1.43268C18.7918 0.851507 17.9614 0.528316 17.0994 0.526123C16.645 0.526122 16.1951 0.615715 15.7754 0.789774C15.3557 0.963833 14.9744 1.21894 14.6534 1.5405C14.3324 1.86206 14.078 2.24377 13.9047 2.66377C13.7313 3.08377 13.6425 3.53383 13.6433 3.98819V5.99571C12.9851 5.42137 12.1329 5.11913 11.2599 5.15039C10.3869 5.18165 9.55853 5.54406 8.94307 6.164C8.2925 6.81231 7.92512 7.69185 7.92128 8.61029V16.5983C7.36412 16.031 6.65761 15.6332 5.88363 15.451C5.10965 15.2688 4.29988 15.3096 3.54817 15.5688C2.79645 15.828 2.13357 16.2949 1.63633 16.9153C1.13909 17.5358 0.827852 18.2845 0.738689 19.0746C0.71956 19.234 0.76454 19.3945 0.863733 19.5208C0.962926 19.647 1.10821 19.7287 1.26762 19.7478C1.42703 19.7669 1.58751 19.722 1.71375 19.6228C1.84 19.5236 1.92167 19.3783 1.9408 19.2189C1.9408 18.4218 2.25742 17.6574 2.82102 17.0938C3.38462 16.5302 4.14902 16.2136 4.94606 16.2136C5.74311 16.2136 6.50751 16.5302 7.07111 17.0938C7.6347 17.6574 7.95133 18.4218 7.95133 19.2189V26.7982C7.95347 26.8637 7.96563 26.9286 7.98739 26.9905V29.2985C7.98926 29.4454 8.04485 29.5865 8.14367 29.6952C8.14367 29.6952 8.14367 29.6952 8.14367 29.7253C8.24109 29.851 8.38434 29.9329 8.54206 29.9532C8.69977 29.9735 8.8591 29.9304 8.98514 29.8335C9.76159 29.231 10.7085 28.8892 11.6907 28.8568C12.6729 28.8245 13.6403 29.1032 14.4547 29.6532C14.587 29.7432 14.7497 29.7771 14.9069 29.7472C15.0642 29.7173 15.2031 29.6262 15.2932 29.4939C15.3833 29.3616 15.4171 29.1989 15.3872 29.0417C15.3573 28.8844 15.2662 28.7455 15.1339 28.6554C14.2639 28.0685 13.2525 27.7255 12.2049 27.6621C11.1574 27.5987 10.112 27.8172 9.17748 28.2948V19.5855C9.17765 19.4066 9.1656 19.2279 9.14142 19.0506V8.61029C9.14035 8.01357 9.37595 7.44077 9.79656 7.0175C10.1052 6.70609 10.498 6.49146 10.9268 6.39991C11.3556 6.30836 11.8018 6.34387 12.2107 6.50208C12.6196 6.66029 12.9735 6.93433 13.2291 7.29064C13.4846 7.64695 13.6306 8.07005 13.6493 8.50811V21.8936C13.6461 21.9296 13.6461 21.9658 13.6493 22.0018C12.8259 22.1821 12.0024 22.4045 11.191 22.6689C11.1111 22.6888 11.0362 22.7249 10.9708 22.7749C10.9054 22.8249 10.851 22.8878 10.811 22.9597C10.7709 23.0317 10.746 23.111 10.7379 23.1929C10.7298 23.2749 10.7386 23.3576 10.7638 23.436C10.7889 23.5143 10.8299 23.5867 10.8842 23.6486C10.9385 23.7105 11.0049 23.7605 11.0793 23.7957C11.1538 23.8309 11.2346 23.8503 11.3169 23.853C11.3992 23.8556 11.4811 23.8413 11.5576 23.8109C16.6564 22.1461 22.1524 22.1461 27.2512 23.8109C27.3114 23.8301 27.3742 23.8403 27.4375 23.841C27.5969 23.8649 27.7593 23.8245 27.8889 23.7287C28.0185 23.6329 28.1048 23.4895 28.1287 23.3301C28.1526 23.1707 28.1122 23.0083 28.0164 22.8787C27.9206 22.749 27.7772 22.6628 27.6178 22.6389C27.155 22.4886 26.6922 22.3564 26.2234 22.2302V22.0739C26.2397 22.0212 26.2498 21.9667 26.2534 21.9116V11.5735C26.3152 11.2986 26.4625 11.0503 26.6741 10.8642C27.0086 10.5781 27.4362 10.4242 27.8762 10.4315C28.0785 10.4116 28.2826 10.432 28.4769 10.4915C28.6712 10.551 28.8518 10.6483 29.0083 10.778C29.1648 10.9076 29.294 11.067 29.3886 11.2469C29.4831 11.4267 29.5411 11.6235 29.5592 11.8259V27.7659C29.5592 27.9253 29.6225 28.0782 29.7352 28.1909C29.848 28.3036 30.0008 28.3669 30.1603 28.3669C30.3197 28.3669 30.4725 28.3036 30.5853 28.1909C30.698 28.0782 30.7613 27.9253 30.7613 27.7659V11.8259C30.7444 11.4669 30.6567 11.1148 30.5033 10.7897C30.3498 10.4647 30.1337 10.1732 29.8673 9.93191C29.6009 9.69064 29.2895 9.50438 28.9509 9.38382C28.6123 9.26325 28.2532 9.21077 27.8943 9.22938ZM22.8214 4.01223C23.4187 4.01382 23.9911 4.2518 24.4134 4.67415C24.8358 5.09651 25.0738 5.66889 25.0753 6.26618V11.4713C25.073 11.5033 25.073 11.5355 25.0753 11.5675C25.0753 11.6516 25.0753 11.7358 25.0753 11.8199V21.9897C23.6047 21.6615 22.1086 21.4604 20.6035 21.3887V6.02576C20.6624 5.51501 20.891 5.03879 21.2526 4.67339C21.6675 4.25422 22.2316 4.01649 22.8214 4.01223ZM15.5186 2.38939C15.7267 2.17868 15.9748 2.01166 16.2483 1.89813C16.5218 1.78459 16.8152 1.72683 17.1114 1.72823C17.7103 1.72982 18.2842 1.96843 18.7077 2.39191C19.1311 2.81539 19.3698 3.3893 19.3713 3.98819V5.97167C19.3713 6.07385 19.3713 6.17602 19.3713 6.27219V21.3767C17.8641 21.3849 16.3602 21.5196 14.8755 21.7794V8.61029C14.8792 8.55626 14.8792 8.50204 14.8755 8.44801V3.98819C14.8719 3.69245 14.9269 3.39892 15.0373 3.12453C15.1477 2.85013 15.3112 2.60029 15.5186 2.38939Z" fill="#032F6F"/>
<path d="M16.9794 47.7389C17.0585 47.7393 17.1369 47.7242 17.2101 47.6943C17.2833 47.6643 17.3499 47.6203 17.4061 47.5646L24.8231 40.1295C25.7799 39.1549 26.3132 37.8418 26.3068 36.476C26.3005 35.1102 25.7552 33.8022 24.7894 32.8364C23.8236 31.8706 22.5156 31.3253 21.1498 31.319C19.784 31.3126 18.4709 31.8459 17.4963 32.8027L16.9794 33.3196L16.4625 32.8027C15.9814 32.3208 15.4101 31.9384 14.7812 31.6773C14.1523 31.4162 13.4782 31.2816 12.7973 31.281C11.4221 31.2799 10.1028 31.8251 9.1296 32.7967C8.15641 33.7683 7.60904 35.0867 7.60791 36.4619C7.60678 37.837 8.15199 39.1563 9.12359 40.1295L16.5526 47.5465C16.6073 47.6055 16.6732 47.6529 16.7465 47.686C16.8198 47.719 16.899 47.737 16.9794 47.7389ZM8.82306 36.4691C8.82331 35.6823 9.05681 34.9133 9.49404 34.2592C9.93127 33.6051 10.5526 33.0953 11.2795 32.7942C12.0064 32.4932 12.8063 32.4144 13.5779 32.5678C14.3496 32.7212 15.0585 33.1 15.615 33.6562L16.5526 34.5938C16.6085 34.6502 16.675 34.6949 16.7482 34.7254C16.8215 34.7559 16.9 34.7716 16.9794 34.7716C17.0587 34.7716 17.1373 34.7559 17.2105 34.7254C17.2838 34.6949 17.3502 34.6502 17.4061 34.5938L18.3437 33.6562C18.7102 33.2739 19.1494 32.9685 19.6354 32.7581C20.1214 32.5477 20.6445 32.4365 21.1741 32.4309C21.7037 32.4253 22.2291 32.5254 22.7194 32.7255C23.2098 32.9256 23.6552 33.2216 24.0297 33.5961C24.4042 33.9706 24.7002 34.416 24.9003 34.9064C25.1004 35.3967 25.2005 35.9221 25.1949 36.4517C25.1893 36.9813 25.0781 37.5044 24.8677 37.9904C24.6572 38.4764 24.3519 38.9156 23.9696 39.2821L16.9794 46.2723L9.98911 39.2821C9.61878 38.9133 9.3251 38.4749 9.12498 37.9921C8.92485 37.5093 8.82224 36.9917 8.82306 36.4691Z" fill="#032F6F"/>
<path d="M20.2132 35.5796C20.4731 35.4774 20.7586 35.4602 21.0288 35.5302C21.2991 35.6003 21.5402 35.7541 21.7177 35.9696C21.8952 36.1851 21.9999 36.4513 22.0169 36.73C22.0338 37.0087 21.9621 37.2855 21.812 37.521C21.7525 37.6114 21.7185 37.7162 21.7136 37.8243C21.7087 37.9324 21.733 38.0399 21.7841 38.1353C21.8352 38.2307 21.9112 38.3106 22.0039 38.3664C22.0966 38.4223 22.2027 38.4521 22.3109 38.4526C22.4109 38.4531 22.5095 38.4286 22.5976 38.3814C22.6858 38.3342 22.7608 38.2657 22.8158 38.1821C23.1127 37.7332 23.258 37.2009 23.2304 36.6634C23.2027 36.1258 23.0035 35.6113 22.662 35.1952C22.3206 34.7791 21.8548 34.4833 21.3329 34.3513C20.8111 34.2193 20.2607 34.258 19.7624 34.4616C19.6244 34.5277 19.5168 34.6439 19.4615 34.7866C19.4062 34.9293 19.4074 35.0878 19.4649 35.2296C19.5224 35.3714 19.6319 35.486 19.7709 35.5499C19.91 35.6138 20.0682 35.6223 20.2132 35.5736V35.5796Z" fill="#032F6F"/>
<path d="M29.7085 28.8899C29.6249 28.9742 29.5682 29.0813 29.5454 29.1977C29.5226 29.3142 29.5348 29.4348 29.5804 29.5443C29.626 29.6539 29.7031 29.7474 29.8018 29.8133C29.9006 29.8791 30.0166 29.9142 30.1352 29.9142C30.2539 29.9142 30.3699 29.8791 30.4686 29.8133C30.5674 29.7474 30.6444 29.6539 30.6901 29.5443C30.7357 29.4348 30.7479 29.3142 30.7251 29.1977C30.7023 29.0813 30.6455 28.9742 30.562 28.8899C30.4456 28.783 30.2933 28.7238 30.1352 28.7238C29.9772 28.7238 29.8249 28.783 29.7085 28.8899Z" fill="#032F6F"/>
<path d="M30.1609 30.1702C30.0015 30.1702 29.8486 30.2335 29.7359 30.3462C29.6232 30.4589 29.5598 30.6118 29.5598 30.7712V39.0778C29.5545 42.4385 28.3251 45.6823 26.1016 48.2023C23.878 50.7223 20.8126 52.346 17.4787 52.7698C17.3193 52.7793 17.1702 52.8518 17.0642 52.9713C16.9583 53.0908 16.9041 53.2475 16.9137 53.4069C16.9232 53.5663 16.9957 53.7154 17.1152 53.8213C17.2347 53.9273 17.3914 53.9814 17.5508 53.9719H17.6229C21.2501 53.5127 24.5853 51.7468 27.004 49.0051C29.4226 46.2634 30.7587 42.7339 30.7619 39.0778V30.7712C30.7619 30.6118 30.6986 30.4589 30.5859 30.3462C30.4732 30.2335 30.3203 30.1702 30.1609 30.1702Z" fill="#032F6F"/>
<path d="M16.0888 52.8479C15.9294 52.8479 15.7766 52.9112 15.6638 53.0239C15.5511 53.1367 15.4878 53.2895 15.4878 53.449C15.4878 53.6084 15.5511 53.7612 15.6638 53.874C15.7766 53.9867 15.9294 54.05 16.0888 54.05C16.2483 54.05 16.4011 53.9867 16.5139 53.874C16.6266 53.7612 16.6899 53.6084 16.6899 53.449V53.4009C16.6778 53.2499 16.6092 53.1091 16.4977 53.0066C16.3863 52.9041 16.2403 52.8474 16.0888 52.8479Z" fill="#032F6F"/>
<path d="M14.7734 52.8418C11.2918 52.5914 8.03392 51.0332 5.65367 48.4802C3.27342 45.9271 1.94706 42.5682 1.94088 39.0776V21.8935C1.94088 21.7341 1.87755 21.5812 1.76483 21.4685C1.65211 21.3558 1.49923 21.2925 1.33982 21.2925C1.18041 21.2925 1.02753 21.3558 0.914815 21.4685C0.802095 21.5812 0.73877 21.7341 0.73877 21.8935V39.0776C0.74432 42.8739 2.18655 46.5273 4.77561 49.3037C7.36466 52.0801 10.9086 53.7736 14.6952 54.0439H14.7313C14.8907 54.0495 15.0458 53.9915 15.1625 53.8827C15.2791 53.7739 15.3478 53.6233 15.3534 53.4639C15.359 53.3045 15.301 53.1494 15.1922 53.0327C15.0834 52.916 14.9328 52.8473 14.7734 52.8418Z" fill="#032F6F"/>
<path d="M1.35203 21.1362C1.51144 21.1362 1.66432 21.0729 1.77704 20.9601C1.88976 20.8474 1.95308 20.6945 1.95308 20.5351C1.95308 20.3757 1.88976 20.2228 1.77704 20.1101C1.66432 19.9974 1.51144 19.9341 1.35203 19.9341C1.19262 19.9341 1.03974 19.9974 0.927022 20.1101C0.814302 20.2228 0.750977 20.3757 0.750977 20.5351C0.750977 20.6945 0.814302 20.8474 0.927022 20.9601C1.03974 21.0729 1.19262 21.1362 1.35203 21.1362Z" fill="#032F6F"/>
</svg>
