<svg width="43" height="41" viewBox="0 0 43 41" fill="none" xmlns="http://www.w3.org/2000/svg">
<path d="M5.67565 11.4676H7.40601V16.1143C7.40601 16.1322 7.41447 16.1474 7.41623 16.1649H5.70848C5.41849 16.1649 5.18322 16.4002 5.18322 16.6902C5.18322 16.9802 5.41849 17.2154 5.70848 17.2154H14.746C15.036 17.2154 15.2713 16.9802 15.2713 16.6902C15.2713 16.4002 15.036 16.1649 14.746 16.1649H8.44632C8.44807 16.1474 8.45654 16.1322 8.45654 16.1143V11.4676H11.4577C11.7477 11.4676 11.9829 11.2323 11.9829 10.9423C11.9829 10.6524 11.7477 10.4171 11.4577 10.4171H8.45654V7.3975C8.45654 5.74373 9.80185 4.39843 11.4556 4.39843C13.1504 4.39843 14.4588 5.77545 14.4588 7.3975C14.4588 7.68748 14.6941 7.92276 14.984 7.92276C15.274 7.92276 15.5093 7.68748 15.5093 7.3975C15.5093 5.20266 13.739 3.3479 11.4556 3.3479C9.22255 3.3479 7.40601 5.16444 7.40601 7.3975V10.4171H5.67565C5.38567 10.4171 5.15039 10.6524 5.15039 10.9423C5.15039 11.2323 5.38566 11.4676 5.67565 11.4676Z" fill="white"/>
<path d="M10.3302 20.6604C16.026 20.6604 20.6604 16.026 20.6604 10.3302C20.6604 4.63436 16.026 0 10.3302 0C4.63436 0 0 4.63436 0 10.3302C0 16.026 4.63436 20.6604 10.3302 20.6604ZM10.3302 1.05053C15.4467 1.05053 19.6099 5.21366 19.6099 10.3302C19.6099 15.4467 15.4467 19.6099 10.3302 19.6099C5.21366 19.6099 1.05053 15.4467 1.05053 10.3302C1.05053 5.21366 5.21366 1.05053 10.3302 1.05053Z" fill="white"/>
<path d="M42.5198 30.6698C42.5198 24.974 37.8854 20.3396 32.1896 20.3396C26.4937 20.3396 21.8594 24.974 21.8594 30.6698C21.8594 36.3656 26.4937 41 32.1896 41C37.8854 41 42.5198 36.3656 42.5198 30.6698ZM32.1896 39.9495C27.073 39.9495 22.9099 35.7863 22.9099 30.6698C22.9099 25.5533 27.073 21.3901 32.1896 21.3901C37.3061 21.3901 41.4692 25.5533 41.4692 30.6698C41.4692 35.7863 37.3061 39.9495 32.1896 39.9495Z" fill="white"/>
<path d="M32.1896 26.2571C33.262 26.2571 34.134 27.1291 34.134 28.2008C34.134 28.4908 34.3693 28.7261 34.6593 28.7261C34.9493 28.7261 35.1846 28.4908 35.1846 28.2008C35.1846 26.7296 34.1159 25.5094 32.7149 25.2596V23.76C32.7149 23.47 32.4796 23.2347 32.1896 23.2347C31.8996 23.2347 31.6643 23.47 31.6643 23.76V25.2597C30.2639 25.5095 29.1953 26.7297 29.1953 28.2008C29.1953 29.8518 30.5386 31.1951 32.1896 31.1951C33.262 31.1951 34.134 32.0671 34.134 33.1388C34.134 34.2113 33.262 35.0833 32.1896 35.0833C31.1179 35.0833 30.2458 34.2113 30.2458 33.1388C30.2458 32.8489 30.0106 32.6136 29.7206 32.6136C29.4306 32.6136 29.1953 32.8489 29.1953 33.1388C29.1953 34.612 30.2659 35.8327 31.6682 36.0811C31.668 36.0878 31.6643 36.0935 31.6643 36.1003V38.2677C31.6643 38.5577 31.8996 38.793 32.1896 38.793C32.4796 38.793 32.7149 38.5577 32.7149 38.2677V36.1003C32.7149 36.0935 32.7112 36.0879 32.711 36.0811C34.1138 35.8329 35.1846 34.612 35.1846 33.1388C35.1846 31.4878 33.8413 30.1446 32.1896 30.1446C31.1179 30.1446 30.2458 29.2725 30.2458 28.2008C30.2458 27.1291 31.1179 26.2571 32.1896 26.2571Z" fill="white"/>
<path d="M34.7861 16.5179C34.6151 16.7525 34.6657 17.0807 34.8996 17.2524L38.2016 19.6688C38.4386 19.8414 38.7699 19.7836 38.9362 19.5546L41.3519 16.2525C41.5228 16.0186 41.4722 15.6903 41.2376 15.5186C41.0037 15.3463 40.6754 15.3983 40.5038 15.6329L38.8806 17.8519C37.5892 9.25625 30.1119 2.70508 21.2831 2.70508C20.9931 2.70508 20.7578 2.94035 20.7578 3.23034C20.7578 3.52033 20.9931 3.75561 21.2831 3.75561C29.6273 3.75561 36.6893 9.97461 37.8577 18.115L35.5206 16.4043C35.2853 16.232 34.957 16.2846 34.7861 16.5179Z" fill="white"/>
<path d="M7.78431 24.5C7.9553 24.2654 7.90332 23.9371 7.66873 23.7661L4.36121 21.358C4.11264 21.1773 3.77866 21.2668 3.62734 21.4736L1.21988 24.7818C1.0489 25.0164 1.10088 25.3447 1.33547 25.5157C1.57374 25.6878 1.9004 25.6321 2.06933 25.4001L3.68727 23.1767C4.985 31.7391 12.4409 38.2812 21.2346 38.3039C21.2353 38.3039 21.2353 38.3039 21.236 38.3039C21.5253 38.3039 21.7606 38.0693 21.7613 37.78C21.7619 37.49 21.5274 37.2541 21.2374 37.2534C12.9251 37.2318 5.88407 31.0213 4.70979 22.9114L7.05044 24.6156C7.28572 24.7866 7.61469 24.7332 7.78431 24.5Z" fill="white"/>
</svg>
