<svg width="24" height="26" viewBox="0 0 24 26" fill="none" xmlns="http://www.w3.org/2000/svg">
<path d="M12 24.375C9.21523 24.375 6.54451 23.1766 4.57538 21.0433C2.60625 18.9101 1.5 16.0168 1.5 13C1.5 9.98316 2.60625 7.08989 4.57538 4.95666C6.54451 2.82343 9.21523 1.625 12 1.625C14.7848 1.625 17.4555 2.82343 19.4246 4.95666C21.3938 7.08989 22.5 9.98316 22.5 13C22.5 16.0168 21.3938 18.9101 19.4246 21.0433C17.4555 23.1766 14.7848 24.375 12 24.375ZM12 26C15.1826 26 18.2348 24.6304 20.4853 22.1924C22.7357 19.7544 24 16.4478 24 13C24 9.55219 22.7357 6.24558 20.4853 3.80761C18.2348 1.36964 15.1826 0 12 0C8.8174 0 5.76516 1.36964 3.51472 3.80761C1.26428 6.24558 0 9.55219 0 13C0 16.4478 1.26428 19.7544 3.51472 22.1924C5.76516 24.6304 8.8174 26 12 26Z" fill="white"/>
<path d="M7.88264 9.40225C7.88059 9.45473 7.88847 9.50711 7.90579 9.55616C7.92311 9.60522 7.94952 9.64992 7.98338 9.68752C8.01724 9.72511 8.05784 9.75481 8.10268 9.77477C8.14753 9.79474 8.19567 9.80456 8.24414 9.80363H9.48164C9.68864 9.80363 9.85364 9.62 9.88064 9.39738C10.0156 8.33138 10.6906 7.55463 11.8936 7.55463C12.9226 7.55463 13.8646 8.112 13.8646 9.45263C13.8646 10.4845 13.3036 10.959 12.4171 11.6805C11.4076 12.4751 10.6081 13.403 10.6651 14.9094L10.6696 15.262C10.6712 15.3686 10.7114 15.4703 10.7816 15.5451C10.8517 15.6199 10.9462 15.6618 11.0446 15.6617H12.2611C12.3606 15.6617 12.456 15.6189 12.5263 15.5428C12.5966 15.4666 12.6361 15.3632 12.6361 15.2555V15.0849C12.6361 13.9181 13.0456 13.5785 14.1511 12.6701C15.0646 11.9178 16.0171 11.0825 16.0171 9.32913C16.0171 6.87375 14.1031 5.6875 12.0076 5.6875C10.1071 5.6875 8.02514 6.64625 7.88264 9.40225ZM10.2181 18.7671C10.2181 19.6333 10.8556 20.2735 11.7331 20.2735C12.6466 20.2735 13.2751 19.6333 13.2751 18.7671C13.2751 17.8701 12.6451 17.2396 11.7316 17.2396C10.8556 17.2396 10.2181 17.8701 10.2181 18.7671Z" fill="white"/>
</svg>
