<svg width="37" height="37" viewBox="0 0 37 37" fill="none" xmlns="http://www.w3.org/2000/svg">
<path d="M18.5002 3.08337C9.99016 3.08337 3.0835 9.99004 3.0835 18.5C3.0835 27.01 9.99016 33.9167 18.5002 33.9167C27.0102 33.9167 33.9168 27.01 33.9168 18.5C33.9168 9.99004 27.0102 3.08337 18.5002 3.08337ZM18.5002 30.8334C11.7014 30.8334 6.16683 25.2988 6.16683 18.5C6.16683 11.7013 11.7014 6.16671 18.5002 6.16671C25.2989 6.16671 30.8335 11.7013 30.8335 18.5C30.8335 25.2988 25.2989 30.8334 18.5002 30.8334ZM16.9585 24.6667H20.0418V27.75H16.9585V24.6667ZM19.4406 9.31171C16.2647 8.84921 13.4589 10.8071 12.611 13.613C12.3335 14.5071 13.0118 15.4167 13.9522 15.4167H14.2606C14.8927 15.4167 15.4014 14.9696 15.6172 14.3838C16.1106 13.0117 17.5752 12.0713 19.1631 12.4105C20.6277 12.7188 21.7068 14.1525 21.5835 15.648C21.4293 17.7138 19.086 18.1609 17.8064 20.088C17.8064 20.1034 17.791 20.1034 17.791 20.1188C17.7756 20.1496 17.7602 20.165 17.7447 20.1959C17.606 20.4271 17.4672 20.6892 17.3593 20.9667C17.3439 21.013 17.3131 21.0438 17.2977 21.09C17.2822 21.1209 17.2822 21.1517 17.2668 21.198C17.0818 21.7221 16.9585 22.3542 16.9585 23.125H20.0418C20.0418 22.4775 20.2114 21.938 20.4735 21.4755C20.5043 21.4292 20.5197 21.383 20.5506 21.3367C20.6739 21.1209 20.8281 20.9205 20.9822 20.7355C20.9977 20.72 21.0131 20.6892 21.0285 20.6738C21.1827 20.4888 21.3522 20.3192 21.5372 20.1496C23.0172 18.7467 25.0214 17.6059 24.6052 14.6613C24.2352 11.9788 22.1231 9.71254 19.4406 9.31171Z" fill="white"/>
</svg>
