<svg width="31" height="46" viewBox="0 0 31 46" fill="none" xmlns="http://www.w3.org/2000/svg">
<path d="M15.3957 4.88298C15.9033 4.88298 16.3149 4.47146 16.3149 3.96383C16.3149 3.45619 15.9033 3.04468 15.3957 3.04468C14.8881 3.04468 14.4766 3.45619 14.4766 3.96383C14.4766 4.47146 14.8881 4.88298 15.3957 4.88298Z" fill="white"/>
<path d="M0.574468 45.9H29.9872C30.3319 45.9 30.5617 45.6702 30.5617 45.3255V6.08936C30.5617 5.74468 30.3319 5.51489 29.9872 5.51489H26.1957H23.9553C23.6106 4.30851 22.4043 3.38936 20.9681 3.38936H19.3596C19.0723 1.49362 17.4064 0 15.4532 0C13.4426 0 11.7766 1.49362 11.5468 3.38936H9.9383C8.50213 3.38936 7.29574 4.30851 6.95106 5.51489H0.574468C0.229787 5.51489 0 5.74468 0 6.08936V45.3255C0 45.6128 0.287234 45.9 0.574468 45.9ZM7.87021 6.14681C7.87021 5.28511 8.73191 4.5383 9.8234 4.5383H11.9489C12.2936 4.5383 12.5234 4.30851 12.5234 3.96383C12.5234 2.41277 13.7872 1.14894 15.3383 1.14894C16.8894 1.14894 18.1532 2.41277 18.1532 3.96383C18.1532 4.30851 18.383 4.5383 18.7277 4.5383H20.9681C22.0596 4.5383 22.9213 5.28511 22.9213 6.14681V9.0766H7.87021V6.14681ZM23.4383 10.2255C23.783 10.2255 24.0128 9.99574 24.0128 9.65106V6.66383H25.6213L25.5638 40.7298H5.17021V6.66383H6.77872V9.65106C6.77872 9.99574 7.00851 10.2255 7.35319 10.2255H23.4383ZM1.14894 6.66383H4.02128V41.3043C4.02128 41.6489 4.25106 41.8787 4.59574 41.8787H26.1383C26.483 41.8787 26.7128 41.6489 26.7128 41.3043L26.7702 6.66383H29.4128V44.7511H1.14894V6.66383Z" fill="white"/>
<path d="M9.53541 16.5447H21.5992C21.9439 16.5447 22.1737 16.3149 22.1737 15.9702C22.1737 15.6255 21.9439 15.3958 21.5992 15.3958H9.53541C9.19072 15.3958 8.96094 15.6255 8.96094 15.9702C8.96094 16.3149 9.24817 16.5447 9.53541 16.5447Z" fill="white"/>
<path d="M9.53541 21.2553H21.5992C21.9439 21.2553 22.1737 21.0255 22.1737 20.6808C22.1737 20.3361 21.9439 20.1063 21.5992 20.1063H9.53541C9.19072 20.1063 8.96094 20.3361 8.96094 20.6808C8.96094 21.0255 9.24817 21.2553 9.53541 21.2553Z" fill="white"/>
<path d="M9.53541 26.0234H21.5992C21.9439 26.0234 22.1737 25.7937 22.1737 25.449C22.1737 25.1043 21.9439 24.8745 21.5992 24.8745H9.53541C9.19072 24.8745 8.96094 25.1043 8.96094 25.449C8.96094 25.7937 9.24817 26.0234 9.53541 26.0234Z" fill="white"/>
<path d="M9.53541 30.734H21.5992C21.9439 30.734 22.1737 30.5042 22.1737 30.1596C22.1737 29.8149 21.9439 29.5851 21.5992 29.5851H9.53541C9.19072 29.5851 8.96094 29.8149 8.96094 30.1596C8.96094 30.5042 9.24817 30.734 9.53541 30.734Z" fill="white"/>
<path d="M9.53541 35.5022H21.5992C21.9439 35.5022 22.1737 35.2724 22.1737 34.9277C22.1737 34.5831 21.9439 34.3533 21.5992 34.3533H9.53541C9.19072 34.3533 8.96094 34.5831 8.96094 34.9277C8.96094 35.2724 9.24817 35.5022 9.53541 35.5022Z" fill="white"/>
</svg>
