<svg width="47" height="47" viewBox="0 0 47 47" fill="none" xmlns="http://www.w3.org/2000/svg">
<path d="M23.5 47C10.5416 47 0 36.4584 0 23.5C0 10.5416 10.5416 0 23.5 0C36.4584 0 47 10.5416 47 23.5C47 36.4584 36.4584 47 23.5 47ZM23.5 2.08889C11.6936 2.08889 2.08889 11.6936 2.08889 23.5C2.08889 35.3064 11.6936 44.9111 23.5 44.9111C35.3064 44.9111 44.9111 35.3064 44.9111 23.5C44.9111 11.6936 35.3064 2.08889 23.5 2.08889Z" fill="#032F6F"/>
<path d="M23.4999 38.6444C15.1496 38.6444 8.35547 31.8502 8.35547 23.4999C8.35547 15.1496 15.1496 8.35547 23.4999 8.35547C31.8502 8.35547 38.6444 15.1496 38.6444 23.4999C38.6444 31.8502 31.8502 38.6444 23.4999 38.6444ZM23.4999 10.4444C16.3006 10.4444 10.4444 16.3006 10.4444 23.4999C10.4444 30.6993 16.3006 36.5555 23.4999 36.5555C30.6993 36.5555 36.5555 30.6993 36.5555 23.4999C36.5555 16.3006 30.6993 10.4444 23.4999 10.4444Z" fill="#032F6F"/>
<path d="M23.4998 29.2443C20.332 29.2443 17.7554 26.6676 17.7554 23.4998C17.7554 20.332 20.332 17.7554 23.4998 17.7554C26.6676 17.7554 29.2443 20.332 29.2443 23.4998C29.2443 26.6676 26.6676 29.2443 23.4998 29.2443ZM23.4998 19.8443C21.484 19.8443 19.8443 21.484 19.8443 23.4998C19.8443 25.5156 21.484 27.1554 23.4998 27.1554C25.5156 27.1554 27.1554 25.5156 27.1554 23.4998C27.1554 21.484 25.5156 19.8443 23.4998 19.8443Z" fill="#032F6F"/>
</svg>
