<svg width="122" height="26" viewBox="0 0 122 26" fill="none" xmlns="http://www.w3.org/2000/svg">
<rect width="121.61" height="25.1607" rx="12.5803" fill="#FFA500"/>
<path d="M37.7403 4.79248H26.9571C26.4805 4.79248 26.0234 4.98183 25.6863 5.31887C25.3493 5.6559 25.1599 6.11303 25.1599 6.58967V7.18874H24.5609C24.0842 7.18874 23.6271 7.37808 23.2901 7.71512C22.953 8.05216 22.7637 8.50928 22.7637 8.98593V17.3728C22.7637 17.8495 22.953 18.3066 23.2901 18.6436C23.6271 18.9807 24.0842 19.17 24.5609 19.17H25.1599V20.9672C25.1602 21.0756 25.1899 21.1818 25.2458 21.2747C25.3017 21.3675 25.3818 21.4434 25.4774 21.4944C25.564 21.5411 25.6607 21.5658 25.759 21.5663C25.8764 21.5654 25.991 21.5299 26.0885 21.4644L29.581 19.17H35.344C35.8207 19.17 36.2778 18.9807 36.6148 18.6436C36.9519 18.3066 37.1412 17.8495 37.1412 17.3728V16.7738H37.7403C38.2169 16.7738 38.674 16.5844 39.0111 16.2474C39.3481 15.9103 39.5375 15.4532 39.5375 14.9766V6.58967C39.5375 6.11303 39.3481 5.6559 39.0111 5.31887C38.674 4.98183 38.2169 4.79248 37.7403 4.79248ZM30.5515 16.1747H25.759C25.6001 16.1747 25.4477 16.1116 25.3354 15.9992C25.223 15.8869 25.1599 15.7345 25.1599 15.5756C25.1599 15.4167 25.223 15.2644 25.3354 15.152C25.4477 15.0397 25.6001 14.9766 25.759 14.9766H30.5515C30.7104 14.9766 30.8628 15.0397 30.9751 15.152C31.0875 15.2644 31.1506 15.4167 31.1506 15.5756C31.1506 15.7345 31.0875 15.8869 30.9751 15.9992C30.8628 16.1116 30.7104 16.1747 30.5515 16.1747ZM32.3487 13.7784H25.759C25.6001 13.7784 25.4477 13.7153 25.3354 13.603C25.223 13.4906 25.1599 13.3383 25.1599 13.1794C25.1599 13.0205 25.223 12.8681 25.3354 12.7558C25.4477 12.6434 25.6001 12.5803 25.759 12.5803H32.3487C32.5076 12.5803 32.66 12.6434 32.7723 12.7558C32.8846 12.8681 32.9478 13.0205 32.9478 13.1794C32.9478 13.3383 32.8846 13.4906 32.7723 13.603C32.66 13.7153 32.5076 13.7784 32.3487 13.7784ZM34.1459 11.3822H25.759C25.6001 11.3822 25.4477 11.3191 25.3354 11.2067C25.223 11.0944 25.1599 10.942 25.1599 10.7831C25.1599 10.6242 25.223 10.4719 25.3354 10.3595C25.4477 10.2472 25.6001 10.1841 25.759 10.1841H34.1459C34.3048 10.1841 34.4571 10.2472 34.5695 10.3595C34.6818 10.4719 34.745 10.6242 34.745 10.7831C34.745 10.942 34.6818 11.0944 34.5695 11.2067C34.4571 11.3191 34.3048 11.3822 34.1459 11.3822ZM38.3393 14.9766C38.3393 15.1354 38.2762 15.2878 38.1639 15.4002C38.0515 15.5125 37.8992 15.5756 37.7403 15.5756H37.1412V8.98593C37.1412 8.50928 36.9519 8.05216 36.6148 7.71512C36.2778 7.37808 35.8207 7.18874 35.344 7.18874H26.3581V6.58967C26.3581 6.43079 26.4212 6.27842 26.5335 6.16607C26.6459 6.05372 26.7982 5.99061 26.9571 5.99061H37.7403C37.8992 5.99061 38.0515 6.05372 38.1639 6.16607C38.2762 6.27842 38.3393 6.43079 38.3393 6.58967V14.9766Z" fill="white"/>
<path d="M53.7617 14.1667C53.7617 14.4044 53.7161 14.6274 53.625 14.8357C53.5371 15.044 53.415 15.2263 53.2588 15.3826C53.1025 15.5388 52.9202 15.6625 52.7119 15.7537C52.5036 15.8416 52.2806 15.8855 52.043 15.8855H51.5449C51.3073 15.8855 51.0827 15.8416 50.8711 15.7537C50.6628 15.6625 50.4805 15.5388 50.3242 15.3826C50.168 15.2263 50.0443 15.044 49.9531 14.8357C49.8652 14.6274 49.8213 14.4044 49.8213 14.1667V10.407C49.8213 10.1694 49.8652 9.94637 49.9531 9.73804C50.0443 9.5297 50.168 9.34741 50.3242 9.19116C50.4805 9.03491 50.6628 8.91284 50.8711 8.82495C51.0827 8.73381 51.3073 8.68823 51.5449 8.68823H52.043C52.2806 8.68823 52.5036 8.73381 52.7119 8.82495C52.9202 8.91284 53.1025 9.03491 53.2588 9.19116C53.415 9.34741 53.5371 9.5297 53.625 9.73804C53.7161 9.94637 53.7617 10.1694 53.7617 10.407V10.6902L53.1318 10.7878V10.407C53.1318 10.2507 53.1025 10.1059 53.0439 9.97241C52.9854 9.83569 52.9056 9.71688 52.8047 9.61597C52.7038 9.51506 52.585 9.4353 52.4482 9.37671C52.3148 9.31812 52.1699 9.28882 52.0137 9.28882H51.5742C51.418 9.28882 51.2715 9.31812 51.1348 9.37671C51.0013 9.4353 50.8825 9.51506 50.7783 9.61597C50.6774 9.71688 50.5977 9.83569 50.5391 9.97241C50.4805 10.1059 50.4512 10.2507 50.4512 10.407V14.1667C50.4512 14.323 50.4805 14.4695 50.5391 14.6062C50.5977 14.7397 50.6774 14.8585 50.7783 14.9626C50.8825 15.0636 51.0013 15.1433 51.1348 15.2019C51.2715 15.2605 51.418 15.2898 51.5742 15.2898H52.0137C52.1699 15.2898 52.3148 15.2605 52.4482 15.2019C52.585 15.1433 52.7038 15.0636 52.8047 14.9626C52.9056 14.8585 52.9854 14.7397 53.0439 14.6062C53.1025 14.4695 53.1318 14.323 53.1318 14.1667V13.7859L53.7617 13.8884V14.1667ZM58.4785 15.7878V12.5896H55.7979V15.7878H55.168V8.78589H55.7979V11.989H58.4785V8.78589H59.1084V15.7878H58.4785ZM63.3418 14.157H61.125L60.666 15.7878H60.0117L62.0625 8.78589H62.3945L64.4551 15.7878H63.8057L63.3418 14.157ZM61.2959 13.5564H63.1758L62.2529 10.3289L62.2334 10.0701L62.2139 10.3289L61.2959 13.5564ZM66.75 9.38647V15.7878H66.1201V9.38647H64.4502V8.78589H68.4199V9.38647H66.75ZM75.3389 15.7878L72.4189 10.6902L72.3604 10.3875V15.7878H71.7305V8.78589H72.0576L74.9775 13.8884L75.041 14.1863V8.78589H75.6709V15.7878H75.3389ZM81.1152 14.1667C81.1152 14.4044 81.0697 14.6274 80.9785 14.8357C80.8906 15.044 80.7686 15.2263 80.6123 15.3826C80.4561 15.5388 80.2738 15.6625 80.0654 15.7537C79.8571 15.8416 79.6341 15.8855 79.3965 15.8855H78.8984C78.6608 15.8855 78.4362 15.8416 78.2246 15.7537C78.0163 15.6625 77.834 15.5388 77.6777 15.3826C77.5215 15.2263 77.3978 15.044 77.3066 14.8357C77.2188 14.6274 77.1748 14.4044 77.1748 14.1667V10.407C77.1748 10.1694 77.2188 9.94637 77.3066 9.73804C77.3978 9.5297 77.5215 9.34741 77.6777 9.19116C77.834 9.03491 78.0163 8.91284 78.2246 8.82495C78.4362 8.73381 78.6608 8.68823 78.8984 8.68823H79.3965C79.6341 8.68823 79.8571 8.73381 80.0654 8.82495C80.2738 8.91284 80.4561 9.03491 80.6123 9.19116C80.7686 9.34741 80.8906 9.5297 80.9785 9.73804C81.0697 9.94637 81.1152 10.1694 81.1152 10.407V14.1667ZM80.4854 10.407C80.4854 10.2507 80.4561 10.1059 80.3975 9.97241C80.3389 9.83569 80.2591 9.71688 80.1582 9.61597C80.0573 9.51506 79.9385 9.4353 79.8018 9.37671C79.6683 9.31812 79.5234 9.28882 79.3672 9.28882H78.9277C78.7715 9.28882 78.625 9.31812 78.4883 9.37671C78.3548 9.4353 78.236 9.51506 78.1318 9.61597C78.0309 9.71688 77.9512 9.83569 77.8926 9.97241C77.834 10.1059 77.8047 10.2507 77.8047 10.407V14.1667C77.8047 14.323 77.834 14.4695 77.8926 14.6062C77.9512 14.7397 78.0309 14.8585 78.1318 14.9626C78.236 15.0636 78.3548 15.1433 78.4883 15.2019C78.625 15.2605 78.7715 15.2898 78.9277 15.2898H79.3672C79.5234 15.2898 79.6683 15.2605 79.8018 15.2019C79.9385 15.1433 80.0573 15.0636 80.1582 14.9626C80.2591 14.8585 80.3389 14.7397 80.3975 14.6062C80.4561 14.4695 80.4854 14.323 80.4854 14.1667V10.407ZM87.2969 15.7878H86.9697L85.6074 10.5193L85.5879 10.2458L85.5586 10.5193L84.2061 15.7878H83.8789L82.0186 8.78589H82.6484L84.0205 14.1082L84.04 14.3669L84.0596 14.1082L85.4072 8.78589H85.7588L87.1064 14.1082L87.126 14.3669L87.1504 14.1082L88.5176 8.78589H89.1475L87.2969 15.7878Z" fill="white"/>
</svg>
