<svg width="61" height="56" viewBox="0 0 61 56" fill="none" xmlns="http://www.w3.org/2000/svg">
<path d="M43.0034 38V40C43.0034 40.2652 42.8981 40.5196 42.7106 40.7071C42.523 40.8946 42.2687 41 42.0034 41C41.7382 41 41.4839 40.8946 41.2963 40.7071C41.1088 40.5196 41.0034 40.2652 41.0034 40V38C41.0034 37.7348 41.1088 37.4804 41.2963 37.2929C41.4839 37.1054 41.7382 37 42.0034 37C42.2687 37 42.523 37.1054 42.7106 37.2929C42.8981 37.4804 43.0034 37.7348 43.0034 38ZM36.0034 30V44C36.0026 44.7954 35.6862 45.5579 35.1238 46.1204C34.5614 46.6828 33.7988 46.9991 33.0034 47H11.0034C10.2081 46.9991 9.44551 46.6828 8.88309 46.1204C8.32067 45.5579 8.00432 44.7954 8.00345 44V30C8.00432 29.2046 8.32067 28.4421 8.88309 27.8796C9.44551 27.3172 10.2081 27.0009 11.0034 27H33.0034C33.7988 27.0009 34.5614 27.3172 35.1238 27.8796C35.6862 28.4421 36.0026 29.2046 36.0034 30ZM34.0034 30C34.0032 29.7349 33.8978 29.4806 33.7103 29.2932C33.5228 29.1057 33.2686 29.0002 33.0034 29H11.0034C10.7383 29.0002 10.4841 29.1057 10.2966 29.2932C10.1091 29.4806 10.0037 29.7349 10.0034 30V44C10.0037 44.2651 10.1091 44.5194 10.2966 44.7068C10.4841 44.8943 10.7383 44.9998 11.0034 45H33.0034C33.2686 44.9998 33.5228 44.8943 33.7103 44.7068C33.8978 44.5194 34.0032 44.2651 34.0034 44V30ZM33.0034 31V43C33.0034 43.2652 32.8981 43.5196 32.7106 43.7071C32.523 43.8946 32.2687 44 32.0034 44H12.0034C11.7382 44 11.4839 43.8946 11.2963 43.7071C11.1088 43.5196 11.0034 43.2652 11.0034 43V31C11.0034 30.7348 11.1088 30.4804 11.2963 30.2929C11.4839 30.1054 11.7382 30 12.0034 30H32.0034C32.2687 30 32.523 30.1054 32.7106 30.2929C32.8981 30.4804 33.0034 30.7348 33.0034 31ZM31.0034 32H13.0034V42H31.0034V32ZM13.0034 4C13.0034 4.26522 13.1088 4.51957 13.2963 4.70711C13.4839 4.89464 13.7382 5 14.0034 5C14.2687 5 14.523 4.89464 14.7106 4.70711C14.8981 4.51957 15.0034 4.26522 15.0034 4C15.0034 3.73478 14.8981 3.48043 14.7106 3.29289C14.523 3.10536 14.2687 3 14.0034 3C13.7382 3 13.4839 3.10536 13.2963 3.29289C13.1088 3.48043 13.0034 3.73478 13.0034 4ZM45.0034 4C45.0034 4.26522 45.1088 4.51957 45.2963 4.70711C45.4839 4.89464 45.7382 5 46.0034 5C46.2687 5 46.523 4.89464 46.7106 4.70711C46.8981 4.51957 47.0034 4.26522 47.0034 4C47.0034 3.73478 46.8981 3.48043 46.7106 3.29289C46.523 3.10536 46.2687 3 46.0034 3C45.7382 3 45.4839 3.10536 45.2963 3.29289C45.1088 3.48043 45.0034 3.73478 45.0034 4ZM42.0034 3H18.0034C17.7382 3 17.4839 3.10536 17.2963 3.29289C17.1088 3.48043 17.0034 3.73478 17.0034 4C17.0034 4.26522 17.1088 4.51957 17.2963 4.70711C17.4839 4.89464 17.7382 5 18.0034 5H42.0034C42.2687 5 42.523 4.89464 42.7106 4.70711C42.8981 4.51957 43.0034 4.26522 43.0034 4C43.0034 3.73478 42.8981 3.48043 42.7106 3.29289C42.523 3.10536 42.2687 3 42.0034 3ZM56.0034 23.7462V50H57.0034C57.7991 50 58.5622 50.3161 59.1248 50.8787C59.6874 51.4413 60.0034 52.2043 60.0034 53C60.0034 53.7957 59.6874 54.5587 59.1248 55.1213C58.5622 55.6839 57.7991 56 57.0034 56H3.00345C2.2078 56 1.44474 55.6839 0.882127 55.1213C0.319518 54.5587 0.00344758 53.7957 0.00344758 53C0.00344758 52.2043 0.319518 51.4413 0.882127 50.8787C1.44474 50.3161 2.2078 50 3.00345 50H4.00345V23.7462C2.81854 23.4101 1.78055 22.6864 1.05541 21.6909C0.330275 20.6953 -0.0401196 19.4854 0.00344758 18.2545V14C0.0150732 13.7464 0.111729 13.504 0.277848 13.312L6.32665 6.9336C6.67329 6.58574 7.09418 6.32087 7.55776 6.15884C8.02134 5.99681 8.51559 5.94182 9.00345 5.998V3C9.00345 2.20435 9.31952 1.44129 9.88213 0.87868C10.4447 0.316071 11.2078 0 12.0034 0H48.0034C48.7991 0 49.5622 0.316071 50.1248 0.87868C50.6874 1.44129 51.0034 2.20435 51.0034 3V5.998C51.4913 5.94187 51.9855 5.99683 52.449 6.15877C52.9126 6.3207 53.3335 6.58542 53.6802 6.9331L59.729 13.312C59.8952 13.504 59.9918 13.7464 60.0034 14V18.2545C60.047 19.4854 59.6766 20.6953 58.9515 21.6909C58.2263 22.6864 57.1884 23.4101 56.0034 23.7462ZM46.9462 8L50.5176 13H56.6776L52.2295 8.31C51.9394 7.9614 51.4137 7.9887 51.0038 7.9984V8H46.9462ZM52.0034 29V50H54.0034V23.9418C53.2125 23.8911 52.4432 23.663 51.7524 23.2743C51.0617 22.8857 50.4673 22.3465 50.0134 21.6968C47.7616 24.77 42.2654 24.7755 40.0034 21.7114C37.7449 24.7699 32.2619 24.7708 30.0034 21.7114C27.7448 24.7699 22.2619 24.7708 20.0034 21.7114C17.7413 24.7747 12.2451 24.7706 9.99345 21.6969C9.53953 22.3466 8.94517 22.8857 8.25445 23.2744C7.56372 23.663 6.79437 23.8911 6.00345 23.9418V50H38.0034V29C38.0034 28.2044 38.3195 27.4413 38.8821 26.8787C39.4447 26.3161 40.2078 26 41.0034 26H49.0034C49.7991 26 50.5622 26.3161 51.1248 26.8787C51.6874 27.4413 52.0034 28.2044 52.0034 29ZM49.0034 28H41.0034C40.7382 28 40.4839 28.1054 40.2963 28.2929C40.1088 28.4804 40.0034 28.7348 40.0034 29V50H50.0034V29C50.0034 28.7348 49.8981 28.4804 49.7106 28.2929C49.523 28.1054 49.2687 28 49.0034 28ZM21.0034 15V18.5C20.9751 23.2243 29.0312 23.2257 29.0034 18.5V15H21.0034ZM29.0034 13V8H23.6626L21.5198 13H29.0034ZM21.487 8H15.5176L11.9462 13H19.3442L21.487 8ZM11.0034 15V18.5C10.9751 23.2243 19.0312 23.2257 19.0034 18.5V15H11.0034ZM31.0034 15V18.5C30.9751 23.2243 39.0312 23.2257 39.0034 18.5V15H31.0034ZM38.487 13L36.3442 8H31.0034V13H38.487ZM48.0606 13L44.4893 8H38.5198L40.6626 13H48.0606ZM41.0034 15V18.5C40.9751 23.2243 49.0312 23.2257 49.0034 18.5V15H41.0034ZM11.0034 5.998H49.0034V3C49.0034 2.73478 48.8981 2.48043 48.7106 2.29289C48.523 2.10536 48.2687 2 48.0034 2H12.0034C11.7382 2 11.4839 2.10536 11.2963 2.29289C11.1088 2.48043 11.0034 2.73478 11.0034 3V5.998ZM3.32965 13H9.48965L13.061 8H9.00345V7.998C8.59405 7.988 8.06745 7.9609 7.77785 8.3101L3.32965 13ZM9.00345 18.5V15H2.00345V18.3993C1.99684 18.8589 2.08082 19.3154 2.2506 19.7425C2.42038 20.1697 2.67264 20.5592 2.99297 20.8889C3.63991 21.5547 4.52484 21.9363 5.4531 21.9496C6.38136 21.963 7.2769 21.6071 7.94272 20.9601C8.60854 20.3132 8.99009 19.4283 9.00345 18.5ZM3.00345 52C2.73823 52 2.48388 52.1054 2.29634 52.2929C2.1088 52.4804 2.00345 52.7348 2.00345 53C2.00345 53.2652 2.1088 53.5196 2.29634 53.7071C2.48388 53.8946 2.73823 54 3.00345 54H57.0034C57.2687 54 57.523 53.8946 57.7106 53.7071C57.8981 53.5196 58.0034 53.2652 58.0034 53C58.0034 52.7348 57.8981 52.4804 57.7106 52.2929C57.523 52.1054 57.2687 52 57.0034 52H3.00345ZM58.0034 18.3993V15H51.0034V18.5C51.0101 18.9596 51.1071 19.4135 51.2891 19.8356C51.4711 20.2577 51.7345 20.6398 52.0642 20.9601C52.3939 21.2805 52.7834 21.5327 53.2106 21.7025C53.6377 21.8723 54.0942 21.9563 54.5538 21.9496C55.0134 21.943 55.4673 21.846 55.8894 21.664C56.3115 21.482 56.6936 21.2186 57.0139 20.8889C57.3343 20.5592 57.5865 20.1697 57.7563 19.7425C57.9261 19.3154 58.0101 18.8589 58.0034 18.3993Z" fill="#032F6F"/>
</svg>
