<svg width="39" height="40" viewBox="0 0 39 40" fill="none" xmlns="http://www.w3.org/2000/svg">
<path d="M15.0241 23.5413C13.7562 23.5413 12.5168 23.9172 11.4626 24.6216C10.4084 25.326 9.58671 26.3273 9.10151 27.4986C8.6163 28.67 8.48935 29.959 8.73671 31.2025C8.98406 32.446 9.59461 33.5883 10.4911 34.4848C11.3877 35.3814 12.5299 35.9919 13.7735 36.2393C15.017 36.4866 16.306 36.3597 17.4774 35.8745C18.6487 35.3893 19.6499 34.5676 20.3544 33.5134C21.0588 32.4592 21.4347 31.2197 21.4347 29.9519C21.4347 28.2517 20.7593 26.6211 19.5571 25.4189C18.3549 24.2167 16.7243 23.5413 15.0241 23.5413ZM15.0241 35.0799C14.0098 35.0799 13.0182 34.7791 12.1748 34.2156C11.3314 33.652 10.6741 32.851 10.2859 31.9139C9.89775 30.9768 9.79619 29.9456 9.99408 28.9507C10.192 27.9559 10.6804 27.0421 11.3977 26.3248C12.1149 25.6076 13.0287 25.1191 14.0236 24.9212C15.0184 24.7233 16.0496 24.8249 16.9868 25.2131C17.9239 25.6012 18.7249 26.2586 19.2884 27.102C19.8519 27.9454 20.1527 28.937 20.1527 29.9513C20.1528 30.6248 20.0202 31.2917 19.7625 31.914C19.5048 32.5363 19.127 33.1017 18.6508 33.5779C18.1745 34.0542 17.6091 34.4319 16.9868 34.6896C16.3646 34.9474 15.6976 35.08 15.0241 35.0799Z" fill="#032F6F" stroke="#032F6F" stroke-width="0.2"/>
<path d="M15.0241 28.0286C15.807 28.0286 16.3061 28.408 16.3061 28.6699H17.5881C17.5881 27.7592 16.7821 27.0212 15.6648 26.8111V26.1053H14.3828V26.8105C13.2666 27.0195 12.4595 27.7575 12.4595 28.6694C12.4595 29.7482 13.5855 30.5927 15.0235 30.5927C15.8064 30.5927 16.3055 30.972 16.3055 31.2339C16.3055 31.4959 15.8064 31.8752 15.0235 31.8752C14.2406 31.8752 13.7415 31.4959 13.7415 31.2339H12.4601C12.4601 32.1446 13.266 32.8826 14.3833 33.0928V33.798H15.6653V33.0928C16.7816 32.8838 17.5886 32.1458 17.5886 31.2339C17.5886 30.1551 16.4626 29.3106 15.0246 29.3106C14.2417 29.3106 13.7426 28.9313 13.7426 28.6694C13.7426 28.4074 14.2412 28.0286 15.0241 28.0286Z" fill="#032F6F" stroke="#032F6F" stroke-width="0.2"/>
<path d="M32.9734 37.644H6.04958V22.2587H16.3062C16.8163 22.2587 17.3055 22.0561 17.6662 21.6954C18.0269 21.3347 18.2295 20.8455 18.2295 20.3354V4.30952H25.2808V12.0021H32.9734V20.9767H34.2554V11.096L26.1852 3.02751H18.2295V2.3868C18.2295 1.87671 18.0269 1.38751 17.6662 1.02682C17.3055 0.666133 16.8163 0.463501 16.3062 0.463501L2.20357 0.463501C1.69348 0.463501 1.20428 0.666133 0.843594 1.02682C0.482906 1.38751 0.280273 1.87671 0.280273 2.3868L0.280273 20.336C0.280273 20.8461 0.482906 21.3353 0.843594 21.696C1.20428 22.0567 1.69348 22.2593 2.20357 22.2593H4.77046V38.926H34.2554V29.9513H32.9734V37.644ZM26.5628 5.21619L32.0667 10.7201H26.5628V5.21619ZM1.56228 20.336V2.3868C1.56228 2.21672 1.62984 2.0536 1.75011 1.93334C1.87037 1.81307 2.03349 1.74551 2.20357 1.74551H16.3074C16.4774 1.74551 16.6405 1.81307 16.7608 1.93334C16.8811 2.0536 16.9486 2.21672 16.9486 2.3868V20.336C16.9486 20.5061 16.8811 20.6692 16.7608 20.7895C16.6405 20.9097 16.4774 20.9773 16.3074 20.9773H2.20357C2.03349 20.9773 1.87037 20.9097 1.75011 20.7895C1.62984 20.6692 1.56228 20.5061 1.56228 20.336Z" fill="#032F6F" stroke="#032F6F" stroke-width="0.2"/>
<path d="M20.7935 16.4894H22.0755V17.7714H20.7935V16.4894Z" fill="#032F6F" stroke="#032F6F" stroke-width="0.2"/>
<path d="M23.3582 16.4894H31.0508V17.7714H23.3582V16.4894Z" fill="#032F6F" stroke="#032F6F" stroke-width="0.2"/>
<path d="M20.7935 13.9254H22.0755V15.2074H20.7935V13.9254Z" fill="#032F6F" stroke="#032F6F" stroke-width="0.2"/>
<path d="M23.3582 13.9254H31.0508V15.2074H23.3582V13.9254Z" fill="#032F6F" stroke="#032F6F" stroke-width="0.2"/>
<path d="M20.7935 19.054H22.0755V20.336H20.7935V19.054Z" fill="#032F6F" stroke="#032F6F" stroke-width="0.2"/>
<path d="M23.3582 19.054H31.0508V20.336H23.3582V19.054Z" fill="#032F6F" stroke="#032F6F" stroke-width="0.2"/>
<path d="M20.7935 21.618H22.0755V22.9H20.7935V21.618Z" fill="#032F6F" stroke="#032F6F" stroke-width="0.2"/>
<path d="M23.3582 21.618H31.0508V22.9H23.3582V21.618Z" fill="#032F6F" stroke="#032F6F" stroke-width="0.2"/>
<path d="M16.3074 2.38672H2.20361V6.8769H16.3074V2.38672ZM15.0254 5.59202H3.48562V3.66872H15.0242L15.0254 5.59202Z" fill="#032F6F" stroke="#032F6F" stroke-width="0.2"/>
<path d="M5.40825 7.51489H4.12624C3.78624 7.51489 3.46015 7.64996 3.21973 7.89038C2.97931 8.13081 2.84424 8.45689 2.84424 8.7969V10.0789C2.84424 10.4189 2.97931 10.745 3.21973 10.9854C3.46015 11.2258 3.78624 11.3609 4.12624 11.3609H5.40825C5.74826 11.3609 6.07434 11.2258 6.31476 10.9854C6.55519 10.745 6.69025 10.4189 6.69025 10.0789V8.7969C6.69025 8.45689 6.55519 8.13081 6.31476 7.89038C6.07434 7.64996 5.74826 7.51489 5.40825 7.51489ZM4.12624 10.0789V8.7969H5.40825V10.0789H4.12624Z" fill="#032F6F" stroke="#032F6F" stroke-width="0.2"/>
<path d="M9.89555 7.51489H8.61355C8.27354 7.51489 7.94746 7.64996 7.70703 7.89038C7.46661 8.13081 7.33154 8.45689 7.33154 8.7969V10.0789C7.33154 10.4189 7.46661 10.745 7.70703 10.9854C7.94746 11.2258 8.27354 11.3609 8.61355 11.3609H9.89555C10.2356 11.3609 10.5616 11.2258 10.8021 10.9854C11.0425 10.745 11.1776 10.4189 11.1776 10.0789V8.7969C11.1776 8.45689 11.0425 8.13081 10.8021 7.89038C10.5616 7.64996 10.2356 7.51489 9.89555 7.51489ZM8.61355 10.0789V8.7969H9.89555V10.0789H8.61355Z" fill="#032F6F" stroke="#032F6F" stroke-width="0.2"/>
<path d="M14.3829 7.51489H13.1009C12.7608 7.51489 12.4348 7.64996 12.1943 7.89038C11.9539 8.13081 11.8188 8.45689 11.8188 8.7969V10.0789C11.8188 10.4189 11.9539 10.745 12.1943 10.9854C12.4348 11.2258 12.7608 11.3609 13.1009 11.3609H14.3829C14.7229 11.3609 15.049 11.2258 15.2894 10.9854C15.5298 10.745 15.6649 10.4189 15.6649 10.0789V8.7969C15.6649 8.45689 15.5298 8.13081 15.2894 7.89038C15.049 7.64996 14.7229 7.51489 14.3829 7.51489ZM13.1009 10.0789V8.7969H14.3829V10.0789H13.1009Z" fill="#032F6F" stroke="#032F6F" stroke-width="0.2"/>
<path d="M5.40825 12.0021H4.12624C3.78624 12.0021 3.46015 12.1371 3.21973 12.3776C2.97931 12.618 2.84424 12.9441 2.84424 13.2841V14.5661C2.84424 14.9061 2.97931 15.2322 3.21973 15.4726C3.46015 15.713 3.78624 15.8481 4.12624 15.8481H5.40825C5.74826 15.8481 6.07434 15.713 6.31476 15.4726C6.55519 15.2322 6.69025 14.9061 6.69025 14.5661V13.2841C6.69025 12.9441 6.55519 12.618 6.31476 12.3776C6.07434 12.1371 5.74826 12.0021 5.40825 12.0021ZM4.12624 14.5661V13.2841H5.40825V14.5661H4.12624Z" fill="#032F6F" stroke="#032F6F" stroke-width="0.2"/>
<path d="M9.89555 12.0021H8.61355C8.27354 12.0021 7.94746 12.1371 7.70703 12.3776C7.46661 12.618 7.33154 12.9441 7.33154 13.2841V14.5661C7.33154 14.9061 7.46661 15.2322 7.70703 15.4726C7.94746 15.713 8.27354 15.8481 8.61355 15.8481H9.89555C10.2356 15.8481 10.5616 15.713 10.8021 15.4726C11.0425 15.2322 11.1776 14.9061 11.1776 14.5661V13.2841C11.1776 12.9441 11.0425 12.618 10.8021 12.3776C10.5616 12.1371 10.2356 12.0021 9.89555 12.0021ZM8.61355 14.5661V13.2841H9.89555V14.5661H8.61355Z" fill="#032F6F" stroke="#032F6F" stroke-width="0.2"/>
<path d="M14.3829 12.0021H13.1009C12.7608 12.0021 12.4348 12.1371 12.1943 12.3776C11.9539 12.618 11.8188 12.9441 11.8188 13.2841V14.5661C11.8188 14.9061 11.9539 15.2322 12.1943 15.4726C12.4348 15.713 12.7608 15.8481 13.1009 15.8481H14.3829C14.7229 15.8481 15.049 15.713 15.2894 15.4726C15.5298 15.2322 15.6649 14.9061 15.6649 14.5661V13.2841C15.6649 12.9441 15.5298 12.618 15.2894 12.3776C15.049 12.1371 14.7229 12.0021 14.3829 12.0021ZM13.1009 14.5661V13.2841H14.3829V14.5661H13.1009Z" fill="#032F6F" stroke="#032F6F" stroke-width="0.2"/>
<path d="M5.40825 16.4894H4.12624C3.78624 16.4894 3.46015 16.6244 3.21973 16.8649C2.97931 17.1053 2.84424 17.4314 2.84424 17.7714V19.0534C2.84424 19.3934 2.97931 19.7195 3.21973 19.9599C3.46015 20.2003 3.78624 20.3354 4.12624 20.3354H5.40825C5.74826 20.3354 6.07434 20.2003 6.31476 19.9599C6.55519 19.7195 6.69025 19.3934 6.69025 19.0534V17.7714C6.69025 17.4314 6.55519 17.1053 6.31476 16.8649C6.07434 16.6244 5.74826 16.4894 5.40825 16.4894ZM4.12624 19.0534V17.7714H5.40825V19.0534H4.12624Z" fill="#032F6F" stroke="#032F6F" stroke-width="0.2"/>
<path d="M9.89555 16.4894H8.61355C8.27354 16.4894 7.94746 16.6244 7.70703 16.8649C7.46661 17.1053 7.33154 17.4314 7.33154 17.7714V19.0534C7.33154 19.3934 7.46661 19.7195 7.70703 19.9599C7.94746 20.2003 8.27354 20.3354 8.61355 20.3354H9.89555C10.2356 20.3354 10.5616 20.2003 10.8021 19.9599C11.0425 19.7195 11.1776 19.3934 11.1776 19.0534V17.7714C11.1776 17.4314 11.0425 17.1053 10.8021 16.8649C10.5616 16.6244 10.2356 16.4894 9.89555 16.4894ZM8.61355 19.0534V17.7714H9.89555V19.0534H8.61355Z" fill="#032F6F" stroke="#032F6F" stroke-width="0.2"/>
<path d="M14.3829 16.4894H13.1009C12.7608 16.4894 12.4348 16.6244 12.1943 16.8649C11.9539 17.1053 11.8188 17.4314 11.8188 17.7714V19.0534C11.8188 19.3934 11.9539 19.7195 12.1943 19.9599C12.4348 20.2003 12.7608 20.3354 13.1009 20.3354H14.3829C14.7229 20.3354 15.049 20.2003 15.2894 19.9599C15.5298 19.7195 15.6649 19.3934 15.6649 19.0534V17.7714C15.6649 17.4314 15.5298 17.1053 15.2894 16.8649C15.049 16.6244 14.7229 16.4894 14.3829 16.4894ZM13.1009 19.0534V17.7714H14.3829V19.0534H13.1009Z" fill="#032F6F" stroke="#032F6F" stroke-width="0.2"/>
<path d="M38.1607 20.918C37.7945 20.5684 37.3076 20.3733 36.8013 20.3733C36.2949 20.3733 35.8081 20.5684 35.4419 20.918L24.4524 31.9074C24.3991 31.9612 24.3556 32.024 24.324 32.0928L22.7767 35.4535C22.7221 35.5725 22.7052 35.7054 22.7284 35.8342C22.7515 35.9631 22.8135 36.0818 22.9061 36.1743C22.9987 36.2669 23.1174 36.3289 23.2462 36.3521C23.3751 36.3752 23.5079 36.3584 23.6269 36.3038L26.9876 34.7564C27.0565 34.7249 27.1193 34.6814 27.173 34.628L38.1619 23.6386C38.3406 23.4599 38.4823 23.2478 38.5789 23.0144C38.6756 22.7809 38.7253 22.5307 38.7252 22.278C38.7251 22.0254 38.6752 21.7752 38.5783 21.5418C38.4814 21.3085 38.3395 21.0965 38.1607 20.918ZM26.3458 33.6402L24.666 34.4139L25.4397 32.7341L33.6337 24.5378L34.5404 25.4444L26.3458 33.6402ZM35.4482 24.5378L34.5415 23.6317L34.9905 23.1826L35.8972 24.0893L35.4482 24.5378ZM37.2564 22.7302L36.8033 23.1832L35.8972 22.2766L36.3508 21.8235C36.4728 21.7068 36.6351 21.6416 36.8039 21.6416C36.9727 21.6416 37.135 21.7068 37.2569 21.8235C37.3765 21.9438 37.4436 22.1065 37.4435 22.2761C37.4434 22.4457 37.3761 22.6083 37.2564 22.7285V22.7302Z" fill="#032F6F" stroke="#032F6F" stroke-width="0.2"/>
</svg>
