<svg width="64" height="65" viewBox="0 0 64 65" fill="none" xmlns="http://www.w3.org/2000/svg">
<path d="M62.3835 22.0868C59.7916 14.2204 54.2092 7.68939 46.8421 3.90464C39.475 0.119902 30.9147 -0.614719 23.0105 1.85948C15.1063 4.33368 8.49268 9.81808 4.59844 17.1279C0.704199 24.4377 -0.158062 32.986 2.19793 40.9263L4.23735 40.2876C2.01262 33.1768 2.57096 25.4866 5.79947 18.7717C9.02798 12.0569 14.6858 6.81849 21.6289 4.11566C28.572 1.41283 36.2825 1.44724 43.2012 4.21195C50.1199 6.97666 55.7307 12.2654 58.8992 19.0088C62.0676 25.7522 62.5573 33.4471 60.2691 40.5377C57.981 47.6283 53.0858 53.5856 46.5734 57.205C40.0609 60.8244 32.417 61.8358 25.1873 60.0349C17.9576 58.2339 11.6814 53.7549 7.62779 47.5035L5.83563 48.6655C8.71132 53.0772 12.6426 56.7014 17.2731 59.2096C21.9036 61.7178 27.0868 63.0307 32.353 63.0292C37.2948 63.0212 42.1654 61.8515 46.5718 59.6143C50.9782 57.3772 54.797 54.1355 57.7197 50.1507C60.6425 46.1659 62.5875 41.5497 63.3976 36.6748C64.2077 31.7999 63.8603 26.8028 62.3835 22.0868Z" fill="white"/>
<path d="M26.0997 14.9262L26.7133 12.8794L16.0315 9.67485C15.8467 9.61937 15.6504 9.615 15.4634 9.66222C15.2764 9.70943 15.1057 9.80645 14.9694 9.94297L12.8318 12.0793C12.7093 12.2019 12.6184 12.3525 12.567 12.5181C12.5156 12.6836 12.5053 12.8592 12.5369 13.0296C12.5686 13.2001 12.6412 13.3603 12.7486 13.4963C12.856 13.6324 12.9949 13.7403 13.1533 13.8107L22.7682 18.0859L23.6357 16.133L15.4437 12.4916L16.029 11.9063L26.0997 14.9262Z" fill="white"/>
<path d="M36.0227 8.56235C36.0227 8.27905 35.9101 8.00736 35.7098 7.80704C35.5095 7.60671 35.2378 7.49417 34.9545 7.49417C33.7985 7.49102 32.6534 7.71715 31.5854 8.15946C30.5174 8.60178 29.5478 9.25152 28.7325 10.0711L19.6717 19.1288L15.9856 18.2085C15.8065 18.1637 15.619 18.166 15.4411 18.2153C15.2633 18.2645 15.1012 18.359 14.9708 18.4895L12.8344 20.6258C12.7192 20.7405 12.6318 20.8799 12.5787 21.0334C12.5256 21.187 12.5082 21.3506 12.528 21.5119C12.5478 21.6732 12.6041 21.8278 12.6927 21.964C12.7813 22.1002 12.8999 22.2143 13.0393 22.2978L18.1514 25.3655L21.2191 30.4775C21.3026 30.6167 21.4167 30.735 21.5528 30.8235C21.6889 30.9119 21.8433 30.9682 22.0044 30.988C22.0476 30.9931 22.091 30.9956 22.1345 30.9953C22.4188 30.9949 22.6914 30.8819 22.8928 30.6812L25.0292 28.5449C25.1595 28.4142 25.2538 28.2522 25.3031 28.0744C25.3523 27.8966 25.3548 27.7091 25.3102 27.53L24.3899 23.8488L33.593 14.7371C35.1765 13.074 36.0482 10.8585 36.0227 8.56235ZM22.4511 22.7561C22.3194 22.8864 22.2238 23.0488 22.1738 23.2273C22.1238 23.4057 22.121 23.5941 22.1658 23.7739L23.0861 27.4601L22.3449 28.2013L19.8441 24.0335C19.7538 23.8822 19.6273 23.7557 19.476 23.6653L15.3082 21.1645L16.0494 20.4234L19.7355 21.3437C19.9146 21.3885 20.1021 21.3862 20.28 21.3369C20.4578 21.2877 20.6199 21.1932 20.7503 21.0627L30.2357 11.5773C31.2011 10.6056 32.4447 9.95786 33.7943 9.72379C33.5852 11.0432 32.9798 12.2678 32.0586 13.2351L22.4511 22.7561Z" fill="white"/>
<path d="M33.8396 27.6241L30.6351 16.8018L28.5864 17.4086L31.5977 27.5756L30.9492 28.148L27.3906 19.8867L25.4273 20.7327L29.5718 30.3463C29.6387 30.5014 29.7413 30.6383 29.8713 30.7461C30.0013 30.8538 30.155 30.9291 30.3197 30.966C30.3965 30.983 30.4748 30.9916 30.5535 30.9918C30.8135 30.992 31.0647 30.8971 31.2596 30.7249L33.5242 28.7272C33.6762 28.5923 33.7866 28.4169 33.8425 28.2215C33.8983 28.0261 33.8973 27.8189 33.8396 27.6241Z" fill="white"/>
<path d="M21.1 58.87C13.4921 62.4751 7.52478 62.9408 4.73009 60.1474C-0.113221 55.304 5.14669 41.233 16.9641 27.4154L15.3407 26.027C2.37899 41.1815 -2.60789 55.8342 3.22077 61.6579C4.84789 63.2838 7.14745 64.0943 9.99491 64.0943C13.3166 64.0943 17.3887 62.993 22.0161 60.8002L21.1 58.87Z" fill="white"/>
<path d="M57.2592 36.8977C57.1679 36.7273 57.032 36.5848 56.866 36.4855C56.7 36.3862 56.5102 36.3338 56.3168 36.3339H52.7043L49.7949 30.5156C49.7061 30.3382 49.5696 30.1889 49.4008 30.0845C49.232 29.9802 49.0374 29.9249 48.839 29.9248H38.1572C38.0169 29.9247 37.8779 29.9523 37.7483 30.0059C37.6187 30.0596 37.5009 30.1383 37.4017 30.2375C37.3025 30.3367 37.2238 30.4545 37.1701 30.5841C37.1165 30.7137 37.0889 30.8527 37.089 30.993V39.5384C37.0888 39.6787 37.1163 39.8177 37.17 39.9474C37.2236 40.077 37.3023 40.1949 37.4015 40.2941C37.5007 40.3933 37.6185 40.472 37.7482 40.5256C37.8779 40.5792 38.0168 40.6068 38.1572 40.6066H41.3617V52.3566C41.3615 52.4969 41.3891 52.6359 41.4427 52.7655C41.4963 52.8952 41.575 53.013 41.6742 53.1122C41.7734 53.2115 41.8913 53.2901 42.0209 53.3438C42.1506 53.3974 42.2896 53.4249 42.4299 53.4247H47.7708C47.9113 53.4247 48.0505 53.397 48.1803 53.3431C48.3101 53.2892 48.4281 53.2102 48.5273 53.1106L52.8 48.8385C52.8994 48.7395 52.9782 48.6218 53.0319 48.4921C53.0856 48.3625 53.1131 48.2235 53.1129 48.0832V44.1345L57.2059 37.9947C57.3132 37.8339 57.3749 37.6468 57.3843 37.4536C57.3937 37.2604 57.3505 37.0683 57.2592 36.8977ZM51.1545 43.2172C51.0376 43.3928 50.9751 43.599 50.9747 43.8099V47.6403L47.3278 51.2872H43.4962V39.5384C43.4964 39.3981 43.4689 39.2591 43.4152 39.1294C43.3616 38.9998 43.2829 38.882 43.1837 38.7827C43.0845 38.6835 42.9667 38.6048 42.837 38.5512C42.7073 38.4976 42.5684 38.4701 42.428 38.4702H39.2235V32.0612H48.1776L51.087 37.8794C51.1758 38.0569 51.3122 38.2061 51.4811 38.3105C51.6499 38.4148 51.8444 38.4702 52.0429 38.4702H54.3204L51.1545 43.2172Z" fill="white"/>
<path d="M58.0041 27.7886L54.0388 20.8494C53.9454 20.6858 53.8105 20.5499 53.6477 20.4553C53.4849 20.3607 53.3 20.3108 53.1117 20.3107H46.7026C46.5269 20.3108 46.3538 20.3543 46.1989 20.4372C46.0439 20.5202 45.9118 20.64 45.8142 20.7862L43.9944 23.5158H41.3611V18.178H46.6989C46.8392 18.1781 46.9782 18.1506 47.1078 18.0969C47.2374 18.0432 47.3551 17.9644 47.4542 17.8651L51.414 13.9053H56.3125V11.7659H50.9747C50.8344 11.7657 50.6955 11.7933 50.5658 11.847C50.4362 11.9007 50.3185 11.9794 50.2194 12.0788L46.2596 16.0386H40.2929C40.1526 16.0385 40.0137 16.0661 39.8841 16.1197C39.7544 16.1734 39.6366 16.2521 39.5374 16.3513C39.4382 16.4505 39.3595 16.5683 39.3059 16.6979C39.2522 16.8275 39.2247 16.9665 39.2247 17.1068V24.584C39.2247 24.8673 39.3373 25.139 39.5376 25.3393C39.7379 25.5397 40.0096 25.6522 40.2929 25.6522H44.5656C44.7414 25.652 44.9144 25.6086 45.0693 25.5256C45.2243 25.4427 45.3564 25.3229 45.454 25.1767L47.2732 22.4477H52.4883L56.4537 29.3868C56.547 29.5504 56.6819 29.6863 56.8447 29.7809C57.0075 29.8755 57.1924 29.9254 57.3807 29.9255H61.6534V27.7892L58.0041 27.7886Z" fill="white"/>
<path d="M31.7469 38.4702H25.7802L22.8886 35.5785C22.7895 35.4792 22.6718 35.4004 22.5422 35.3467C22.4125 35.293 22.2736 35.2655 22.1333 35.2656H16.7955C16.5122 35.2656 16.2405 35.3782 16.0402 35.5785C15.8398 35.7788 15.7273 36.0505 15.7273 36.3338V43.8111C15.7272 43.9514 15.7548 44.0903 15.8084 44.2199C15.8621 44.3496 15.9408 44.4673 16.04 44.5666C16.1392 44.6658 16.257 44.7444 16.3866 44.7981C16.5162 44.8517 16.6552 44.8793 16.7955 44.8792H21.0682V55.5623C21.0681 55.7607 21.1234 55.9552 21.2276 56.124C21.3319 56.2928 21.4812 56.4292 21.6587 56.518C21.8361 56.6067 22.0348 56.6443 22.2325 56.6264C22.4301 56.6086 22.6188 56.536 22.7775 56.4169L27.0502 53.2124C27.1833 53.1131 27.2914 52.9841 27.3659 52.8358C27.4405 52.6874 27.4794 52.5238 27.4797 52.3577V49.6661L32.42 45.7149C32.545 45.6147 32.646 45.4877 32.7153 45.3433C32.7847 45.1989 32.8207 45.0407 32.8206 44.8805V39.5426C32.8212 39.4015 32.7938 39.2617 32.74 39.1313C32.6862 39.0008 32.6072 38.8823 32.5073 38.7826C32.4075 38.6829 32.2889 38.6039 32.1584 38.5503C32.0279 38.4967 31.888 38.4694 31.7469 38.4702ZM30.6787 44.3663L25.7385 48.3175C25.6134 48.4177 25.5125 48.5447 25.4431 48.6891C25.3738 48.8336 25.3378 48.9917 25.3378 49.152V51.8196L23.2015 53.4222V43.8111C23.2016 43.6708 23.174 43.5318 23.1203 43.4022C23.0667 43.2726 22.988 43.1548 22.8888 43.0556C22.7896 42.9564 22.6718 42.8777 22.5422 42.824C22.4125 42.7704 22.2736 42.7428 22.1333 42.7429H17.8606V37.4051H21.6909L24.5826 40.2967C24.6817 40.396 24.7994 40.4747 24.929 40.5284C25.0586 40.5821 25.1976 40.6097 25.3378 40.6096H30.6757L30.6787 44.3663Z" fill="white"/>
<path d="M10.2318 22.9653L7.02724 17.6274C6.93238 17.4694 6.79819 17.3387 6.63777 17.2479C6.47734 17.1572 6.29614 17.1095 6.11183 17.1096H5.04365V19.246H5.50749L7.96964 23.3494L5.35472 25.9643C5.25539 26.0634 5.17661 26.1811 5.12291 26.3107C5.06922 26.4403 5.04165 26.5793 5.04181 26.7195V29.9241H1.83911V32.0617H6.11183C6.39508 32.0615 6.66668 31.9489 6.86697 31.7486C7.06725 31.5483 7.17985 31.2767 7.18001 30.9935V27.1631L10.0716 24.2715C10.2401 24.1028 10.3474 23.8826 10.3764 23.6459C10.4054 23.4093 10.3545 23.1697 10.2318 22.9653Z" fill="white"/>
<path d="M33.8856 1.08398V2.38715L30.4216 3.25347C30.303 3.28344 30.1904 3.33322 30.0884 3.40072L27.3999 5.19289L21.5454 2.26506L20.5895 4.17624L26.9986 7.38078C27.167 7.46472 27.3546 7.50268 27.5424 7.49083C27.7302 7.47898 27.9115 7.41773 28.068 7.31329L31.1186 5.2794L35.2127 4.256C35.444 4.19837 35.6493 4.06507 35.7961 3.87729C35.9428 3.68951 36.0226 3.45805 36.0226 3.21973V1.08398H33.8856Z" fill="white"/>
</svg>
