<svg width="52" height="49" viewBox="0 0 52 49" fill="none" xmlns="http://www.w3.org/2000/svg">
<path d="M51.9265 35.9689V20.5007C51.9255 19.6036 51.5687 18.7434 50.9343 18.109C50.2999 17.4747 49.4398 17.1178 48.5426 17.1169H27.3499V16.7193C27.3503 16.2172 27.1766 15.7306 26.8583 15.3422C27.089 15.0607 27.2453 14.7258 27.3129 14.3682C27.9556 13.9938 28.426 13.3824 28.6231 12.6651C28.8203 11.9479 28.7285 11.182 28.3675 10.5316C28.6013 10.111 28.7242 9.63769 28.7245 9.15641C28.7229 8.66255 28.5938 8.17748 28.3495 7.74824C28.1053 7.31901 27.7543 6.96018 27.3305 6.70657C27.3414 6.60592 27.3469 6.50476 27.3469 6.40352C27.3461 5.71118 27.0952 5.04242 26.6405 4.52034C26.1858 3.99825 25.5578 3.65798 24.8722 3.56214C24.6192 3.13583 24.2599 2.7825 23.8294 2.53676C23.3989 2.29101 22.912 2.16127 22.4163 2.16024C22.284 2.16038 22.1519 2.17052 22.0211 2.19055C21.4526 1.72834 20.7428 1.47505 20.0101 1.47293C19.9125 1.47293 19.8143 1.47778 19.7149 1.48747C19.1055 1.03155 18.3649 0.785156 17.6039 0.785156C16.8428 0.785156 16.1022 1.03155 15.4928 1.48747C15.3934 1.47778 15.2952 1.47293 15.1977 1.47293C14.4715 1.47407 13.7676 1.72319 13.2024 2.17903C12.7569 2.2245 12.3282 2.37373 11.9507 2.61476C11.5733 2.8558 11.2576 3.18192 11.0289 3.56699C10.3434 3.66281 9.71545 4.003 9.26076 4.52496C8.80606 5.04692 8.55516 5.71553 8.55423 6.40776C8.5542 6.509 8.55967 6.61016 8.5706 6.71081C8.14683 6.96442 7.7958 7.32325 7.55155 7.75249C7.30731 8.18172 7.17814 8.66679 7.17658 9.16065C7.1769 9.64193 7.29976 10.1152 7.53357 10.5359C7.17256 11.1862 7.08078 11.9522 7.27794 12.6694C7.47509 13.3866 7.94547 13.998 8.58817 14.3725C8.62612 14.5721 8.69202 14.7653 8.78394 14.9464C8.49977 15.1475 8.26793 15.4137 8.10785 15.7228C7.94777 16.0319 7.86411 16.3748 7.86389 16.7229V18.0981C7.86389 18.6768 8.09377 19.2318 8.50297 19.641C8.91216 20.0502 9.46715 20.2801 10.0458 20.2801H10.404L10.4646 20.6437C10.6003 21.4925 11.0389 22.2633 11.6993 22.8136L11.992 23.056V25.3295C11.9927 25.4516 11.954 25.5706 11.8816 25.6689C11.8092 25.7672 11.707 25.8395 11.5902 25.875L5.56194 27.7266C4.8337 27.9477 4.19619 28.3978 3.74405 29.01C3.29191 29.6222 3.04925 30.3639 3.05209 31.125V41.1256C3.05139 42.0814 3.37513 43.0093 3.97033 43.7572H2.13931C1.69799 43.7577 1.27488 43.9332 0.962762 44.2452C0.650646 44.5572 0.475007 44.9802 0.474365 45.4216L0.474365 47.1404C0.474847 47.5819 0.650415 48.0051 0.962548 48.3172C1.27468 48.6294 1.69789 48.8049 2.13931 48.8054H50.2633C50.7048 48.8049 51.128 48.6294 51.4401 48.3172C51.7522 48.0051 51.9278 47.5819 51.9283 47.1404V45.4216C51.9278 44.9801 51.7522 44.5569 51.4401 44.2448C51.128 43.9327 50.7048 43.7571 50.2633 43.7566H41.5143L40.927 39.3527H48.5432C49.4403 39.3516 50.3003 38.9947 50.9345 38.3603C51.5688 37.726 51.9255 36.8659 51.9265 35.9689ZM10.0452 18.6642C9.89434 18.6641 9.74967 18.6041 9.64297 18.4974C9.53628 18.3907 9.47627 18.246 9.47611 18.0951V16.7199C9.47691 16.6217 9.5032 16.5254 9.55239 16.4404C9.60158 16.3554 9.67199 16.2846 9.75673 16.235L10.1458 18.6673L10.0452 18.6642ZM10.1664 13.9943C10.1695 13.97 10.1725 13.9458 10.1749 13.9209C10.1912 13.742 10.1471 13.5628 10.0498 13.4118C9.95253 13.2608 9.80755 13.1467 9.63793 13.0875C9.39165 13.0034 9.17766 12.8447 9.02561 12.6335C8.87357 12.4222 8.79102 12.1689 8.7894 11.9087C8.79035 11.5989 8.90734 11.3007 9.1173 11.0729C9.25044 10.9249 9.32411 10.7328 9.32411 10.5338C9.32411 10.3347 9.25044 10.1426 9.1173 9.99464C8.90729 9.76687 8.79029 9.46865 8.7894 9.15883C8.79095 8.88362 8.88292 8.61655 9.05113 8.39873C9.21935 8.1809 9.45449 8.0244 9.72036 7.95331C9.8301 7.9235 9.93229 7.87081 10.0202 7.7987C10.1081 7.72659 10.1798 7.6367 10.2305 7.53492C10.2813 7.43314 10.3099 7.32178 10.3145 7.20816C10.3191 7.09454 10.2996 6.98123 10.2574 6.87567C10.1965 6.72755 10.1649 6.56909 10.164 6.40897C10.1646 6.08107 10.2931 5.76633 10.5222 5.53177C10.7513 5.29721 11.063 5.16136 11.3908 5.15314C11.4253 5.15799 11.4593 5.16163 11.4944 5.16345C11.6695 5.17385 11.8433 5.12679 11.9892 5.02942C12.1351 4.93206 12.2453 4.78972 12.3029 4.62402C12.3856 4.3821 12.5401 4.17121 12.746 4.01956C12.9518 3.86791 13.199 3.78276 13.4545 3.77549H13.5018C13.6086 3.77727 13.7147 3.75783 13.814 3.71829C13.9132 3.67875 14.0037 3.61991 14.08 3.54517C14.2691 3.35556 14.5038 3.2177 14.7614 3.14479C15.0191 3.07188 15.2912 3.06637 15.5516 3.12878C15.6799 3.15744 15.8132 3.15431 15.9399 3.11966C16.0667 3.08501 16.1831 3.01989 16.2789 2.92998C16.636 2.58873 17.1109 2.39829 17.6048 2.39829C18.0987 2.39829 18.5735 2.58873 18.9306 2.92998C19.0264 3.01994 19.1428 3.08508 19.2696 3.11974C19.3963 3.15439 19.5297 3.15749 19.6579 3.12878C19.9335 3.06264 20.2219 3.07319 20.4919 3.15931C20.7619 3.24542 21.0031 3.40381 21.1895 3.6173C21.2949 3.73334 21.4318 3.81614 21.5834 3.85554C21.7351 3.89494 21.895 3.88924 22.0435 3.83913C22.1631 3.79686 22.2888 3.77454 22.4157 3.77306C22.676 3.77465 22.9294 3.85717 23.1407 4.00921C23.3521 4.16125 23.5109 4.37527 23.5951 4.6216C23.6527 4.78735 23.7628 4.92975 23.9088 5.02713C24.0547 5.12451 24.2285 5.17152 24.4036 5.16102C24.4364 5.16102 24.4691 5.15557 24.5073 5.15072C24.7109 5.15367 24.9107 5.20632 25.0893 5.30408C25.2679 5.40185 25.4199 5.54178 25.5321 5.71169C25.6443 5.8816 25.7133 6.07635 25.733 6.279C25.7528 6.48165 25.7228 6.68606 25.6455 6.87446C25.6031 6.98004 25.5834 7.09343 25.588 7.20715C25.5925 7.32088 25.621 7.43235 25.6718 7.53423C25.7225 7.6361 25.7943 7.72607 25.8823 7.7982C25.9704 7.87033 26.0727 7.92299 26.1825 7.9527C26.4484 8.02379 26.6836 8.1803 26.8518 8.39812C27.02 8.61594 27.1119 8.88302 27.1135 9.15823C27.1126 9.46803 26.9956 9.76623 26.7856 9.99403C26.6523 10.142 26.5786 10.334 26.5786 10.5332C26.5786 10.7323 26.6523 10.9243 26.7856 11.0723C26.9956 11.3001 27.1126 11.5983 27.1135 11.9081C27.1119 12.1683 27.0293 12.4216 26.8773 12.6329C26.7252 12.8441 26.5112 13.0028 26.265 13.0869C26.0952 13.1461 25.9502 13.2603 25.8529 13.4115C25.7556 13.5626 25.7116 13.7419 25.728 13.9209C25.728 13.9458 25.7334 13.97 25.7365 13.9949C25.7304 14.1156 25.686 14.2312 25.6097 14.325C25.5334 14.4187 25.4292 14.4857 25.3122 14.5161C25.2861 14.5228 24.5158 14.5404 24.5158 14.5404L24.0545 11.7596C24.0214 11.5613 23.9154 11.3826 23.7573 11.2585C23.5992 11.1344 23.4004 11.0738 23.1999 11.0886C23.1624 11.0886 23.126 11.0959 23.089 11.1008H23.0818C22.8779 11.0971 22.6781 11.0437 22.4995 10.9454C22.3209 10.8471 22.169 10.7067 22.0568 10.5365C21.9834 10.4257 21.8836 10.3349 21.7665 10.272C21.6494 10.2091 21.5185 10.1762 21.3856 10.1762C21.2527 10.1762 21.1218 10.2091 21.0047 10.272C20.8876 10.3349 20.7878 10.4257 20.7143 10.5365C20.6001 10.7099 20.4447 10.8523 20.2619 10.9508C20.0791 11.0493 19.8747 11.1008 19.667 11.1008C19.4594 11.1008 19.255 11.0493 19.0722 10.9508C18.8894 10.8523 18.7339 10.7099 18.6197 10.5365C18.5462 10.4257 18.4464 10.3349 18.3293 10.272C18.2122 10.2091 18.0813 10.1762 17.9484 10.1762C17.8155 10.1762 17.6846 10.2091 17.5675 10.272C17.4504 10.3349 17.3506 10.4257 17.2772 10.5365C17.163 10.7099 17.0075 10.8523 16.8247 10.9508C16.6419 11.0493 16.4375 11.1008 16.2298 11.1008C16.0222 11.1008 15.8178 11.0493 15.635 10.9508C15.4522 10.8523 15.2967 10.7099 15.1825 10.5365C15.109 10.4257 15.0093 10.3349 14.8922 10.272C14.775 10.2091 14.6442 10.1762 14.5112 10.1762C14.3783 10.1762 14.2475 10.2091 14.1303 10.272C14.0132 10.3349 13.9135 10.4257 13.84 10.5365C13.7278 10.7067 13.5759 10.847 13.3973 10.9453C13.2187 11.0437 13.0189 11.097 12.8151 11.1008H12.8102C12.7739 11.0959 12.7369 11.0911 12.6993 11.0886C12.4988 11.0737 12.3 11.1342 12.1419 11.2583C11.9837 11.3825 11.8778 11.5613 11.8447 11.7596L11.3841 14.5391C11.3841 14.5391 10.6137 14.5216 10.5877 14.5149C10.4708 14.4845 10.3666 14.4175 10.2904 14.3237C10.2142 14.23 10.1699 14.1143 10.164 13.9937L10.1664 13.9943ZM25.7431 16.7217V17.1193H25.3189L25.4607 16.2338C25.5451 16.2838 25.6152 16.3549 25.6639 16.4401C25.7127 16.5253 25.7385 16.6217 25.7389 16.7199L25.7431 16.7217ZM11.3786 16.1526H11.4877C11.8414 16.1535 12.1838 16.0285 12.4537 15.7999C12.7236 15.5714 12.9032 15.2542 12.9606 14.9052L13.3339 12.6627C13.7633 12.5814 14.1682 12.4027 14.5176 12.1402C15.0135 12.512 15.6165 12.7129 16.2362 12.7129C16.8559 12.7129 17.4589 12.512 17.9548 12.1402C18.4506 12.512 19.0536 12.7129 19.6734 12.7129C20.2931 12.7129 20.8961 12.512 21.392 12.1402C21.7413 12.4027 22.1463 12.5814 22.5757 12.6627L22.949 14.9052C22.9902 15.157 23.0955 15.3939 23.2547 15.5933C23.4139 15.7926 23.6217 15.9476 23.8582 16.0435L23.686 17.1199H22.7629C21.8658 17.1209 21.0057 17.4777 20.3713 18.1121C19.7369 18.7465 19.3801 19.6066 19.3791 20.5037V24.0797C19.2337 24.1369 19.0789 24.1665 18.9227 24.167H16.2935C15.9996 24.1667 15.715 24.0635 15.4892 23.8755L12.7302 21.5759C12.367 21.2751 12.1255 20.8525 12.0508 20.3868L11.3786 16.1526ZM12.0653 27.4151C12.512 27.2794 12.9031 27.0034 13.1804 26.6279C13.4577 26.2524 13.6066 25.7975 13.6048 25.3307V24.3979L14.4594 25.1101C14.9748 25.5399 15.6243 25.7757 16.2953 25.7768H18.927C19.0799 25.7765 19.2325 25.764 19.3834 25.7392V30.9231C17.8365 31.1777 16.2499 31.0155 14.7865 30.4534C13.3232 29.8913 12.036 28.9494 11.0574 27.7248L12.0653 27.4151ZM4.6637 31.125C4.66215 30.7088 4.79482 30.3033 5.04201 29.9685C5.28921 29.6338 5.63774 29.3877 6.0359 29.2667L9.41731 28.2266C10.5209 29.7924 12.0343 31.024 13.7917 31.7864C15.549 32.5488 17.4824 32.8126 19.3797 32.5487V35.9671C19.3807 36.8642 19.7375 37.7244 20.3719 38.3587C21.0063 38.9931 21.8664 39.3499 22.7636 39.3509H26.2547V43.7009C26.2547 43.719 26.2547 43.7366 26.2547 43.7548H21.8502V42.8432C21.8495 41.9459 21.4928 41.0854 20.8584 40.4508C20.224 39.8161 19.3637 39.4591 18.4663 39.4582H9.8731C9.85879 39.4582 9.84507 39.4525 9.83496 39.4424C9.82484 39.4323 9.81916 39.4185 9.81916 39.4042V34.25C9.81916 34.0364 9.73429 33.8315 9.58323 33.6804C9.43217 33.5294 9.22729 33.4445 9.01365 33.4445C8.80002 33.4445 8.59514 33.5294 8.44408 33.6804C8.29302 33.8315 8.20815 34.0364 8.20815 34.25V39.4061C8.20863 39.8475 8.3842 40.2707 8.69633 40.5828C9.00847 40.895 9.43167 41.0705 9.8731 41.071H15.0855V43.7566H7.29537C6.59766 43.7558 5.92875 43.4783 5.43539 42.9849C4.94203 42.4916 4.6645 41.8227 4.6637 41.125V31.125ZM20.2404 42.8432V43.756H16.6941V41.071H18.4663C18.9362 41.0715 19.3867 41.2584 19.719 41.5906C20.0512 41.9229 20.2381 42.3734 20.2386 42.8432H20.2404ZM50.2615 45.3676C50.2758 45.3676 50.2896 45.3733 50.2997 45.3834C50.3098 45.3935 50.3155 45.4073 50.3155 45.4216V47.1404C50.3155 47.1548 50.3098 47.1685 50.2997 47.1786C50.2896 47.1887 50.2758 47.1944 50.2615 47.1944H2.13931C2.125 47.1944 2.11128 47.1887 2.10117 47.1786C2.09105 47.1685 2.08537 47.1548 2.08537 47.1404V45.421C2.08537 45.4067 2.09105 45.3929 2.10117 45.3828C2.11128 45.3727 2.125 45.367 2.13931 45.367L50.2615 45.3676ZM27.8626 43.7566C27.8626 43.739 27.8626 43.7209 27.8626 43.7027V39.3521H30.3791L29.7918 43.756H27.8626V43.7566ZM31.4174 43.7566L32.8157 33.2712C32.8455 33.0521 32.9535 32.8513 33.1199 32.7057C33.2862 32.5601 33.4995 32.4796 33.7206 32.479H37.5856C37.8067 32.4796 38.02 32.5601 38.1863 32.7057C38.3526 32.8513 38.4607 33.0521 38.4905 33.2712L39.8888 43.7566H31.4174ZM40.8119 37.7411C40.7799 37.7413 40.7479 37.7433 40.7161 37.7472L40.0906 33.0572C40.0081 32.4516 39.7094 31.8963 39.2496 31.4938C38.7897 31.0912 38.1998 30.8685 37.5887 30.8668H33.7206C33.1094 30.8685 32.5195 31.0912 32.0597 31.4938C31.5998 31.8963 31.3011 32.4516 31.2186 33.0572L30.5931 37.7472C30.5613 37.7433 30.5294 37.7413 30.4973 37.7411H22.7629C22.2931 37.7405 21.8427 37.5536 21.5105 37.2213C21.1783 36.8891 20.9914 36.4387 20.9907 35.9689V20.5007C20.9917 20.0311 21.1787 19.581 21.5109 19.249C21.8431 18.9171 22.2933 18.7303 22.7629 18.7297H48.5432C49.0131 18.7303 49.4635 18.9173 49.7957 19.2495C50.1279 19.5817 50.3148 20.0321 50.3155 20.5019V35.9689C50.3148 36.4387 50.1279 36.8891 49.7957 37.2213C49.4635 37.5536 49.0131 37.7405 48.5432 37.7411H40.8119Z" fill="#032F6F"/>
<path d="M35.6533 23.9918C35.154 23.9918 34.666 24.1399 34.2508 24.4173C33.8357 24.6946 33.5121 25.0889 33.3211 25.5502C33.13 26.0114 33.08 26.519 33.1774 27.0087C33.2748 27.4984 33.5153 27.9482 33.8683 28.3012C34.2213 28.6543 34.6711 28.8947 35.1608 28.9921C35.6505 29.0895 36.1581 29.0395 36.6193 28.8484C37.0806 28.6574 37.4749 28.3338 37.7523 27.9187C38.0296 27.5035 38.1777 27.0155 38.1777 26.5162C38.177 25.8469 37.9109 25.2052 37.4376 24.7319C36.9643 24.2586 36.3226 23.9925 35.6533 23.9918ZM35.6533 27.429C35.4726 27.4291 35.296 27.3756 35.1457 27.2754C34.9954 27.1751 34.8782 27.0325 34.809 26.8656C34.7398 26.6987 34.7216 26.515 34.7568 26.3378C34.792 26.1606 34.8789 25.9978 35.0066 25.87C35.1343 25.7422 35.2971 25.6551 35.4743 25.6198C35.6515 25.5845 35.8352 25.6026 36.0021 25.6717C36.169 25.7408 36.3117 25.8579 36.4121 26.0081C36.5125 26.1583 36.5661 26.3349 36.5661 26.5156C36.5659 26.7577 36.4697 26.9898 36.2986 27.1611C36.1275 27.3323 35.8954 27.4287 35.6533 27.429Z" fill="#032F6F"/>
</svg>
