<svg width="122" height="143" viewBox="0 0 122 143" fill="none" xmlns="http://www.w3.org/2000/svg">
<path fill-rule="evenodd" clip-rule="evenodd" d="M86.089 87.3548C84.6265 86.8852 83.0625 87.6914 82.5936 89.1545C82.5528 89.281 78.3334 101.832 61.1852 101.832C44.1977 101.832 39.945 89.6574 39.7771 89.1545C39.3082 87.6914 37.7434 86.8858 36.2817 87.3548C34.82 87.8241 34.0151 89.3904 34.4837 90.8534C34.5398 91.0284 35.9023 95.1832 39.9119 99.2604C43.5618 102.972 50.2154 107.396 61.1852 107.396C72.1553 107.396 78.8089 102.972 82.4585 99.2604C86.4684 95.1832 87.8309 91.0284 87.887 90.8534C88.3556 89.3904 87.5507 87.8241 86.089 87.3548ZM60.9964 137.436C30.4282 137.436 5.55882 112.544 5.55882 81.948C5.55882 60.4313 17.9278 40.9674 37.2444 31.7984C37.2466 31.8009 37.2491 31.8034 37.2511 31.8056C37.4184 31.9842 37.5879 32.1614 37.7622 32.3356C38.0863 32.66 38.4201 32.9687 38.7594 33.2689C38.8292 33.3307 38.8976 33.3947 38.9682 33.4553C39.081 33.553 39.1967 33.6461 39.3112 33.741C39.4059 33.8195 39.4996 33.9004 39.5955 33.9769C39.6978 34.0593 39.8028 34.1374 39.9062 34.2176C40.0169 34.303 40.1261 34.3903 40.2375 34.4735C40.3357 34.5467 40.4357 34.6162 40.5352 34.6877C40.6542 34.7737 40.7723 34.8613 40.8926 34.9448C40.9916 35.014 41.093 35.0791 41.1931 35.1465C41.3151 35.2285 41.4366 35.3125 41.56 35.3921C41.6578 35.4555 41.757 35.5153 41.8557 35.5771C41.9836 35.6572 42.1103 35.7387 42.2393 35.8161C42.3349 35.8739 42.4322 35.9282 42.5286 35.9847C42.6615 36.0625 42.7943 36.1416 42.9283 36.2169C43.0258 36.2715 43.1242 36.3229 43.2221 36.3761C43.3566 36.4495 43.4911 36.5244 43.6268 36.5953C43.7257 36.647 43.8258 36.6957 43.9253 36.7463C44.0612 36.8151 44.1968 36.8854 44.3336 36.9519C44.4325 37.0001 44.5328 37.0454 44.6323 37.0924C44.7705 37.1581 44.9083 37.2243 45.0476 37.2874C45.1485 37.3331 45.2499 37.3759 45.3511 37.4204C45.4895 37.4813 45.6279 37.5434 45.7672 37.6021C45.8708 37.6458 45.9751 37.6866 46.0793 37.7292C46.2169 37.7854 46.3545 37.8427 46.4926 37.897C46.5949 37.937 46.6974 37.9743 46.7995 38.013C46.9406 38.0667 47.0818 38.1212 47.223 38.1729C47.3239 38.2094 47.4254 38.2436 47.5263 38.2792C47.6694 38.3296 47.8125 38.3813 47.956 38.4294C48.0577 38.4636 48.1594 38.4956 48.2611 38.5287C48.4043 38.5758 48.5477 38.6233 48.6914 38.6681C48.7923 38.6998 48.8935 38.729 48.9949 38.7596C49.1392 38.8033 49.2831 38.8476 49.4277 38.8893C49.5291 38.9185 49.6306 38.9455 49.732 38.9739C49.876 39.0139 50.02 39.0548 50.1634 39.0932C50.2668 39.1207 50.3699 39.1461 50.4733 39.1725C50.615 39.2089 50.7571 39.2459 50.8991 39.2807C51.0014 39.3057 51.1034 39.3288 51.2057 39.353C51.3482 39.3864 51.4911 39.4209 51.6331 39.4529C51.734 39.4754 51.8344 39.496 51.9347 39.5177C52.0778 39.5486 52.2215 39.5803 52.3638 39.6095C52.4656 39.6301 52.5662 39.649 52.6671 39.6691C52.8085 39.6969 52.95 39.7253 53.0906 39.7514C53.1915 39.7703 53.2913 39.7873 53.3922 39.8051C53.5326 39.8304 53.6732 39.856 53.8127 39.8797C53.9128 39.8964 54.0117 39.9117 54.1113 39.9278C54.2505 39.95 54.3897 39.9731 54.5284 39.9943C54.6279 40.0093 54.7261 40.0226 54.825 40.0371C54.9629 40.0571 55.1013 40.0777 55.238 40.0961C55.3361 40.1094 55.4329 40.1211 55.5304 40.1339C55.6666 40.1515 55.8031 40.1695 55.9382 40.1857C56.0354 40.1974 56.1316 40.2076 56.2283 40.2188C56.3631 40.2341 56.4982 40.2499 56.6319 40.2641C56.7239 40.2736 56.8145 40.2822 56.9059 40.2914C57.0424 40.305 57.1797 40.3186 57.3148 40.3312C57.4046 40.3395 57.4932 40.3462 57.5822 40.354C57.7167 40.3657 57.8521 40.3773 57.9852 40.3876C58.0747 40.3946 58.1628 40.4004 58.2515 40.4068C58.3829 40.4163 58.5147 40.4263 58.6445 40.4347C58.7304 40.4402 58.8146 40.4447 58.8999 40.4497C59.0311 40.4575 59.1623 40.4655 59.2918 40.4725C59.3738 40.4767 59.4538 40.4797 59.5353 40.4839C59.642 40.4889 59.7498 40.4945 59.8552 40.4986C60.5853 40.5735 61.9923 40.687 63.8225 40.687C65.8031 40.687 68.2746 40.5523 70.9031 40.093C70.9184 40.0903 70.9339 40.0877 70.9495 40.085C71.2719 40.0282 71.5963 39.9667 71.9228 39.8997C72.0304 39.8777 72.1368 39.8546 72.2436 39.8318C72.4228 39.7931 72.603 39.7528 72.7831 39.7108C73.1402 39.6282 73.4921 39.5408 73.8392 39.4482C73.8454 39.4468 73.8517 39.4451 73.8579 39.4434C76.9083 38.6278 79.5604 37.4201 81.7931 35.8319C81.8592 35.7849 81.9254 35.7384 81.9907 35.6909C82.1308 35.5885 82.2689 35.4847 82.4054 35.3796C82.5054 35.3031 82.6038 35.2249 82.7025 35.1462C82.8159 35.0552 82.9293 34.9642 83.0408 34.8713C83.1681 34.7645 83.2942 34.6538 83.4196 34.543C83.5032 34.4693 83.588 34.397 83.67 34.3219C83.8774 34.1324 84.0822 33.9383 84.2826 33.7377C84.2831 33.7371 84.284 33.7366 84.2845 33.736V33.7357H84.2848C84.508 33.5126 84.7223 33.2837 84.9316 33.0516C84.9538 33.0272 84.9763 33.0032 84.998 32.9788C85.2093 32.7426 85.4127 32.5022 85.6103 32.258C85.6181 32.2482 85.6264 32.239 85.6348 32.2293C104.419 41.5672 116.434 60.8386 116.434 81.948C116.434 112.544 91.5647 137.436 60.9964 137.436ZM35.1857 5.63195C36.9025 5.54293 39.4779 5.51233 42.396 5.81973C50.9008 6.71496 55.5368 9.75674 57.9288 12.1506C59.1034 13.3263 60.1356 14.7286 61.0095 16.3327C60.9833 16.3733 60.9589 16.4151 60.9328 16.4559C60.8619 16.5686 60.7921 16.6816 60.7229 16.7951C60.6812 16.8638 60.6398 16.9322 60.599 17.0012C60.5259 17.125 60.4544 17.2496 60.3838 17.3745C60.3516 17.4316 60.3185 17.488 60.2865 17.5456C60.187 17.7256 60.0895 17.9065 59.9953 18.0884C59.9753 18.1268 59.9564 18.1657 59.9366 18.2044C59.861 18.3521 59.7868 18.5001 59.7145 18.6492C59.684 18.7115 59.6551 18.7741 59.625 18.8367C59.5639 18.9658 59.5036 19.0949 59.4447 19.2245C59.416 19.288 59.3877 19.3511 59.3593 19.4145C59.2979 19.5534 59.2379 19.6927 59.1789 19.8324C59.1575 19.883 59.1356 19.9337 59.1145 19.9843C58.953 20.3735 58.8018 20.7649 58.6603 21.1577C58.6489 21.1905 58.6375 21.2228 58.6258 21.2554C58.5669 21.4209 58.5099 21.5867 58.4544 21.7525C58.4402 21.7948 58.4263 21.8371 58.4121 21.8791C58.3574 22.0454 58.3037 22.2118 58.2526 22.3784C58.2431 22.4088 58.2334 22.4391 58.2239 22.4694C58.0361 23.0837 57.8693 23.6979 57.7223 24.3091C57.7209 24.3149 57.7195 24.3208 57.7178 24.3266C57.6692 24.5297 57.6225 24.7325 57.578 24.9348C57.5775 24.937 57.5772 24.9389 57.5763 24.9412C56.7561 28.6679 56.6366 32.2104 56.7 34.6746C56.6741 34.6716 56.6483 34.6682 56.6224 34.6652C56.3617 34.6343 56.0994 34.6004 55.8353 34.5636C55.7864 34.557 55.7383 34.5506 55.6894 34.5436C55.4065 34.5033 55.1216 34.4593 54.8356 34.412C54.7769 34.4023 54.718 34.3923 54.6591 34.3823C54.0693 34.2821 53.4742 34.1664 52.8766 34.0334C52.8174 34.0203 52.7585 34.0072 52.699 33.9939C52.4075 33.9271 52.1151 33.8567 51.823 33.7816C51.776 33.7694 51.729 33.7566 51.682 33.7444C51.4072 33.672 51.132 33.5961 50.8574 33.516C50.8204 33.5051 50.7832 33.4951 50.7462 33.484C50.4538 33.3972 50.1623 33.3048 49.8715 33.2085C49.8118 33.1888 49.7523 33.1688 49.6928 33.1485C49.3988 33.0489 49.1053 32.9454 48.814 32.8352C48.7948 32.828 48.7753 32.8199 48.7562 32.8127C48.4782 32.7067 48.2022 32.5949 47.9273 32.4791C47.8751 32.4569 47.8223 32.4352 47.7697 32.4124C47.4882 32.2913 47.2094 32.1648 46.9326 32.0329C46.8814 32.0081 46.8306 31.9828 46.7797 31.9578C46.5109 31.827 46.2441 31.6916 45.9806 31.5497C45.9617 31.5394 45.9423 31.5299 45.9237 31.5196C45.6499 31.3711 45.3806 31.2147 45.1137 31.0539C45.0587 31.0208 45.004 30.9874 44.9495 30.9538C44.6857 30.7913 44.4253 30.6238 44.1693 30.4486C44.1373 30.4266 44.1056 30.4032 44.074 30.3813C43.8363 30.216 43.6026 30.0449 43.3724 29.8683C43.3316 29.8368 43.2902 29.8065 43.2493 29.7748C43.0064 29.5848 42.7685 29.3875 42.535 29.1839C42.4872 29.1425 42.4402 29.0999 42.3927 29.0579C42.1548 28.8456 41.9202 28.6284 41.6931 28.4013C41.5158 28.2236 41.3449 28.0408 41.1767 27.8564C41.1267 27.8013 41.0764 27.7462 41.0266 27.6897C40.8757 27.52 40.7281 27.3475 40.5847 27.1723C40.5263 27.1011 40.4696 27.0276 40.4124 26.955C35.1201 20.2761 34.9619 10.0842 35.1857 5.63195ZM85.6376 11.7136C85.779 15.1818 85.5792 22.0073 82.4298 27.1459C82.4054 27.1815 82.3795 27.2157 82.3565 27.253C82.0691 27.7156 81.7622 28.154 81.4393 28.5683C81.4215 28.5911 81.4042 28.6139 81.3862 28.6364C81.248 28.8114 81.1063 28.98 80.962 29.1455C80.9315 29.1806 80.9017 29.217 80.8706 29.2518C80.706 29.4368 80.5382 29.6159 80.3664 29.7881C80.3622 29.7923 80.3583 29.797 80.3539 29.8015C80.1946 29.9612 80.0301 30.117 79.8614 30.2697C79.7663 30.3554 79.6682 30.4363 79.5709 30.5192C79.4967 30.5829 79.4239 30.6483 79.3475 30.7106C79.2285 30.808 79.1062 30.9006 78.9845 30.9938C78.9269 31.0378 78.8714 31.0834 78.8127 31.1268C78.6829 31.2228 78.5501 31.3146 78.4175 31.4061C78.3638 31.4434 78.3119 31.4815 78.2577 31.5182C78.1212 31.6095 77.9828 31.6968 77.8441 31.7839C77.7899 31.8179 77.7365 31.8529 77.6818 31.8863C77.5409 31.9725 77.398 32.0549 77.2546 32.1367C77.199 32.1684 77.1442 32.2004 77.0881 32.2315C76.943 32.3119 76.7962 32.3895 76.6487 32.4658C76.5911 32.4953 76.5342 32.525 76.4763 32.5542C76.3268 32.6296 76.1764 32.7025 76.025 32.7735C75.9669 32.8007 75.908 32.8277 75.8493 32.8547C75.695 32.9251 75.5402 32.9941 75.3843 33.0603C75.3282 33.0842 75.2709 33.1073 75.2145 33.1307C75.0519 33.198 74.8893 33.2645 74.7256 33.3276C74.7078 33.3343 74.6895 33.3407 74.6717 33.3474C74.3562 33.4675 74.0382 33.5785 73.7189 33.6834C73.6202 33.716 73.5224 33.7494 73.4223 33.7808C73.3048 33.8178 73.1869 33.8523 73.0693 33.8873C72.9362 33.9266 72.8028 33.9655 72.6674 34.0034C72.5649 34.0317 72.4626 34.0598 72.36 34.0868C72.1783 34.1352 71.9945 34.1817 71.8089 34.2265C71.7483 34.2412 71.6877 34.2568 71.6271 34.271C71.37 34.3313 71.1093 34.3884 70.845 34.4423C70.8008 34.4515 70.7574 34.4596 70.7138 34.4682C70.4839 34.5141 70.2516 34.5575 70.0162 34.599C69.9592 34.609 69.9019 34.6193 69.8449 34.6287C69.5806 34.6735 69.3132 34.7161 69.042 34.755C68.9319 34.7709 68.8227 34.7848 68.7134 34.7993C68.6095 34.8132 68.5053 34.8274 68.4019 34.8402C68.2354 34.8607 68.0697 34.8797 67.9057 34.8975C67.8749 34.9008 67.844 34.9041 67.8126 34.9078C65.6403 35.1373 63.6827 35.1389 62.278 35.0841C62.2296 33.8704 62.2249 32.2418 62.3767 30.4021C62.6646 26.9088 63.5968 21.9906 66.389 18.3407C66.7495 17.8714 67.1375 17.4204 67.5608 16.9965C72.6788 11.8735 81.526 11.5525 85.6376 11.7136ZM88.522 27.4569C92.2851 19.0476 91.0499 9.26768 90.9807 8.74884C90.8142 7.50503 89.837 6.5269 88.5943 6.36026C87.9659 6.27597 73.7539 4.47744 64.854 11.942C63.9612 10.5699 62.9631 9.32109 61.8594 8.21638C51.5044 -2.14776 33.0194 0.193245 32.2373 0.297846C30.9949 0.464485 30.0174 1.44262 29.8509 2.68615C29.7622 3.35187 28.0584 16.8354 33.9222 27.2285C13.2092 37.4955 0 58.6255 0 81.948C0 98.2557 6.34456 113.587 17.8652 125.118C29.3862 136.649 44.7038 143 60.9964 143C77.289 143 92.6064 136.649 104.127 125.118C115.648 113.587 121.993 98.2555 121.993 81.948C121.993 58.8795 108.949 37.8074 88.522 27.4569ZM78.799 62.5712C73.1471 62.5712 68.5489 67.1734 68.5489 72.8304C68.5489 74.3669 69.7935 75.6124 71.3283 75.6124C72.8633 75.6124 74.1077 74.3669 74.1077 72.8304C74.1077 70.2416 76.2122 68.1351 78.799 68.1351C81.3858 68.1351 83.4901 70.2416 83.4901 72.8304C83.4901 74.3669 84.7345 75.6124 86.2695 75.6124C87.8043 75.6124 89.049 74.3669 89.049 72.8304C89.049 67.1734 84.451 62.5712 78.799 62.5712ZM38.8806 72.8306C38.8806 70.2414 40.9851 68.1352 43.5719 68.1352C46.1587 68.1352 48.263 70.2414 48.263 72.8306C48.263 74.3671 49.5073 75.6125 51.0424 75.6125C52.5772 75.6125 53.8218 74.3671 53.8218 72.8306C53.8218 67.1735 49.2239 62.5713 43.5719 62.5713C37.92 62.5713 33.3217 67.1735 33.3217 72.8306C33.3217 74.3671 34.5663 75.6125 36.1011 75.6125C37.6359 75.6125 38.8806 74.3671 38.8806 72.8306Z" fill="white"/>
</svg>
