<svg width="11" height="10" viewBox="0 0 11 10" fill="none" xmlns="http://www.w3.org/2000/svg">
<path fill-rule="evenodd" clip-rule="evenodd" d="M5.55988 1.41553C6.16793 1.39267 6.77683 1.40947 7.38268 1.46586C7.67665 1.46212 7.96871 1.51353 8.24368 1.61742C8.62125 1.7948 8.92433 2.09911 9.09988 2.47708C9.20393 2.75162 9.25542 3.04322 9.25168 3.33673C9.25168 3.79202 9.30208 3.94358 9.30208 5.15669C9.32499 5.76379 9.30815 6.37174 9.25168 6.97665C9.25542 7.27016 9.20393 7.56176 9.09988 7.8363C8.92324 8.21411 8.61907 8.5178 8.24068 8.69416C7.96571 8.79805 7.67365 8.84946 7.37968 8.84573C6.92368 8.84573 6.77188 8.89605 5.55688 8.89605C4.94883 8.91892 4.33993 8.90211 3.73408 8.84573C3.44011 8.84946 3.14805 8.79805 2.87308 8.69416C2.49371 8.51769 2.18883 8.21328 2.01208 7.8345C1.90803 7.55997 1.85654 7.26836 1.86028 6.97485C1.86028 6.51956 1.80988 6.368 1.80988 5.15489C1.78697 4.54779 1.80381 3.93985 1.86028 3.33494C1.85654 3.04142 1.90803 2.74982 2.01208 2.47528C2.10051 2.28777 2.22045 2.11676 2.36668 1.96967C2.48543 1.7928 2.66601 1.66655 2.87308 1.61562C3.14805 1.51174 3.44011 1.46032 3.73408 1.46406C4.34097 1.40815 4.95087 1.39194 5.55988 1.41553ZM5.55988 0.606798C4.93404 0.58435 4.30741 0.601157 3.68368 0.65712C3.30303 0.65632 2.92543 0.72494 2.56948 0.859603C2.2622 0.959609 1.9841 1.1332 1.75948 1.36521C1.5271 1.58949 1.35324 1.86715 1.25308 2.17395C1.09395 2.52219 1.02425 2.90453 1.05028 3.28641C0.994229 3.90917 0.977396 4.53482 0.99988 5.15968C0.977522 5.78355 0.994355 6.4082 1.05028 7.02996C1.04948 7.41002 1.11821 7.78702 1.25308 8.14242C1.35324 8.44923 1.5271 8.72689 1.75948 8.95116C1.9841 9.18318 2.2622 9.35676 2.56948 9.45677C2.92543 9.59143 3.30303 9.66005 3.68368 9.65925C4.30747 9.71422 4.9341 9.73002 5.55988 9.70658C6.18472 9.7289 6.81035 9.7121 7.43308 9.65626C7.81373 9.65706 8.19133 9.58844 8.54728 9.45377C8.85224 9.34884 9.12926 9.17595 9.35734 8.94823C9.58543 8.7205 9.75858 8.44391 9.86368 8.13943C9.99855 7.78403 10.0673 7.40702 10.0665 7.02697C10.0665 6.52136 10.1169 6.368 10.1169 5.15669C10.1392 4.53282 10.1224 3.90817 10.0665 3.28641C10.0673 2.90636 9.99855 2.52935 9.86368 2.17395C9.76352 1.86715 9.58966 1.58949 9.35728 1.36521C9.13266 1.1332 8.85456 0.959609 8.54728 0.859603C8.19057 0.724653 7.81214 0.656027 7.43068 0.65712C6.80874 0.601382 6.18392 0.584575 5.55988 0.606798ZM5.55988 2.83112C5.25211 2.82568 4.9464 2.8822 4.66098 2.99729C4.37556 3.11239 4.11629 3.28371 3.89863 3.50103C3.68097 3.71835 3.50939 3.97722 3.39411 4.26219C3.27884 4.54716 3.22223 4.8524 3.22768 5.15968C3.22827 5.61938 3.36531 6.06859 3.62147 6.45057C3.87763 6.83255 4.24144 7.13016 4.66692 7.3058C5.0924 7.48145 5.56048 7.52725 6.01202 7.43742C6.46356 7.34759 6.87831 7.12617 7.20387 6.80111C7.52943 6.47605 7.75121 6.06195 7.84118 5.61112C7.93115 5.16028 7.88527 4.69294 7.70935 4.26812C7.53343 3.8433 7.23536 3.48006 6.85278 3.2243C6.47021 2.96854 6.0203 2.83172 5.55988 2.83112ZM5.55988 6.67352C5.35938 6.67757 5.16011 6.64123 4.97399 6.56666C4.78787 6.4921 4.61871 6.38084 4.47662 6.23953C4.33454 6.09822 4.22243 5.92977 4.14702 5.74424C4.0716 5.5587 4.03441 5.35989 4.03768 5.15968C4.0336 4.95898 4.07018 4.75952 4.14523 4.57328C4.22028 4.38705 4.33226 4.21787 4.47443 4.07593C4.6166 3.93398 4.78604 3.82218 4.97256 3.74724C5.15909 3.67231 5.35886 3.63578 5.55988 3.63986C5.7604 3.6366 5.95952 3.67373 6.14534 3.74903C6.33117 3.82433 6.49989 3.93625 6.64141 4.07812C6.78294 4.21998 6.89437 4.38888 6.96906 4.57471C7.04374 4.76054 7.08014 4.95949 7.07608 5.15968C7.07932 5.35938 7.04232 5.55768 6.96727 5.74281C6.89223 5.92794 6.78066 6.09612 6.63922 6.23734C6.49778 6.37856 6.32934 6.48995 6.14392 6.56488C5.9585 6.63981 5.75989 6.67676 5.55988 6.67352ZM7.99048 2.17395C7.88036 2.17395 7.7727 2.20655 7.68114 2.26764C7.58957 2.32873 7.51821 2.41555 7.47606 2.51714C7.43392 2.61872 7.42289 2.7305 7.44438 2.83834C7.46586 2.94618 7.51889 3.04524 7.59676 3.12298C7.67463 3.20073 7.77385 3.25368 7.88185 3.27513C7.98986 3.29658 8.10182 3.28557 8.20356 3.24349C8.3053 3.20142 8.39226 3.13016 8.45344 3.03874C8.51462 2.94732 8.54728 2.83983 8.54728 2.72988C8.54587 2.58287 8.48676 2.44229 8.38264 2.33833C8.27852 2.23438 8.13772 2.17535 7.99048 2.17395Z" fill="white"/>
</svg>
