<svg width="65" height="65" viewBox="0 0 65 65" fill="none" xmlns="http://www.w3.org/2000/svg">
<path d="M50.719 20.4001C47.8491 19.1623 44.7566 18.5238 41.6312 18.5238C38.5057 18.5238 35.4132 19.1623 32.5434 20.4001C30.9192 19.6979 29.2186 19.1877 27.4761 18.8797L32.6875 14.537C32.8608 14.3924 32.9838 14.1965 33.0389 13.9776C33.094 13.7587 33.0784 13.528 32.9943 13.3185L30.8573 7.97519C30.7785 7.77624 30.6417 7.60554 30.4647 7.48521C30.2877 7.36488 30.0787 7.30046 29.8646 7.30029H15.9734C15.7594 7.30046 15.5503 7.36488 15.3733 7.48521C15.1963 7.60554 15.0596 7.77624 14.9807 7.97519L12.8437 13.3185C12.7596 13.528 12.744 13.7587 12.7991 13.9776C12.8542 14.1965 12.9772 14.3924 13.1505 14.537L18.5748 19.057C15.4433 19.7347 12.4883 21.0601 9.89953 22.948C7.3108 24.8358 5.14565 27.2444 3.54324 30.0189C1.94084 32.7934 0.936606 35.8725 0.595091 39.0582C0.253576 42.2439 0.582331 45.4659 1.56023 48.517C2.53813 51.5681 4.14353 54.3809 6.27328 56.7746C8.40303 59.1682 11.01 61.0899 13.9267 62.416C16.8434 63.7421 20.0052 64.4433 23.2091 64.4746C26.4129 64.5059 29.5878 63.8666 32.5299 62.5977C35.3006 63.7921 38.2795 64.4289 41.2963 64.472C44.3132 64.5151 47.309 63.9636 50.1127 62.8489C55.7751 60.5976 60.3112 56.1892 62.7233 50.5935C63.9176 47.8227 64.5545 44.8439 64.5975 41.827C64.6406 38.8101 64.0891 35.8143 62.9744 33.0106C61.8597 30.2069 60.2037 27.6502 58.1009 25.4865C55.9981 23.3227 53.4897 21.5944 50.719 20.4001ZM29.6744 10.7674L30.4223 12.6449H28.5467L29.6744 10.7674ZM27.9798 9.43911L26.6613 11.6374L25.3428 9.43911H27.9798ZM23.3304 10.2367L24.7741 12.643H21.4026L23.3304 10.2367ZM21.2315 9.43911L19.3062 11.8473L17.86 9.44095L21.2315 9.43911ZM16.1673 10.7674L17.2937 12.6449H15.4163L16.1673 10.7674ZM16.7845 14.7837H29.0511L25.2042 17.9894H20.6345L16.7845 14.7837ZM23.4537 62.337C20.4381 62.3345 17.4589 61.6775 14.7219 60.4114C11.9849 59.1453 9.55538 57.3003 7.60099 55.0037C5.64659 52.7071 4.21395 50.0136 3.40199 47.1093C2.59003 44.2051 2.4181 41.1592 2.89807 38.182C3.37804 35.2048 4.49847 32.3672 6.18199 29.8653C7.86552 27.3633 10.072 25.2565 12.6491 23.6905C15.2262 22.1244 18.1126 21.1363 21.1088 20.7945C24.105 20.4527 27.1397 20.7652 30.0033 21.7106C29.195 22.1877 28.4164 22.7134 27.6718 23.2849C23.1557 22.2321 18.4096 22.891 14.351 25.1342C10.2924 27.3775 7.2096 31.0457 5.69853 35.4299C4.18745 39.814 4.35541 44.6027 6.16995 48.8702C7.98448 53.1377 11.3167 56.581 15.5225 58.5343C19.7283 60.4877 24.5089 60.8124 28.9402 59.4458C33.3715 58.0791 37.1387 55.1182 39.5137 51.1352C41.8887 47.1523 42.7027 42.4303 41.7984 37.8821C40.8941 33.3339 38.3357 29.2824 34.6178 26.511C35.3678 26.156 36.1437 25.8584 36.9388 25.6207C40.1917 28.3807 42.5189 32.0728 43.6058 36.198C44.6927 40.3233 44.4868 44.6828 43.016 48.6873C41.5453 52.6917 38.8805 56.1481 35.382 58.5893C31.8834 61.0304 27.7198 62.3386 23.4537 62.337ZM25.5815 25.0783C23.4237 27.1784 21.7008 29.6829 20.511 32.4489C19.3212 35.2149 18.6878 38.1881 18.6471 41.1988C18.6063 44.2096 19.159 47.1988 20.2736 49.996C21.3881 52.7931 23.0427 55.3433 25.1428 57.501C25.2786 57.6405 25.416 57.7782 25.5551 57.914C23.3095 58.2031 21.0285 58.0286 18.853 57.4013C16.6775 56.774 14.6538 55.7071 12.907 54.2667C11.1601 52.8263 9.72728 51.0429 8.69699 49.0267C7.6667 47.0106 7.06086 44.8046 6.91692 42.545C6.77299 40.2855 7.09401 38.0204 7.86015 35.8898C8.62629 33.7593 9.82127 31.8085 11.3712 30.158C12.9212 28.5076 14.7931 27.1926 16.8714 26.2943C18.9497 25.396 21.1902 24.9335 23.4543 24.9354C24.1655 24.9383 24.8758 24.9862 25.5809 25.0789L25.5815 25.0783ZM32.5372 55.3334C30.2391 53.8301 28.3516 51.778 27.0453 49.3625C25.739 46.947 25.0549 44.2441 25.0549 41.498C25.0549 38.7519 25.739 36.049 27.0453 33.6334C28.3516 31.2179 30.2391 29.1659 32.5372 27.6626C34.8351 29.1661 36.7223 31.2182 38.0284 33.6337C39.3346 36.0492 40.0185 38.752 40.0185 41.498C40.0185 44.244 39.3346 46.9468 38.0284 49.3623C36.7223 51.7778 34.8351 53.8299 32.5372 55.3334ZM39.5175 25.0857C41.8513 24.7878 44.2217 24.9907 46.4709 25.6809C48.7201 26.3711 50.7963 27.5328 52.5612 29.0885C54.3262 30.6442 55.7393 32.5581 56.7064 34.7029C57.6735 36.8476 58.1723 39.1738 58.1697 41.5265C58.1671 43.8792 57.6631 46.2043 56.6913 48.347C55.7195 50.4896 54.3022 52.4004 52.5338 53.9522C50.7655 55.504 48.6867 56.6611 46.436 57.3463C44.1853 58.0316 41.8144 58.2293 39.4813 57.9262C43.8406 53.6867 46.3372 47.889 46.4219 41.8087C46.5066 35.7284 44.1724 29.8635 39.9329 25.5041C39.7983 25.3618 39.6597 25.2217 39.5169 25.0839L39.5175 25.0857ZM57.4943 55.0002C54.8045 58.1583 51.2347 60.4432 47.2405 61.5633C43.2464 62.6834 39.009 62.5879 35.0693 61.2891C35.8791 60.8113 36.6589 60.2845 37.4045 59.7116C41.9229 60.7655 46.6716 60.1067 50.7325 57.8626C54.7934 55.6185 57.878 51.9485 59.3901 47.5621C60.9022 43.1757 60.7344 38.3845 58.919 34.1147C57.1036 29.8449 53.7696 26.3998 49.5616 24.4454C45.3537 22.491 40.5705 22.1661 36.1369 23.5336C31.7033 24.9011 27.9342 27.8638 25.5581 31.8489C23.1821 35.8341 22.368 40.5586 23.2731 45.1091C24.1782 49.6597 26.7384 53.7131 30.4585 56.4856C29.7073 56.8421 28.9299 57.1408 28.1332 57.3789C24.9943 54.7106 22.7172 51.1714 21.5898 47.2089C20.4623 43.2464 20.5352 39.0386 21.7993 35.1175C23.0633 31.1965 25.4617 27.7383 28.6911 25.1803C31.9206 22.6223 35.836 21.0795 39.9424 20.7468C44.0487 20.4141 48.1614 21.3066 51.7605 23.3113C55.3596 25.3161 58.2834 28.3431 60.1622 32.0095C62.0409 35.676 62.7902 39.8172 62.3154 43.9095C61.8405 48.0018 60.1628 51.8614 57.4943 55.0002Z" fill="white"/>
<path d="M37.1235 3.87655L34.9865 6.01367L36.4975 7.52475L38.6346 5.38763L37.1235 3.87655Z" fill="white"/>
<path d="M8.71506 3.8764L7.20398 5.38745L9.3411 7.52453L10.8522 6.01348L8.71506 3.8764Z" fill="white"/>
<path d="M23.9876 0.357422H21.8506V3.56319H23.9876V0.357422Z" fill="white"/>
</svg>
