<svg width="15" height="35" viewBox="0 0 15 35" fill="none" xmlns="http://www.w3.org/2000/svg">
<g clip-path="url(#clip0)">
<path d="M7.79326 0.272949C5.93942 0.274974 4.1621 1.0123 2.85124 2.32316C1.54038 3.63402 0.80305 5.41135 0.801025 7.26518L0.801025 17.0523C0.801025 18.9067 1.5377 20.6852 2.849 21.9965C4.1603 23.3078 5.9388 24.0445 7.79326 24.0445C9.64771 24.0445 11.4262 23.3078 12.7375 21.9965C14.0488 20.6852 14.7855 18.9067 14.7855 17.0523V7.26518C14.7835 5.41135 14.0461 3.63402 12.7353 2.32316C11.4244 1.0123 9.64709 0.274974 7.79326 0.272949V0.272949ZM13.36 17.0523C13.36 18.5285 12.7736 19.9443 11.7297 20.9881C10.6859 22.0319 9.27012 22.6184 7.79389 22.6184C6.31767 22.6184 4.9019 22.0319 3.85806 20.9881C2.81421 19.9443 2.22778 18.5285 2.22778 17.0523V7.26518C2.22778 5.78895 2.81421 4.37319 3.85806 3.32934C4.9019 2.28549 6.31767 1.69906 7.79389 1.69906C9.27012 1.69906 10.6859 2.28549 11.7297 3.32934C12.7736 4.37319 13.36 5.78895 13.36 7.26518V17.0523Z" fill="#032F6F"/>
<path d="M7.7939 5.00208C7.70019 5.00199 7.60738 5.02039 7.52079 5.05621C7.4342 5.09203 7.35553 5.14457 7.28927 5.21083C7.22301 5.27709 7.17047 5.35577 7.13465 5.44236C7.09883 5.52895 7.08044 5.62175 7.08052 5.71545V8.998C7.07767 9.09344 7.09399 9.18847 7.12854 9.27748C7.1631 9.36648 7.21516 9.44765 7.28166 9.51616C7.34815 9.58468 7.42772 9.63914 7.51566 9.67634C7.60359 9.71353 7.6981 9.7327 7.79358 9.7327C7.88905 9.7327 7.98355 9.71353 8.07149 9.67634C8.15942 9.63914 8.239 9.58468 8.30549 9.51616C8.37199 9.44765 8.42406 9.36648 8.45861 9.27748C8.49316 9.18847 8.50949 9.09344 8.50663 8.998V5.71482C8.50663 5.52579 8.43154 5.3445 8.29788 5.21083C8.16421 5.07717 7.98293 5.00208 7.7939 5.00208Z" fill="#032F6F"/>
<path d="M1.7713 28.9955L7.82191 34.1179L13.2587 28.9955" stroke="#032F6F" stroke-width="2" stroke-linecap="round" stroke-linejoin="round"/>
</g>
<defs>
<clipPath id="clip0">
<rect width="13.9845" height="34.4792" fill="white" transform="translate(0.801025 0.272949)"/>
</clipPath>
</defs>
</svg>
