<svg width="32" height="32" viewBox="0 0 32 32" fill="none" xmlns="http://www.w3.org/2000/svg">
<path d="M10.3335 9.33337C10.0683 9.33337 9.81393 9.43873 9.62639 9.62627C9.43885 9.8138 9.3335 10.0682 9.3335 10.3334V15.6667C9.3335 16.2187 9.7815 16.6667 10.3335 16.6667H21.6668C21.932 16.6667 22.1864 16.5613 22.3739 16.3738C22.5615 16.1863 22.6668 15.9319 22.6668 15.6667V10.3334C22.6668 10.0682 22.5615 9.8138 22.3739 9.62627C22.1864 9.43873 21.932 9.33337 21.6668 9.33337H10.3335ZM11.3335 14.6667V11.3334H20.6668V14.6667H11.3335Z" fill="white"/>
<path d="M23.6667 28C24.8159 28 25.9181 27.5435 26.7308 26.7308C27.5435 25.9181 28 24.8159 28 23.6667V8.33333C28 7.18406 27.5435 6.08186 26.7308 5.2692C25.9181 4.45655 24.8159 4 23.6667 4H8.33333C7.18406 4 6.08186 4.45655 5.2692 5.2692C4.45655 6.08186 4 7.18406 4 8.33333V23.6667C4 24.8159 4.45655 25.9181 5.2692 26.7308C6.08186 27.5435 7.18406 28 8.33333 28H23.6667ZM26 8.33333V23.6667C26 24.2855 25.7542 24.879 25.3166 25.3166C24.879 25.7542 24.2855 26 23.6667 26H8.33333C7.71449 26 7.121 25.7542 6.68342 25.3166C6.24583 24.879 6 24.2855 6 23.6667V8.33333C6 7.04533 7.04533 6 8.33333 6H23.6667C24.9547 6 26 7.04533 26 8.33333Z" fill="white"/>
</svg>
