<svg width="37" height="38" viewBox="0 0 37 38" fill="none" xmlns="http://www.w3.org/2000/svg">
<path d="M31.3071 5.32075C31.2898 5.29694 31.2822 5.26866 31.2618 5.24656C31.2178 5.19895 31.1632 5.17138 31.1114 5.13805C27.8033 1.96141 23.3755 0 18.5 0C13.625 0 9.19763 1.96106 5.88961 5.13711C5.83729 5.17056 5.78223 5.19854 5.73787 5.24656C5.71721 5.2689 5.70954 5.29747 5.69203 5.32157C2.191 8.7806 0 13.6284 0 19C0 24.3716 2.191 29.2193 5.69197 32.6784C5.70948 32.7025 5.71721 32.7312 5.73787 32.7535C5.78017 32.7993 5.83346 32.8242 5.88302 32.8567C9.19173 36.0365 13.6218 38 18.5 38C23.3755 38 27.8033 36.0385 31.1115 32.8619C31.1632 32.8286 31.2178 32.8011 31.2618 32.7535C31.2823 32.7314 31.2899 32.703 31.3072 32.6791C34.8087 29.22 37 24.372 37 19C37 13.628 34.8086 8.77983 31.3071 5.32075ZM27.2826 18.24C27.2286 15.1641 26.8598 12.2929 26.2284 9.78514C27.8308 9.02702 29.3271 8.03164 30.6786 6.81407C33.5069 9.79484 35.2956 13.8054 35.4826 18.24H27.2826ZM24.4269 8.91515C22.7775 9.54425 21.032 9.90365 19.24 9.98283V1.61371C21.3508 2.14705 23.2231 4.93795 24.4269 8.91515ZM17.76 1.61371V9.98283C15.9681 9.90365 14.2226 9.54419 12.5731 8.91509C13.7769 4.93789 15.6492 2.14705 17.76 1.61371ZM17.76 11.5028V18.24H11.1969C11.2509 15.4096 11.5986 12.7322 12.1733 10.38C13.9521 11.0447 15.8312 11.4244 17.76 11.5028ZM17.76 19.76V26.4972C15.8312 26.5756 13.9521 26.9553 12.1733 27.62C11.5986 25.2678 11.2509 22.5904 11.1969 19.76H17.76ZM17.76 28.0172V36.3863C15.6492 35.853 13.7769 33.062 12.5731 29.0849C14.2226 28.4558 15.9681 28.0964 17.76 28.0172ZM19.24 36.3863V28.0172C21.032 28.0964 22.7775 28.4558 24.4269 29.0848C23.2231 33.062 21.3508 35.853 19.24 36.3863ZM19.24 26.4972V19.76H25.8031C25.7491 22.5904 25.4014 25.2678 24.8267 27.62C23.0479 26.9553 21.1689 26.5756 19.24 26.4972ZM19.24 18.24V11.5028C21.1689 11.4244 23.0479 11.0448 24.8267 10.3801C25.4013 12.7323 25.7491 15.4096 25.8031 18.24H19.24ZM29.5925 5.77085C28.4368 6.79432 27.1703 7.64556 25.8171 8.30863C24.9878 5.63571 23.8453 3.47978 22.5001 2.02778C25.1629 2.69021 27.581 3.98931 29.5925 5.77085ZM11.1829 8.30863C9.82969 7.64556 8.56305 6.79438 7.40734 5.77097C9.41879 3.98937 11.8371 2.69026 14.4999 2.02778C13.1547 3.47978 12.0122 5.63571 11.1829 8.30863ZM6.32128 6.81425C7.67286 8.03176 9.16924 9.02702 10.7716 9.78508C10.1402 12.2929 9.77142 15.1641 9.71745 18.24H1.51745C1.70444 13.8055 3.49307 9.79502 6.32128 6.81425ZM1.51745 19.76H9.71745C9.77142 22.836 10.1402 25.7071 10.7716 28.2149C9.1693 28.973 7.67291 29.9683 6.32134 31.1858C3.49307 28.205 1.70444 24.1946 1.51745 19.76ZM7.40739 32.229C8.56311 31.2056 9.82969 30.3544 11.1829 29.6914C12.0122 32.3644 13.1547 34.5202 14.4999 35.9722C11.8371 35.3097 9.41885 34.0106 7.40739 32.229ZM25.8172 29.6914C27.1703 30.3544 28.4368 31.2057 29.5925 32.2292C27.5811 34.0106 25.1629 35.3098 22.5001 35.9722C23.8453 34.5202 24.9879 32.3644 25.8172 29.6914ZM30.6785 31.1859C29.327 29.9683 27.8308 28.973 26.2284 28.2149C26.8598 25.7071 27.2286 22.836 27.2826 19.76H35.4826C35.2956 24.1946 33.5069 28.2052 30.6785 31.1859Z" fill="#FFA500"/>
</svg>
