<svg width="56" height="65" viewBox="0 0 56 65" fill="none" xmlns="http://www.w3.org/2000/svg">
<path d="M49.4555 0H6.47012C2.9004 0 0 2.66291 0 5.94033V58.9254C0 62.2028 2.9004 64.8657 6.47012 64.8657H49.5299C53.0996 64.8657 56 62.2028 56 58.9254V5.94033C55.9256 2.66291 53.0252 0 49.4555 0ZM53.3971 58.9254C53.3971 60.9055 51.6122 62.4759 49.4555 62.4759H6.47012C4.31341 62.4759 2.52855 60.8372 2.52855 58.9254V5.94033C2.52855 3.96022 4.31341 2.32151 6.47012 2.32151H49.5299C51.6866 2.32151 53.4715 3.96022 53.4715 5.94033V58.9254H53.3971Z" fill="#032F6F"/>
<path d="M20.4525 27.7215L27.0714 21.6446L30.418 24.7172C30.9386 25.1952 31.6822 25.1952 32.2028 24.7172L39.1935 18.2989L40.4578 19.4597C40.8297 19.8011 41.4246 19.5962 41.499 19.1183L42.1683 14.6118C42.2427 14.2704 41.8708 13.929 41.499 13.9973L36.5906 14.6118C36.07 14.6801 35.8469 15.2263 36.2188 15.5677L37.483 16.7285L31.3848 22.3274L27.9638 19.1866C27.4432 18.7086 26.6995 18.7086 26.1789 19.1866L18.742 26.0828C18.2214 26.5608 18.2214 27.2436 18.742 27.7215C19.1882 28.1312 20.0063 28.1312 20.4525 27.7215Z" fill="#032F6F"/>
<path d="M42.24 41.3776H13.6822C13.0129 41.3776 12.418 41.9238 12.418 42.5383C12.418 43.1528 13.0129 43.6991 13.6822 43.6991H42.1656C42.835 43.6991 43.4299 43.1528 43.4299 42.5383C43.5043 41.8555 42.9093 41.3776 42.24 41.3776Z" fill="#032F6F"/>
<path d="M42.24 51.9607H13.6822C13.0129 51.9607 12.418 52.5069 12.418 53.1215C12.418 53.736 13.0129 54.2822 13.6822 54.2822H42.1656C42.835 54.2822 43.4299 53.736 43.4299 53.1215C43.5043 52.4387 42.9093 51.9607 42.24 51.9607Z" fill="#032F6F"/>
<path d="M42.24 30.7942H14.9465V12.4952C14.9465 11.8807 14.3516 11.3345 13.6822 11.3345C13.0129 11.3345 12.418 11.8807 12.418 12.4952V31.955C12.418 32.5695 13.0129 33.1157 13.6822 33.1157H42.1656C42.835 33.1157 43.4299 32.5695 43.4299 31.955C43.5043 31.2722 42.9093 30.7942 42.24 30.7942Z" fill="#032F6F"/>
</svg>
