<svg width="106" height="106" viewBox="0 0 106 106" fill="none" xmlns="http://www.w3.org/2000/svg">
<path fill-rule="evenodd" clip-rule="evenodd" d="M87.5487 87.5488C78.3205 96.7772 66.0508 101.859 53 101.859C39.9492 101.859 27.6795 96.7772 18.4512 87.5488C9.22283 78.3205 4.14062 66.0508 4.14062 53C4.14062 39.9492 9.22283 27.6795 18.4512 18.4512C27.6795 9.22283 39.9492 4.14062 53 4.14062C66.0508 4.14062 78.3205 9.22283 87.5487 18.4512C96.7772 27.6795 101.859 39.9492 101.859 53C101.859 66.0508 96.7772 78.3205 87.5487 87.5488ZM90.4768 15.5234C80.4662 5.51283 67.1568 0 53 0C38.8432 0 25.5338 5.51283 15.5234 15.5234C5.51303 25.5338 0 38.8432 0 53C0 67.1568 5.51303 80.4662 15.5234 90.4766C25.5338 100.487 38.8432 106 53 106C67.1568 106 80.4662 100.487 90.4768 90.4766C100.487 80.4662 106 67.1568 106 53C106 38.8432 100.487 25.5338 90.4768 15.5234ZM73.2866 68.6602C69.8273 65.1458 63.5137 60.9566 53.081 60.9566C42.6483 60.9566 36.3347 65.1458 32.8754 68.6602C29.0861 72.5097 27.8083 76.4021 27.7557 76.5661C27.4077 77.6514 28.0037 78.8095 29.0877 79.1625C30.1713 79.5151 31.3382 78.9213 31.6957 77.8389C31.7065 77.8068 32.7969 74.5815 35.9647 71.4257C40.1799 67.2265 45.9386 65.0972 53.081 65.0972C60.2234 65.0972 65.9822 67.2265 70.1973 71.4257C73.3651 74.5815 74.4555 77.8068 74.4634 77.8304C74.7452 78.7091 75.5586 79.2691 76.4343 79.2691C76.6439 79.2691 76.8569 79.237 77.067 79.1697C78.1558 78.8205 78.7554 77.6547 78.4063 76.5661C78.3537 76.4021 77.0759 72.5097 73.2866 68.6602ZM36.0673 50.2506C41.169 50.2506 45.3193 46.1 45.3193 40.9984C45.3193 39.8549 44.3924 38.928 43.249 38.928C42.1058 38.928 41.1787 39.8549 41.1787 40.9984C41.1787 43.8169 38.8858 46.11 36.0673 46.11C33.2488 46.11 30.9557 43.8169 30.9557 40.9984C30.9557 39.8549 30.0286 38.928 28.8854 38.928C27.742 38.928 26.8151 39.8549 26.8151 40.9984C26.8151 46.1 30.9654 50.2506 36.0673 50.2506ZM77.1147 38.9281C75.9715 38.9281 75.0444 39.8549 75.0444 40.9984C75.0444 43.8169 72.7513 46.11 69.9328 46.11C67.114 46.11 64.8212 43.8169 64.8212 40.9984C64.8212 39.8549 63.8943 38.9281 62.7509 38.9281C61.6076 38.9281 60.6805 39.8549 60.6805 40.9984C60.6805 46.1 64.8311 50.2506 69.9328 50.2506C75.0344 50.2506 79.185 46.1 79.185 40.9984C79.185 39.8549 78.2579 38.9281 77.1147 38.9281Z" fill="white"/>
</svg>
