<svg width="10" height="9" viewBox="0 0 10 9" fill="none" xmlns="http://www.w3.org/2000/svg">
<path d="M2.37846 2.80103H0.505859V8.41605H2.37846V2.80103Z" fill="white"/>
<path d="M8.52546 3.31104C8.32748 3.09757 8.08548 2.92952 7.81616 2.81844C7.54685 2.70737 7.25661 2.65592 6.96546 2.66765C6.74571 2.66515 6.52679 2.69482 6.31566 2.75572C6.137 2.80602 5.96947 2.88955 5.82186 3.00193C5.60546 3.16372 5.42214 3.36546 5.28186 3.5962V2.79765H3.41406L3.42006 3.06962C3.42406 3.25093 3.42606 3.81006 3.42606 4.747C3.42606 5.68393 3.42226 6.90603 3.41466 8.41328H5.28186V5.27957C5.27562 5.12432 5.29591 4.96913 5.34186 4.82068C5.4187 4.63124 5.54258 4.46444 5.70186 4.33604C5.87248 4.20224 6.08503 4.13306 6.30186 4.14075C6.44081 4.13016 6.58016 4.15566 6.70633 4.21476C6.83249 4.27387 6.9412 4.36456 7.02186 4.47802C7.18992 4.75888 7.26995 5.08352 7.25166 5.41017V8.41328H9.11406V5.1951C9.16344 4.51537 8.95313 3.8422 8.52546 3.31104Z" fill="white"/>
<path d="M1.45417 0.0979199C1.17346 0.0858322 0.899271 0.184618 0.690971 0.37289C0.595654 0.461121 0.520285 0.568639 0.469897 0.688267C0.419508 0.807894 0.39526 0.936878 0.398771 1.06661C0.395544 1.19518 0.419105 1.32302 0.467958 1.44202C0.516812 1.56103 0.589893 1.6686 0.682571 1.75793C0.782415 1.85188 0.900146 1.92484 1.02878 1.97249C1.15741 2.02013 1.29431 2.04149 1.43137 2.03529H1.44277C1.72585 2.04827 2.00252 1.9485 2.21197 1.75793C2.30672 1.67003 2.38138 1.56279 2.43087 1.44349C2.48036 1.32419 2.50352 1.19565 2.49877 1.06661C2.5007 0.937278 2.47604 0.808929 2.42629 0.689502C2.37655 0.570076 2.30279 0.462112 2.20957 0.372291C2.10827 0.278683 1.98928 0.206199 1.85957 0.159086C1.72986 0.111973 1.59203 0.0911781 1.45417 0.0979199Z" fill="white"/>
</svg>
