<svg width="39" height="40" viewBox="0 0 39 40" fill="none" xmlns="http://www.w3.org/2000/svg">
<path d="M17.8224 27.037C17.9276 26.9318 17.9993 26.7977 18.0284 26.6517C18.0574 26.5058 18.0426 26.3545 17.9856 26.217C17.9287 26.0795 17.8323 25.962 17.7085 25.8793C17.5848 25.7966 17.4393 25.7524 17.2905 25.7524C17.1417 25.7524 16.9962 25.7966 16.8724 25.8793C16.7487 25.962 16.6523 26.0795 16.5953 26.217C16.5384 26.3545 16.5235 26.5058 16.5526 26.6517C16.5816 26.7977 16.6533 26.9318 16.7586 27.037C16.8997 27.1779 17.091 27.257 17.2905 27.257C17.4899 27.257 17.6812 27.1779 17.8224 27.037Z" fill="#032F6F" stroke="#032F6F" stroke-width="0.2"/>
<path d="M14.2625 9.19203C14.2625 10.8276 14.7474 12.4264 15.6561 13.7863C16.5648 15.1462 17.8563 16.2061 19.3673 16.832C20.8783 17.4579 22.541 17.6216 24.1452 17.3026C25.7493 16.9835 27.2227 16.1959 28.3792 15.0394C29.5357 13.8829 30.3233 12.4094 30.6424 10.8053C30.9615 9.2012 30.7977 7.5385 30.1718 6.02746C29.5459 4.51642 28.486 3.22491 27.1261 2.31626C25.7662 1.4076 24.1674 0.922607 22.5319 0.922607C20.3395 0.925197 18.2376 1.79727 16.6874 3.34753C15.1371 4.89778 14.265 6.99964 14.2625 9.19203ZM29.2982 9.19203C29.2983 10.5303 28.9016 11.8386 28.1582 12.9514C27.4148 14.0642 26.358 14.9315 25.1216 15.4437C23.8853 15.956 22.5248 16.09 21.2122 15.829C19.8996 15.568 18.6939 14.9236 17.7475 13.9773C16.8012 13.0311 16.1567 11.8254 15.8956 10.5129C15.6344 9.20031 15.7684 7.83979 16.2805 6.60336C16.7926 5.36694 17.6599 4.31014 18.7726 3.56662C19.8854 2.8231 21.1936 2.42624 22.5319 2.42624C24.3257 2.42822 26.0455 3.14166 27.314 4.41005C28.5825 5.67843 29.2961 7.39819 29.2982 9.19203Z" fill="#032F6F" stroke="#032F6F" stroke-width="0.2"/>
<path d="M8.78799 39.2019C8.92805 39.3431 9.11832 39.423 9.31716 39.4241C9.516 39.4253 9.7072 39.3477 9.84894 39.2082L13.4935 35.6172C13.7911 35.3167 13.9988 34.9391 14.0934 34.5269C14.188 34.1147 14.1656 33.6843 14.0288 33.2841L14.8129 32.5282C15.2324 32.1215 15.7939 31.8944 16.3781 31.895H26.3728C28.1368 31.8991 29.8319 31.2105 31.0933 29.9775C31.1457 29.9268 30.6966 30.4558 37.9114 21.8324C38.4222 21.2247 38.672 20.4398 38.6063 19.6487C38.5407 18.8576 38.1649 18.1245 37.5609 17.6094C36.9569 17.0942 36.1738 16.8388 35.3823 16.8987C34.5907 16.9587 33.855 17.3292 33.3355 17.9294L28.8994 22.4886C28.6172 22.1404 28.2611 21.8594 27.8569 21.6658C27.4526 21.4723 27.0104 21.3711 26.5622 21.3695H18.1777C16.9853 20.8706 15.7053 20.615 14.4128 20.6177C10.7925 20.6177 7.63148 22.2872 5.935 25.4245C5.57445 25.3561 5.20262 25.3771 4.85207 25.4857C4.50152 25.5943 4.18293 25.7871 3.9242 26.0474L0.348172 29.6361C0.208051 29.777 0.129395 29.9676 0.129395 30.1663C0.129395 30.365 0.208051 30.5556 0.348172 30.6965L8.78799 39.2019ZM14.4122 22.1225C15.5514 22.1206 16.6785 22.3558 17.7217 22.8133C17.8168 22.8551 17.9195 22.8767 18.0234 22.8766H26.5605C26.7579 22.8766 26.9535 22.9155 27.1359 22.9911C27.3183 23.0667 27.4841 23.1774 27.6237 23.317C27.7633 23.4567 27.8741 23.6224 27.9497 23.8049C28.0252 23.9873 28.0641 24.1828 28.0641 24.3803C28.0641 24.5777 28.0252 24.7733 27.9497 24.9557C27.8741 25.1381 27.7633 25.3039 27.6237 25.4435C27.4841 25.5831 27.3183 25.6939 27.1359 25.7695C26.9535 25.845 26.7579 25.8839 26.5605 25.8839H20.4268C20.2274 25.8839 20.0362 25.9631 19.8952 26.1041C19.7542 26.2451 19.675 26.4363 19.675 26.6357C19.675 26.8351 19.7542 27.0264 19.8952 27.1673C20.0362 27.3083 20.2274 27.3876 20.4268 27.3876H26.5605C26.9887 27.3882 27.4122 27.2972 27.8023 27.1207C28.1925 26.9443 28.5405 26.6864 28.8228 26.3644C29.1051 26.0424 29.3153 25.6637 29.4392 25.2538C29.5631 24.8438 29.5979 24.4122 29.5413 23.9877C33.8329 19.5764 34.4379 18.9569 34.4638 18.9259C34.5914 18.7751 34.7474 18.651 34.9229 18.5605C35.0985 18.4701 35.2901 18.4151 35.4869 18.3987C35.6837 18.3823 35.8818 18.4049 36.0699 18.465C36.258 18.5252 36.4324 18.6218 36.5831 18.7494C36.7338 18.877 36.858 19.033 36.9484 19.2085C37.0389 19.3841 37.0939 19.5757 37.1102 19.7725C37.1266 19.9693 37.1041 20.1674 37.0439 20.3555C36.9837 20.5436 36.8871 20.718 36.7595 20.8687L30.0168 28.928C29.0384 29.871 27.7317 30.3966 26.3728 30.3937H16.3787C15.4048 30.3916 14.4685 30.7698 13.7692 31.4477L13.1302 32.0642L7.2406 26.1752C8.61702 23.5916 11.2 22.1231 14.4122 22.1231V22.1225ZM4.9886 27.1118C5.10854 26.9908 5.26616 26.9144 5.4354 26.8952C5.60465 26.8759 5.77541 26.915 5.91945 27.0059C6.04955 27.0853 5.67595 26.7451 12.4308 33.4907C12.5709 33.6313 12.6498 33.8214 12.6506 34.0198C12.6514 34.2182 12.5738 34.4089 12.4348 34.5505L9.32624 37.6119L1.94104 30.168L4.9886 27.1118Z" fill="#032F6F" stroke="#032F6F" stroke-width="0.2"/>
</svg>
