<svg width="59" height="59" viewBox="0 0 59 59" fill="none" xmlns="http://www.w3.org/2000/svg">
<path d="M44.0964 19.6603L30.2466 13.0819C30.0605 12.9935 29.857 12.9476 29.651 12.9476C29.4449 12.9476 29.2414 12.9935 29.0553 13.0819L15.2028 19.661C15.0009 19.7574 14.8252 19.9012 14.6906 20.08C14.556 20.2588 14.4666 20.4675 14.4299 20.6882C14.339 21.2409 12.2615 34.3115 18.4656 41.6269C19.8511 43.2103 21.5772 44.4593 23.5143 45.2802C25.4515 46.1012 27.5494 46.4727 29.6507 46.3671C35.5063 46.3671 39.938 43.8732 42.4671 39.1541C46.631 31.7166 44.9447 21.135 44.8708 20.6882C44.8342 20.4671 44.7446 20.2582 44.6098 20.0792C44.4749 19.9002 44.2988 19.7565 44.0964 19.6603ZM40.0383 37.8075L40.0247 37.8319C37.9811 41.6527 34.4905 43.5898 29.6507 43.5898C27.955 43.6866 26.2594 43.3992 24.6902 42.7491C23.1211 42.0991 21.7191 41.1031 20.5886 39.8355C15.961 34.3867 16.7536 24.551 17.0757 21.8449L29.6507 15.8734L42.2257 21.8463C42.5124 24.2439 43.1668 32.2305 40.0383 37.8075Z" fill="#032F6F"/>
<path d="M29.6475 0.287109C24.5416 0.289757 19.5245 1.62358 15.0914 4.15698C10.6583 6.69037 6.96229 10.3358 4.36803 14.7336C1.77378 19.1314 0.370942 24.1295 0.297926 29.235C0.224909 34.3404 1.48424 39.3766 3.95166 43.8468L0.343141 57.2422C0.28765 57.448 0.280284 57.6638 0.321613 57.8729C0.362942 58.082 0.451857 58.2788 0.58147 58.448C0.711082 58.6172 0.877912 58.7543 1.06903 58.8487C1.26016 58.9431 1.47044 58.9922 1.68359 58.9922C1.80566 58.9923 1.92721 58.9761 2.045 58.9441L15.4404 55.3355C19.3609 57.5029 23.7254 58.7442 28.1997 58.9646C32.674 59.1849 37.1394 58.3783 41.2539 56.6066C45.3683 54.8349 49.0228 52.145 51.9373 48.7431C54.8518 45.3411 56.9491 41.3172 58.0686 36.9797C59.1881 32.6421 59.3 28.1058 58.3958 23.7183C57.4916 19.3308 55.5953 15.2084 52.8521 11.6668C50.1089 8.12527 46.5916 5.25847 42.5695 3.28601C38.5474 1.31354 34.1272 0.287721 29.6475 0.287109ZM29.6475 56.215C24.9701 56.2159 20.3749 54.9846 16.3246 52.645C16.1133 52.5222 15.8733 52.4577 15.6289 52.4579C15.5068 52.4578 15.3853 52.4739 15.2675 52.5061L3.65197 55.6352L6.78113 44.0196C6.82876 43.843 6.84099 43.6586 6.81714 43.4772C6.79329 43.2958 6.73382 43.1209 6.64214 42.9626C3.70699 37.8984 2.52537 32.0071 3.28064 26.2027C4.03591 20.3984 6.68585 15.0056 10.8192 10.8613C14.9526 6.7169 20.3383 4.05267 26.1407 3.282C31.943 2.51132 37.8374 3.67731 42.9093 6.59902C47.9813 9.52073 51.947 14.0348 54.1913 19.4407C56.4355 24.8467 56.8327 30.8422 55.3213 36.4969C53.8098 42.1517 50.4742 47.1495 45.8321 50.7148C41.1899 54.28 35.5008 56.2134 29.6475 56.215Z" fill="#032F6F"/>
<path d="M32.7308 25.5639L27.4896 30.8052L26.5627 29.879C26.3023 29.6186 25.9491 29.4723 25.5809 29.4723C25.2126 29.4723 24.8595 29.6186 24.5991 29.879C24.3387 30.1394 24.1924 30.4926 24.1924 30.8608C24.1924 31.2291 24.3387 31.5822 24.5991 31.8426L26.5078 33.7506C26.6367 33.8796 26.7897 33.9819 26.9582 34.0517C27.1267 34.1215 27.3072 34.1574 27.4896 34.1574C27.6719 34.1574 27.8525 34.1215 28.0209 34.0517C28.1894 33.9819 28.3425 33.8796 28.4714 33.7506L34.6945 27.5275C34.8234 27.3986 34.9257 27.2455 34.9955 27.0771C35.0652 26.9086 35.1012 26.7281 35.1012 26.5457C35.1012 26.3634 35.0652 26.1828 34.9955 26.0144C34.9257 25.8459 34.8234 25.6928 34.6945 25.5639C34.5655 25.435 34.4125 25.3327 34.244 25.2629C34.0756 25.1931 33.895 25.1572 33.7127 25.1572C33.5303 25.1572 33.3498 25.1931 33.1813 25.2629C33.0128 25.3327 32.8598 25.435 32.7308 25.5639Z" fill="#032F6F"/>
</svg>
