<svg width="42" height="41" viewBox="0 0 42 41" fill="none" xmlns="http://www.w3.org/2000/svg">
<path d="M27.8882 26.1613C27.5981 26.1193 27.3261 25.9948 27.1048 25.8026C26.8834 25.6104 26.7219 25.3587 26.6396 25.0774C26.5572 24.796 26.5574 24.497 26.6402 24.2157C26.7229 23.9345 26.8848 23.683 27.1064 23.4912C27.328 23.2993 27.6001 23.1752 27.8903 23.1335C28.1804 23.0919 28.4765 23.1345 28.7431 23.2563C29.0097 23.3782 29.2357 23.574 29.3942 23.8206C29.5527 24.0672 29.637 24.3542 29.637 24.6473C29.637 24.8582 29.7208 25.0604 29.8699 25.2095C30.019 25.3585 30.2212 25.4423 30.432 25.4423C30.6429 25.4423 30.8451 25.3585 30.9942 25.2095C31.1433 25.0604 31.227 24.8582 31.227 24.6473C31.2065 23.9312 30.9438 23.2432 30.4818 22.6957C30.0197 22.1482 29.3857 21.7736 28.6832 21.6331V21.2198C28.6832 21.009 28.5994 20.8068 28.4503 20.6577C28.3012 20.5086 28.099 20.4248 27.8882 20.4248C27.6773 20.4248 27.4751 20.5086 27.326 20.6577C27.1769 20.8068 27.0932 21.009 27.0932 21.2198V21.6331C26.3907 21.7736 25.7566 22.1482 25.2946 22.6957C24.8325 23.2432 24.5698 23.9312 24.5493 24.6473C24.5826 25.5009 24.9525 26.3067 25.5782 26.8883C26.2039 27.47 27.0344 27.7803 27.8882 27.7513C28.1783 27.7933 28.4502 27.9178 28.6716 28.11C28.8929 28.3022 29.0544 28.5539 29.1367 28.8352C29.2191 29.1166 29.2189 29.4156 29.1362 29.6969C29.0534 29.9781 28.8916 30.2296 28.6699 30.4214C28.4483 30.6133 28.1762 30.7374 27.8861 30.7791C27.5959 30.8207 27.2999 30.7781 27.0332 30.6563C26.7666 30.5344 26.5406 30.3386 26.3821 30.092C26.2236 29.8454 26.1393 29.5584 26.1393 29.2653C26.1393 29.0545 26.0555 28.8522 25.9065 28.7031C25.7574 28.5541 25.5551 28.4703 25.3443 28.4703C25.1335 28.4703 24.9313 28.5541 24.7822 28.7031C24.6331 28.8522 24.5493 29.0545 24.5493 29.2653C24.5698 29.9814 24.8325 30.6694 25.2946 31.2169C25.7566 31.7644 26.3907 32.139 27.0932 32.2795V32.6249C27.0932 32.8357 27.1769 33.0379 27.326 33.187C27.4751 33.3361 27.6773 33.4199 27.8882 33.4199C28.099 33.4199 28.3012 33.3361 28.4503 33.187C28.5994 33.0379 28.6832 32.8357 28.6832 32.6249V32.2795C29.3857 32.139 30.0197 31.7644 30.4818 31.2169C30.9438 30.6694 31.2065 29.9814 31.227 29.2653C31.1937 28.4117 30.8238 27.6059 30.1981 27.0243C29.5725 26.4426 28.742 26.1323 27.8882 26.1613Z" fill="#032F6F" stroke="#032F6F" stroke-width="0.2"/>
<path d="M36.5962 21.4317C35.5596 19.8167 34.0948 18.5213 32.3651 17.6899C32.1751 17.5983 31.9565 17.5859 31.7573 17.6555C31.5582 17.7251 31.3949 17.8709 31.3033 18.0609C31.2117 18.2509 31.1993 18.4695 31.2689 18.6686C31.3385 18.8678 31.4843 19.0311 31.6743 19.1227C32.7367 19.6329 33.6851 20.3524 34.4626 21.2382C35.2401 22.1239 35.8306 23.1576 36.1988 24.2772C36.567 25.3967 36.7051 26.5792 36.6051 27.7535C36.505 28.9278 36.1687 30.0698 35.6164 31.1109C35.5673 31.2031 35.5368 31.304 35.5267 31.4079C35.5165 31.5119 35.527 31.6168 35.5574 31.7167C35.5878 31.8166 35.6376 31.9096 35.7039 31.9902C35.7703 32.0709 35.8518 32.1377 35.944 32.1868C36.0361 32.236 36.1371 32.2665 36.241 32.2766C36.345 32.2868 36.4499 32.2763 36.5498 32.2459C36.6497 32.2155 36.7426 32.1657 36.8233 32.0993C36.904 32.033 36.9708 31.9514 37.0199 31.8593C37.8786 30.2399 38.2917 28.4214 38.217 26.59C38.1423 24.7585 37.5823 22.9798 36.5945 21.4357L36.5962 21.4317Z" fill="#032F6F" stroke="#032F6F" stroke-width="0.2"/>
<path d="M29.1386 16.6715H29.085C28.8742 16.6715 28.672 16.7553 28.5229 16.9044C28.3738 17.0534 28.29 17.2557 28.29 17.4665C28.29 17.6773 28.3738 17.8796 28.5229 18.0286C28.672 18.1777 28.8742 18.2615 29.085 18.2615H29.1351C29.346 18.2619 29.5484 18.1786 29.6978 18.0299C29.8472 17.8811 29.9314 17.6791 29.9318 17.4682C29.9323 17.2574 29.849 17.055 29.7002 16.9056C29.5514 16.7562 29.3494 16.672 29.1386 16.6715Z" fill="#032F6F" stroke="#032F6F" stroke-width="0.2"/>
<path d="M24.1088 34.8942C23.0464 34.3841 22.098 33.6645 21.3205 32.7788C20.543 31.8931 19.9525 30.8594 19.5843 29.7398C19.2162 28.6202 19.078 27.4378 19.178 26.2635C19.2781 25.0892 19.6144 23.9472 20.1667 22.906C20.2158 22.8139 20.2463 22.7129 20.2564 22.609C20.2666 22.5051 20.2561 22.4001 20.2257 22.3002C20.1953 22.2003 20.1455 22.1074 20.0792 22.0267C20.0128 21.9461 19.9313 21.8793 19.8391 21.8301C19.747 21.781 19.646 21.7505 19.5421 21.7403C19.4382 21.7302 19.3332 21.7406 19.2333 21.771C19.1334 21.8015 19.0405 21.8513 18.9598 21.9176C18.8792 21.9839 18.8123 22.0655 18.7632 22.1577C18.1102 23.388 17.7124 24.7375 17.5939 26.1254C17.4754 27.5132 17.6385 28.9107 18.0734 30.2339C18.5084 31.5572 19.2062 32.7789 20.125 33.8257C21.0438 34.8726 22.1647 35.723 23.4203 36.3259C23.5144 36.3713 23.6165 36.3977 23.7208 36.4036C23.8251 36.4095 23.9295 36.3948 24.0281 36.3603C24.1267 36.3259 24.2175 36.2723 24.2954 36.2028C24.3733 36.1332 24.4368 36.049 24.4821 35.9549C24.5275 35.8608 24.5539 35.7587 24.5598 35.6544C24.5657 35.5502 24.551 35.4458 24.5165 35.3472C24.4821 35.2486 24.4286 35.1577 24.359 35.0798C24.2894 35.0019 24.2052 34.9384 24.1111 34.8931L24.1088 34.8942Z" fill="#032F6F" stroke="#032F6F" stroke-width="0.2"/>
<path d="M26.7 35.7531H26.654C26.5496 35.7526 26.4461 35.7726 26.3495 35.8121C26.2528 35.8516 26.1649 35.9098 26.0907 35.9833C26.0166 36.0567 25.9576 36.1441 25.9172 36.2404C25.8768 36.3366 25.8557 36.4399 25.8552 36.5443C25.8547 36.6487 25.8748 36.7522 25.9143 36.8488C25.9538 36.9455 26.012 37.0334 26.0854 37.1075C26.1589 37.1817 26.2463 37.2407 26.3425 37.2811C26.4388 37.3215 26.5421 37.3426 26.6465 37.343H26.7C26.9109 37.343 27.1131 37.2593 27.2622 37.1102C27.4112 36.9611 27.495 36.7589 27.495 36.5481C27.495 36.3372 27.4112 36.135 27.2622 35.9859C27.1131 35.8368 26.9109 35.7531 26.7 35.7531Z" fill="#032F6F" stroke="#032F6F" stroke-width="0.2"/>
<path d="M31.5005 13.982C31.4049 13.7542 31.2865 13.5366 31.147 13.3327H33.2194C34.1893 13.3327 35.1196 12.9474 35.8054 12.2615C36.4913 11.5756 36.8766 10.6454 36.8766 9.67546C36.8766 8.70551 36.4913 7.77529 35.8054 7.08944C35.1196 6.40358 34.1893 6.01827 33.2194 6.01827H26.8525C27.2295 5.46929 27.4493 4.82775 27.4883 4.16293C27.5272 3.49812 27.3837 2.83531 27.0734 2.2461C26.763 1.65688 26.2976 1.16365 25.7274 0.819688C25.1571 0.475725 24.5037 0.294101 23.8378 0.294434H4.35959C3.87932 0.294434 3.40375 0.38903 2.96004 0.572822C2.51633 0.756613 2.11316 1.026 1.77356 1.3656C1.43396 1.7052 1.16457 2.10837 0.98078 2.55208C0.796989 2.99579 0.702393 3.47136 0.702393 3.95163C0.702393 4.4319 0.796989 4.90747 0.98078 5.35118C1.16457 5.79489 1.43396 6.19806 1.77356 6.53766C2.11316 6.87726 2.51633 7.14665 2.96004 7.33044C3.40375 7.51423 3.87932 7.60883 4.35959 7.60883H10.7264C10.308 8.21699 10.0839 8.93782 10.0839 9.67604C10.0839 10.4143 10.308 11.1351 10.7264 11.7433H8.65405C7.89507 11.7426 7.15471 11.9782 6.53573 12.4175C5.91676 12.8567 5.44989 13.4778 5.19991 14.1944C4.94994 14.911 4.92927 15.6877 5.14077 16.4166C5.35226 17.1455 5.78544 17.7905 6.38017 18.2621C5.94842 18.6038 5.59957 19.0388 5.35975 19.5345C5.11994 20.0301 4.99536 20.5736 4.99536 21.1243C4.99536 21.6749 5.11994 22.2184 5.35975 22.7141C5.59957 23.2098 5.94842 23.6447 6.38017 23.9865C5.94842 24.3282 5.59957 24.7632 5.35975 25.2589C5.11994 25.7546 4.99536 26.2981 4.99536 26.8487C4.99536 27.3993 5.11994 27.9428 5.35975 28.4385C5.59957 28.9342 5.94842 29.3692 6.38017 29.7109C5.78529 30.1823 5.35193 30.8272 5.14026 31.5562C4.92859 32.2851 4.94911 33.0618 5.19896 33.7785C5.44882 34.4952 5.91562 35.1164 6.53456 35.5558C7.1535 35.9951 7.89387 36.2309 8.6529 36.2303H18.0218C19.4469 37.7554 21.2059 38.9296 23.1609 39.6608C25.1158 40.3921 27.2136 40.6605 29.2897 40.4451C31.3659 40.2296 33.3638 39.5361 35.127 38.419C36.8901 37.3019 38.3705 35.7915 39.452 34.0063C40.5336 32.2211 41.1868 30.2096 41.3606 28.1296C41.5343 26.0496 41.2239 23.9576 40.4536 22.0177C39.6832 20.0778 38.474 18.3427 36.9206 16.9485C35.3673 15.5543 33.512 14.5389 31.5005 13.982ZM33.2171 7.60825C33.7653 7.60825 34.2911 7.82605 34.6788 8.21372C35.0665 8.6014 35.2843 9.1272 35.2843 9.67546C35.2843 10.2237 35.0665 10.7495 34.6788 11.1372C34.2911 11.5249 33.7653 11.7427 33.2171 11.7427H13.7406C13.1924 11.7427 12.6666 11.5249 12.2789 11.1372C11.8912 10.7495 11.6734 10.2237 11.6734 9.67546C11.6734 9.1272 11.8912 8.6014 12.2789 8.21372C12.6666 7.82605 13.1924 7.60825 13.7406 7.60825H33.2171ZM4.35959 6.01884C3.81133 6.01884 3.28553 5.80105 2.89785 5.41337C2.51017 5.02569 2.29238 4.49989 2.29238 3.95163C2.29238 3.40337 2.51017 2.87757 2.89785 2.48989C3.28553 2.10221 3.81133 1.88442 4.35959 1.88442H23.8378C24.386 1.88442 24.9118 2.10221 25.2995 2.48989C25.6872 2.87757 25.905 3.40337 25.905 3.95163C25.905 4.49989 25.6872 5.02569 25.2995 5.41337C24.9118 5.80105 24.386 6.01884 23.8378 6.01884H4.35959ZM8.6529 13.3332H28.1311C28.4436 13.3334 28.7521 13.4044 29.0332 13.5411C28.6572 13.5094 28.2767 13.4927 27.8928 13.4927C26.1152 13.4916 24.355 13.8423 22.7135 14.5245C21.0721 15.2067 19.5818 16.2069 18.3287 17.4677H8.6529C8.10464 17.4677 7.57884 17.2499 7.19116 16.8622C6.80348 16.4745 6.58569 15.9487 6.58569 15.4004C6.58569 14.8522 6.80348 14.3264 7.19116 13.9387C7.57884 13.551 8.10464 13.3332 8.6529 13.3332ZM8.6529 19.0576H16.9701C16.0564 20.3081 15.3651 21.7067 14.9265 23.1921H8.65175C8.10349 23.1921 7.57768 22.9743 7.19001 22.5866C6.80233 22.1989 6.58453 21.6731 6.58453 21.1249C6.58453 20.5766 6.80233 20.0508 7.19001 19.6631C7.57768 19.2754 8.10349 19.0576 8.65175 19.0576H8.6529ZM8.6529 24.7821H14.5615C14.3335 26.1495 14.317 27.544 14.5126 28.9165H8.6529C8.10464 28.9165 7.57884 28.6987 7.19116 28.311C6.80348 27.9233 6.58569 27.3975 6.58569 26.8493C6.58569 26.301 6.80348 25.7752 7.19116 25.3875C7.57884 24.9998 8.10464 24.7821 8.6529 24.7821ZM8.6529 34.6403C8.37856 34.6449 8.10606 34.5948 7.85128 34.493C7.5965 34.3912 7.36453 34.2397 7.16891 34.0473C6.97329 33.8549 6.81792 33.6255 6.71186 33.3724C6.60581 33.1194 6.55119 32.8478 6.55119 32.5734C6.55119 32.299 6.60581 32.0274 6.71186 31.7743C6.81792 31.5213 6.97329 31.2919 7.16891 31.0995C7.36453 30.9071 7.5965 30.7556 7.85128 30.6538C8.10606 30.552 8.37856 30.5019 8.6529 30.5065H14.8367C15.2333 31.9827 15.8784 33.3807 16.7444 34.6403H8.6529ZM27.8922 38.933C25.5336 38.933 23.2281 38.2337 21.267 36.9234C19.3059 35.6131 17.7774 33.7507 16.8747 31.5718C15.972 29.3928 15.7357 26.9951 16.1957 24.6819C16.6557 22.3686 17.7912 20.2437 19.4588 18.5758C21.1264 16.9079 23.2511 15.7719 25.5642 15.3115C27.8774 14.8511 30.2751 15.087 32.4543 15.9892C34.6334 16.8915 36.4961 18.4196 37.8067 20.3805C39.1174 22.3413 39.8172 24.6467 39.8177 27.0053C39.8148 30.1674 38.5575 33.1993 36.3217 35.4355C34.0859 37.6717 31.0543 38.9295 27.8922 38.933Z" fill="#032F6F" stroke="#032F6F" stroke-width="0.2"/>
</svg>
