<?xml version="1.0" encoding="UTF-8" standalone="no"?>
<svg
   xmlns:dc="http://purl.org/dc/elements/1.1/"
   xmlns:cc="http://creativecommons.org/ns#"
   xmlns:rdf="http://www.w3.org/1999/02/22-rdf-syntax-ns#"
   xmlns:svg="http://www.w3.org/2000/svg"
   xmlns="http://www.w3.org/2000/svg"
   xmlns:sodipodi="http://sodipodi.sourceforge.net/DTD/sodipodi-0.dtd"
   xmlns:inkscape="http://www.inkscape.org/namespaces/inkscape"
   width="11"
   height="10"
   viewBox="0 0 11 10"
   fill="none"
   version="1.1"
   id="svg4"
   sodipodi:docname="group-264reefere64.svg"
   inkscape:version="1.0.2 (e86c870879, 2021-01-15, custom)">
  <metadata
     id="metadata10">
    <rdf:RDF>
      <cc:Work
         rdf:about="">
        <dc:format>image/svg+xml</dc:format>
        <dc:type
           rdf:resource="http://purl.org/dc/dcmitype/StillImage" />
        <dc:title></dc:title>
      </cc:Work>
    </rdf:RDF>
  </metadata>
  <defs
     id="defs8" />
  <sodipodi:namedview
     pagecolor="#ffffff"
     bordercolor="#666666"
     borderopacity="1"
     objecttolerance="10"
     gridtolerance="10"
     guidetolerance="10"
     inkscape:pageopacity="0"
     inkscape:pageshadow="2"
     inkscape:window-width="2400"
     inkscape:window-height="1284"
     id="namedview6"
     showgrid="false"
     inkscape:zoom="84.2"
     inkscape:cx="5.5"
     inkscape:cy="5"
     inkscape:window-x="-9"
     inkscape:window-y="-9"
     inkscape:window-maximized="1"
     inkscape:current-layer="svg4" />
  <path
     fill-rule="evenodd"
     clip-rule="evenodd"
     d="m 5.5123741,1.2967652 c 0.60805,-0.02286 1.21695,-0.00606 1.8228,0.05033 0.29397,-0.00374 0.58603,0.04767 0.861,0.15156 0.37757,0.17738 0.68065,0.48169 0.8562,0.85966 0.10405,0.27454 0.15554,0.56614 0.1518,0.85965 0,0.45529 0.0504,0.60685 0.0504,1.81996 0.02291,0.6071 0.00607,1.21505 -0.0504,1.81996 0.00374,0.29351 -0.04775,0.58511 -0.1518,0.85965 -0.17664,0.37781 -0.48081,0.6815 -0.8592,0.85786 -0.27497,0.10389 -0.56703,0.1553 -0.861,0.15157 -0.456,0 -0.6078,0.05032 -1.8228,0.05032 -0.60805,0.02287 -1.21695,0.00606 -1.8228,-0.05032 -0.29397,0.00373 -0.58603,-0.04768 -0.861,-0.15157 -0.37937,-0.17647 -0.68425,-0.48088 -0.861,-0.85966 -0.10405,-0.27453 -0.15554,-0.56614 -0.1518,-0.85965 0,-0.45529 -0.0504,-0.60685 -0.0504,-1.81996 -0.02291,-0.6071 -0.00607,-1.21504 0.0504,-1.81995 -0.00374,-0.29352 0.04775,-0.58512 0.1518,-0.85966 0.08843,-0.18751 0.20837,-0.35852 0.3546,-0.50561 0.11875,-0.17687 0.29933,-0.30312 0.5064,-0.35405 0.27497,-0.10388 0.56703,-0.1553 0.861,-0.15156 0.60689,-0.05591 1.21679,-0.07212 1.8258,-0.04853 z m 0,-0.80873205 c -0.62584,-0.022448 -1.25247,-0.005641 -1.8762,0.050322 -0.38065,-8e-4 -0.75825,0.06782 -1.1142,0.202483 -0.30728,0.100006 -0.58538,0.27359705 -0.81,0.50560705 -0.23238,0.22428 -0.40624,0.50194 -0.5064,0.80874 -0.15913,0.34824 -0.22883004,0.73058 -0.2028,1.11246 -0.056051,0.62276 -0.072884,1.24841 -0.0504,1.87327 -0.022358,0.62387 -0.005525,1.24852 0.0504,1.87028 -8e-4,0.38006 0.06793,0.75706 0.2028,1.11246 0.10016,0.30681 0.27402,0.58447 0.5064,0.80874 0.22462,0.23202 0.50272,0.4056 0.81,0.50561 0.35595,0.13466 0.73355,0.20328 1.1142,0.20248 0.62379,0.05497 1.25042,0.07077 1.8762,0.04733 0.62484,0.02232 1.25047,0.00552 1.8732,-0.05032 0.38065,8e-4 0.75825,-0.06782 1.1142,-0.20249 0.30496,-0.10493 0.58198,-0.27782 0.81006,-0.50554 0.22809,-0.22773 0.40124,-0.50432 0.50634,-0.8088 0.13487,-0.3554 0.2036199,-0.73241 0.2028199,-1.11246 0,-0.50561 0.0504,-0.65897 0.0504,-1.87028 0.0223,-0.62387 0.0055,-1.24852 -0.0504,-1.87028 8e-4,-0.38005 -0.06795,-0.75706 -0.2028199,-1.11246 -0.10016,-0.3068 -0.27402,-0.58446 -0.5064,-0.80874 -0.22462,-0.23201 -0.50272,-0.40560105 -0.81,-0.50560705 -0.35671,-0.13495 -0.73514,-0.203576 -1.1166,-0.202483 -0.62194,-0.055738 -1.24676,-0.072545 -1.8708,-0.050322 z m 0,2.22432205 c -0.30777,-0.00544 -0.61348,0.05108 -0.8989,0.16617 -0.28542,0.1151 -0.54469,0.28642 -0.76235,0.50374 -0.21766,0.21732 -0.38924,0.47619 -0.50452,0.76116 -0.11527,0.28497 -0.17188,0.59021 -0.16643,0.89749 5.9e-4,0.4597 0.13763,0.90891 0.39379,1.29089 0.25616,0.38198 0.61997,0.67959 1.04545,0.85523 0.42548,0.17565 0.89356,0.22145 1.3451,0.13162 0.45154,-0.08983 0.86629,-0.31125 1.19185,-0.63631 0.32556,-0.32506 0.54734,-0.73916 0.63731,-1.18999 0.08997,-0.45084 0.04409,-0.91818 -0.13183,-1.343 -0.17592,-0.42482 -0.47399,-0.78806 -0.85657,-1.04382 -0.38257,-0.25576 -0.83248,-0.39258 -1.2929,-0.39318 z m 0,3.8424 c -0.2005,0.00405 -0.39977,-0.03229 -0.58589,-0.10686 -0.18612,-0.07456 -0.35528,-0.18582 -0.49737,-0.32713 -0.14208,-0.14131 -0.25419,-0.30976 -0.3296,-0.49529 -0.07542,-0.18554 -0.11261,-0.38435 -0.10934,-0.58456 -0.00408,-0.2007 0.0325,-0.40016 0.10755,-0.5864 0.07505,-0.18623 0.18703,-0.35541 0.3292,-0.49735 0.14217,-0.14195 0.31161,-0.25375 0.49813,-0.32869 0.18653,-0.07493 0.3863,-0.11146 0.58732,-0.10738 0.20052,-0.00326 0.39964,0.03387 0.58546,0.10917 0.18583,0.0753 0.35455,0.18722 0.49607,0.32909 0.14153,0.14186 0.25296,0.31076 0.32765,0.49659 0.07468,0.18583 0.11108,0.38478 0.10702,0.58497 0.00324,0.1997 -0.03376,0.398 -0.10881,0.58313 -0.07504,0.18513 -0.18661,0.35331 -0.32805,0.49453 -0.14144,0.14122 -0.30988,0.25261 -0.4953,0.32754 -0.18542,0.07493 -0.38403,0.11188 -0.58404,0.10864 z m 2.4306,-4.49957 c -0.11012,0 -0.21778,0.0326 -0.30934,0.09369 -0.09157,0.06109 -0.16293,0.14791 -0.20508,0.2495 -0.04214,0.10158 -0.05317,0.21336 -0.03168,0.3212 0.02148,0.10784 0.07451,0.2069 0.15238,0.28464 0.07787,0.07775 0.17709,0.1307 0.28509,0.15215 0.10801,0.02145 0.21997,0.01044 0.32171,-0.03164 0.10174,-0.04207 0.1887,-0.11333 0.24988,-0.20475 0.06118,-0.09142 0.09384,-0.19891 0.09384,-0.30886 -0.00141,-0.14701 -0.06052,-0.28759 -0.16464,-0.39155 -0.10412,-0.10395 -0.24492,-0.16298 -0.39216,-0.16438 z"
     fill="white"
     id="path2"
     style="fill:#b3b3b3" />
</svg>
