<svg width="10" height="8" viewBox="0 0 10 8" fill="none" xmlns="http://www.w3.org/2000/svg">
<path fill-rule="evenodd" clip-rule="evenodd" d="M3.08522 7.96876C3.78517 7.97507 4.47936 7.84208 5.12725 7.57755C5.77515 7.31302 6.36376 6.92225 6.85872 6.42807C7.35368 5.93388 7.74506 5.34619 8.01 4.6993C8.27495 4.05242 8.40814 3.35931 8.40182 2.66045V2.40765C8.75542 2.13933 9.0632 1.81565 9.31322 1.44915C8.97373 1.59649 8.61624 1.69841 8.25002 1.75227C8.6266 1.51615 8.91208 1.15975 9.06002 0.741052C8.69415 0.944545 8.3024 1.0977 7.89542 1.19634C7.7243 1.00337 7.51379 0.849207 7.27804 0.744223C7.04228 0.63924 6.78675 0.585867 6.52862 0.587692C6.03418 0.595263 5.56212 0.79474 5.21245 1.14386C4.86279 1.49297 4.663 1.9643 4.65542 2.45797C4.64382 2.59479 4.66099 2.73253 4.70582 2.86234C3.96101 2.82621 3.23252 2.63163 2.56913 2.29161C1.90574 1.9516 1.32276 1.47401 0.859218 0.890818C0.692943 1.18297 0.605685 1.5133 0.60602 1.84932C0.612736 2.15485 0.689186 2.45482 0.829552 2.7264C0.969918 2.99797 1.1705 3.23399 1.41602 3.41647C1.11116 3.4106 0.813446 3.32331 0.553818 3.16367C0.553284 3.59669 0.705107 4.01615 0.982777 4.34879C1.26045 4.68143 1.64632 4.90612 2.07302 4.98362C1.90812 5.02796 1.73704 5.04496 1.56662 5.03394C1.44619 5.04216 1.32538 5.02501 1.21202 4.98362C1.3361 5.35817 1.57289 5.68537 1.89009 5.92059C2.20728 6.15581 2.58944 6.2876 2.98442 6.29797C2.3188 6.81701 1.49977 7.10139 0.655218 7.10671C0.501547 7.11544 0.347486 7.09884 0.199219 7.05758C1.0371 7.66503 2.04989 7.98437 3.08522 7.96756" fill="white"/>
</svg>
