<svg width="59" height="60" viewBox="0 0 59 60" fill="none" xmlns="http://www.w3.org/2000/svg">
<path d="M10.204 49.6977L10.2161 49.7097L10.2661 49.7608C16.6897 56.1864 25.2983 59.8524 34.3076 59.999C37.4717 60.0276 40.6133 59.4561 43.5713 58.3137C44.1795 58.0668 44.7008 57.6401 45.068 57.0887C45.4351 56.5373 45.6312 55.8866 45.6308 55.2207V50.847C45.6283 50.0852 45.4322 49.3369 45.0615 48.6749C44.6908 48.0129 44.1581 47.4596 43.515 47.0687L35.7847 42.4044C35.1723 42.0311 34.4402 41.9179 33.7464 42.089C33.0525 42.2602 32.4528 42.702 32.0766 43.3191L28.8665 48.5431C28.6194 48.9424 28.0326 48.8031 27.918 48.7709C24.1012 47.7098 20.8801 45.6919 17.4742 42.228C14.0688 38.7647 12.0842 35.4895 11.0404 31.6071C11.0084 31.4903 10.8715 30.8939 11.2644 30.6433C12.0452 30.1451 13.0916 29.481 14.1123 28.8331L16.3996 27.3801C17.0075 26.9974 17.4426 26.3867 17.6109 25.6801C17.7792 24.9735 17.6671 24.2279 17.2988 23.6048L12.7127 15.7444C12.3282 15.0911 11.7842 14.55 11.1335 14.1735C10.4829 13.797 9.74754 13.5978 8.99889 13.5954H4.69757C4.0432 13.5948 3.4037 13.7938 2.86176 14.1667C2.31982 14.5397 1.90037 15.0694 1.65766 15.6874C-2.37678 26.1849 1.15528 40.4064 10.0549 49.5454L10.204 49.6977ZM3.85663 16.5575C3.92523 16.3888 4.04206 16.2449 4.19199 16.1445C4.34192 16.0441 4.51805 15.9917 4.69757 15.9943H8.99888C9.33883 15.9956 9.67268 16.0861 9.96811 16.2572C10.2635 16.4282 10.5106 16.6739 10.6852 16.9705L15.2682 24.8264C15.3195 24.9115 15.3358 25.0138 15.3135 25.1111C15.2912 25.2083 15.2322 25.2928 15.1491 25.346L12.8637 26.798C11.8411 27.4469 10.7928 28.112 10.012 28.6105C9.44159 28.993 9.01055 29.5554 8.78519 30.2113C8.55982 30.8672 8.55261 31.5802 8.76466 32.2407C9.90702 36.4885 12.145 40.2011 15.8064 43.9247C19.4683 47.6483 23.1188 49.9238 27.296 51.0852C27.9454 51.3003 28.6463 51.2927 29.2912 51.0637C29.936 50.8347 30.4891 50.3969 30.8658 49.8175L34.0772 44.5908C34.1294 44.5073 34.2116 44.4478 34.3063 44.4252C34.401 44.4025 34.5007 44.4184 34.5841 44.4694L42.3099 49.1309C42.602 49.3084 42.8441 49.5597 43.0126 49.8604C43.1812 50.1611 43.2704 50.5009 43.2718 50.847V55.2208C43.2741 55.404 43.2222 55.5836 43.123 55.7365C43.0237 55.8894 42.8816 56.0084 42.715 56.0782C33.2087 59.8575 20.2587 56.4752 11.905 48.0346C11.8788 48.0046 11.8526 47.9763 11.8257 47.9487L11.7265 47.8523C3.45601 39.3563 0.144747 26.2139 3.85663 16.5575ZM57.8205 8.96945e-09H26.2329C26.0781 -1.83793e-05 25.9247 0.0309933 25.7816 0.0912641C25.6385 0.151535 25.5084 0.239884 25.3989 0.351266C25.2894 0.462648 25.2025 0.59488 25.1432 0.740411C25.0839 0.885942 25.0534 1.04192 25.0535 1.19944V25.1908C25.0534 25.3483 25.0839 25.5043 25.1432 25.6499C25.2025 25.7954 25.2894 25.9276 25.3989 26.039C25.5084 26.1504 25.6385 26.2387 25.7816 26.299C25.9247 26.3593 26.0781 26.3903 26.2329 26.3903H27.8188L25.1456 32.8564C25.0511 33.0851 25.0287 33.338 25.0814 33.5803C25.1342 33.8226 25.2594 34.0422 25.44 34.2091C25.6206 34.3759 25.8477 34.4817 26.0898 34.5119C26.332 34.5421 26.5774 34.4952 26.7923 34.3776L41.3807 26.3903H57.8205C57.9754 26.3903 58.1288 26.3593 58.2719 26.299C58.415 26.2387 58.545 26.1504 58.6546 26.039C58.7641 25.9276 58.851 25.7954 58.9102 25.6499C58.9695 25.5043 59 25.3483 59 25.1908V1.19944C59 1.04192 58.9695 0.885941 58.9102 0.74041C58.851 0.594878 58.7641 0.462645 58.6546 0.351263C58.545 0.239882 58.415 0.151533 58.2719 0.0912622C58.1288 0.0309918 57.9754 -1.92549e-05 57.8205 8.96945e-09ZM56.641 23.9914H41.0831C40.8879 23.9914 40.6957 24.0406 40.5237 24.1346L28.615 30.6547L30.6821 25.6558C30.7575 25.4735 30.7874 25.275 30.7691 25.0781C30.7508 24.8812 30.6849 24.6919 30.5772 24.5272C30.4696 24.3624 30.3236 24.2273 30.1522 24.1338C29.9808 24.0403 29.7893 23.9914 29.5948 23.9914H27.4124V2.39888H56.641V23.9914ZM51.1359 10.7292H32.9176V8.33034H51.1359V10.7292ZM51.1359 18.0599H32.9176V15.6611H51.1359V18.0599Z" fill="#032F6F"/>
</svg>
