<svg width="23" height="23" viewBox="0 0 23 23" fill="none" xmlns="http://www.w3.org/2000/svg">
<path d="M8.81361 7.2956C7.47938 7.47682 6.25592 8.13509 5.36952 9.14866C4.48313 10.1622 3.99378 11.4625 3.992 12.809V13.5505H4.73347V12.809C4.73489 11.5307 5.24334 10.3051 6.14726 9.40118C7.05118 8.49726 8.27674 7.98882 9.55508 7.98739H13.2654C14.1116 7.98914 14.9425 8.2127 15.6753 8.63575C16.4081 9.05881 17.0172 9.6666 17.4419 10.3985L18.084 10.0269C17.6571 9.29145 17.068 8.66317 16.3616 8.18985C15.6551 7.71654 14.85 7.41069 14.0075 7.2956V4.70317L14.8566 1.8169C14.9148 1.62651 14.9077 1.42214 14.8365 1.23624C14.7652 1.05035 14.6338 0.893612 14.4633 0.79093C14.2927 0.688249 14.0927 0.645517 13.8951 0.669526C13.6975 0.693534 13.5135 0.782904 13.3725 0.923435C13.3441 0.951684 13.3057 0.967543 13.2657 0.967543C13.2257 0.967543 13.1872 0.951684 13.1589 0.923435C12.695 0.460608 12.0664 0.200684 11.4111 0.200684C10.7558 0.200684 10.1273 0.460608 9.66339 0.923435C9.63502 0.951684 9.59661 0.967543 9.55658 0.967543C9.51654 0.967543 9.47813 0.951684 9.44976 0.923435C9.30906 0.782889 9.12547 0.693338 8.9281 0.668981C8.73072 0.644625 8.53087 0.686858 8.36023 0.788983C8.18958 0.891108 8.05792 1.04728 7.98611 1.23273C7.9143 1.41818 7.90646 1.6223 7.96383 1.81271L8.81421 4.70317L8.81361 7.2956ZM13.2642 5.02153V5.763H9.55388V5.02094L13.2642 5.02153ZM9.55748 7.24712V6.50387H13.2678V7.24712H9.55748ZM8.7418 1.42612C8.77008 1.40699 8.80434 1.39876 8.83822 1.40294C8.87211 1.40712 8.90334 1.42343 8.92612 1.44886C9.09362 1.61598 9.32057 1.70983 9.55717 1.70983C9.79378 1.70983 10.0207 1.61598 10.1882 1.44886C10.5129 1.12494 10.9528 0.943023 11.4114 0.943023C11.8701 0.943023 12.31 1.12494 12.6346 1.44886C12.8021 1.61598 13.0291 1.70983 13.2657 1.70983C13.5023 1.70983 13.7292 1.61598 13.8967 1.44886C13.9195 1.42343 13.9508 1.40712 13.9846 1.40294C14.0185 1.39876 14.0528 1.40699 14.0811 1.42612C14.1122 1.44275 14.136 1.47027 14.148 1.5034C14.1601 1.53654 14.1595 1.57295 14.1463 1.60565L13.3576 4.27887H12.3282L12.8668 2.93299L12.178 2.65771L11.5293 4.27887H11.2899L10.6412 2.65771L9.95244 2.93299L10.491 4.27887H9.46172L8.67298 1.59847C8.66119 1.5664 8.66142 1.53115 8.67363 1.49924C8.68585 1.46732 8.70922 1.44092 8.73941 1.42493L8.7418 1.42612Z" fill="#032F6F" stroke="#032F6F" stroke-width="0.3"/>
<path d="M22.1648 11.3254H10.6676C10.5692 11.3254 10.4748 11.3645 10.4052 11.4341C10.3356 11.5037 10.2965 11.5981 10.2965 11.6965V14.2925H2.87951C2.7811 14.2925 2.68673 14.3316 2.61715 14.4012C2.54757 14.4707 2.50848 14.5651 2.50848 14.6635V16.612C1.80904 16.7924 1.1994 17.2216 0.793883 17.8194C0.388367 18.4171 0.214826 19.1423 0.3058 19.8588C0.396775 20.5754 0.746017 21.2342 1.28804 21.7116C1.83006 22.189 2.52763 22.4524 3.24994 22.4522H22.1648C22.2632 22.4522 22.3575 22.4131 22.4271 22.3435C22.4967 22.2739 22.5358 22.1796 22.5358 22.0812V11.6965C22.5358 11.5981 22.4967 11.5037 22.4271 11.4341C22.3575 11.3645 22.2632 11.3254 22.1648 11.3254ZM21.7937 15.0609C21.2395 15.1418 20.7263 15.3995 20.3303 15.7955C19.9343 16.1915 19.6766 16.7048 19.5957 17.259H18.0852V12.0669H19.5957C19.6766 12.6211 19.9343 13.1343 20.3303 13.5304C20.7263 13.9264 21.2395 14.184 21.7937 14.265V15.0609ZM21.7937 15.8131V17.2595H20.3479C20.4213 16.9037 20.5974 16.5771 20.8543 16.3201C21.1113 16.0632 21.4378 15.8871 21.7937 15.8137V15.8131ZM21.7937 13.5133C21.4377 13.44 21.1109 13.2639 20.8538 13.0068C20.5967 12.7497 20.4207 12.423 20.3473 12.0669H21.7937V13.5133ZM17.3413 12.0669V17.259H15.8602V12.0669H17.3413ZM12.8908 15.7772H8.44258V15.0358H12.8932L12.8908 15.7772ZM12.8908 16.5193V17.2613H8.44258V16.5193H12.8908ZM12.8908 18.0028V18.7443H8.44258V18.0028H12.8908ZM7.69872 18.7443H6.12304C6.05554 18.4844 5.95286 18.2349 5.81784 18.0028H7.70052L7.69872 18.7443ZM6.2152 19.4857H7.70052V20.2278H6.12304C6.18569 19.985 6.21726 19.7353 6.21699 19.4845L6.2152 19.4857ZM8.44019 19.4857H12.8908V20.2278H8.44258L8.44019 19.4857ZM13.6322 18.0022H15.1158V21.7125H13.6346L13.6322 18.0022ZM13.6322 17.2607V14.6647C13.6322 14.5663 13.5931 14.4719 13.5236 14.4024C13.454 14.3328 13.3596 14.2937 13.2612 14.2937H11.0386V14.2668C11.5928 14.1858 12.106 13.9282 12.5021 13.5321C12.8981 13.1361 13.1557 12.6229 13.2367 12.0687H15.1182V17.2607H13.6322ZM12.482 12.0687C12.4087 12.4248 12.2326 12.7515 11.9755 13.0086C11.7185 13.2657 11.3917 13.4418 11.0356 13.5151V12.0687H12.482ZM7.70052 15.0358V15.7772H3.24994V15.0358H7.70052ZM7.70052 16.5193V17.2613H5.20982C4.66933 16.7829 3.97236 16.5189 3.25054 16.5193H7.70052ZM1.02495 19.4863C1.02495 19.0463 1.15544 18.6161 1.39993 18.2502C1.64441 17.8843 1.99191 17.5991 2.39847 17.4307C2.80504 17.2623 3.25241 17.2182 3.68402 17.3041C4.11562 17.3899 4.51208 17.6018 4.82325 17.913C5.13442 18.2242 5.34633 18.6206 5.43218 19.0523C5.51803 19.4839 5.47397 19.9312 5.30556 20.3378C5.13716 20.7444 4.85198 21.0919 4.48608 21.3363C4.12018 21.5808 3.69 21.7113 3.24994 21.7113C2.9576 21.7113 2.66812 21.6537 2.39806 21.5418C2.12799 21.4298 1.88263 21.2658 1.676 21.059C1.46937 20.8522 1.30551 20.6067 1.1938 20.3366C1.08209 20.0664 1.02471 19.7769 1.02495 19.4845V19.4863ZM5.81784 20.9699H7.70052V21.7119H5.20982C5.4513 21.4984 5.65662 21.2472 5.81784 20.9681V20.9699ZM8.44198 21.7119V20.9699H12.8926V21.7119H8.44198ZM15.8596 21.7119V18.0016H17.3413V21.7119H15.8596ZM18.0846 21.7119V18.0016H21.7949V21.7119H18.0846Z" fill="#032F6F" stroke="#032F6F" stroke-width="0.3"/>
</svg>
