<svg width="57" height="60" viewBox="0 0 57 60" fill="none" xmlns="http://www.w3.org/2000/svg">
<path d="M42.6195 21.6494L34.9531 2.08055C34.7483 1.5792 34.3553 1.17798 33.8583 0.962833C33.3613 0.74769 32.7998 0.735733 32.2941 0.929523L12.7279 8.59532C12.4774 8.6941 12.2487 8.84131 12.0551 9.02851C11.8615 9.21572 11.7067 9.43926 11.5996 9.68634C11.4924 9.93342 11.435 10.1992 11.4307 10.4685C11.4263 10.7378 11.4751 11.0053 11.5742 11.2557L19.2983 30.8232C19.4983 31.3284 19.8908 31.7334 20.3895 31.9493C20.8881 32.1651 21.4521 32.1741 21.9573 31.9742L41.4705 24.3084C41.9753 24.108 42.38 23.7153 42.5954 23.2167C42.8109 22.7181 42.8196 22.1544 42.6195 21.6494ZM21.3474 29.7331L13.8637 10.6941L32.9047 3.19714L40.3884 22.2481L21.3474 29.7331Z" fill="#032F6F"/>
<path d="M23.7183 33.9312H2.75671C2.21326 33.9312 1.69208 34.147 1.3078 34.5313C0.923525 34.9156 0.707642 35.4368 0.707642 35.9802V56.9531C0.707642 57.4965 0.923525 58.0177 1.3078 58.402C1.69208 58.7862 2.21326 59.0021 2.75671 59.0021H23.7183C23.9874 59.0021 24.2538 58.9491 24.5024 58.8462C24.751 58.7432 24.9769 58.5922 25.1672 58.402C25.3575 58.2117 25.5084 57.9858 25.6114 57.7372C25.7143 57.4886 25.7674 57.2221 25.7674 56.9531V35.9802C25.7674 35.7111 25.7143 35.4447 25.6114 35.1961C25.5084 34.9475 25.3575 34.7216 25.1672 34.5313C24.9769 34.341 24.751 34.1901 24.5024 34.0871C24.2538 33.9842 23.9874 33.9312 23.7183 33.9312ZM23.4653 56.6888H3.01036V36.2332H23.4653V56.6888Z" fill="#032F6F"/>
<path d="M54.6709 33.8166L34.4113 28.4297C33.8804 28.3002 33.3197 28.3845 32.8503 28.6645C32.3809 28.9445 32.0403 29.3977 31.902 29.9264L26.5144 50.1847C26.4448 50.4446 26.4271 50.7157 26.4623 50.9825C26.4975 51.2493 26.5849 51.5066 26.7195 51.7396C26.8541 51.9726 27.0333 52.1769 27.2469 52.3406C27.4604 52.5044 27.7042 52.6245 27.9641 52.694L48.2237 58.0809C48.4836 58.1505 48.7548 58.1682 49.0216 58.1331C49.2884 58.0979 49.5456 58.0105 49.7786 57.8758C50.0117 57.7412 50.2159 57.562 50.3796 57.3485C50.5434 57.1349 50.6635 56.8912 50.733 56.6312L56.0743 36.326C56.2165 35.8072 56.1491 35.2533 55.8866 34.7839C55.624 34.3144 55.1874 33.967 54.6709 33.8166ZM48.5813 55.6875L28.8059 50.4959L34.0643 30.7318L53.8285 35.9922L48.5813 55.6875Z" fill="#032F6F"/>
<path d="M33.9749 18.7254C33.7659 18.3276 33.4894 17.969 33.1577 17.6658L27.4019 11.5994L26.723 10.8629C26.5523 10.6859 26.3631 10.5276 26.1588 10.3907C25.9522 10.2501 25.7157 10.1594 25.468 10.1258C25.1771 10.1055 24.8854 10.1508 24.6144 10.2585C24.3434 10.3661 24.1001 10.5333 23.9024 10.7477C23.7441 10.9419 23.6336 11.1705 23.5799 11.4153C23.5214 11.7031 23.4943 11.9964 23.4991 12.2901V21.5341C23.522 21.8794 23.5412 22.1443 23.5567 22.3289C23.5654 22.502 23.6003 22.6728 23.66 22.8355C23.7153 22.969 23.7983 23.0893 23.9034 23.1885C24.0085 23.2877 24.1335 23.3635 24.27 23.411C24.5502 23.5261 24.8646 23.5261 25.1448 23.411C25.2852 23.3711 25.4139 23.2979 25.5201 23.1978C25.6263 23.0976 25.7068 22.9733 25.7548 22.8355C25.8411 22.392 25.872 21.9395 25.8468 21.4884V19.842L30.394 18.0579L31.4761 19.2089L31.9709 19.7036C32.1119 19.8526 32.2704 19.9841 32.4431 20.095C32.5726 20.173 32.7183 20.2203 32.8689 20.2334C33.0379 20.2455 33.2073 20.2179 33.3636 20.1526C33.634 20.0415 33.8521 19.8318 33.9736 19.5658C34.0305 19.4331 34.06 19.2902 34.0602 19.1458C34.0604 19.0013 34.0314 18.8584 33.9749 18.7254ZM25.7442 17.885L25.5833 12.659L29.0827 16.573L25.7442 17.885Z" fill="#032F6F"/>
<path d="M16.1094 45.5687C16.6444 45.3688 17.1043 45.008 17.4258 44.536C17.7473 44.0639 17.9147 43.5039 17.9048 42.9329C17.9057 42.5952 17.8472 42.2601 17.732 41.9427C17.6188 41.629 17.4514 41.3375 17.2373 41.0818C17.0258 40.8264 16.7728 40.6086 16.4889 40.4374C16.1357 40.226 15.7448 40.0852 15.3379 40.0228C14.8466 39.9479 14.35 39.9133 13.853 39.9195H10.0317C9.82655 39.8971 9.61896 39.9161 9.42126 39.9754C9.22355 40.0347 9.03974 40.133 8.88071 40.2645C8.61828 40.5876 8.49425 41.0014 8.53567 41.4156V50.4404C8.49287 50.8524 8.61157 51.265 8.8668 51.5914C9.02559 51.7278 9.21086 51.8299 9.41099 51.8914C9.61111 51.9528 9.82177 51.9722 10.0298 51.9483H13.702C14.239 51.9303 14.7742 51.8788 15.3047 51.794C15.7392 51.7429 16.165 51.6344 16.571 51.4715C17.1386 51.2345 17.6228 50.8338 17.9618 50.3205C18.3094 49.7792 18.4908 49.1478 18.4837 48.5045C18.4965 47.8141 18.2655 47.1412 17.8312 46.6042C17.397 46.0672 16.7873 45.7005 16.1094 45.5687ZM10.9867 41.7699H12.9073C13.5769 41.7353 14.2466 41.8372 14.8756 42.0692C15.088 42.1719 15.2638 42.3374 15.379 42.5433C15.4943 42.7492 15.5435 42.9855 15.52 43.2203C15.5226 43.4916 15.4509 43.7584 15.3127 43.9918C15.1545 44.3011 14.882 44.5365 14.5531 44.6481C14.0972 44.78 13.6233 44.8383 13.1491 44.821H10.9291L10.9867 41.7699ZM16.0054 48.3429C16.0054 49.5249 15.1842 50.1158 13.5418 50.1158H10.9291L10.9867 46.6164H13.4848C14.1479 46.5744 14.8095 46.718 15.3955 47.031C15.6032 47.1772 15.7689 47.3754 15.8759 47.6058C15.9829 47.8361 16.0276 48.0906 16.0054 48.3436V48.3429Z" fill="#032F6F"/>
<path d="M47.0853 39.848C46.7918 39.1216 46.321 38.4804 45.7157 37.983C45.048 37.426 44.2599 37.0319 43.4136 36.832C42.6649 36.6249 41.8829 36.5662 41.1116 36.6592C40.3696 36.7507 39.6555 36.999 39.0168 37.3876C38.3556 37.7952 37.7871 38.3366 37.3479 38.9771C36.853 39.7059 36.4907 40.5164 36.2776 41.3712C36.128 41.9165 36.0355 42.4758 36.0015 43.0401C35.9717 43.568 36.0064 44.0976 36.1048 44.617C36.1986 45.1104 36.3544 45.5899 36.5684 46.0442C36.7898 46.5107 37.0852 46.9383 37.4432 47.3105C37.7997 47.6756 38.2114 47.9825 38.6632 48.2198C39.1788 48.4881 39.7234 48.6967 40.2864 48.8417C41.0077 49.0489 41.7636 49.1077 42.5083 49.0145C43.1356 48.9179 43.7356 48.6905 44.2693 48.3469C44.7104 48.0714 45.0999 47.7208 45.4203 47.3111C45.6926 46.9717 45.8923 46.5799 46.0071 46.1601C46.0471 46.026 46.0587 45.885 46.0409 45.7462C46.0231 45.6073 45.9764 45.4738 45.9038 45.3541C45.8346 45.2342 45.7418 45.1295 45.6311 45.0464C45.5203 44.9633 45.3939 44.9035 45.2594 44.8707C45.1283 44.8233 44.9877 44.808 44.8495 44.826C44.7112 44.8439 44.5793 44.8947 44.4646 44.974C44.2422 45.1561 44.0516 45.3739 43.9004 45.6184C43.543 46.1385 43.0378 46.5395 42.45 46.7694C41.8516 46.9645 41.2067 46.9645 40.6082 46.7694C40.0642 46.6628 39.5592 46.4111 39.1466 46.0409C38.747 45.5864 38.4976 45.0194 38.4327 44.4177C38.3555 43.6434 38.4297 42.8615 38.6512 42.1156C38.8567 40.9601 39.4495 39.909 40.3321 39.1354C40.6954 38.8526 41.1213 38.661 41.5739 38.5769C42.0266 38.4928 42.4928 38.5185 42.9335 38.6519C43.479 38.777 43.9731 39.0662 44.3494 39.4804C44.7177 39.9395 44.9703 40.4803 45.0859 41.0573C45.1437 41.3619 45.2473 41.6559 45.3932 41.9295C45.5417 42.1358 45.7647 42.2762 46.015 42.3209C46.1451 42.3569 46.2815 42.3643 46.4147 42.3424C46.5479 42.3206 46.6748 42.2701 46.7866 42.1944C47.0205 42.053 47.1899 41.8258 47.2588 41.5613C47.3794 40.986 47.3188 40.3874 47.0853 39.848Z" fill="#032F6F"/>
</svg>
