<svg width="49" height="32" viewBox="0 0 49 32" fill="none" xmlns="http://www.w3.org/2000/svg">
<path d="M48.1032 15.7126C43.8844 6.5125 34.6334 0.514648 24.5184 0.514648C14.4034 0.514648 5.15249 6.5125 0.933666 15.7126C0.832007 15.9159 0.832007 16.1192 0.933666 16.3225C5.15249 25.5226 14.4034 31.5205 24.5184 31.5205C34.6334 31.5205 43.8844 25.5735 48.1032 16.3734C48.154 16.1192 48.154 15.9159 48.1032 15.7126ZM24.5184 29.9956C15.115 29.9956 6.52488 24.506 2.50937 16.0176C6.52488 7.52908 15.115 2.03953 24.5184 2.03953C33.9218 2.03953 42.512 7.52908 46.5275 16.0176C42.512 24.506 33.9218 29.9956 24.5184 29.9956Z" fill="#032F6F"/>
<path d="M24.519 11.9512C22.2825 11.9512 20.4526 13.781 20.4526 16.0175C20.4526 18.254 22.2825 20.0838 24.519 20.0838C26.7555 20.0838 28.5853 18.254 28.5853 16.0175C28.5853 13.781 26.7555 11.9512 24.519 11.9512ZM24.519 18.559C23.1466 18.559 21.9775 17.4407 21.9775 16.0175C21.9775 14.5943 23.0958 13.476 24.519 13.476C25.9422 13.476 27.0604 14.5943 27.0604 16.0175C27.0604 17.4407 25.8914 18.559 24.519 18.559Z" fill="#032F6F"/>
<path d="M24.5184 4.27612C18.0631 4.27612 12.7769 9.56236 12.7769 16.0177C12.7769 22.473 18.0631 27.7592 24.5184 27.7592C30.9737 27.7592 36.26 22.473 36.26 16.0177C36.26 9.56236 30.9737 4.27612 24.5184 4.27612ZM24.5184 26.2343C18.8764 26.2343 14.3017 21.6597 14.3017 16.0177C14.3017 10.3756 18.8764 5.801 24.5184 5.801C30.1604 5.801 34.7351 10.3756 34.7351 16.0177C34.7351 21.6597 30.1604 26.2343 24.5184 26.2343Z" fill="#032F6F"/>
</svg>
