<svg width="46" height="39" viewBox="0 0 46 39" fill="none" xmlns="http://www.w3.org/2000/svg">
<path d="M37.7759 0.835331C36.1763 0.850909 34.6474 1.4973 33.5218 2.63397C32.3961 3.77064 31.7646 5.3057 31.7646 6.90543C31.7646 8.50515 32.3961 10.0402 33.5218 11.1769C34.6474 12.3136 36.1763 12.9599 37.7759 12.9755C39.3908 12.9737 40.939 12.3314 42.081 11.1895C43.2229 10.0476 43.8652 8.49932 43.867 6.88441C43.8687 6.08601 43.712 5.2952 43.406 4.55778C43.1 3.82035 42.6507 3.15096 42.0842 2.58836C41.5177 2.02576 40.8452 1.58113 40.1057 1.28022C39.3662 0.979311 38.5743 0.828096 37.7759 0.835331ZM37.7759 11.6406C36.8393 11.6364 35.925 11.3547 35.1485 10.8309C34.3721 10.3072 33.7684 9.56491 33.4138 8.69803C33.0592 7.83115 32.9696 6.87859 33.1564 5.96081C33.3432 5.04303 33.7979 4.20124 34.4631 3.54191C35.1283 2.88258 35.9741 2.43532 36.8935 2.25669C37.8129 2.07806 38.7647 2.17608 39.6284 2.53836C40.492 2.90064 41.2289 3.5109 41.7458 4.29198C42.2626 5.07305 42.5363 5.98985 42.5321 6.92644C42.5216 8.18074 42.0158 9.38006 41.1249 10.2631C40.234 11.1461 39.0302 11.6412 37.7759 11.6406Z" fill="#032F6F" stroke="#032F6F" stroke-width="0.2"/>
<path d="M39.6957 7.84523C39.6727 7.72782 39.6305 7.61501 39.5708 7.51134C39.5312 7.40569 39.4748 7.30713 39.4038 7.21948C39.3204 7.13601 39.2789 7.05253 39.1954 6.96906C39.1165 6.87697 39.0163 6.80545 38.9036 6.76067C38.8159 6.68965 38.7174 6.63328 38.6117 6.59373C38.4868 6.55228 38.4033 6.46881 38.2778 6.42679C38.164 6.39211 38.0525 6.35039 37.9439 6.30187C37.8811 6.29149 37.823 6.26239 37.777 6.2184C37.735 6.17695 37.6521 6.17695 37.6101 6.13493C37.568 6.0929 37.4851 6.09348 37.4431 6.05145L37.3182 5.92654C37.2927 5.9067 37.272 5.88141 37.2575 5.85252C37.2431 5.82364 37.2353 5.79188 37.2347 5.75959C37.2014 5.71066 37.1865 5.65151 37.1927 5.59265V5.38426C37.1927 5.34281 37.2347 5.25934 37.2347 5.21732C37.2762 5.17587 37.2762 5.0924 37.3182 5.05037L37.4431 4.92545C37.5001 4.87325 37.5742 4.84358 37.6515 4.84198C37.7155 4.80841 37.7879 4.79402 37.8599 4.80053H38.1103C38.1823 4.79402 38.2547 4.80841 38.3187 4.84198C38.3889 4.85169 38.4585 4.86553 38.5271 4.88343C38.5691 4.88343 38.652 4.92488 38.694 4.92488C38.7775 4.92488 38.819 4.96633 38.861 4.96633L39.0694 5.0498L39.1114 4.79938L39.1949 4.13161V3.96467L39.0279 3.92322C38.9859 3.92322 38.903 3.88177 38.861 3.88177C38.819 3.88177 38.7775 3.84033 38.694 3.84033C38.6254 3.82244 38.5559 3.80859 38.4856 3.79888C38.4022 3.79888 38.3607 3.75743 38.2772 3.75743H38.2335V2.96301H37.2324V3.79715H37.1904C37.0581 3.83509 36.9318 3.89128 36.8151 3.96409C36.7023 4.00888 36.6022 4.08039 36.5232 4.17249C36.4296 4.26062 36.3457 4.35846 36.2728 4.46435C36.1928 4.56169 36.1357 4.67581 36.1058 4.79823L35.9809 5.17356C35.9465 5.30987 35.9326 5.45052 35.9395 5.59092C35.9327 5.70382 35.9467 5.817 35.9809 5.92481C36.004 6.04219 36.0462 6.15498 36.1058 6.25869C36.1473 6.34217 36.2308 6.46708 36.2728 6.55056C36.3563 6.63403 36.3977 6.7175 36.4812 6.80097C36.5601 6.89306 36.6603 6.96458 36.773 7.00936C36.8607 7.08039 36.9592 7.13677 37.0649 7.1763C37.1802 7.22347 37.2918 7.27927 37.3988 7.34325C37.5126 7.37793 37.6241 7.41965 37.7327 7.46816C37.7954 7.47858 37.8536 7.50767 37.8996 7.55164C37.9416 7.59308 38.0245 7.59308 38.0666 7.63511C38.1086 7.67713 38.15 7.71858 38.1915 7.71858L38.3164 7.8435C38.3578 7.88495 38.3578 7.92697 38.3999 8.01044C38.4179 8.07902 38.432 8.1486 38.4419 8.21883V8.42722C38.4315 8.49 38.4024 8.54819 38.3584 8.59416L38.2335 8.71908C38.1859 8.77054 38.1293 8.81287 38.0666 8.844C38.0245 8.88545 37.9416 8.88545 37.8996 8.92747C37.831 8.94536 37.7614 8.9592 37.6912 8.96892H37.1489C37.0787 8.9592 37.0091 8.94536 36.9405 8.92747C36.8519 8.9188 36.7663 8.89027 36.6901 8.844C36.6067 8.80256 36.5232 8.80255 36.4397 8.76053C36.3983 8.76053 36.3563 8.71908 36.3148 8.71908C36.2734 8.71908 36.2313 8.67764 36.1899 8.67764L35.9395 8.55272L35.8974 8.84458L35.814 9.59294V9.71786L35.9389 9.75931C36.065 9.72907 36.1977 9.74373 36.3142 9.80076C36.405 9.84759 36.5042 9.87597 36.6061 9.88423C36.6896 9.92568 36.8145 9.92568 36.94 9.9677C37.0478 10.0019 37.161 10.0159 37.2739 10.0091H37.3573V10.8433H38.3584V9.97173H38.4004C38.5327 9.93376 38.659 9.87757 38.7758 9.80479C38.8959 9.75066 39.0082 9.68056 39.1096 9.5964C39.2032 9.50824 39.2872 9.41041 39.3601 9.30453C39.4388 9.19932 39.5085 9.08763 39.5685 8.97065L39.6934 8.59532C39.7301 8.45944 39.7443 8.31844 39.7354 8.17796C39.7426 8.06555 39.7292 7.95278 39.6957 7.84523Z" fill="#032F6F" stroke="#032F6F" stroke-width="0.2"/>
<path d="M34.8561 13.7682C34.7415 13.63 34.5788 13.5402 34.4008 13.5171C34.2228 13.4939 34.0426 13.539 33.8964 13.6433L27.1381 19.0252L18.418 15.395C18.3149 15.356 18.2038 15.3433 18.0946 15.3578C17.9853 15.3724 17.8815 15.4139 17.7922 15.4785L8.44745 22.1539C8.30516 22.2546 8.20799 22.4071 8.17678 22.5787C8.14558 22.7502 8.18281 22.9271 8.28051 23.0715C8.33672 23.164 8.41662 23.2399 8.51195 23.2912C8.60729 23.3425 8.7146 23.3674 8.82279 23.3634C8.95759 23.3603 9.08834 23.3168 9.19811 23.2385L18.251 16.772L27.0121 20.4016C27.1222 20.4408 27.2399 20.4536 27.3559 20.4391C27.4718 20.4246 27.5828 20.3832 27.6798 20.3181L34.7306 14.7278C34.8689 14.6133 34.9587 14.4507 34.982 14.2727C35.0053 14.0947 34.9603 13.9144 34.8561 13.7682Z" fill="#032F6F" stroke="#032F6F" stroke-width="0.2"/>
<path d="M44.6182 36.6306H41.5309V17.3148C41.5321 17.2268 41.5156 17.1394 41.4825 17.0579C41.4493 16.9763 41.4002 16.9023 41.3379 16.84C41.2757 16.7778 41.2016 16.7286 41.1201 16.6955C41.0385 16.6623 40.9512 16.6459 40.8632 16.647H34.7306C34.6426 16.6459 34.5552 16.6623 34.4737 16.6955C34.3922 16.7286 34.3181 16.7778 34.2558 16.84C34.1936 16.9023 34.1445 16.9763 34.1113 17.0579C34.0782 17.1394 34.0617 17.2268 34.0628 17.3148V36.6306H31.8103V23.9896C31.8114 23.9016 31.7949 23.8143 31.7618 23.7327C31.7286 23.6512 31.6795 23.5771 31.6173 23.5149C31.555 23.4526 31.4809 23.4035 31.3994 23.3703C31.3179 23.3372 31.2305 23.3207 31.1425 23.3219H24.9691C24.881 23.3207 24.7937 23.3372 24.7121 23.3703C24.6306 23.4035 24.5565 23.4526 24.4943 23.5149C24.432 23.5771 24.3829 23.6512 24.3498 23.7327C24.3166 23.8143 24.3001 23.9016 24.3013 23.9896V36.6306H22.0481V22.9874C22.0493 22.8994 22.0328 22.812 21.9997 22.7305C21.9665 22.6489 21.9174 22.5749 21.8551 22.5126C21.7929 22.4504 21.7188 22.4012 21.6373 22.3681C21.5557 22.3349 21.4684 22.3185 21.3804 22.3196H15.2478C15.1598 22.3185 15.0724 22.3349 14.9909 22.3681C14.9094 22.4012 14.8353 22.4504 14.773 22.5126C14.7108 22.5749 14.6617 22.6489 14.6285 22.7305C14.5954 22.812 14.5789 22.8994 14.58 22.9874V36.6306H12.3275V26.91C12.3286 26.822 12.3121 26.7346 12.279 26.6531C12.2458 26.5715 12.1967 26.4974 12.1345 26.4352C12.0722 26.373 11.9981 26.3238 11.9166 26.2907C11.8351 26.2575 11.7477 26.241 11.6597 26.2422H5.48512C5.3971 26.241 5.30974 26.2575 5.2282 26.2907C5.14666 26.3238 5.07258 26.373 5.01034 26.4352C4.9481 26.4974 4.89896 26.5715 4.86581 26.6531C4.83266 26.7346 4.81618 26.822 4.81734 26.91V36.6306H1.68918C1.51555 36.6357 1.35073 36.7083 1.22972 36.8329C1.10871 36.9576 1.04102 37.1244 1.04102 37.2981C1.04102 37.4718 1.10871 37.6387 1.22972 37.7633C1.35073 37.888 1.51555 37.9605 1.68918 37.9656H44.5762C44.6642 37.9668 44.7516 37.9503 44.8331 37.9172C44.9146 37.884 44.9887 37.8349 45.051 37.7726C45.1132 37.7104 45.1624 37.6363 45.1955 37.5548C45.2286 37.4732 45.2451 37.3859 45.244 37.2978C45.2533 37.2115 45.2439 37.1241 45.2164 37.0417C45.1889 36.9593 45.1438 36.8838 45.0844 36.8205C45.025 36.7571 44.9525 36.7073 44.8721 36.6746C44.7916 36.6418 44.705 36.6268 44.6182 36.6306ZM10.9505 36.6306H6.15289V27.5777H10.9505V36.6306ZM20.7126 36.6306H15.915V23.6557H20.7126V36.6306ZM30.4333 36.6306H25.6357V24.6568H30.4333V36.6306ZM40.1954 36.6306H35.3984V17.982H40.196L40.1954 36.6306Z" fill="#032F6F" stroke="#032F6F" stroke-width="0.2"/>
</svg>
