<svg width="64" height="59" viewBox="0 0 64 59" fill="none" xmlns="http://www.w3.org/2000/svg">
<path d="M39.2531 16.0081C39.3676 16.1227 39.5036 16.2135 39.6533 16.2755C39.8029 16.3375 39.9633 16.3694 40.1253 16.3694C40.2873 16.3694 40.4477 16.3375 40.5973 16.2755C40.747 16.2135 40.883 16.1227 40.9975 16.0081C41.1121 15.8936 41.2029 15.7576 41.2649 15.608C41.3269 15.4583 41.3588 15.2979 41.3588 15.1359C41.3588 14.9739 41.3269 14.8135 41.2649 14.6639C41.2029 14.5142 41.1121 14.3782 40.9975 14.2637L40.981 14.2471C40.8664 14.1326 40.7304 14.0417 40.5808 13.9798C40.4311 13.9178 40.2707 13.8859 40.1087 13.8859C39.9468 13.8859 39.7864 13.9178 39.6367 13.9798C39.4871 14.0417 39.3511 14.1326 39.2365 14.2471C39.122 14.3617 39.0311 14.4977 38.9691 14.6473C38.9072 14.797 38.8752 14.9574 38.8752 15.1194C38.8752 15.2813 38.9072 15.4417 38.9691 15.5914C39.0311 15.741 39.122 15.877 39.2365 15.9916L39.2531 16.0081Z" fill="#032F6F"/>
<path d="M59.149 27.68L63.4485 23.3785C63.621 23.2061 63.7386 22.9863 63.7862 22.747C63.8338 22.5077 63.8094 22.2597 63.716 22.0343C63.6226 21.8089 63.4645 21.6163 63.2616 21.4808C63.0588 21.3453 62.8202 21.2731 62.5763 21.2732H53.6647C52.6776 17.2433 50.7712 13.4965 48.0948 10.3261C45.4185 7.15568 42.0447 4.64764 38.2376 2.99827C34.4305 1.34889 30.2933 0.602925 26.1499 0.818757C22.0065 1.03459 17.9693 2.20636 14.3541 4.24236C10.739 6.27836 7.64408 9.12335 5.31159 12.5547C2.97911 15.986 1.47234 19.9106 0.909212 24.0212C0.346086 28.1318 0.741881 32.317 2.06562 36.2492C3.38936 40.1814 5.60513 43.7539 8.53952 46.6872C10.0294 48.1775 11.6881 49.4889 13.4821 50.5946L9.7667 57.159C9.6604 57.3466 9.60514 57.5588 9.60644 57.7744C9.60774 57.9901 9.66556 58.2016 9.77412 58.3879C9.88268 58.5742 10.0382 58.7287 10.2252 58.8362C10.4121 58.9436 10.624 59.0001 10.8396 59.0001H17.1908C17.4091 59.0002 17.6235 58.9423 17.8121 58.8323C18.0008 58.7224 18.1568 58.5643 18.2643 58.3743L20.8916 53.7331C25.2624 54.8363 29.839 54.8363 34.2098 53.7331L36.8371 58.3743C36.9446 58.5643 37.1006 58.7224 37.2892 58.8323C37.4779 58.9423 37.6923 59.0002 37.9106 59.0001H44.2618C44.4774 59.0002 44.6892 58.9437 44.8762 58.8364C45.0631 58.729 45.2187 58.5745 45.3273 58.3883C45.4359 58.2021 45.4938 57.9907 45.4952 57.7751C45.4966 57.5595 45.4415 57.3473 45.3353 57.1597L41.6193 50.5946C43.4128 49.4887 45.0711 48.1774 46.5606 46.6872C50.0399 43.2163 52.4975 38.8554 53.6647 34.0815H62.5756C62.8196 34.0817 63.0582 34.0095 63.2612 33.8741C63.4642 33.7387 63.6224 33.546 63.7159 33.3206C63.8093 33.0952 63.8338 32.8471 63.7862 32.6078C63.7386 32.3685 63.6211 32.1486 63.4485 31.9761L59.149 27.68ZM56.892 26.4442H48.2825L50.9865 23.7401H59.5961L56.892 26.4442ZM16.4722 56.5358H12.9549L15.6391 51.7933C16.5598 52.2497 17.5062 52.6521 18.4736 52.9986L16.4722 56.5358ZM42.1465 56.5358H38.6292L36.6265 52.9993C37.5939 52.6528 38.5403 52.2503 39.461 51.794L42.1465 56.5358ZM44.8175 44.9461C43.2122 46.5524 41.3917 47.9281 39.408 49.0336C39.3842 49.0455 39.3597 49.0561 39.3358 49.07C39.312 49.0839 39.3074 49.0886 39.2928 49.0972C37.7915 49.9235 36.2063 50.5873 34.5642 51.0774C34.4989 51.0907 34.4349 51.1093 34.3728 51.133C29.9142 52.417 25.1839 52.417 20.7253 51.133C20.6629 51.1093 20.5987 51.0907 20.5333 51.0774C18.8911 50.5873 17.306 49.9235 15.8046 49.0972C15.7901 49.0879 15.7768 49.0786 15.7616 49.07C15.7464 49.0614 15.7132 49.0455 15.6894 49.0336C13.7062 47.9271 11.8864 46.5506 10.282 44.9434C7.63806 42.2968 5.6376 39.0781 4.43496 35.5358C3.23233 31.9934 2.85966 28.2221 3.34574 24.5129C3.83182 20.8036 5.16363 17.2557 7.2384 14.1428C9.31318 11.0299 12.0754 8.43538 15.312 6.55939C18.5485 4.68339 22.1729 3.57611 25.9052 3.323C29.6376 3.06989 33.3782 3.67772 36.8384 5.09958C40.2986 6.52144 43.3859 8.71932 45.8619 11.5236C48.3379 14.3278 50.1366 17.6635 51.119 21.2732H50.4805C50.3186 21.2731 50.1582 21.3049 50.0085 21.3669C49.8589 21.4288 49.7229 21.5196 49.6083 21.6341L46.3354 24.9077C46.0071 22.6615 45.2791 20.4923 44.1856 18.5029C44.0276 18.2165 43.7622 18.0046 43.4479 17.9139C43.1336 17.8232 42.7962 17.861 42.5098 18.0191C42.2234 18.1772 42.0115 18.4425 41.9208 18.7568C41.8301 19.0711 41.8679 19.4086 42.026 19.695C43.1712 21.7738 43.8509 24.0767 44.0181 26.4442H38.5802C38.265 23.6239 36.8819 21.0314 34.715 19.1991C32.548 17.3668 29.7617 16.4337 26.9283 16.5915C24.0949 16.7494 21.4295 17.9861 19.4795 20.0478C17.5295 22.1094 16.4429 24.8395 16.4429 27.6773C16.4429 30.5151 17.5295 33.2452 19.4795 35.3069C21.4295 37.3685 24.0949 38.6053 26.9283 38.7631C29.7617 38.921 32.548 37.9879 34.715 36.1556C36.8819 34.3232 38.265 31.7307 38.5802 28.9105H44.0108C43.739 32.4673 42.3225 35.8405 39.9733 38.525C37.6242 41.2095 34.4687 43.0609 30.9793 43.802C27.4899 44.5432 23.8544 44.1343 20.6168 42.6365C17.3793 41.1386 14.714 38.6325 13.0199 35.4932C11.3257 32.354 10.694 28.7504 11.2191 25.2221C11.7443 21.6937 13.3981 18.4303 15.933 15.9205C18.4679 13.4107 21.7475 11.7894 25.281 11.2993C28.8144 10.8093 32.4114 11.4768 35.5337 13.202C35.6755 13.2803 35.8314 13.3299 35.9923 13.3479C36.1533 13.366 36.3162 13.3522 36.4719 13.3072C36.6275 13.2623 36.7727 13.1872 36.8993 13.0861C37.0259 12.9851 37.1313 12.8601 37.2096 12.7183C37.2879 12.5764 37.3375 12.4206 37.3555 12.2596C37.3735 12.0987 37.3597 11.9357 37.3148 11.7801C37.2699 11.6245 37.1947 11.4793 37.0937 11.3527C36.9926 11.2261 36.8676 11.1206 36.7258 11.0424C33.1539 9.08563 29.0507 8.31998 25.0135 8.85688C21.5154 9.32825 18.2178 10.7651 15.4908 13.0063C12.7638 15.2474 10.7154 18.2042 9.57524 21.5448C8.43513 24.8853 8.24849 28.4775 9.03627 31.9182C9.82406 35.359 11.5551 38.5121 14.0351 41.0238C16.5152 43.5355 19.6461 45.3064 23.0765 46.1377C26.507 46.9691 30.1013 46.828 33.456 45.7304C36.8108 44.6327 39.7933 42.6219 42.0688 39.9235C44.3444 37.2252 45.823 33.9461 46.3387 30.4542L49.607 33.7199C49.7216 33.8344 49.8576 33.9252 50.0072 33.9871C50.1569 34.0491 50.3173 34.0809 50.4792 34.0808H51.1176C50.004 38.1907 47.8316 41.9364 44.8175 44.9441V44.9461ZM31.5786 25.3514C31.4977 25.2111 31.3899 25.0881 31.2614 24.9895C31.1329 24.8908 30.9863 24.8185 30.8298 24.7765C30.6733 24.7346 30.5101 24.7239 30.3495 24.745C30.1889 24.7662 30.0341 24.8187 29.8938 24.8998L26.9341 26.6084C26.7467 26.7167 26.591 26.8723 26.4828 27.0598C26.3746 27.2472 26.3176 27.4599 26.3176 27.6763C26.3176 27.8928 26.3746 28.1054 26.4828 28.2929C26.591 28.4803 26.7467 28.636 26.9341 28.7442L29.8938 30.4529C30.1172 30.5819 30.3755 30.6376 30.6322 30.612C30.8889 30.5865 31.1311 30.4811 31.3247 30.3106C31.5183 30.1401 31.6536 29.9131 31.7113 29.6617C31.7691 29.4103 31.7466 29.1471 31.6468 28.9091H36.0967C35.8349 30.7551 34.9781 32.4653 33.6562 33.7802C32.2816 35.1543 30.4834 36.0243 28.5527 36.2491C26.6221 36.4739 24.6721 36.0405 23.0185 35.019C21.3649 33.9975 20.1045 32.4478 19.4414 30.6207C18.7783 28.7936 18.7513 26.7962 19.3649 24.9519C19.9784 23.1076 21.1965 21.5244 22.822 20.4587C24.4474 19.3929 26.385 18.907 28.321 19.0797C30.257 19.2524 32.0781 20.0735 33.4893 21.41C34.9004 22.7466 35.8192 24.5204 36.0967 26.4442H31.6468C31.7206 26.2691 31.7529 26.0794 31.741 25.8898C31.7292 25.7002 31.6736 25.5159 31.5786 25.3514ZM50.9911 31.6145L48.2871 28.9105H56.8966L59.6007 31.6145H50.9911Z" fill="#032F6F"/>
</svg>
