<?xml version="1.0" encoding="UTF-8" standalone="no"?>
<svg
   xmlns:dc="http://purl.org/dc/elements/1.1/"
   xmlns:cc="http://creativecommons.org/ns#"
   xmlns:rdf="http://www.w3.org/1999/02/22-rdf-syntax-ns#"
   xmlns:svg="http://www.w3.org/2000/svg"
   xmlns="http://www.w3.org/2000/svg"
   xmlns:sodipodi="http://sodipodi.sourceforge.net/DTD/sodipodi-0.dtd"
   xmlns:inkscape="http://www.inkscape.org/namespaces/inkscape"
   width="10"
   height="8"
   viewBox="0 0 10 8"
   fill="none"
   version="1.1"
   id="svg4"
   sodipodi:docname="group-26dddsdsd840.svg"
   inkscape:version="1.0.2 (e86c870879, 2021-01-15, custom)">
  <metadata
     id="metadata10">
    <rdf:RDF>
      <cc:Work
         rdf:about="">
        <dc:format>image/svg+xml</dc:format>
        <dc:type
           rdf:resource="http://purl.org/dc/dcmitype/StillImage" />
        <dc:title></dc:title>
      </cc:Work>
    </rdf:RDF>
  </metadata>
  <defs
     id="defs8" />
  <sodipodi:namedview
     pagecolor="#ffffff"
     bordercolor="#666666"
     borderopacity="1"
     objecttolerance="10"
     gridtolerance="10"
     guidetolerance="10"
     inkscape:pageopacity="0"
     inkscape:pageshadow="2"
     inkscape:window-width="2400"
     inkscape:window-height="1284"
     id="namedview6"
     showgrid="false"
     inkscape:zoom="105.25"
     inkscape:cx="5"
     inkscape:cy="4"
     inkscape:window-x="-9"
     inkscape:window-y="-9"
     inkscape:window-maximized="1"
     inkscape:current-layer="svg4" />
  <path
     fill-rule="evenodd"
     clip-rule="evenodd"
     d="m 3.4177616,7.6932256 c 0.69995,0.00631 1.39414,-0.12668 2.04203,-0.39121 0.6479,-0.26453 1.23651,-0.6553 1.73147,-1.14948 0.49496,-0.49419 0.88634,-1.08188 1.15128,-1.72877 0.26495,-0.64688 0.39814,-1.33999 0.39182,-2.03885 v -0.2528 c 0.3536,-0.26832 0.66138,-0.592 0.9114,-0.9585 -0.33949,0.14734 -0.69698,0.24926 -1.0632,0.30312 0.37658,-0.23612 0.66206,-0.59252004 0.81,-1.01121804 -0.36587,0.203493 -0.75762,0.356648 -1.1646,0.455288 -0.17112,-0.19297 -0.38163,-0.347133 -0.61738,-0.452117 -0.23576,-0.104983 -0.49129,-0.158356 -0.74942,-0.156531 -0.49444,0.007571 -0.9665,0.207048 -1.31617,0.556168 -0.34966,0.34911004 -0.54945,0.82044004 -0.55703,1.31411004 -0.0116,0.13682 0.00557,0.27456 0.0504,0.40437 -0.74481,-0.03613 -1.4733,-0.23071 -2.13669,-0.57073 -0.66339,-0.34001 -1.24637,-0.8176 -1.709912,-1.40079204 -0.166275,0.292152 -0.25353303,0.62248204 -0.25319803,0.95850204 0.006716,0.30553 0.083166,0.6055 0.22353203,0.87708 0.140366,0.27157 0.340948,0.50759 0.586468,0.69007 -0.30486,-0.00587 -0.602574,-0.09316 -0.86220203,-0.2528 -5.34e-4,0.43302 0.15128903,0.85248 0.42895903,1.18512 0.277673,0.33264 0.663543,0.55733 1.090243,0.63483 -0.1649,0.04434 -0.33598,0.06134 -0.5064,0.05032 -0.12043,0.00822 -0.24124,-0.00893 -0.3546,-0.05032 0.12408,0.37455 0.36087,0.70175 0.67807,0.93697 0.31719,0.23522 0.69935,0.36701 1.09433,0.37738 -0.66562,0.51904 -1.48465,0.80342 -2.32920203,0.80874 -0.153671,0.00873 -0.307732,-0.00787 -0.455999,-0.04913 0.83788103,0.60745 1.85067103,0.92679 2.88600103,0.90998"
     fill="white"
     id="path2"
     style="fill:#b3b3b3" />
</svg>
