<svg width="38" height="39" viewBox="0 0 38 39" fill="none" xmlns="http://www.w3.org/2000/svg">
<path d="M11.1193 13.9544V15.6191C11.1193 15.889 11.0092 16.1343 10.8315 16.312C10.7216 16.4218 10.5857 16.506 10.434 16.5542V28.7963C10.5857 28.8445 10.7216 28.9286 10.8315 29.0385C11.0092 29.2162 11.1193 29.4614 11.1193 29.7314V31.3956H16.3782V29.7314C16.3782 29.4614 16.4886 29.2162 16.6662 29.0385L16.6668 29.0391C16.7769 28.9291 16.9124 28.8449 17.0635 28.7966V16.5539C16.9124 16.5056 16.7769 16.4212 16.6668 16.3114L16.6662 16.312C16.4886 16.1343 16.3782 15.8891 16.3782 15.6191V13.9544H11.1193ZM5.11976 35.8934C4.9567 35.8934 4.82436 35.7611 4.82436 35.598C4.82436 35.4348 4.9567 35.3026 5.11976 35.3026H32.8817C33.0448 35.3026 33.1771 35.4348 33.1771 35.598C33.1771 35.7611 33.0448 35.8934 32.8817 35.8934H5.11976ZM10.5286 31.3956V29.7314C10.5286 29.6244 10.4845 29.527 10.4138 29.4562C10.343 29.3855 10.2456 29.3415 10.1386 29.3415H6.17327C6.0656 29.3415 5.96812 29.385 5.89812 29.455V29.4562C5.82737 29.527 5.78336 29.6244 5.78336 29.7314V31.3956H10.5286ZM5.19257 31.3956V29.7314C5.19257 29.4614 5.3029 29.2162 5.48043 29.0385L5.48102 29.0391C5.59105 28.9291 5.72679 28.8449 5.87788 28.7966V16.5539C5.72679 16.5056 5.59105 16.4212 5.48102 16.3114L5.48043 16.312C5.3029 16.1343 5.19257 15.8891 5.19257 15.6191V13.9544H2.63904C2.3788 13.9544 2.13628 13.8716 1.93822 13.7256C1.74016 13.5796 1.58892 13.3715 1.51123 13.1211C1.43413 12.872 1.44152 12.6158 1.52231 12.3838C1.60325 12.1516 1.75715 11.9459 1.97293 11.7981L19.1068 0.0769963C19.2694 -0.0339239 19.4797 -0.0218127 19.6271 0.0927999L36.1192 11.8108C36.3306 11.961 36.4799 12.167 36.557 12.3983C36.6341 12.6294 36.6382 12.8838 36.5593 13.1307C36.48 13.3791 36.3295 13.5846 36.1337 13.7277C35.9355 13.8725 35.694 13.9544 35.4354 13.9544H33.4908V15.6191C33.4908 15.889 33.3805 16.1343 33.2029 16.312C33.0929 16.4218 32.9572 16.506 32.8055 16.5542V28.8419C32.9242 28.891 33.0369 28.958 33.134 29.0387C33.345 29.214 33.4908 29.4567 33.4908 29.7314V31.3956H34.1002C34.2768 31.3956 34.4294 31.499 34.5004 31.6485L37.9393 37.4909C38.0626 37.7011 37.9921 37.9717 37.7818 38.0948C37.7115 38.136 37.6344 38.1557 37.5585 38.1555V38.1572H0.442942C0.198357 38.1572 0 37.9588 0 37.7141C0 37.6064 0.0384012 37.5077 0.102206 37.4309L4.27094 31.5825C4.3569 31.4615 4.49293 31.3969 4.63088 31.3968V31.3956H5.19257ZM32.9 31.3956V29.7314C32.9 29.6466 32.8418 29.5608 32.7579 29.4911C32.6474 29.3992 32.5015 29.3416 32.3707 29.3416H28.4053C28.3263 29.3416 28.2712 29.3679 28.2372 29.4104C28.1812 29.4807 28.1548 29.5961 28.1548 29.7314V31.3956H32.9ZM27.564 31.3956V29.7314C27.564 29.4686 27.6318 29.2242 27.7757 29.0435C27.8918 28.8979 28.0488 28.7975 28.2493 28.7635V16.5539C28.0982 16.5056 27.9625 16.4212 27.8525 16.3114L27.8519 16.312C27.6742 16.1343 27.564 15.8891 27.564 15.6191V13.9544H22.3051V15.6191C22.3051 15.889 22.1948 16.1343 22.0171 16.312C21.9072 16.4218 21.7714 16.506 21.6198 16.5542V28.7963C21.7714 28.8445 21.9072 28.9286 22.0171 29.0385C22.1948 29.2162 22.3051 29.4614 22.3051 29.7314V31.3956H27.564ZM21.7144 31.3956V29.7314C21.7144 29.6244 21.6703 29.527 21.5996 29.4562C21.5288 29.3855 21.4312 29.3415 21.3243 29.3415H17.3589C17.2514 29.3415 17.1539 29.385 17.0838 29.455V29.4562C17.013 29.527 16.969 29.6244 16.969 29.7314V31.3956H21.7144ZM33.8488 32.2817H4.85759L1.30135 37.271H36.7855L33.8488 32.2817ZM19.2892 3.57608L11.3599 9.06803H26.9236L19.2892 3.57608ZM10.5266 9.10776L19.166 3.12413C19.2407 3.07273 19.3426 3.07066 19.4205 3.12678L27.7228 9.09919C27.7876 9.13774 27.8311 9.20863 27.8311 9.28957C27.8311 9.41186 27.7318 9.51112 27.6095 9.51112H10.652V9.51038C10.582 9.51023 10.5132 9.477 10.4704 9.41497C10.4011 9.31468 10.4262 9.17703 10.5266 9.10776ZM32.9 13.9544H28.1548V15.6191C28.1548 15.726 28.1988 15.8235 28.2696 15.8943V15.8954C28.3396 15.9655 28.4371 16.009 28.5447 16.009H32.5101C32.617 16.009 32.7145 15.965 32.7852 15.8943C32.856 15.8235 32.9 15.726 32.9 15.6191V13.9544ZM21.7144 13.9544H16.969V15.6191C16.969 15.726 17.013 15.8235 17.0838 15.8943V15.8954C17.1539 15.9655 17.2514 16.009 17.3589 16.009H21.3243C21.4312 16.009 21.5288 15.965 21.5996 15.8943C21.6703 15.8235 21.7144 15.726 21.7144 15.6191V13.9544ZM10.5286 13.9544H5.78336V15.6191C5.78336 15.726 5.82737 15.8235 5.89812 15.8943V15.8954C5.96812 15.9655 6.0656 16.009 6.17327 16.009H10.1386C10.2456 16.009 10.343 15.965 10.4138 15.8943C10.4845 15.8235 10.5286 15.726 10.5286 15.6191V13.9544ZM35.6068 12.5308L19.3515 0.980899L2.47126 12.5284C2.41543 12.5668 2.37614 12.6181 2.3565 12.6746C2.33671 12.7313 2.33567 12.7962 2.35591 12.8615C2.37555 12.9251 2.41277 12.9771 2.46092 13.0126C2.50907 13.0482 2.57066 13.0682 2.63904 13.0682H35.4354C35.5035 13.0682 35.5642 13.0489 35.611 13.0146C35.6603 12.9786 35.6983 12.9267 35.7182 12.8641C35.7387 12.7999 35.7383 12.7355 35.7194 12.6786C35.7005 12.6219 35.6621 12.5701 35.6068 12.5308ZM28.8401 28.7508H32.2147V16.5998H28.8401V28.7508ZM17.6543 28.7507H21.0289V16.5998H17.6543V28.7507ZM9.84324 28.7507V16.5998H6.46867V28.7507H9.84324Z" fill="white"/>
</svg>
