<svg width="23" height="26" viewBox="0 0 23 26" fill="none" xmlns="http://www.w3.org/2000/svg">
<path d="M2.02941 25.6213H6.76471C7.88088 25.6213 8.79412 24.6066 8.79412 23.4904V18.6199C8.79412 17.1316 10.0118 15.914 11.5 15.914C12.8191 15.914 13.8676 16.9625 13.8676 18.2816V23.4904C13.8676 24.6066 14.7809 25.6213 15.8971 25.6213H20.9706C22.0868 25.6213 23 24.6066 23 23.4904V10.9419C23 10.4007 22.7632 9.85956 22.3574 9.45368L12.8868 0.558088C12.1088 -0.186029 10.8912 -0.186029 10.1132 0.558088L0.642648 9.45368C0.236765 9.85956 0 10.4007 0 10.9419V23.4904C0 24.6066 0.913235 25.6213 2.02941 25.6213ZM1.35294 10.9419C1.35294 10.7728 1.42059 10.5699 1.55588 10.4346L11.0265 1.53897C11.2971 1.30221 11.7029 1.30221 11.9397 1.53897L21.4103 10.4346C21.5456 10.5699 21.6132 10.739 21.6132 10.9419V23.4904C21.6132 23.8625 21.3088 24.2684 20.9368 24.2684H15.8971C15.525 24.2684 15.2206 23.8625 15.2206 23.4904V18.2816C15.2206 16.2184 13.5632 14.561 11.5 14.561C9.26765 14.561 7.44118 16.3875 7.44118 18.6199V23.4904C7.44118 23.8625 7.13676 24.2684 6.76471 24.2684H2.02941C1.65735 24.2684 1.35294 23.8625 1.35294 23.4904V10.9419Z" fill="white"/>
</svg>
