<svg width="105" height="105" viewBox="0 0 105 105" fill="none" xmlns="http://www.w3.org/2000/svg">
<path d="M52.25 0C81.1093 0 104.5 23.3907 104.5 52.25C104.5 81.1093 81.1093 104.5 52.25 104.5C23.3907 104.5 0 81.1093 0 52.25C0 23.3907 23.3907 0 52.25 0ZM52.25 5.5C26.4283 5.5 5.5 26.4283 5.5 52.25C5.5 78.0717 26.4283 99 52.25 99C78.0717 99 99 78.0717 99 52.25C99 26.4283 78.0717 5.5 52.25 5.5ZM34.7491 64.2509C44.4155 73.9173 60.0845 73.9173 69.7509 64.2509C70.8248 63.1769 72.566 63.1769 73.64 64.2509C74.7139 65.3248 74.7139 67.066 73.64 68.14C61.8257 79.9543 42.6743 79.9543 30.86 68.14C29.7861 67.066 29.7861 65.3248 30.86 64.2509C31.934 63.1769 33.6752 63.1769 34.7491 64.2509ZM38.5 33C43.2469 33 46.9259 35.4527 49.2097 40.0202C49.8889 41.3786 49.3383 43.0305 47.9798 43.7097C46.6214 44.3889 44.9695 43.8383 44.2903 42.4798C42.9074 39.714 41.0864 38.5 38.5 38.5C35.9136 38.5 34.0926 39.714 32.7097 42.4798C32.0305 43.8383 30.3786 44.3889 29.0202 43.7097C27.6617 43.0305 27.1111 41.3786 27.7903 40.0202C30.0741 35.4527 33.7531 33 38.5 33ZM66 33C70.7469 33 74.4259 35.4527 76.7097 40.0202C77.3889 41.3786 76.8383 43.0305 75.4798 43.7097C74.1214 44.3889 72.4696 43.8383 71.7903 42.4798C70.4074 39.714 68.5864 38.5 66 38.5C63.4136 38.5 61.5926 39.714 60.2097 42.4798C59.5305 43.8383 57.8786 44.3889 56.5202 43.7097C55.1617 43.0305 54.6111 41.3786 55.2903 40.0202C57.5741 35.4527 61.2531 33 66 33Z" fill="#032F6F"/>
</svg>
