<svg width="81" height="59" viewBox="0 0 81 59" fill="none" xmlns="http://www.w3.org/2000/svg">
<path d="M79.0558 20.2222H75.4855C75.4052 19.9947 75.2564 19.7977 75.0595 19.6584C74.8626 19.519 74.6273 19.4441 74.3861 19.444H72.7516C72.4469 19.4513 72.157 19.5774 71.944 19.7956C71.7311 20.0137 71.6118 20.3064 71.6118 20.6113C71.6118 20.9161 71.7311 21.2089 71.944 21.427C72.157 21.6451 72.4469 21.7713 72.7516 21.7785H73.2185V34.465H69.2774C68.9726 34.4723 68.6827 34.5984 68.4698 34.8166C68.2568 35.0347 68.1376 35.3274 68.1376 35.6323C68.1376 35.9371 68.2568 36.2299 68.4698 36.448C68.6827 36.6661 68.9726 36.7923 69.2774 36.7995H73.2198V39.6771H66.215V21.7792H67.7912C68.096 21.7719 68.3858 21.6458 68.5988 21.4277C68.8118 21.2095 68.931 20.9168 68.931 20.6119C68.931 20.3071 68.8118 20.0143 68.5988 19.7962C68.3858 19.5781 68.096 19.4519 67.7912 19.4447H65.0481C64.8947 19.4446 64.7429 19.4747 64.6012 19.5334C64.4595 19.592 64.3307 19.678 64.2223 19.7865C64.1138 19.8949 64.0278 20.0237 63.9692 20.1653C63.9105 20.307 63.8804 20.4589 63.8805 20.6123V21.4653C63.5275 21.1726 63.1639 20.8798 62.7917 20.5818C62.3619 20.2368 61.9169 19.8811 61.4731 19.5103C58.6333 17.142 56.065 16.1764 52.6086 16.1764H52.555L46.9793 16.432C46.1071 16.4381 45.2676 16.7651 44.6209 17.3505C43.9743 17.936 43.5658 18.7389 43.4732 19.6063C43.4732 19.6374 43.4679 19.6692 43.466 19.7003H42.7719C41.8895 19.698 41.0373 20.0213 40.3784 20.6083C39.7196 20.0213 38.8674 19.698 37.985 19.7003H37.2896C37.2896 19.6699 37.285 19.6394 37.2817 19.6096C37.1902 18.7414 36.7821 17.9373 36.1354 17.3509C35.4886 16.7646 34.6486 16.437 33.7756 16.4307L28.1999 16.175H28.1463C24.6899 16.175 22.1196 17.1406 19.2811 19.5089C18.8374 19.8791 18.393 20.2374 17.9625 20.5805C17.591 20.8792 17.2267 21.1712 16.8744 21.464V20.6129C16.8744 20.4596 16.8442 20.3078 16.7855 20.1661C16.7269 20.0245 16.6409 19.8957 16.5324 19.7873C16.424 19.6789 16.2953 19.5929 16.1536 19.5342C16.012 19.4755 15.8602 19.4453 15.7068 19.4453H6.37011C6.12882 19.4455 5.8935 19.5204 5.69652 19.6597C5.49953 19.7991 5.35055 19.996 5.27008 20.2235H1.70109C1.39166 20.2235 1.09488 20.3463 0.875954 20.565C0.657028 20.7837 0.53386 21.0803 0.533508 21.3898V40.0658C0.533421 40.2192 0.563563 40.3711 0.622208 40.5128C0.680854 40.6545 0.766855 40.7832 0.875292 40.8916C0.98373 41.0001 1.11248 41.0861 1.25418 41.1447C1.39587 41.2034 1.54774 41.2335 1.70109 41.2334H5.27074C5.35101 41.4609 5.49984 41.6579 5.69674 41.7973C5.89363 41.9366 6.12889 42.0115 6.37011 42.0116H15.7081C15.8615 42.0117 16.0134 41.9815 16.1551 41.9229C16.2968 41.8643 16.4255 41.7783 16.5339 41.6698C16.6424 41.5614 16.7284 41.4326 16.787 41.2909C16.8457 41.1492 16.8758 40.9974 16.8757 40.844V40.5553C17.2817 40.6593 17.6991 40.712 18.1182 40.7122H34.5167C34.984 40.7136 35.4469 40.6221 35.8786 40.443C36.3102 40.2639 36.702 40.0009 37.0312 39.6691C37.3603 39.3374 37.6203 38.9436 37.796 38.5105C37.9716 38.0775 38.0595 37.6138 38.0545 37.1465C38.0511 36.6778 37.9528 36.2147 37.7658 35.7849C38.4144 35.5248 38.9705 35.077 39.3631 34.4989C39.7556 33.9207 39.9666 33.2386 39.9692 32.5398C39.9738 32.0024 39.8498 31.4717 39.6076 30.9921C39.8854 30.8522 40.1439 30.6768 40.3765 30.4702C40.609 30.6768 40.8675 30.8522 41.1454 30.9921C40.9037 31.4724 40.7804 32.0035 40.7857 32.5411C40.7883 33.2399 40.9993 33.922 41.3918 34.5002C41.7844 35.0783 42.3405 35.5261 42.9891 35.7862C42.8018 36.2159 42.7036 36.6792 42.7004 37.1479C42.6953 37.6152 42.7831 38.0788 42.9588 38.5119C43.1344 38.9449 43.3944 39.3387 43.7236 39.6704C44.0527 40.0021 44.4446 40.2651 44.8763 40.4441C45.308 40.623 45.7709 40.7144 46.2382 40.7129H55.3776C55.6823 40.7056 55.9722 40.5795 56.1852 40.3614C56.3981 40.1432 56.5174 39.8505 56.5174 39.5456C56.5174 39.2408 56.3981 38.948 56.1852 38.7299C55.9722 38.5118 55.6823 38.3856 55.3776 38.3784H46.2382C46.0807 38.3799 45.9245 38.3501 45.7786 38.2909C45.6326 38.2316 45.4999 38.1441 45.388 38.0332C45.2761 37.9224 45.1873 37.7905 45.1267 37.6451C45.0661 37.4997 45.0349 37.3438 45.0349 37.1863C45.0364 36.8917 45.151 36.6089 45.3549 36.3964C45.5589 36.1838 45.8367 36.0576 46.1309 36.0439H46.882C47.1867 36.0366 47.4766 35.9104 47.6895 35.6923C47.9025 35.4742 48.0217 35.1815 48.0217 34.8766C48.0217 34.5718 47.9025 34.279 47.6895 34.0609C47.4766 33.8428 47.1867 33.7166 46.882 33.7094H44.3223C44.0087 33.7134 43.7063 33.593 43.4814 33.3746C43.2564 33.1561 43.1273 32.8573 43.1222 32.5438C43.1424 32.2453 43.2682 31.9639 43.477 31.7498C43.6859 31.5357 43.9642 31.403 44.262 31.3755H46.0031C46.1587 31.3792 46.3135 31.3518 46.4584 31.2948C46.6033 31.2378 46.7353 31.1524 46.8466 31.0436C46.958 30.9349 47.0465 30.805 47.107 30.6615C47.1674 30.518 47.1985 30.3639 47.1985 30.2083C47.1985 30.0526 47.1674 29.8985 47.107 29.755C47.0465 29.6116 46.958 29.4816 46.8466 29.3729C46.7353 29.2641 46.6033 29.1787 46.4584 29.1217C46.3135 29.0648 46.1587 29.0373 46.0031 29.041H42.7719C42.4642 29.046 42.1662 28.9336 41.9385 28.7267C41.7107 28.5197 41.5704 28.2338 41.546 27.9271C41.545 27.6082 41.6618 27.3002 41.874 27.0623C42.0862 26.8243 42.3789 26.673 42.6957 26.6376H45.1905C45.4953 26.6304 45.7851 26.5042 45.9981 26.2861C46.2111 26.068 46.3303 25.7752 46.3303 25.4704C46.3303 25.1655 46.2111 24.8728 45.9981 24.6546C45.7851 24.4365 45.4953 24.3104 45.1905 24.3031H42.3116C42.0787 24.2168 41.8792 24.0589 41.7416 23.8521C41.6041 23.6453 41.5356 23.4002 41.546 23.1521C41.5706 22.8452 41.711 22.5591 41.9388 22.3519C42.1666 22.1448 42.4647 22.0321 42.7726 22.0368H47.2654C47.421 22.0405 47.5758 22.0131 47.7207 21.9561C47.8656 21.8991 47.9976 21.8137 48.1089 21.7049C48.2203 21.5962 48.3088 21.4663 48.3692 21.3228C48.4297 21.1793 48.4608 21.0252 48.4608 20.8696C48.4608 20.7139 48.4297 20.5598 48.3692 20.4163C48.3088 20.2729 48.2203 20.1429 48.1089 20.0342C47.9976 19.9254 47.8656 19.84 47.7207 19.783C47.5758 19.7261 47.421 19.6986 47.2654 19.7023H45.817C45.8797 19.4341 46.032 19.1954 46.2488 19.0255C46.4655 18.8556 46.7337 18.7647 47.0091 18.7678C47.0277 18.7678 47.0449 18.7678 47.0628 18.7678L52.6358 18.5122C55.5147 18.5168 57.5757 19.3016 59.9784 21.3043C60.442 21.6891 60.893 22.0534 61.3321 22.405C62.2254 23.0886 63.0766 23.8255 63.8812 24.6117V38.0777C63.4975 38.2773 63.0712 38.3811 62.6387 38.3804H60.3208C60.1652 38.3767 60.0104 38.4041 59.8655 38.4611C59.7206 38.5181 59.5886 38.6035 59.4773 38.7122C59.3659 38.821 59.2774 38.9509 59.2169 39.0944C59.1565 39.2379 59.1254 39.3919 59.1254 39.5476C59.1254 39.7033 59.1565 39.8574 59.2169 40.0008C59.2774 40.1443 59.3659 40.2742 59.4773 40.383C59.5886 40.4918 59.7206 40.5771 59.8655 40.6341C60.0104 40.6911 60.1652 40.7186 60.3208 40.7149H62.6387C63.0578 40.7143 63.4751 40.6616 63.8812 40.5579V40.8467C63.8811 41 63.9112 41.1519 63.9699 41.2936C64.0285 41.4353 64.1145 41.564 64.2229 41.6725C64.3314 41.7809 64.4601 41.8669 64.6018 41.9256C64.7435 41.9842 64.8954 42.0143 65.0487 42.0143H74.3868C74.628 42.0141 74.8632 41.9391 75.0601 41.7998C75.2569 41.6604 75.4058 41.4635 75.4861 41.2361H79.0565C79.2098 41.2362 79.3617 41.206 79.5034 41.1474C79.6451 41.0887 79.7738 41.0027 79.8823 40.8943C79.9907 40.7859 80.0767 40.6571 80.1353 40.5154C80.194 40.3737 80.2241 40.2218 80.224 40.0685V21.3924C80.2245 21.2388 80.1946 21.0866 80.136 20.9445C80.0775 20.8025 79.9915 20.6734 79.883 20.5647C79.7744 20.456 79.6455 20.3697 79.5035 20.311C79.3616 20.2522 79.2094 20.222 79.0558 20.2222ZM2.86802 22.5574H5.20253V38.9003H2.86802V22.5574ZM37.9843 29.0397H34.7531C34.5975 29.036 34.4427 29.0634 34.2978 29.1204C34.153 29.1774 34.021 29.2628 33.9096 29.3716C33.7982 29.4803 33.7097 29.6102 33.6493 29.7537C33.5888 29.8972 33.5577 30.0513 33.5577 30.2069C33.5577 30.3626 33.5888 30.5167 33.6493 30.6602C33.7097 30.8036 33.7982 30.9336 33.9096 31.0423C34.021 31.1511 34.153 31.2365 34.2978 31.2935C34.4427 31.3504 34.5975 31.3779 34.7531 31.3742H36.4949C36.7999 31.3801 37.0903 31.5058 37.3034 31.7242C37.5164 31.9426 37.6349 32.236 37.6333 32.5411C37.6288 32.855 37.4999 33.1543 37.2749 33.3732C37.0499 33.5921 36.7472 33.7128 36.4333 33.7087H33.8756C33.72 33.705 33.5652 33.7324 33.4203 33.7894C33.2754 33.8464 33.1434 33.9318 33.0321 34.0406C32.9207 34.1493 32.8322 34.2793 32.7718 34.4227C32.7113 34.5662 32.6802 34.7203 32.6802 34.8759C32.6802 35.0316 32.7113 35.1857 32.7718 35.3292C32.8322 35.4726 32.9207 35.6026 33.0321 35.7113C33.1434 35.8201 33.2754 35.9055 33.4203 35.9625C33.5652 36.0195 33.72 36.0469 33.8756 36.0432H34.6266C35.4756 36.0432 35.7174 36.9525 35.7207 37.183C35.7207 37.3405 35.6895 37.4964 35.6289 37.6418C35.5683 37.7872 35.4795 37.9191 35.3676 38.0299C35.2557 38.1408 35.1229 38.2283 34.977 38.2876C34.8311 38.3468 34.6748 38.3766 34.5173 38.3751H18.1182C17.6856 38.3761 17.2593 38.2723 16.8757 38.0724V30.2973C16.8794 30.1417 16.852 29.9869 16.795 29.8421C16.738 29.6972 16.6526 29.5652 16.5439 29.4538C16.4351 29.3424 16.3052 29.2539 16.1617 29.1935C16.0182 29.1331 15.8641 29.1019 15.7085 29.1019C15.5528 29.1019 15.3987 29.1331 15.2552 29.1935C15.1118 29.2539 14.9819 29.3424 14.8731 29.4538C14.7643 29.5652 14.679 29.6972 14.622 29.8421C14.565 29.9869 14.5375 30.1417 14.5412 30.2973V39.6751H7.5377V36.7975H11.4802C11.785 36.7903 12.0748 36.6641 12.2878 36.446C12.5008 36.2279 12.62 35.9351 12.62 35.6303C12.62 35.3254 12.5008 35.0327 12.2878 34.8146C12.0748 34.5964 11.785 34.4703 11.4802 34.463H7.5377V21.7792H14.5412V25.3396C14.5485 25.6443 14.6746 25.9342 14.8928 26.1471C15.1109 26.3601 15.4036 26.4793 15.7085 26.4793C16.0133 26.4793 16.3061 26.3601 16.5242 26.1471C16.7423 25.9342 16.8685 25.6443 16.8757 25.3396V24.6111C17.6801 23.8247 18.5314 23.0878 19.4248 22.4044C19.8632 22.052 20.3176 21.6885 20.7778 21.3043C23.1812 19.301 25.2422 18.5168 28.1211 18.5122L33.6941 18.7678H33.7478C34.023 18.7648 34.2911 18.8556 34.5078 19.0254C34.7245 19.1951 34.8769 19.4337 34.9399 19.7016H33.4908C33.3352 19.6979 33.1804 19.7254 33.0355 19.7824C32.8907 19.8394 32.7587 19.9248 32.6473 20.0335C32.5359 20.1423 32.4474 20.2722 32.387 20.4157C32.3266 20.5591 32.2954 20.7132 32.2954 20.8689C32.2954 21.0246 32.3266 21.1787 32.387 21.3221C32.4474 21.4656 32.5359 21.5955 32.6473 21.7043C32.7587 21.813 32.8907 21.8984 33.0355 21.9554C33.1804 22.0124 33.3352 22.0399 33.4908 22.0362H37.9837C38.2914 22.0313 38.5894 22.1437 38.8172 22.3506C39.045 22.5575 39.1855 22.8434 39.2102 23.1501C39.2206 23.3986 39.1519 23.644 39.014 23.851C38.8761 24.0579 38.676 24.2158 38.4426 24.3018H35.5677C35.2629 24.309 34.9731 24.4352 34.7601 24.6533C34.5471 24.8714 34.4279 25.1642 34.4279 25.469C34.4279 25.7739 34.5471 26.0667 34.7601 26.2848C34.9731 26.5029 35.2629 26.629 35.5677 26.6363H38.0625C38.3839 26.6593 38.6836 26.8067 38.8979 27.0473C39.1123 27.2878 39.2243 27.6025 39.2102 27.9244C39.1861 28.2314 39.0459 28.5177 38.8182 28.7249C38.5904 28.9321 38.2922 29.0447 37.9843 29.0397ZM77.8869 38.8996H75.5524V22.5574H77.8869V38.8996Z" fill="#032F6F"/>
<path d="M40.3785 6.99262C40.5318 6.99271 40.6837 6.96256 40.8254 6.90392C40.9671 6.84527 41.0958 6.75927 41.2043 6.65083C41.3127 6.5424 41.3987 6.41365 41.4574 6.27195C41.516 6.13025 41.5461 5.97839 41.5461 5.82503V1.15602C41.5388 0.851254 41.4126 0.561418 41.1945 0.34844C40.9764 0.135463 40.6836 0.0162354 40.3788 0.0162354C40.074 0.0162354 39.7812 0.135463 39.5631 0.34844C39.345 0.561418 39.2188 0.851254 39.2115 1.15602V5.82503C39.2115 5.97833 39.2416 6.13014 39.3002 6.2718C39.3588 6.41345 39.4447 6.54217 39.5531 6.6506C39.6615 6.75903 39.7901 6.84504 39.9318 6.90373C40.0734 6.96241 40.2252 6.99262 40.3785 6.99262Z" fill="#032F6F"/>
<path d="M40.3784 51.1953C40.0688 51.1953 39.7718 51.3183 39.5528 51.5373C39.3339 51.7562 39.2108 52.0532 39.2108 52.3629V57.0319C39.2071 57.1875 39.2346 57.3423 39.2916 57.4872C39.3486 57.6321 39.434 57.7641 39.5427 57.8754C39.6515 57.9868 39.7814 58.0753 39.9249 58.1357C40.0683 58.1962 40.2224 58.2273 40.3781 58.2273C40.5338 58.2273 40.6879 58.1962 40.8313 58.1357C40.9748 58.0753 41.1047 57.9868 41.2135 57.8754C41.3222 57.7641 41.4076 57.6321 41.4646 57.4872C41.5216 57.3423 41.5491 57.1875 41.5453 57.0319V52.3629C41.5453 52.0534 41.4224 51.7565 41.2036 51.5375C40.9848 51.3186 40.688 51.1955 40.3784 51.1953Z" fill="#032F6F"/>
<path d="M27.78 9.37344C27.9377 9.6359 28.1921 9.82593 28.4885 9.9026C28.785 9.97926 29.0996 9.93643 29.3648 9.78332C29.6299 9.63021 29.8243 9.37908 29.9061 9.08402C29.9879 8.78896 29.9504 8.4736 29.8019 8.20585L27.4674 4.16202C27.3922 4.02646 27.2908 3.90722 27.169 3.81128C27.0473 3.71533 26.9076 3.6446 26.7582 3.6032C26.6088 3.5618 26.4527 3.55056 26.2989 3.57015C26.1451 3.58973 25.9968 3.63974 25.8625 3.71727C25.7283 3.79479 25.6108 3.89827 25.517 4.02168C25.4231 4.14508 25.3548 4.28593 25.316 4.43602C25.2772 4.5861 25.2686 4.74242 25.2909 4.89584C25.3131 5.04926 25.3657 5.19672 25.4455 5.32961L27.78 9.37344Z" fill="#032F6F"/>
<path d="M53.0676 48.5092C52.9099 48.2468 52.6555 48.0567 52.3591 47.9801C52.0626 47.9034 51.748 47.9462 51.4828 48.0994C51.2177 48.2525 51.0233 48.5036 50.9415 48.7987C50.8598 49.0937 50.8972 49.4091 51.0457 49.6768L53.3802 53.7206C53.5379 53.9831 53.7923 54.1731 54.0887 54.2498C54.3851 54.3265 54.6998 54.2836 54.965 54.1305C55.2301 53.9774 55.4245 53.7263 55.5063 53.4312C55.588 53.1362 55.5506 52.8208 55.4021 52.5531L53.0676 48.5092Z" fill="#032F6F"/>
<path d="M28.9178 47.8064C28.7851 47.7297 28.6385 47.6799 28.4865 47.6598C28.3345 47.6398 28.1801 47.6498 28.032 47.6895C27.8839 47.7292 27.745 47.7977 27.6234 47.891C27.5018 47.9844 27.3997 48.1008 27.3231 48.2336L24.9886 52.2734C24.9119 52.4062 24.8622 52.5527 24.8421 52.7046C24.8221 52.8566 24.8322 53.011 24.8718 53.159C24.9114 53.3071 24.9798 53.4459 25.0731 53.5675C25.1664 53.6891 25.2827 53.7912 25.4154 53.8679C25.5481 53.9445 25.6947 53.9943 25.8466 54.0143C25.9986 54.0344 26.153 54.0243 26.301 53.9847C26.4491 53.945 26.5879 53.8766 26.7095 53.7833C26.8311 53.6901 26.9332 53.5737 27.0098 53.441L29.3444 49.4012C29.4211 49.2685 29.471 49.1219 29.4911 48.97C29.5112 48.818 29.5011 48.6635 29.4615 48.5154C29.4219 48.3673 29.3535 48.2285 29.2602 48.1068C29.1669 47.9852 29.0506 47.8831 28.9178 47.8064Z" fill="#032F6F"/>
<path d="M51.0211 9.5252C51.1538 9.602 51.3003 9.65187 51.4523 9.67197C51.6042 9.69207 51.7587 9.68198 51.9068 9.64231C52.0548 9.60263 52.1936 9.53413 52.3152 9.44073C52.4368 9.34734 52.5387 9.23088 52.6152 9.09803L54.9497 5.05817C55.1045 4.79014 55.1466 4.47157 55.0665 4.17256C54.9865 3.87355 54.7909 3.61858 54.5229 3.46375C54.2548 3.30892 53.9363 3.26691 53.6373 3.34695C53.3382 3.427 53.0833 3.62255 52.9285 3.89059L50.594 7.93045C50.5172 8.06319 50.4674 8.20975 50.4473 8.36176C50.4273 8.51377 50.4374 8.66824 50.4771 8.81634C50.5167 8.96445 50.5852 9.10328 50.6785 9.22491C50.7719 9.34654 50.8883 9.44858 51.0211 9.5252Z" fill="#032F6F"/>
</svg>
