<svg width="33" height="44" viewBox="0 0 33 44" fill="none" xmlns="http://www.w3.org/2000/svg">
<path d="M32.7268 9.4348L23.5643 0.268455C23.3924 0.0965981 23.1594 3.27808e-05 22.9164 0L3.66635 0C2.69428 0.00100446 1.76232 0.387602 1.07496 1.07496C0.387602 1.76232 0.00100446 2.69428 0 3.66635V40.3327C0.00100446 41.3048 0.387602 42.2367 1.07496 42.9241C1.76232 43.6115 2.69428 43.998 3.66635 43.9991H29.3327C30.3048 43.998 31.2367 43.6115 31.9241 42.9241C32.6115 42.2367 32.9981 41.3048 32.9991 40.3327V10.0836C32.9987 9.96289 32.9744 9.84341 32.9277 9.73205C32.881 9.6207 32.8127 9.51968 32.7268 9.4348ZM23.8327 3.13039L29.8696 9.1673H25.6664C25.1802 9.1668 24.7141 8.97345 24.3703 8.62968C24.0266 8.28591 23.8332 7.81981 23.8327 7.33365V3.13039ZM31.1664 40.3337C31.1659 40.8198 30.9725 41.2859 30.6287 41.6297C30.285 41.9734 29.8189 42.1668 29.3327 42.1673H3.66635C3.18019 42.1668 2.71409 41.9734 2.37032 41.6297C2.02655 41.2859 1.8332 40.8198 1.8327 40.3337V3.66635C1.8332 3.18019 2.02655 2.71409 2.37032 2.37032C2.71409 2.02655 3.18019 1.8332 3.66635 1.8327H22V7.3346C22.0003 8.30716 22.3865 9.23986 23.074 9.92783C23.7614 10.6158 24.6938 11.0028 25.6664 11.0038H31.1683L31.1664 40.3337Z" fill="white"/>
<path d="M21.1738 26.91C20.4092 26.3198 19.6774 25.6884 18.9816 25.0185C18.2834 24.3203 17.6611 23.644 17.1204 22.9989C17.7067 21.4966 18.114 19.9304 18.3337 18.3327C18.3337 15.2896 17.2342 14.6664 15.5827 14.6664C14.3286 14.6664 12.8318 15.3181 12.8318 18.4209C12.8318 19.7888 13.5812 21.4498 15.0657 23.3793C14.7024 24.4882 14.2755 25.7679 13.7955 27.2098C13.5641 27.9013 13.3136 28.5426 13.049 29.1354C12.8336 29.2303 12.624 29.3251 12.422 29.4295C11.6934 29.7938 10.9991 30.121 10.3597 30.4255C7.43231 31.8114 5.49905 32.7278 5.49905 34.5377C5.49905 35.8515 6.9267 36.6654 8.25 36.6654C9.95749 36.6654 12.5282 34.3888 14.4083 30.5536C16.4509 29.8013 18.5566 29.2333 20.7004 28.8565C22.2343 30.0366 23.9257 31.1654 24.75 31.1654C27.0266 31.1654 27.5009 29.8516 27.5009 28.7493C27.5009 26.5818 25.0251 26.5818 23.8346 26.5818C22.9417 26.6363 22.0531 26.7459 21.1738 26.91ZM8.25094 34.8327C7.92091 34.842 7.59762 34.7383 7.33461 34.5387C7.33461 33.8889 9.2726 32.9706 11.147 32.0827L11.5094 31.912C10.132 33.9069 8.76983 34.8327 8.25094 34.8327ZM14.6673 18.4219C14.6673 16.501 15.264 16.501 15.5837 16.501C16.2316 16.501 16.5 16.501 16.5 18.3346C16.3536 19.311 16.1092 20.2701 15.7705 21.1975C15.1592 20.3883 14.7777 19.429 14.6663 18.4209L14.6673 18.4219ZM15.3702 28.2741C15.4278 28.1147 15.4834 27.9535 15.5372 27.7903C15.8777 26.7696 16.1832 25.8533 16.4564 25.028C16.8358 25.4466 17.2469 25.8757 17.6896 26.3152C17.8613 26.4869 18.2872 26.874 18.8554 27.3587C17.7208 27.5996 16.519 27.9089 15.3655 28.2731L15.3702 28.2741ZM25.6673 28.7484C25.6673 29.1601 25.6673 29.3308 24.8136 29.3365C24.264 29.1123 23.7463 28.8166 23.274 28.4572C23.5329 28.4287 23.7236 28.4145 23.8308 28.4145C25.1873 28.4164 25.5715 28.5482 25.6664 28.7503L25.6673 28.7484Z" fill="#1DB2E4"/>
</svg>
