<svg width="150" height="50" viewBox="0 0 150 50" fill="none" xmlns="http://www.w3.org/2000/svg">
<path d="M138.11 0H12.5868C12.1294 0 11.6773 0 11.2208 0C10.8392 0 10.4603 0.00958276 10.0743 0.0156809C9.23589 0.0262932 8.39948 0.100848 7.57237 0.238698C6.74668 0.379099 5.94693 0.64343 5.2002 1.02274C4.45526 1.40424 3.77451 1.89981 3.1826 2.49152C2.58725 3.08248 2.091 3.76551 1.71295 4.51435C1.33225 5.26142 1.06786 6.06224 0.928906 6.88913C0.789902 7.71464 0.715049 8.54967 0.705018 9.38674C0.693692 9.76918 0.69195 10.1534 0.685852 10.5358V39.3764C0.69195 39.7641 0.692821 40.1395 0.705018 40.5263C0.715049 41.3634 0.789902 42.1985 0.928906 43.024C1.06751 43.8512 1.33192 44.6524 1.71295 45.3996C2.09111 46.146 2.58772 46.8262 3.18347 47.4137C3.77354 48.0088 4.45533 48.5053 5.20281 48.8843C5.94982 49.2629 6.74946 49.5272 7.57498 49.6683C8.40172 49.8041 9.23747 49.8777 10.0752 49.8887C10.4611 49.8974 10.8401 49.9018 11.2217 49.9018C11.6781 49.9018 12.1303 49.9018 12.5876 49.9018H138.11C138.558 49.9018 139.014 49.9018 139.462 49.9018C139.842 49.9018 140.233 49.8965 140.612 49.8887C141.449 49.8783 142.283 49.8047 143.108 49.6683C143.936 49.5262 144.739 49.262 145.489 48.8843C146.236 48.5051 146.917 48.0086 147.507 47.4137C148.101 46.8238 148.598 46.1441 148.981 45.3996C149.358 44.6516 149.618 43.8505 149.753 43.024C149.893 42.1983 149.97 41.3635 149.985 40.5263C149.99 40.1387 149.99 39.7632 149.99 39.3764C150 38.9234 150 38.4721 150 38.0113V11.8983C150 11.4409 150 10.9879 149.99 10.5358C149.99 10.1534 149.99 9.76918 149.985 9.38674C149.97 8.54961 149.893 7.71476 149.753 6.88913C149.618 6.06294 149.357 5.26219 148.981 4.51435C148.21 3.01338 146.989 1.79165 145.488 1.021C144.738 0.642656 143.936 0.378398 143.107 0.236955C142.282 0.0994605 141.448 0.0257744 140.612 0.016552C140.232 0.0104539 139.841 0.00348464 139.462 0.00087116C139.013 0.00087116 138.557 0.00087116 138.109 0.00087116L138.11 0Z" fill="#A6A6A6"/>
<path d="M11.2269 48.8172C10.847 48.8172 10.4759 48.8119 10.0944 48.8041C9.31303 48.7938 8.53354 48.7257 7.76227 48.6002C7.04302 48.4763 6.34627 48.2458 5.69501 47.9164C5.05 47.5897 4.46172 47.1614 3.95269 46.648C3.43596 46.1406 3.00573 45.552 2.67905 44.9057C2.35045 44.2561 2.12307 43.5601 2.00477 42.8419C1.87635 42.0671 1.80704 41.2837 1.79744 40.4985C1.7896 40.2354 1.77914 39.3572 1.77914 39.3572V10.5358C1.77914 10.5358 1.79047 9.67335 1.79744 9.41984C1.80694 8.6372 1.87596 7.85643 2.0039 7.08426C2.12311 6.36231 2.35197 5.66283 2.68254 5.01003C3.00814 4.36481 3.43588 3.77645 3.9492 3.26771C4.46191 2.75313 5.05219 2.32218 5.69849 1.99059C6.3482 1.66201 7.0436 1.43295 7.7614 1.31108C8.53517 1.18453 9.31734 1.1161 10.1013 1.10636L11.2277 1.09155H139.455L140.595 1.10723C141.372 1.11649 142.147 1.18434 142.914 1.31021C143.639 1.43345 144.342 1.66393 144.999 1.99407C146.294 2.66142 147.347 3.71723 148.012 5.01351C148.337 5.66178 148.563 6.35553 148.68 7.07119C148.81 7.84892 148.882 8.63505 148.897 9.42332C148.897 9.77701 148.897 10.156 148.897 10.5341C148.907 11.0019 148.907 11.447 148.907 11.8965V38.0122C148.907 38.4652 148.907 38.9077 148.897 39.3538C148.897 39.7597 148.897 40.1308 148.892 40.5141C148.877 41.2893 148.806 42.0623 148.678 42.8271C148.562 43.5521 148.335 44.2549 148.005 44.9109C147.676 45.5504 147.248 46.134 146.738 46.6401C146.229 47.1559 145.641 47.5866 144.995 47.9155C144.34 48.2472 143.638 48.4783 142.914 48.6011C142.143 48.7272 141.363 48.7953 140.582 48.805C140.216 48.8137 139.834 48.818 139.462 48.818H138.11L11.2269 48.8172Z" fill="black"/>
<path d="M31.5946 25.3299C31.608 24.2885 31.8845 23.2673 32.3986 22.3615C32.9127 21.4557 33.6475 20.6946 34.5347 20.1491C33.971 19.3444 33.2274 18.6821 32.363 18.215C31.4987 17.7479 30.5373 17.4887 29.5552 17.4581C27.4601 17.2386 25.4285 18.7117 24.3613 18.7117C23.2733 18.7117 21.6294 17.4799 19.8592 17.5165C18.7142 17.5535 17.5984 17.8865 16.6204 18.483C15.6424 19.0795 14.8356 19.9191 14.2785 20.9201C11.8654 25.1017 13.6687 31.2381 15.9773 34.6156C17.1342 36.2708 18.4854 38.1168 20.2538 38.0506C21.9848 37.9791 22.6312 36.9468 24.7203 36.9468C26.7901 36.9468 27.3965 38.0506 29.2006 38.0088C31.0579 37.9783 32.2279 36.3475 33.3439 34.6783C34.1749 33.5001 34.8144 32.1979 35.2386 30.8199C34.1592 30.3638 33.238 29.5999 32.59 28.6236C31.9419 27.6473 31.5957 26.5017 31.5946 25.3299Z" fill="white"/>
<path d="M28.1875 15.2365C29.2013 14.0213 29.7013 12.4587 29.5813 10.8807C28.0327 11.043 26.6023 11.7834 25.5757 12.9541C25.0734 13.5245 24.6885 14.1884 24.4429 14.9077C24.1973 15.627 24.0959 16.3876 24.1444 17.1461C24.9189 17.1547 25.6853 16.9873 26.3857 16.6565C27.086 16.3258 27.7021 15.8402 28.1875 15.2365Z" fill="white"/>
<path d="M53.472 33.8628H47.5656L46.1491 38.0505H43.6462L49.2399 22.556H51.8386L57.4323 38.0505H54.8885L53.472 33.8628ZM48.178 31.9306H52.857L50.5493 25.1355H50.4874L48.178 31.9306Z" fill="white"/>
<path d="M69.5144 32.4028C69.5144 35.9136 67.6353 38.169 64.7997 38.169C64.0815 38.2062 63.3673 38.0405 62.7388 37.691C62.1102 37.3414 61.5927 36.8221 61.2454 36.1924H61.1914V41.7878H58.8732V26.7542H61.1173V28.6333H61.16C61.5231 28.0064 62.0493 27.4897 62.6827 27.1381C63.3161 26.7865 64.033 26.6132 64.757 26.6366C67.6249 26.6357 69.5144 28.9025 69.5144 32.4028ZM67.1309 32.4028C67.1309 30.116 65.9488 28.6124 64.1455 28.6124C62.3735 28.6124 61.1835 30.1474 61.1835 32.4028C61.1835 34.6792 62.3753 36.2037 64.1455 36.2037C65.9496 36.2037 67.1309 34.7114 67.1309 32.4028Z" fill="white"/>
<path d="M81.9485 32.4028C81.9485 35.9136 80.0694 38.169 77.2338 38.169C76.5156 38.2062 75.8014 38.0405 75.1728 37.691C74.5443 37.3414 74.0268 36.8221 73.6794 36.1924H73.6254V41.7878H71.3108V26.7542H73.5549V28.6333H73.5976C73.9607 28.0064 74.4869 27.4897 75.1203 27.1381C75.7537 26.7865 76.4705 26.6132 77.1946 26.6366C80.0589 26.6357 81.9485 28.9025 81.9485 32.4028ZM79.565 32.4028C79.565 30.116 78.3828 28.6124 76.5795 28.6124C74.8076 28.6124 73.6176 30.1474 73.6176 32.4028C73.6176 34.6792 74.8093 36.2037 76.5795 36.2037C78.3828 36.2037 79.565 34.7114 79.565 32.4028Z" fill="white"/>
<path d="M90.1661 33.7356C90.3404 35.2724 91.8309 36.2812 93.8703 36.2812C95.8252 36.2812 97.2312 35.2724 97.2312 33.8872C97.2312 32.6842 96.3827 31.9646 94.3747 31.4706L92.3667 30.9871C89.5215 30.2998 88.2008 28.9695 88.2008 26.8099C88.2008 24.1363 90.5303 22.2999 93.8389 22.2999C97.1128 22.2999 99.3577 24.1363 99.4327 26.8099H97.0919C96.9516 25.2636 95.6736 24.3306 93.8058 24.3306C91.9381 24.3306 90.6601 25.2723 90.6601 26.647C90.6601 27.7421 91.4764 28.3893 93.4739 28.8807L95.1814 29.2997C98.3603 30.0515 99.6809 31.3286 99.6809 33.5945C99.6809 36.4937 97.3715 38.3092 93.6996 38.3092C90.2637 38.3092 87.9438 36.5364 87.7931 33.7339L90.1661 33.7356Z" fill="white"/>
<path d="M104.684 24.0815V26.7551H106.832V28.5915H104.684V34.8195C104.684 35.7873 105.114 36.2377 106.059 36.2377C106.314 36.2332 106.569 36.2151 106.822 36.1837V38.0131C106.397 38.0924 105.966 38.1283 105.534 38.1203C103.247 38.1203 102.355 37.2613 102.355 35.0712V28.5907H100.712V26.7551H102.355V24.0815H104.684Z" fill="white"/>
<path d="M108.076 32.4037C108.076 28.8494 110.167 26.6157 113.434 26.6157C116.701 26.6157 118.792 28.8494 118.792 32.4037C118.792 35.958 116.72 38.1917 113.434 38.1917C110.148 38.1917 108.076 35.9676 108.076 32.4037ZM116.431 32.4037C116.431 29.9645 115.313 28.5262 113.435 28.5262C111.557 28.5262 110.44 29.9758 110.44 32.4037C110.44 34.8517 111.556 36.2795 113.435 36.2795C115.314 36.2795 116.431 34.8517 116.431 32.4037Z" fill="white"/>
<path d="M120.705 26.7542H122.916V28.6769H122.971C123.12 28.0764 123.472 27.5456 123.967 27.1739C124.462 26.8022 125.069 26.6122 125.688 26.6357C125.955 26.635 126.221 26.6642 126.482 26.7229V28.892C126.144 28.7885 125.791 28.7412 125.437 28.7518C125.1 28.7381 124.764 28.7974 124.452 28.9257C124.141 29.0541 123.86 29.2483 123.631 29.4952C123.401 29.7421 123.228 30.0357 123.122 30.356C123.017 30.6762 122.982 31.0155 123.02 31.3505V38.0505H120.705V26.7542Z" fill="white"/>
<path d="M137.173 34.7332C136.861 36.7839 134.864 38.1917 132.309 38.1917C129.022 38.1917 126.982 35.9903 126.982 32.4577C126.982 28.9252 129.033 26.6166 132.209 26.6166C135.335 26.6166 137.3 28.764 137.3 32.192V32.9865H129.32V33.1224C129.283 33.5381 129.335 33.9569 129.472 34.351C129.61 34.7451 129.829 35.1054 130.117 35.4081C130.404 35.7107 130.753 35.9487 131.139 36.1063C131.526 36.2639 131.941 36.3375 132.358 36.3222C132.906 36.3735 133.456 36.2466 133.926 35.9604C134.396 35.6741 134.761 35.2437 134.967 34.7332H137.173ZM129.333 31.3618H134.982C135.003 30.9879 134.946 30.6138 134.816 30.2629C134.685 29.912 134.483 29.5919 134.223 29.3226C133.963 29.0534 133.65 28.8409 133.304 28.6984C132.957 28.556 132.585 28.4867 132.211 28.4948C131.834 28.4928 131.459 28.5656 131.11 28.7089C130.761 28.8522 130.444 29.0632 130.177 29.3297C129.909 29.5962 129.697 29.913 129.553 30.2617C129.409 30.6105 129.335 30.9844 129.336 31.3618H129.333Z" fill="white"/>
<path d="M47.887 10.8939C48.3731 10.8591 48.8608 10.9326 49.315 11.1091C49.7693 11.2856 50.1787 11.5606 50.5138 11.9145C50.8488 12.2683 51.1012 12.6921 51.2528 13.1552C51.4043 13.6184 51.4511 14.1094 51.39 14.5928C51.39 16.9711 50.1041 18.3388 47.887 18.3388H45.1978V10.8939H47.887ZM46.3555 17.2856H47.7581C48.1052 17.3062 48.4526 17.2492 48.7749 17.1188C49.0972 16.9884 49.3865 16.7877 49.6216 16.5315C49.8567 16.2753 50.0317 15.97 50.134 15.6376C50.2363 15.3053 50.2633 14.9543 50.213 14.6103C50.2603 14.2673 50.2312 13.918 50.1276 13.5876C50.024 13.2572 49.8486 12.9538 49.614 12.6992C49.3793 12.4445 49.0912 12.245 48.7704 12.1148C48.4495 11.9846 48.1038 11.9271 47.7581 11.9463H46.3555V17.2856Z" fill="white"/>
<path d="M52.6967 15.5267C52.6619 15.1577 52.7045 14.7856 52.8218 14.4341C52.9392 14.0826 53.1286 13.7595 53.378 13.4854C53.6275 13.2113 53.9314 12.9924 54.2703 12.8426C54.6093 12.6927 54.9757 12.6154 55.3463 12.6154C55.7169 12.6154 56.0834 12.6927 56.4223 12.8426C56.7612 12.9924 57.0652 13.2113 57.3146 13.4854C57.564 13.7595 57.7535 14.0826 57.8708 14.4341C57.9881 14.7856 58.0307 15.1577 57.9959 15.5267C58.0321 15.8964 57.9905 16.2695 57.8738 16.6222C57.757 16.9748 57.5678 17.2991 57.3183 17.5743C57.0687 17.8494 56.7644 18.0693 56.4247 18.2198C56.0851 18.3702 55.7178 18.448 55.3463 18.448C54.9749 18.448 54.6075 18.3702 54.2679 18.2198C53.9283 18.0693 53.6239 17.8494 53.3744 17.5743C53.1248 17.2991 52.9356 16.9748 52.8189 16.6222C52.7022 16.2695 52.6605 15.8964 52.6967 15.5267ZM56.8556 15.5267C56.8556 14.307 56.3085 13.5962 55.3485 13.5962C54.3885 13.5962 53.8423 14.3088 53.8423 15.5267C53.8423 16.7446 54.3841 17.4606 55.3485 17.4606C56.3129 17.4606 56.8556 16.7489 56.8556 15.5267Z" fill="white"/>
<path d="M65.0393 18.3387H63.8894L62.7281 14.2007H62.641L61.485 18.3387H60.3446L58.7957 12.7206H59.9204L60.9265 17.0076H61.0137L62.1688 12.7206H63.2325L64.3877 17.0076H64.4748L65.4766 12.7206H66.5856L65.0393 18.3387Z" fill="white"/>
<path d="M67.8854 12.7197H68.9525V13.6127H69.0397C69.1801 13.2927 69.4167 13.0244 69.7166 12.845C70.0165 12.6656 70.3648 12.5841 70.7132 12.6117C70.9865 12.5916 71.2609 12.6331 71.5161 12.7333C71.7712 12.8334 72.0006 12.9896 72.1873 13.1903C72.374 13.3911 72.5131 13.6312 72.5945 13.8929C72.6759 14.1546 72.6975 14.4313 72.6576 14.7025V18.3396H71.5477V14.9795C71.5477 14.077 71.1557 13.6275 70.3351 13.6275C70.1495 13.6188 69.9642 13.6503 69.7919 13.7199C69.6197 13.7896 69.4645 13.8956 69.3371 14.0308C69.2096 14.166 69.1129 14.3272 69.0536 14.5033C68.9943 14.6794 68.9738 14.8662 68.9935 15.051V18.3379H67.8854V12.7197Z" fill="white"/>
<path d="M74.4234 10.5271H75.5324V18.3353H74.4234V10.5271Z" fill="white"/>
<path d="M77.0735 15.5267C77.038 15.1573 77.0801 14.7846 77.1972 14.4324C77.3142 14.0803 77.5036 13.7565 77.7531 13.4819C78.0026 13.2072 78.3068 12.9878 78.6462 12.8376C78.9855 12.6874 79.3525 12.6099 79.7235 12.6099C80.0946 12.6099 80.4616 12.6874 80.8009 12.8376C81.1403 12.9878 81.4445 13.2072 81.694 13.4819C81.9435 13.7565 82.1329 14.0803 82.2499 14.4324C82.367 14.7846 82.4091 15.1573 82.3736 15.5267C82.4091 15.896 82.367 16.2688 82.2499 16.6209C82.1329 16.973 81.9435 17.2968 81.694 17.5715C81.4445 17.8461 81.1403 18.0656 80.8009 18.2157C80.4616 18.3659 80.0946 18.4435 79.7235 18.4435C79.3525 18.4435 78.9855 18.3659 78.6462 18.2157C78.3068 18.0656 78.0026 17.8461 77.7531 17.5715C77.5036 17.2968 77.3142 16.973 77.1972 16.6209C77.0801 16.2688 77.038 15.896 77.0735 15.5267ZM81.2324 15.5267C81.2324 14.307 80.6853 13.5962 79.7253 13.5962C78.7653 13.5962 78.219 14.3088 78.219 15.5267C78.219 16.7445 78.7609 17.4606 79.7253 17.4606C80.6897 17.4606 81.2359 16.7498 81.2359 15.5267H81.2324Z" fill="white"/>
<path d="M83.5401 16.7498C83.5401 15.7384 84.2928 15.1556 85.6309 15.0728L87.1528 14.9857V14.5005C87.1528 13.9072 86.7608 13.5718 86.0029 13.5718C85.3835 13.5718 84.9575 13.7992 84.832 14.1964H83.7579C83.8711 13.2312 84.7789 12.6127 86.0534 12.6127C87.4621 12.6127 88.2566 13.3096 88.2566 14.5005V18.3397H87.1894V17.5504H87.1023C86.9242 17.8337 86.6742 18.0646 86.3778 18.2196C86.0813 18.3747 85.749 18.4483 85.4148 18.4329C85.179 18.4575 84.9406 18.4324 84.715 18.3592C84.4894 18.286 84.2817 18.1663 84.1052 18.0079C83.9287 17.8494 83.7874 17.6558 83.6904 17.4394C83.5934 17.223 83.5428 16.9887 83.5418 16.7515L83.5401 16.7498ZM87.1519 16.2698V15.8002L85.7799 15.8874C85.0063 15.9388 84.6552 16.2027 84.6552 16.6975C84.6552 17.1924 85.0908 17.4973 85.7006 17.4973C85.8773 17.5152 86.0559 17.4974 86.2256 17.4449C86.3953 17.3924 86.5528 17.3062 86.6885 17.1916C86.8242 17.077 86.9355 16.9363 87.0157 16.7777C87.096 16.6192 87.1435 16.4462 87.1554 16.2689L87.1519 16.2698Z" fill="white"/>
<path d="M89.7131 15.5276C89.7131 13.7521 90.6261 12.6275 92.0452 12.6275C92.3959 12.6117 92.7439 12.6959 93.0485 12.8703C93.3532 13.0448 93.6019 13.3023 93.7658 13.6127H93.8529V10.5271H94.9619V18.3353H93.8991V17.4511H93.8119C93.6353 17.7598 93.3775 18.0144 93.0666 18.1871C92.7556 18.3599 92.4033 18.4442 92.0478 18.4311C90.6165 18.4311 89.7131 17.3065 89.7131 15.5276ZM90.8587 15.5276C90.8587 16.7193 91.4206 17.4363 92.3597 17.4363C93.2988 17.4363 93.8721 16.7088 93.8721 15.5328C93.8721 14.3567 93.2884 13.6241 92.3597 13.6241C91.4311 13.6241 90.8587 14.3463 90.8587 15.5276Z" fill="white"/>
<path d="M99.5477 15.5267C99.5129 15.1577 99.5555 14.7856 99.6728 14.4341C99.7902 14.0826 99.9796 13.7595 100.229 13.4854C100.478 13.2113 100.782 12.9924 101.121 12.8426C101.46 12.6927 101.827 12.6154 102.197 12.6154C102.568 12.6154 102.934 12.6927 103.273 12.8426C103.612 12.9924 103.916 13.2113 104.166 13.4854C104.415 13.7595 104.604 14.0826 104.722 14.4341C104.839 14.7856 104.882 15.1577 104.847 15.5267C104.883 15.8964 104.841 16.2695 104.725 16.6222C104.608 16.9748 104.419 17.2991 104.169 17.5743C103.92 17.8494 103.615 18.0693 103.276 18.2198C102.936 18.3702 102.569 18.448 102.197 18.448C101.826 18.448 101.458 18.3702 101.119 18.2198C100.779 18.0693 100.475 17.8494 100.225 17.5743C99.9758 17.2991 99.7866 16.9748 99.6699 16.6222C99.5531 16.2695 99.5115 15.8964 99.5477 15.5267ZM103.707 15.5267C103.707 14.307 103.159 13.5962 102.199 13.5962C101.239 13.5962 100.693 14.3088 100.693 15.5267C100.693 16.7446 101.235 17.4606 102.199 17.4606C103.164 17.4606 103.707 16.7498 103.707 15.5267Z" fill="white"/>
<path d="M106.335 12.7198H107.402V13.6127H107.489C107.63 13.2921 107.867 13.0234 108.167 12.8439C108.468 12.6645 108.817 12.5833 109.166 12.6117C109.439 12.5916 109.714 12.6331 109.969 12.7333C110.224 12.8334 110.454 12.9896 110.64 13.1904C110.827 13.3911 110.966 13.6312 111.047 13.8929C111.129 14.1547 111.15 14.4313 111.111 14.7025V18.3396H109.998V14.9796C109.998 14.077 109.606 13.6275 108.785 13.6275C108.6 13.6188 108.415 13.6503 108.242 13.72C108.07 13.7896 107.915 13.8956 107.787 14.0308C107.66 14.1661 107.563 14.3272 107.504 14.5033C107.445 14.6794 107.424 14.8662 107.444 15.051V18.3379H106.335V12.7198Z" fill="white"/>
<path d="M117.372 11.3215V12.7459H118.592V13.6798H117.372V16.5711C117.372 17.16 117.615 17.417 118.167 17.417C118.308 17.4167 118.449 17.4082 118.589 17.3918V18.3135C118.39 18.3491 118.189 18.368 117.987 18.3701C116.754 18.3701 116.263 17.9345 116.263 16.8534V13.6798H115.371V12.7459H116.263V11.3215H117.372Z" fill="white"/>
<path d="M120.1 10.5271H121.199V13.6232H121.287C121.434 13.2998 121.678 13.0297 121.984 12.8497C122.291 12.6696 122.645 12.5884 122.999 12.617C123.271 12.6024 123.542 12.6478 123.794 12.75C124.046 12.8521 124.273 13.0086 124.458 13.2082C124.642 13.4078 124.781 13.6456 124.863 13.9048C124.945 14.164 124.97 14.4382 124.934 14.7078V18.3353H123.829V14.9813C123.829 14.0875 123.41 13.631 122.626 13.631C122.436 13.6155 122.244 13.6417 122.065 13.7079C121.885 13.7741 121.723 13.8787 121.588 14.0143C121.453 14.15 121.35 14.3134 121.285 14.4933C121.22 14.6731 121.195 14.8649 121.212 15.0554V18.3353H120.1V10.5271Z" fill="white"/>
<path d="M131.404 16.8212C131.254 17.3348 130.927 17.7791 130.482 18.0763C130.037 18.3735 129.501 18.5046 128.969 18.4468C128.599 18.4566 128.231 18.3857 127.891 18.2391C127.551 18.0925 127.247 17.8736 127 17.5976C126.753 17.3217 126.569 16.9953 126.461 16.6411C126.353 16.287 126.323 15.9135 126.374 15.5467C126.325 15.1788 126.355 14.8046 126.463 14.4495C126.571 14.0943 126.754 13.7665 127 13.4882C127.246 13.2099 127.548 12.9877 127.887 12.8365C128.226 12.6853 128.594 12.6086 128.965 12.6118C130.529 12.6118 131.471 13.6798 131.471 15.4439V15.8281H127.504V15.89C127.486 16.0963 127.511 16.3042 127.579 16.5001C127.646 16.6961 127.754 16.8757 127.895 17.0274C128.036 17.1791 128.207 17.2996 128.398 17.381C128.588 17.4623 128.794 17.5028 129.001 17.4999C129.266 17.5316 129.535 17.4838 129.772 17.3625C130.01 17.2412 130.207 17.0519 130.337 16.8186L131.404 16.8212ZM127.504 15.011H130.342C130.356 14.8223 130.331 14.6329 130.267 14.4547C130.204 14.2766 130.103 14.1137 129.973 13.9766C129.843 13.8395 129.685 13.7312 129.511 13.6586C129.336 13.5861 129.148 13.5508 128.959 13.5553C128.767 13.5528 128.577 13.5888 128.399 13.6611C128.221 13.7334 128.06 13.8405 127.924 13.9762C127.789 14.1119 127.682 14.2733 127.61 14.4511C127.537 14.6288 127.501 14.8192 127.504 15.011Z" fill="white"/>
</svg>
