<svg width="44" height="44" viewBox="0 0 44 44" fill="none" xmlns="http://www.w3.org/2000/svg">
<path d="M27.1058 11.8525C27.1056 10.7853 26.789 9.74221 26.196 8.85498C25.603 7.96775 24.7602 7.27627 23.7743 6.86797C22.7883 6.45967 21.7034 6.35289 20.6568 6.56113C19.6101 6.76937 18.6487 7.28327 17.8942 8.03786C17.1396 8.79246 16.6257 9.75385 16.4174 10.8005C16.2092 11.8471 16.316 12.932 16.7243 13.918C17.1326 14.9039 17.824 15.7467 18.7113 16.3397C19.5985 16.9327 20.6416 17.2493 21.7088 17.2495C22.4176 17.2496 23.1194 17.1101 23.7743 16.8389C24.4291 16.5677 25.0241 16.1702 25.5253 15.669C26.0265 15.1678 26.424 14.5728 26.6952 13.918C26.9664 13.2631 27.1059 12.5613 27.1058 11.8525ZM17.5913 11.8525C17.5913 11.038 17.8329 10.2417 18.2854 9.56444C18.7379 8.88718 19.3811 8.35931 20.1337 8.0476C20.8862 7.73589 21.7143 7.65433 22.5132 7.81324C23.3121 7.97215 24.0459 8.36439 24.6219 8.94036C25.1979 9.51633 25.5901 10.2502 25.749 11.049C25.9079 11.8479 25.8264 12.676 25.5146 13.4286C25.2029 14.1811 24.6751 14.8243 23.9978 15.2768C23.3205 15.7294 22.5243 15.9709 21.7097 15.9709C20.6175 15.9709 19.5699 15.537 18.7976 14.7647C18.0252 13.9923 17.5913 12.9448 17.5913 11.8525Z" fill="#1DB2E4"/>
<path d="M43.3791 42.5459L38.1656 28.8878C38.1193 28.7669 38.0375 28.6629 37.9308 28.5895C37.8242 28.5161 37.6978 28.4769 37.5684 28.4769H27.7086C27.7685 28.3833 27.8284 28.2831 27.8892 28.1848C31.6828 21.9033 33.5923 16.409 33.5651 11.8554C33.5651 8.71114 32.3161 5.69568 30.0927 3.47236C27.8694 1.24905 24.854 0 21.7097 0C18.5655 0 15.55 1.24905 13.3267 3.47236C11.1034 5.69568 9.85435 8.71114 9.85435 11.8554C9.8272 16.4109 11.7357 21.9062 15.5303 28.1867C15.5902 28.2869 15.6501 28.3814 15.7109 28.4788H5.84546C5.71602 28.4787 5.58963 28.518 5.483 28.5914C5.37637 28.6648 5.29453 28.7688 5.24829 28.8897L0.0422534 42.5459C0.00518093 42.6427 -0.00777904 42.747 0.00449249 42.8499C0.016764 42.9528 0.0538982 43.0511 0.112688 43.1365C0.171478 43.2218 0.250156 43.2915 0.341926 43.3396C0.433697 43.3878 0.535802 43.4128 0.639422 43.4126H42.7782C42.8818 43.4128 42.9839 43.3878 43.0757 43.3396C43.1674 43.2915 43.2461 43.2218 43.3049 43.1365C43.3637 43.0511 43.4008 42.9528 43.4131 42.8499C43.4254 42.747 43.4124 42.6427 43.3753 42.5459H43.3791ZM11.132 11.8526C11.132 9.04743 12.2463 6.35718 14.2299 4.37364C16.2134 2.39011 18.9036 1.27577 21.7088 1.27577C24.5139 1.27577 27.2042 2.39011 29.1877 4.37364C31.1713 6.35718 32.2856 9.04743 32.2856 11.8526C32.3408 20.9318 23.8532 32.1282 21.7088 34.8136C19.5644 32.131 11.0768 20.9374 11.132 11.8526ZM21.2221 36.2391C21.2821 36.3096 21.3567 36.3662 21.4407 36.405C21.5248 36.4438 21.6162 36.4639 21.7088 36.4639C21.8014 36.4639 21.8928 36.4438 21.9769 36.405C22.0609 36.3662 22.1355 36.3096 22.1955 36.2391C23.892 34.172 25.4647 32.0064 26.9055 29.7536H37.1275L37.9456 31.8989L17.9732 39.0022L10.854 29.7526H16.5112C17.9525 32.0058 19.5259 34.1718 21.223 36.2391H21.2221ZM17.9461 40.366L29.8614 36.1296L34.4871 42.1341H12.9815L17.9461 40.366ZM6.29006 29.7526H9.24033L16.7031 39.4534L9.16451 42.135H1.56793L6.29006 29.7526ZM36.1054 42.1341L31.1353 35.6757L38.4024 33.0914L41.8506 42.1331L36.1054 42.1341Z" fill="white"/>
</svg>
