<svg width="33" height="44" viewBox="0 0 33 44" fill="none" xmlns="http://www.w3.org/2000/svg">
<g clip-path="url(#clip0)">
<path d="M2.15199 10.2667C1.58147 10.2675 1.03453 10.4995 0.631117 10.9119C0.2277 11.3242 0.000736628 11.8833 0 12.4665V18.3336C0 18.9171 0.226726 19.4766 0.630303 19.8891C1.03388 20.3017 1.58125 20.5334 2.15199 20.5334C2.72273 20.5334 3.2701 20.3017 3.67368 19.8891C4.07726 19.4766 4.30398 18.9171 4.30398 18.3336V12.4665C4.30325 11.8833 4.07628 11.3242 3.67286 10.9119C3.26945 10.4995 2.72251 10.2675 2.15199 10.2667ZM2.86932 18.3298C2.86932 18.5243 2.79375 18.7108 2.65922 18.8483C2.5247 18.9859 2.34224 19.0631 2.15199 19.0631C1.96174 19.0631 1.77929 18.9859 1.64476 18.8483C1.51023 18.7108 1.43466 18.5243 1.43466 18.3298V12.4627C1.43466 12.2683 1.51023 12.0818 1.64476 11.9442C1.77929 11.8067 1.96174 11.7295 2.15199 11.7295C2.34224 11.7295 2.5247 11.8067 2.65922 11.9442C2.79375 12.0818 2.86932 12.2683 2.86932 12.4627V18.3298Z" fill="#1DB2E4"/>
<path d="M30.8471 10.2667C30.2766 10.2675 29.7296 10.4995 29.3262 10.9119C28.9228 11.3242 28.6958 11.8833 28.6951 12.4665V18.3336C28.6951 18.9171 28.9218 19.4766 29.3254 19.8891C29.729 20.3017 30.2763 20.5334 30.8471 20.5334C31.4178 20.5334 31.9652 20.3017 32.3688 19.8891C32.7724 19.4766 32.9991 18.9171 32.9991 18.3336V12.4665C32.9983 11.8833 32.7714 11.3242 32.368 10.9119C31.9646 10.4995 31.4176 10.2675 30.8471 10.2667ZM31.5644 18.3298C31.5644 18.4261 31.5459 18.5215 31.5098 18.6105C31.4738 18.6994 31.4209 18.7803 31.3543 18.8483C31.2877 18.9164 31.2087 18.9704 31.1216 19.0073C31.0346 19.0441 30.9413 19.0631 30.8471 19.0631C30.7529 19.0631 30.6596 19.0441 30.5726 19.0073C30.4856 18.9704 30.4065 18.9164 30.3399 18.8483C30.2733 18.7803 30.2204 18.6994 30.1844 18.6105C30.1483 18.5215 30.1298 18.4261 30.1298 18.3298V12.4627C30.1298 12.3664 30.1483 12.2711 30.1844 12.1821C30.2204 12.0932 30.2733 12.0123 30.3399 11.9442C30.4065 11.8761 30.4856 11.8221 30.5726 11.7853C30.6596 11.7484 30.7529 11.7295 30.8471 11.7295C30.9413 11.7295 31.0346 11.7484 31.1216 11.7853C31.2087 11.8221 31.2877 11.8761 31.3543 11.9442C31.4209 12.0123 31.4738 12.0932 31.5098 12.1821C31.5459 12.2711 31.5644 12.3664 31.5644 12.4627V18.3298Z" fill="#1DB2E4"/>
<path d="M30.8897 10.9525C29.9634 7.78728 28.0629 5.01191 25.4706 3.03871C22.8783 1.06551 19.7325 -0.000244141 16.5004 -0.000244141C13.2684 -0.000244141 10.1226 1.06551 7.53025 3.03871C4.93794 5.01191 3.03746 7.78728 2.11113 10.9525C2.05612 11.1387 2.07572 11.3396 2.16561 11.511C2.25549 11.6824 2.40831 11.8103 2.59043 11.8665C2.77256 11.9228 2.96908 11.9027 3.13676 11.8108C3.30444 11.719 3.42954 11.5627 3.48454 11.3766C4.32152 8.51266 6.04019 6.00126 8.38509 4.21567C10.73 2.43007 13.576 1.4656 16.5 1.4656C19.424 1.4656 22.2699 2.43007 24.6148 4.21567C26.9597 6.00126 28.6784 8.51266 29.5154 11.3766C29.5599 11.5274 29.6506 11.6596 29.7743 11.7536C29.898 11.8475 30.048 11.8983 30.2021 11.8983C30.2728 11.8983 30.3432 11.8878 30.4109 11.867C30.5012 11.8392 30.5852 11.7935 30.6581 11.7325C30.731 11.6715 30.7915 11.5963 30.836 11.5114C30.8805 11.4264 30.9081 11.3333 30.9173 11.2374C30.9266 11.1415 30.9172 11.0447 30.8897 10.9525Z" fill="#1DB2E4"/>
<path d="M30.847 19.0669C30.7528 19.0669 30.6596 19.0859 30.5725 19.1227C30.4855 19.1596 30.4064 19.2136 30.3398 19.2817C30.2732 19.3497 30.2204 19.4306 30.1843 19.5196C30.1483 19.6085 30.1297 19.7039 30.1297 19.8002C30.1285 20.7722 29.7502 21.704 29.0778 22.3913C28.4055 23.0786 27.4939 23.4653 26.5431 23.4665C26.3528 23.4665 26.1703 23.5438 26.0358 23.6813C25.9013 23.8188 25.8257 24.0053 25.8257 24.1998C25.8257 24.3943 25.9013 24.5808 26.0358 24.7183C26.1703 24.8558 26.3528 24.933 26.5431 24.933C27.8743 24.9313 29.1504 24.3899 30.0918 23.4277C31.0331 22.4655 31.5627 21.1609 31.5644 19.8002C31.5644 19.6057 31.4888 19.4192 31.3543 19.2817C31.2198 19.1441 31.0373 19.0669 30.847 19.0669Z" fill="#1DB2E4"/>
<path d="M16.4996 3.66639C14.8455 3.66746 13.2112 4.03396 11.7085 4.74078C10.2059 5.44761 8.87047 6.47807 7.7937 7.76159C6.71692 9.04511 5.92425 10.5514 5.46996 12.1772C5.01568 13.803 4.91051 15.51 5.16167 17.1812C5.41282 18.8525 6.01437 20.4485 6.9251 21.8599C7.83583 23.2714 9.03424 24.465 10.4382 25.3589C11.8422 26.2529 13.4187 26.8261 15.0596 27.0393C16.7004 27.2525 18.367 27.1006 19.9452 26.5941C20.0591 26.5576 20.1624 26.4925 20.2455 26.4048C20.3286 26.3171 20.389 26.2096 20.4212 26.092C20.4534 25.9744 20.4563 25.8504 20.4297 25.7314C20.4032 25.6123 20.3479 25.502 20.269 25.4103C20.1527 25.2806 20.0867 25.1119 20.0834 24.936V23.4666C20.0834 23.2721 20.159 23.0856 20.2935 22.9481C20.4281 22.8106 20.6105 22.7333 20.8008 22.7333H25.0964C25.2076 22.7334 25.3173 22.707 25.4168 22.6563C25.5164 22.6056 25.603 22.5319 25.6699 22.4411C26.954 20.7004 27.7376 18.628 27.9326 16.457C28.1276 14.286 27.7263 12.1024 26.7738 10.1517C25.8213 8.20105 24.3554 6.56066 22.5409 5.41498C20.7263 4.26929 18.6351 3.66373 16.5023 3.66639H16.4996ZM24.7252 21.2658H20.8008C20.2302 21.2666 19.6833 21.4986 19.2799 21.911C18.8765 22.3233 18.6495 22.8824 18.6488 23.4656V24.9322C18.6489 25.0947 18.6673 25.2567 18.7035 25.415C16.6731 25.8825 14.5508 25.6936 12.63 24.8745C10.7092 24.0554 9.08472 22.6466 7.98121 20.8427C6.8777 19.0389 6.34964 16.9292 6.47004 14.8053C6.59043 12.6813 7.35334 10.6481 8.65328 8.98661C9.95322 7.32514 11.726 6.11752 13.7265 5.5307C15.727 4.94388 17.8565 5.00685 19.8205 5.7109C21.7844 6.41494 23.486 7.72529 24.6898 9.46079C25.8936 11.1963 26.5403 13.2712 26.5403 15.3987C26.5438 17.4993 25.9096 19.5492 24.7252 21.2658Z" fill="white"/>
<path d="M23.9484 28.5995H9.04686C6.83855 28.6022 4.72146 29.5002 3.15994 31.0964C1.59843 32.6926 0.719986 34.8568 0.717285 37.1142V43.2658C0.717285 43.3621 0.735844 43.4575 0.771893 43.5465C0.807942 43.6354 0.860779 43.7163 0.92739 43.7843C0.994 43.8524 1.07308 43.9065 1.16011 43.9433C1.24714 43.9802 1.34042 43.9991 1.43462 43.9991H31.5644C31.6586 43.9991 31.7518 43.9802 31.8389 43.9433C31.9259 43.9065 32.005 43.8524 32.0716 43.7843C32.1382 43.7163 32.191 43.6354 32.2271 43.5465C32.2631 43.4575 32.2817 43.3621 32.2817 43.2658V37.1142C32.279 34.8561 31.4 32.6914 29.8377 31.0951C28.2754 29.4988 26.1574 28.6012 23.9484 28.5995ZM30.8443 42.5326H2.15194V37.1142C2.15415 35.2456 2.8813 33.4542 4.17386 32.1329C5.46643 30.8116 7.21889 30.0683 9.04686 30.066H23.9484C25.7765 30.0681 27.5291 30.8113 28.8217 32.1326C30.1143 33.4539 30.8414 35.2455 30.8433 37.1142L30.8443 42.5326Z" fill="white"/>
<path d="M7.17333 37.3997C6.98309 37.3997 6.80062 37.4769 6.6661 37.6144C6.53157 37.7519 6.45599 37.9384 6.45599 38.1329V43.2658C6.45599 43.4603 6.53157 43.6468 6.6661 43.7843C6.80062 43.9218 6.98309 43.9991 7.17333 43.9991C7.36358 43.9991 7.54603 43.9218 7.68056 43.7843C7.81508 43.6468 7.89066 43.4603 7.89066 43.2658V38.1329C7.89066 37.9384 7.81508 37.7519 7.68056 37.6144C7.54603 37.4769 7.36358 37.3997 7.17333 37.3997Z" fill="white"/>
<path d="M26.5431 37.3997C26.3528 37.3997 26.1703 37.4769 26.0358 37.6144C25.9013 37.7519 25.8257 37.9384 25.8257 38.1329V43.2658C25.8257 43.3621 25.8443 43.4574 25.8803 43.5464C25.9164 43.6354 25.9692 43.7162 26.0358 43.7843C26.1024 43.8524 26.1815 43.9064 26.2685 43.9432C26.3556 43.9801 26.4489 43.9991 26.5431 43.9991C26.6373 43.9991 26.7305 43.9801 26.8176 43.9432C26.9046 43.9064 26.9837 43.8524 27.0503 43.7843C27.1169 43.7162 27.1697 43.6354 27.2058 43.5464C27.2418 43.4574 27.2604 43.3621 27.2604 43.2658V38.1329C27.2604 37.9384 27.1848 37.7519 27.0503 37.6144C26.9158 37.4769 26.7333 37.3997 26.5431 37.3997Z" fill="white"/>
<path d="M25.1075 21.2667H20.8035C20.233 21.2675 19.686 21.4995 19.2826 21.9119C18.8792 22.3242 18.6523 22.8833 18.6515 23.4665V24.9331C18.6523 25.5163 18.8792 26.0754 19.2826 26.4877C19.686 26.9001 20.233 27.1321 20.8035 27.1329H25.1075C25.678 27.1321 26.2249 26.9001 26.6284 26.4877C27.0318 26.0754 27.2588 25.5163 27.2595 24.9331V23.4665C27.2588 22.8833 27.0318 22.3242 26.6284 21.9119C26.2249 21.4995 25.678 21.2675 25.1075 21.2667ZM25.8248 24.9331C25.8248 25.1276 25.7493 25.3141 25.6147 25.4516C25.4802 25.5891 25.2977 25.6663 25.1075 25.6663H20.8035C20.6133 25.6663 20.4308 25.5891 20.2963 25.4516C20.1618 25.3141 20.0862 25.1276 20.0862 24.9331V23.4665C20.0862 23.2721 20.1618 23.0856 20.2963 22.948C20.4308 22.8105 20.6133 22.7333 20.8035 22.7333H25.1075C25.2977 22.7333 25.4802 22.8105 25.6147 22.948C25.7493 23.0856 25.8248 23.2721 25.8248 23.4665V24.9331Z" fill="#1DB2E4"/>
</g>
<defs>
<clipPath id="clip0">
<rect width="33" height="44" fill="white"/>
</clipPath>
</defs>
</svg>
