<svg width="27" height="27" viewBox="0 0 27 27" fill="none" xmlns="http://www.w3.org/2000/svg">
<path d="M18 16.1397L17.661 13.172C18.0721 12.5889 18.367 11.939 18.531 11.2545C18.921 11.0262 19.242 10.4498 19.536 9.4568C19.836 8.41528 19.836 7.74471 19.485 7.34237C19.4026 7.24822 19.3004 7.17144 19.185 7.11694C19.209 7.02278 19.233 6.92291 19.257 6.81448C19.599 4.85699 19.407 3.42169 18.684 2.55137C18.4117 2.20719 18.0297 1.95596 17.595 1.83515C17.2261 1.33965 16.7414 0.932336 16.179 0.64525C15.2564 0.137312 14.1882 -0.0794653 13.128 0.0260443C12.7062 0.0459207 12.2893 0.120811 11.889 0.248616C11.4178 0.401761 10.9715 0.616909 10.563 0.887795C10.0708 1.18323 9.62022 1.53705 9.222 1.94073C8.49729 2.6178 7.98515 3.47348 7.743 4.41184C7.55026 5.20416 7.55026 6.02787 7.743 6.82018C7.761 6.92291 7.785 7.01993 7.809 7.10553C7.69413 7.15829 7.59198 7.2331 7.509 7.32525C7.158 7.72474 7.143 8.39816 7.452 9.44538C7.752 10.4384 8.052 11.0148 8.451 11.2431C8.61864 11.9485 8.92282 12.6181 9.348 13.2177L9 16.1397C7.356 16.5334 0 18.7306 0 26.572C0 26.6855 0.0474105 26.7944 0.131802 26.8746C0.216193 26.9549 0.330653 27 0.45 27H26.55C26.6693 27 26.7838 26.9549 26.8682 26.8746C26.9526 26.7944 27 26.6855 27 26.572C27 18.7335 19.644 16.5334 18 16.1397ZM8.619 4.6173C8.82492 3.82543 9.25923 3.10399 9.873 2.53425C10.2293 2.17645 10.6327 1.8638 11.073 1.60402C11.4166 1.37468 11.7922 1.19219 12.189 1.06186C12.5157 0.958088 12.8559 0.897597 13.2 0.882089C14.0832 0.790054 14.9743 0.967958 15.744 1.39001C16.2256 1.62702 16.6332 1.9803 16.926 2.41441C16.9623 2.47721 17.0139 2.53075 17.0766 2.57049C17.1393 2.61024 17.2111 2.635 17.286 2.64269C17.5784 2.70385 17.8344 2.87061 18 3.1078C18.372 3.57577 18.738 4.57449 18.375 6.66039C18.336 6.84016 18.297 6.99139 18.249 7.13407L18.036 5.21082C18.0247 5.10012 17.9688 4.99787 17.88 4.92547L16.41 3.73842C16.3541 3.69316 16.2874 3.66168 16.2158 3.64675C16.1441 3.63182 16.0696 3.6339 15.999 3.65282L9.6 5.30784C9.51424 5.33031 9.4374 5.37646 9.3792 5.44045C9.32099 5.50445 9.28404 5.58341 9.273 5.66738L9.054 7.29386L8.775 7.17972C8.71473 7.01206 8.6676 6.84038 8.634 6.66609C8.46301 5.99339 8.45787 5.2922 8.619 4.6173ZM9.3 10.8778C9.28551 10.7869 9.24064 10.7029 9.17202 10.6381C9.1034 10.5734 9.01468 10.5314 8.919 10.5183C8.868 10.4812 8.619 10.2615 8.319 9.22567C7.995 8.13564 8.19 7.89309 8.199 7.88453L9.222 8.30399C9.28605 8.33015 9.35562 8.3418 9.42521 8.33803C9.4948 8.33425 9.56252 8.31514 9.62302 8.28222C9.68353 8.24929 9.73516 8.20345 9.77386 8.1483C9.81255 8.09315 9.83725 8.03021 9.846 7.96443L10.101 6.0583L15.975 4.5374L17.127 5.46763L17.403 7.95301C17.4112 8.02765 17.4399 8.09892 17.4862 8.15969C17.5325 8.22045 17.5948 8.26856 17.6668 8.2992C17.7389 8.32984 17.8181 8.34193 17.8966 8.33425C17.9751 8.32658 18.05 8.29942 18.114 8.25548L18.687 7.86456C18.7128 7.86256 18.7384 7.86967 18.759 7.88453C18.759 7.88453 18.963 8.13849 18.639 9.22281C18.339 10.2586 18.09 10.4783 18.039 10.5154C17.9433 10.5285 17.8546 10.5705 17.786 10.6353C17.7174 10.7 17.6725 10.7841 17.658 10.875C17.439 12.2332 16.302 13.9196 14.553 14.5217C13.8491 14.7627 13.0789 14.7627 12.375 14.5217C10.665 13.9482 9.534 12.2532 9.3 10.8778ZM17.1 16.3394L15.6 17.8517C15.5788 17.8063 15.5494 17.7647 15.513 17.729L13.8 16.0997C13.7142 16.0222 13.6003 15.979 13.482 15.979C13.3637 15.979 13.2498 16.0222 13.164 16.0997L11.451 17.729C11.4146 17.7647 11.3852 17.8063 11.364 17.8517L9.864 16.3394L10.116 14.1536C10.6664 14.6808 11.3337 15.0844 12.069 15.335C12.9697 15.6432 13.9553 15.6432 14.856 15.335C15.5985 15.072 16.2706 14.6559 16.824 14.1165L17.1 16.3394ZM0.9 26.144C1.161 19.093 7.875 17.2611 9.258 16.9557L11.973 19.7151L10.2 26.144H0.9ZM11.118 26.144L12.918 19.6551C12.9447 19.5602 12.9362 19.4595 12.894 19.3698L12.324 18.1257L13.5 17.0071L14.676 18.1257L14.1 19.3698C14.0578 19.4595 14.0493 19.5602 14.076 19.6551L15.876 26.144H11.118ZM16.8 26.144L15 19.7179L17.7 16.9586C19.05 17.2696 25.8 19.1729 26.058 26.144H16.8Z" fill="#FFBD00"/>
</svg>
