<svg width="31" height="32" viewBox="0 0 31 32" fill="none" xmlns="http://www.w3.org/2000/svg">
<path d="M26.2303 4.48063C26.2158 4.46058 26.2094 4.43677 26.1923 4.41816C26.1554 4.37806 26.1097 4.35485 26.0663 4.32678C23.2946 1.65172 19.5849 0 15.5 0C11.4156 0 7.70612 1.65142 4.93453 4.32599C4.8907 4.35415 4.84457 4.37772 4.80741 4.41816C4.79009 4.43697 4.78367 4.46103 4.76899 4.48132C1.8357 7.39419 0 11.4766 0 16C0 20.5234 1.8357 24.6058 4.76895 27.5186C4.78362 27.5389 4.79009 27.5631 4.80741 27.5819C4.84284 27.6205 4.88749 27.6414 4.92902 27.6688C7.70118 30.3465 11.4129 32 15.5 32C19.5849 32 23.2947 30.3482 26.0664 27.6732C26.1097 27.6452 26.1555 27.6219 26.1923 27.5819C26.2095 27.5633 26.2159 27.5394 26.2304 27.5193C29.1641 24.6064 31 20.5238 31 16C31 11.4762 29.164 7.39354 26.2303 4.48063ZM22.8584 15.36C22.8131 12.7698 22.5042 10.352 21.9751 8.24012C23.3177 7.6017 24.5713 6.76349 25.7037 5.73816C28.0734 8.24829 29.572 11.6256 29.7286 15.36H22.8584ZM20.4658 7.5075C19.0838 8.03726 17.6214 8.33991 16.12 8.40659V1.35892C17.8885 1.80804 19.4572 4.15828 20.4658 7.5075ZM14.88 1.35892V8.40659C13.3787 8.33991 11.9162 8.03721 10.5342 7.50745C11.5428 4.15823 13.1115 1.80804 14.88 1.35892ZM14.88 9.6866V15.36H9.38123C9.42645 12.9765 9.71777 10.7219 10.1992 8.74107C11.6896 9.30079 13.264 9.62057 14.88 9.6866ZM14.88 16.64V22.3134C13.264 22.3795 11.6896 22.6992 10.1992 23.2589C9.71777 21.2781 9.42645 19.0235 9.38123 16.64H14.88ZM14.88 23.5934V30.6411C13.1115 30.192 11.5428 27.8417 10.5342 24.4926C11.9162 23.9628 13.3787 23.6601 14.88 23.5934ZM16.12 30.6411V23.5934C17.6214 23.6601 19.0838 23.9627 20.4658 24.4925C19.4572 27.8417 17.8885 30.192 16.12 30.6411ZM16.12 22.3134V16.64H21.6188C21.5736 19.0235 21.2822 21.2781 20.8008 23.2589C19.3104 22.6992 17.7361 22.3795 16.12 22.3134ZM16.12 15.36V9.6866C17.7361 9.62057 19.3104 9.30089 20.8008 8.74112C21.2822 10.7219 21.5736 12.9765 21.6188 15.36H16.12ZM24.7937 4.85966C23.8255 5.72153 22.7643 6.43836 21.6306 6.99674C20.9358 4.74586 19.9785 2.93034 18.8514 1.7076C21.0824 2.26544 23.1084 3.35942 24.7937 4.85966ZM9.36943 6.99674C8.23569 6.43836 7.17445 5.72158 6.20615 4.85976C7.89142 3.35947 9.91755 2.26549 12.1486 1.7076C11.0215 2.93034 10.0642 4.74586 9.36943 6.99674ZM5.29621 5.73831C6.42861 6.76359 7.68234 7.6017 9.02487 8.24007C8.49584 10.3519 8.18687 12.7698 8.14165 15.36H1.27137C1.42804 11.6257 2.92662 8.24844 5.29621 5.73831ZM1.27137 16.64H8.14165C8.18687 19.2303 8.49584 21.6481 9.02487 23.7599C7.68238 24.3983 6.42866 25.2365 5.29626 26.2617C2.92662 23.7516 1.42804 20.3744 1.27137 16.64ZM6.2062 27.1402C7.1745 26.2784 8.23569 25.5616 9.36943 25.0033C10.0642 27.2542 11.0215 29.0696 12.1486 30.2924C9.91755 29.7345 7.89147 28.6405 6.2062 27.1402ZM21.6306 25.0033C22.7643 25.5616 23.8255 26.2785 24.7937 27.1403C23.1085 28.6405 21.0824 29.7346 18.8514 30.2924C19.9785 29.0696 20.9358 27.2542 21.6306 25.0033ZM25.7036 26.2618C24.5713 25.2365 23.3177 24.3983 21.9751 23.7599C22.5042 21.648 22.8131 19.2303 22.8584 16.64H29.7286C29.572 20.3744 28.0733 23.7517 25.7036 26.2618Z" fill="#FFA500"/>
</svg>
