<svg width="32" height="32" viewBox="0 0 32 32" fill="none" xmlns="http://www.w3.org/2000/svg">
<path d="M22.0202 31.6412C20.0623 31.6412 18.1484 31.0606 16.5205 29.9729C14.8926 28.8852 13.6238 27.3391 12.8746 25.5303C12.1254 23.7215 11.9293 21.7311 12.3113 19.8109C12.6933 17.8906 13.6361 16.1268 15.0205 14.7423C16.4049 13.3579 18.1687 12.4151 20.089 12.0332C22.0092 11.6512 23.9996 11.8472 25.8084 12.5965C27.6173 13.3457 29.1633 14.6145 30.251 16.2424C31.3387 17.8703 31.9193 19.7842 31.9193 21.7421C31.9166 24.3666 30.8728 26.8829 29.0169 28.7388C27.1611 30.5946 24.6448 31.6385 22.0202 31.6412ZM22.0202 12.5178C20.1952 12.5151 18.4105 13.0538 16.8917 14.0657C15.373 15.0776 14.1886 16.5173 13.4883 18.2026C12.788 19.8878 12.6034 21.7429 12.9577 23.5332C13.3121 25.3234 14.1895 26.9683 15.479 28.2597C16.7685 29.5511 18.4121 30.431 20.2018 30.7881C21.9915 31.1451 23.8469 30.9632 25.5332 30.2655C27.2195 29.5677 28.661 28.3854 29.6751 26.8682C30.6893 25.351 31.2307 23.567 31.2307 21.7421C31.2289 19.2983 30.2584 16.9548 28.532 15.2252C26.8056 13.4956 24.464 12.5208 22.0202 12.5144V12.5178Z" fill="#FFA500"/>
<path d="M21.4108 27.1479C20.6837 27.1468 19.9678 26.9696 19.3242 26.6314C19.2747 26.6176 19.2289 26.593 19.1901 26.5592C19.1514 26.5254 19.1207 26.4834 19.1003 26.4362C19.0799 26.389 19.0704 26.3379 19.0723 26.2865C19.0743 26.2351 19.0878 26.1849 19.1117 26.1394C19.1356 26.0939 19.1694 26.0543 19.2106 26.0236C19.2518 25.9929 19.2994 25.9718 19.3498 25.9618C19.4003 25.9519 19.4523 25.9534 19.5021 25.9662C19.5519 25.979 19.5981 26.0027 19.6375 26.0357C21.1939 26.8552 22.9809 26.5384 23.6144 25.3471C24.0069 24.5965 24.0482 23.5222 23.3596 22.9162C22.8624 22.5713 22.3232 22.2913 21.7551 22.083C21.1194 21.8518 20.5191 21.5331 19.9715 21.1361C18.9765 20.2615 19.0625 18.8361 19.5652 17.8858C20.3744 16.3501 22.5642 15.9059 24.4545 16.8976C24.5041 16.9113 24.5499 16.936 24.5886 16.9698C24.6274 17.0036 24.658 17.0456 24.6784 17.0928C24.6988 17.14 24.7084 17.1911 24.7064 17.2425C24.7044 17.2938 24.691 17.3441 24.6671 17.3896C24.6431 17.4351 24.6093 17.4746 24.5681 17.5054C24.5269 17.5361 24.4793 17.5572 24.4289 17.5671C24.3785 17.5771 24.3265 17.5756 24.2767 17.5628C24.2269 17.55 24.1806 17.5262 24.1412 17.4932C22.5815 16.6738 20.7979 16.9905 20.1609 18.1819C19.7684 18.9325 19.7271 20.0067 20.4191 20.6127C20.9163 20.9577 21.4555 21.2377 22.0237 21.446C22.6592 21.6773 23.2595 21.996 23.8072 22.3929C24.8023 23.2674 24.7162 24.6929 24.2135 25.6432C23.7108 26.5935 22.6228 27.1479 21.4108 27.1479Z" fill="#FFA500"/>
<path d="M21.8308 28.7696C21.7395 28.7696 21.6519 28.7333 21.5873 28.6688C21.5228 28.6042 21.4865 28.5166 21.4865 28.4253V15.052C21.4865 14.9607 21.5228 14.8731 21.5873 14.8086C21.6519 14.744 21.7395 14.7077 21.8308 14.7077C21.9221 14.7077 22.0097 14.744 22.0743 14.8086C22.1388 14.8731 22.1751 14.9607 22.1751 15.052V28.4322C22.1733 28.5223 22.1362 28.6081 22.0719 28.6712C22.0075 28.7343 21.9209 28.7696 21.8308 28.7696Z" fill="#FFA500"/>
<path d="M8.32328 29.2964H1.73305C1.64173 29.2964 1.55415 29.2601 1.48958 29.1956C1.42501 29.131 1.38873 29.0434 1.38873 28.9521V21.4666C1.38873 21.3753 1.42501 21.2877 1.48958 21.2232C1.55415 21.1586 1.64173 21.1223 1.73305 21.1223C1.82437 21.1223 1.91195 21.1586 1.97652 21.2232C2.04109 21.2877 2.07737 21.3753 2.07737 21.4666V28.6215H8.32328C8.4146 28.6215 8.50218 28.6578 8.56675 28.7224C8.63132 28.787 8.66759 28.8745 8.66759 28.9659C8.66759 29.0572 8.63132 29.1448 8.56675 29.2093C8.50218 29.2739 8.4146 29.3102 8.32328 29.3102V29.2964Z" fill="#FFA500"/>
<path d="M6.03697 31.5827C5.96853 31.5792 5.90267 31.5555 5.84782 31.5144C5.79297 31.4733 5.75162 31.4168 5.72906 31.3521C5.70651 31.2874 5.70377 31.2174 5.72121 31.1512C5.73865 31.0849 5.77546 31.0253 5.82694 30.9801L8.39554 28.959L5.82694 26.9378C5.78116 26.915 5.74103 26.8823 5.70947 26.8421C5.67791 26.8019 5.65571 26.7551 5.64447 26.7052C5.63324 26.6553 5.63326 26.6036 5.64453 26.5537C5.6558 26.5038 5.67804 26.4571 5.70964 26.4169C5.74123 26.3767 5.78138 26.344 5.82718 26.3212C5.87298 26.2985 5.92326 26.2862 5.97439 26.2853C6.02552 26.2844 6.07621 26.295 6.12277 26.3161C6.16933 26.3372 6.21059 26.3685 6.24356 26.4076L9.15304 28.6973C9.19203 28.7296 9.22342 28.7701 9.24496 28.8159C9.2665 28.8618 9.27767 28.9118 9.27767 28.9624C9.27767 29.0131 9.2665 29.0631 9.24496 29.1089C9.22342 29.1547 9.19203 29.1952 9.15304 29.2275L6.24701 31.5138C6.18647 31.5592 6.11265 31.5834 6.03697 31.5827Z" fill="#FFA500"/>
<path d="M31.272 11.4091C31.1807 11.4091 31.0931 11.3729 31.0285 11.3083C30.9639 11.2437 30.9277 11.1561 30.9277 11.0648V3.90647H24.6886C24.5973 3.90647 24.5097 3.87019 24.4452 3.80562C24.3806 3.74105 24.3443 3.65347 24.3443 3.56215C24.3443 3.47083 24.3806 3.38325 24.4452 3.31868C24.5097 3.25411 24.5973 3.21783 24.6886 3.21783H31.272C31.3633 3.21783 31.4509 3.25411 31.5155 3.31868C31.58 3.38325 31.6163 3.47083 31.6163 3.56215V11.0717C31.6145 11.1618 31.5774 11.2476 31.5131 11.3107C31.4487 11.3738 31.3621 11.4092 31.272 11.4091Z" fill="#FFA500"/>
<path d="M27.5879 6.20652C27.513 6.20553 27.4404 6.18015 27.3813 6.13422L24.4752 3.84795C24.4362 3.81564 24.4049 3.77513 24.3833 3.7293C24.3618 3.68348 24.3506 3.63346 24.3506 3.58283C24.3506 3.53219 24.3618 3.48218 24.3833 3.43635C24.4049 3.39052 24.4362 3.35001 24.4752 3.3177L27.3813 1.03144C27.4143 0.991508 27.456 0.959563 27.5031 0.937983C27.5503 0.916404 27.6017 0.905748 27.6535 0.906811C27.7053 0.907873 27.7563 0.920627 27.8025 0.944121C27.8487 0.967614 27.889 1.00124 27.9204 1.04249C27.9518 1.08374 27.9735 1.13155 27.9838 1.18235C27.9942 1.23315 27.9929 1.28563 27.9802 1.33588C27.9674 1.38613 27.9434 1.43284 27.9101 1.47253C27.8767 1.51223 27.8348 1.54388 27.7876 1.56513L25.219 3.58627L27.7876 5.60397C27.839 5.6492 27.8759 5.70876 27.8933 5.77503C27.9107 5.8413 27.908 5.91126 27.8854 5.97597C27.8629 6.04067 27.8215 6.09718 27.7667 6.13825C27.7118 6.17932 27.646 6.20309 27.5775 6.20652H27.5879Z" fill="#FFA500"/>
<path d="M10.7748 16.0368C8.41625 16.0368 6.49496 13.7402 6.49496 10.9134C6.49496 8.08651 8.41281 5.78992 10.7748 5.78992C11.3158 5.79809 11.8492 5.91862 12.3412 6.14386C12.8332 6.3691 13.273 6.69412 13.6327 7.09832C13.6751 7.12759 13.7104 7.166 13.7359 7.21073C13.7615 7.25546 13.7767 7.30535 13.7805 7.35674C13.7842 7.40813 13.7764 7.45971 13.7575 7.50766C13.7387 7.55561 13.7093 7.59872 13.6716 7.63381C13.6338 7.66891 13.5887 7.69508 13.5395 7.71041C13.4903 7.72574 13.4383 7.72984 13.3873 7.7224C13.3363 7.71495 13.2877 7.69616 13.2449 7.66741C13.2022 7.63866 13.1664 7.60068 13.1403 7.55626C12.8433 7.21991 12.4797 6.94891 12.0725 6.76044C11.6653 6.57196 11.2234 6.4701 10.7748 6.46134C8.78812 6.46134 7.16983 8.45837 7.16983 10.9099C7.16983 13.3614 8.78812 15.3585 10.7748 15.3585C11.2336 15.3514 11.6856 15.2471 12.1011 15.0524C12.5166 14.8578 12.886 14.5771 13.185 14.2291C13.2494 14.1892 13.3251 14.1715 13.4005 14.179C13.4759 14.1864 13.5467 14.2185 13.602 14.2703C13.6573 14.322 13.694 14.3906 13.7064 14.4653C13.7188 14.5401 13.7062 14.6168 13.6705 14.6836C13.3105 15.1005 12.8664 15.4366 12.3673 15.6698C11.8683 15.903 11.3256 16.0281 10.7748 16.0368Z" fill="#FFA500"/>
<path d="M12.5377 10.2591H5.70296C5.61164 10.2591 5.52406 10.2229 5.45949 10.1583C5.39492 10.0937 5.35864 10.0061 5.35864 9.91481C5.35864 9.82349 5.39492 9.73592 5.45949 9.67134C5.52406 9.60677 5.61164 9.5705 5.70296 9.5705H12.5377C12.629 9.5705 12.7166 9.60677 12.7811 9.67134C12.8457 9.73592 12.882 9.82349 12.882 9.91481C12.882 10.0061 12.8457 10.0937 12.7811 10.1583C12.7166 10.2229 12.629 10.2591 12.5377 10.2591Z" fill="#FFA500"/>
<path d="M12.5377 11.8017H5.70296C5.61164 11.8017 5.52406 11.7654 5.45949 11.7008C5.39492 11.6363 5.35864 11.5487 5.35864 11.4574C5.35864 11.366 5.39492 11.2785 5.45949 11.2139C5.52406 11.1493 5.61164 11.113 5.70296 11.113H12.5377C12.629 11.113 12.7166 11.1493 12.7811 11.2139C12.8457 11.2785 12.882 11.366 12.882 11.4574C12.882 11.5487 12.8457 11.6363 12.7811 11.7008C12.7166 11.7654 12.629 11.8017 12.5377 11.8017Z" fill="#FFA500"/>
<path d="M10.8299 20.8124C8.81188 20.8106 6.84273 20.1914 5.18683 19.038C3.53093 17.8845 2.26756 16.2521 1.56634 14.3598C0.865112 12.4675 0.759608 10.406 1.26399 8.45206C1.76837 6.49808 2.85849 4.7452 4.38798 3.42875C5.91748 2.11229 7.81313 1.2953 9.82042 1.08745C11.8277 0.879602 13.8505 1.29085 15.6173 2.26599C17.3841 3.24112 18.8102 4.73345 19.7043 6.54262C20.5983 8.35179 20.9175 10.3912 20.6188 12.387C20.6036 12.4741 20.5554 12.5521 20.4842 12.6047C20.4131 12.6572 20.3244 12.6804 20.2366 12.6693C20.1495 12.6541 20.0715 12.6059 20.019 12.5347C19.9664 12.4636 19.9432 12.3749 19.9543 12.2871C20.2348 10.4251 19.9386 8.52187 19.1057 6.83309C18.2728 5.14431 16.9429 3.75089 15.2949 2.84004C13.6468 1.92918 11.7595 1.54453 9.8864 1.73775C8.01332 1.93097 6.24425 2.69281 4.81684 3.92092C3.38943 5.14903 2.37207 6.78458 1.90143 8.60784C1.4308 10.4311 1.52944 12.3547 2.1841 14.1203C2.83876 15.8858 4.01807 17.4087 5.56362 18.4844C7.10916 19.5601 8.94688 20.1369 10.8299 20.1376C11.3891 20.1489 11.9481 20.1085 12.4998 20.0171C12.581 20.0143 12.6605 20.0403 12.7243 20.0905C12.7881 20.1407 12.8322 20.2118 12.8487 20.2913C12.8651 20.3708 12.853 20.4536 12.8144 20.525C12.7757 20.5964 12.7131 20.6519 12.6376 20.6816C12.0404 20.7815 11.4352 20.8253 10.8299 20.8124Z" fill="#FFA500"/>
</svg>
