<svg width="29" height="26" viewBox="0 0 29 26" fill="none" xmlns="http://www.w3.org/2000/svg">
<path d="M24.5556 21.7222H13.2222C13.097 21.7222 12.9769 21.7719 12.8883 21.8605C12.7998 21.949 12.75 22.0691 12.75 22.1944C12.75 22.3196 12.7998 22.4397 12.8883 22.5283C12.9769 22.6169 13.097 22.6666 13.2222 22.6666H24.5556C24.6808 22.6666 24.8009 22.6169 24.8895 22.5283C24.978 22.4397 25.0278 22.3196 25.0278 22.1944C25.0278 22.0691 24.978 21.949 24.8895 21.8605C24.8009 21.7719 24.6808 21.7222 24.5556 21.7222Z" fill="#C31162"/>
<path d="M24.5555 19.3611H17.9444C17.8191 19.3611 17.699 19.4108 17.6105 19.4994C17.5219 19.588 17.4722 19.7081 17.4722 19.8333C17.4722 19.9585 17.5219 20.0787 17.6105 20.1672C17.699 20.2558 17.8191 20.3055 17.9444 20.3055H24.5555C24.6807 20.3055 24.8009 20.2558 24.8894 20.1672C24.978 20.0787 25.0277 19.9585 25.0277 19.8333C25.0277 19.7081 24.978 19.588 24.8894 19.4994C24.8009 19.4108 24.6807 19.3611 24.5555 19.3611Z" fill="#C31162"/>
<path d="M10.3888 10.8611H8.49992C8.1242 10.8611 7.76386 11.0103 7.49818 11.276C7.23251 11.5417 7.08325 11.902 7.08325 12.2778V13.2222C7.08325 13.5979 7.23251 13.9583 7.49818 14.2239C7.76386 14.4896 8.1242 14.6389 8.49992 14.6389H10.3888C10.7645 14.6389 11.1249 14.4896 11.3905 14.2239C11.6562 13.9583 11.8055 13.5979 11.8055 13.2222V12.2778C11.8055 11.902 11.6562 11.5417 11.3905 11.276C11.1249 11.0103 10.7645 10.8611 10.3888 10.8611ZM10.861 13.2222C10.861 13.3474 10.8113 13.4675 10.7227 13.5561C10.6342 13.6447 10.514 13.6944 10.3888 13.6944H8.49992C8.37468 13.6944 8.25457 13.6447 8.16601 13.5561C8.07745 13.4675 8.0277 13.3474 8.0277 13.2222V12.2778C8.0277 12.1525 8.07745 12.0324 8.16601 11.9438C8.25457 11.8553 8.37468 11.8055 8.49992 11.8055H10.3888C10.514 11.8055 10.6342 11.8553 10.7227 11.9438C10.8113 12.0324 10.861 12.1525 10.861 12.2778V13.2222Z" fill="#C31162"/>
<path d="M26.4444 8.5H6.61106C6.11009 8.5 5.62965 8.69901 5.27541 9.05324C4.92118 9.40748 4.72217 9.88792 4.72217 10.3889V23.6111C4.72217 24.1121 4.92118 24.5925 5.27541 24.9468C5.62965 25.301 6.11009 25.5 6.61106 25.5H26.4444C26.9454 25.5 27.4258 25.301 27.78 24.9468C28.1343 24.5925 28.3333 24.1121 28.3333 23.6111V10.3889C28.3333 9.88792 28.1343 9.40748 27.78 9.05324C27.4258 8.69901 26.9454 8.5 26.4444 8.5ZM27.3888 23.6111C27.3888 23.8616 27.2893 24.1018 27.1122 24.2789C26.9351 24.4561 26.6949 24.5556 26.4444 24.5556H6.61106C6.36057 24.5556 6.12035 24.4561 5.94323 24.2789C5.76612 24.1018 5.66661 23.8616 5.66661 23.6111V10.3889C5.66661 10.1384 5.76612 9.89818 5.94323 9.72107C6.12035 9.54395 6.36057 9.44444 6.61106 9.44444H26.4444C26.6949 9.44444 26.9351 9.54395 27.1122 9.72107C27.2893 9.89818 27.3888 10.1384 27.3888 10.3889V23.6111Z" fill="#C31162"/>
<path d="M3.30556 16.0556H1.88889C1.63841 16.0556 1.39818 15.9561 1.22107 15.7789C1.04395 15.6018 0.944444 15.3616 0.944444 15.1111V6.61111H22.6667V6.84722C22.6667 6.97246 22.7164 7.09258 22.805 7.18113C22.8935 7.26969 23.0136 7.31944 23.1389 7.31944C23.2641 7.31944 23.3842 7.26969 23.4728 7.18113C23.5614 7.09258 23.6111 6.97246 23.6111 6.84722V1.88889C23.6111 1.38792 23.4121 0.907478 23.0579 0.553243C22.7036 0.199007 22.2232 0 21.7222 0H1.88889C1.38792 0 0.907478 0.199007 0.553243 0.553243C0.199007 0.907478 0 1.38792 0 1.88889V15.1111C0 15.6121 0.199007 16.0925 0.553243 16.4468C0.907478 16.801 1.38792 17 1.88889 17H3.30556C3.4308 17 3.55091 16.9502 3.63947 16.8617C3.72803 16.7731 3.77778 16.653 3.77778 16.5278C3.77778 16.4025 3.72803 16.2824 3.63947 16.1939C3.55091 16.1053 3.4308 16.0556 3.30556 16.0556ZM1.88889 0.944444H21.7222C21.9727 0.944444 22.2129 1.04395 22.39 1.22107C22.5672 1.39818 22.6667 1.63841 22.6667 1.88889V3.30556H0.944444V1.88889C0.944444 1.63841 1.04395 1.39818 1.22107 1.22107C1.39818 1.04395 1.63841 0.944444 1.88889 0.944444Z" fill="#C31162"/>
</svg>
