<svg width="29" height="28" viewBox="0 0 29 28" fill="none" xmlns="http://www.w3.org/2000/svg">
<path d="M15.3768 26.2874H13.8956V27.7712H15.3768V26.2874Z" fill="#FFBD00"/>
<path d="M5.64711 22.0106H4.16586V23.4944H5.64711V22.0106Z" fill="#FFBD00"/>
<path d="M24.7 22.0106H23.2188V23.4944H24.7V22.0106Z" fill="#FFBD00"/>
<path d="M5.64711 3.73914H4.16586V5.22296H5.64711V3.73914Z" fill="#FFBD00"/>
<path d="M24.7 3.73914H23.2188V5.22296H24.7V3.73914Z" fill="#FFBD00"/>
<path d="M1.92949 12.8458H0.448242V14.3296H1.92949V12.8458Z" fill="#FFBD00"/>
<path d="M28.8533 12.8458H27.3721V14.3296H28.8533V12.8458Z" fill="#FFBD00"/>
<path d="M3.14931 6.24134C2.04563 7.92882 1.34858 9.79087 1.08718 11.7984L1.05814 11.973H1.92946L1.9585 11.8275C2.24894 9.87815 2.97504 8.0161 4.07872 6.38681L4.25298 6.15405H3.23644L3.14931 6.24134Z" fill="#FFBD00"/>
<path d="M1.90043 15.3479L1.87139 15.2024H1.02911L1.05816 15.377C1.31955 17.4427 1.98757 19.3338 3.09124 21.0795L3.14933 21.1377H4.16587L3.9916 20.9049C2.88793 19.2465 2.16183 17.3263 1.90043 15.3479Z" fill="#FFBD00"/>
<path d="M27.343 11.8566L27.3721 12.002H28.2434L28.2143 11.8275C27.9239 9.81994 27.2268 7.95789 26.1522 6.27041L26.0941 6.21222H25.0776L25.2518 6.44498C26.3265 8.04517 27.0526 9.90722 27.343 11.8566Z" fill="#FFBD00"/>
<path d="M27.4011 15.2024L27.3721 15.3479C27.1107 17.3263 26.3846 19.2756 25.2809 20.9049L25.1066 21.1668H26.1232L26.1813 21.1086C27.2849 19.392 27.982 17.4718 28.2143 15.4061L28.2434 15.2315L27.4011 15.2024Z" fill="#FFBD00"/>
<path d="M21.6504 2.9536L21.6794 2.9827H23.1316L22.754 2.69175C20.9243 1.29521 18.7169 0.393282 16.4224 0.102337L16.2482 0.0732422V0.946078L16.3934 0.975173C18.2813 1.23702 20.0529 1.8771 21.6504 2.9536Z" fill="#FFBD00"/>
<path d="M6.48945 2.69175L6.11188 2.9827H7.56408L7.59312 2.9536C9.21959 1.8771 10.9913 1.23702 12.9082 0.975173L13.0534 0.946078V0.0732422L12.8791 0.102337C10.5556 0.393282 8.34827 1.29521 6.48945 2.69175Z" fill="#FFBD00"/>
<path d="M21.7956 24.4253C20.1691 25.5018 18.3103 26.2292 16.3644 26.491L16.2191 26.5201V27.393L16.3934 27.3639C18.746 27.0438 20.9824 26.1419 22.8702 24.6872L23.2478 24.3962L21.7956 24.4253Z" fill="#FFBD00"/>
<path d="M7.47688 24.4253L7.41879 24.3962H5.99564L6.37321 24.6872C8.26107 26.1419 10.5265 27.0438 12.8791 27.3639L13.0533 27.393V26.5201L12.9081 26.462C10.9622 26.2001 9.0743 25.4727 7.47688 24.4253Z" fill="#FFBD00"/>
<path d="M17.9909 9.47079C18.078 9.52898 18.1651 9.55808 18.2523 9.55808C18.3104 9.55808 18.3975 9.52898 18.4556 9.49989C18.5427 9.47079 18.6008 9.4126 18.6589 9.32532L19.6754 7.8415C19.7626 7.72512 19.7626 7.60874 19.7626 7.49236C19.7335 7.37599 19.6754 7.25961 19.5592 7.17232C19.414 7.08504 19.2688 7.05595 19.0945 7.11414H19.0655C18.9784 7.14323 18.9203 7.20142 18.8912 7.2887L17.8747 8.77252C17.7876 8.8889 17.7585 9.00528 17.7876 9.12166C17.8166 9.26713 17.9037 9.38351 17.9909 9.47079Z" fill="#FFBD00"/>
<path d="M10.6427 9.35439C10.7008 9.41258 10.7589 9.47077 10.846 9.49987C10.9041 9.52896 10.9622 9.52896 11.0203 9.52896C11.1365 9.52896 11.2236 9.49987 11.3107 9.44168C11.3979 9.35439 11.485 9.23801 11.485 9.12164C11.514 9.00526 11.4559 8.85979 11.3979 8.7725L10.2942 7.34687C10.2361 7.28868 10.178 7.23049 10.0909 7.2014H10.0618C9.91661 7.14321 9.74235 7.1723 9.62617 7.28868C9.53904 7.37596 9.45191 7.49234 9.45191 7.60872C9.42286 7.7251 9.48095 7.87057 9.53904 7.95785L10.6427 9.35439Z" fill="#FFBD00"/>
<path d="M21.5052 13.9223L18.3975 10.5182C18.3103 10.4309 18.1651 10.3727 18.0489 10.3727H11.2236C11.1945 10.3727 11.1945 10.3727 11.1655 10.3727C11.0493 10.3727 10.9331 10.4309 10.846 10.5182L7.76735 13.9223C7.59308 14.0968 7.62213 14.4169 7.79639 14.5915L14.3023 21.1086C14.3894 21.1959 14.5056 21.2541 14.6508 21.2541C14.767 21.2541 14.9122 21.1959 14.9993 21.1086L21.5052 14.5915C21.6794 14.4169 21.6794 14.1259 21.5052 13.9223ZM20.053 13.7768H17.7295L16.5677 11.3329H17.8456L20.053 13.7768ZM16.6839 14.7369L14.6508 19.5375L12.5887 14.7369H16.6839ZM12.6177 13.7768L13.7795 11.3329H15.4931L16.6548 13.7768H12.6177ZM11.514 14.7369L13.1986 18.6356L9.30668 14.7369H11.514ZM12.7048 11.3329L11.5431 13.7768H9.21955L11.4269 11.3329H12.7048ZM19.9658 14.7369L16.0739 18.6356L17.7585 14.7369H19.9658Z" fill="#FFBD00"/>
<path d="M14.6508 9.03437C14.825 9.03437 14.9703 8.94708 15.0574 8.80161C15.1155 8.74342 15.1155 8.65614 15.1155 8.56885L15.1445 6.76499C15.1445 6.64862 15.0864 6.50314 14.9993 6.41586C14.9122 6.32857 14.796 6.27039 14.6508 6.27039C14.5056 6.27039 14.3603 6.35767 14.2442 6.47405L14.2151 6.50314C14.1861 6.56133 14.157 6.64861 14.157 6.7359L14.128 8.53976C14.128 8.65614 14.1861 8.80161 14.2732 8.8889C14.3894 8.97618 14.5056 9.03437 14.6508 9.03437Z" fill="#FFBD00"/>
</svg>
